<svg id="Capa_1" data-name="Capa 1" xmlns="http://www.w3.org/2000/svg" xmlns:xlink="http://www.w3.org/1999/xlink" viewBox="0 0 892.43 878.97"><defs><style>.cls-1{fill:none;}.cls-2{fill:#e30016;fill-rule:evenodd;}.cls-3{clip-path:url(#clip-path);}</style><clipPath id="clip-path" transform="translate(-88.99 -97)"><rect id="SVGID" class="cls-1" x="429.1" y="349.8" width="558.96" height="626.2"/></clipPath></defs><title>icono-banco-nacion</title><path class="cls-2" d="M229.9,144.62C401,49.53,610,106.52,633.43,230.28,661.15,376.5,482.86,588.3,89,718.77c106.45-70.19,180.63-135,231.45-193.82C445.49,380.21,517.61,140.06,229.9,144.62Z" transform="translate(-88.99 -97)"/><g class="cls-3"><path class="cls-2" d="M575.11,401.76c171.16-95.13,380.1-38.07,403.52,85.66,27.72,146.26-150.53,358-544.4,488.55,106.45-70.25,180.59-135,231.44-193.88C790.73,637.35,862.81,397.2,575.11,401.76Z" transform="translate(-88.99 -97)"/></g></svg>