<svg id="Capa_1" data-name="Capa 1" xmlns="http://www.w3.org/2000/svg" viewBox="0 0 1054 1041"><defs><style>.cls-1{fill:#069d32;}.cls-2{fill:#0038a6;}</style></defs><title>icono-interbank</title><path class="cls-1" d="M1068.72,48c0-22.48-1.59-27-9.44-27Q541.74,22.07,24.19,21c-7.85,0-9.46,4.51-9.44,27q.48,491.58,0,983.15c0,25.81,1.77,30.92,10.79,30.87,172.07-1,344.15-.73,516.22-.73,172.52,0,345-.19,517.55.62,7.85,0,9.46-4.52,9.44-27Q1068.24,541.44,1068.72,48Z" transform="translate(-14.72 -21)"/><text x="-14.72" y="-21"/><path class="cls-2" d="M790.34,231c-146.27,1.75-292.58.64-438.87.75-84.15.06-109.15,22-110.18,106.46-1.81,148,.26,295.95-1.2,443.91-.33,32.76,13,39,42,38.46,79-1.55,158.05-.53,237.08-.54,74,0,148,.18,222-.07,71.78-.25,100.32-28.24,100.61-101,.59-146.29-1.43-292.61,1.21-438.86C843.74,237.7,827.62,230.57,790.34,231Zm-88.73,151.5c-1.57,79-1,158.07-.19,237.1.23,22.9-3.55,37.07-30.71,41.54-84.38,13.89-168.34,30.38-252.39,46.28-29.26,5.54-39-6.2-37.78-35,1.77-40.28.45-80.7.44-121.06,0-38.67,1.89-77.48-.64-116-1.95-29.66,9.71-42.73,37.74-47.43q121.59-20.4,242.84-42.82C692.78,339.21,702.23,351.49,701.61,382.52Z" transform="translate(-14.72 -21)"/></svg>