<svg id="Capa_1" data-name="Capa 1" xmlns="http://www.w3.org/2000/svg" viewBox="0 0 1057 1057"><defs><style>.cls-1{fill:#fff;}.cls-2{fill:#ea740b;}.cls-3{fill:#00498b;}</style></defs><title>icono-bcp</title><rect class="cls-1" width="1057" height="1057"/><path class="cls-2" d="M553.35,193.18c43.92,19.87,82.15,48.59,119.72,78.11,52.61,41.33,98.51,89.48,138.75,142.78,49.14,65.09,50.79,150.28,5.26,219.05-37.91,57.27-87.63,103.33-140.58,146.15-55.45,44.84-113.18,86.23-176.19,120.18-93.07,50.15-185.23,28.78-247.06-62.27-20.78-30.61-20.42-28.77,11.8-44.9,111.89-56,211.44-127.15,279.67-235.21,11.31-17.91,21.91-36.27,27.85-56.86-1-12.9,5.81-23.79,9.37-35.47,17.23-56.59,22.82-114,12.56-172.52-5.4-30.84-15.69-59.6-35.65-84.31C555.44,203.68,551.71,199.38,553.35,193.18Z" transform="translate(-13 -11)"/><path class="cls-3" d="M553.35,193.18c35.47,37.52,45.7,83.29,50.25,133.54,5.25,58-6.05,111.76-25.72,165-1.13,3.06-3.51,5.67-5.31,8.49-64.2-65.91-137.15-119.52-220.66-158.7C328,330.3,328.64,329.34,341,306c27.7-52.23,64.12-96.1,118.9-121.5C492.3,169.48,524.19,169.09,553.35,193.18Z" transform="translate(-13 -11)"/></svg>