<svg id="Capa_1" data-name="Capa 1" xmlns="http://www.w3.org/2000/svg" viewBox="0 0 1058.91 1059"><defs><style>.cls-1{fill:#00549e;}.cls-2{fill:#fefefe;}.cls-3{fill:#fcfdfd;}</style></defs><title>icono-caja-piura</title><path class="cls-1" d="M1070.39,539.61q0,259.92.19,519.83c0,7-1.25,8.52-8.41,8.52q-520.88-.35-1041.74,0c-8,0-8.73-2.38-8.72-9.24q.25-520.35,0-1040.71c0-7.33,1.35-9,8.93-9q520.35.36,1040.7,0c8.23,0,9.27,2.39,9.26,9.74Q1070.23,279.17,1070.39,539.61Z" transform="translate(-11.67 -9)"/><path class="cls-2" d="M530.94,368.26c-49.86.25-89.81-38.8-90.26-88.23-.46-50.48,39.85-91.45,89.84-91.31,48.76.14,89.61,41,89.7,89.8C620.31,327.68,580.18,368,530.94,368.26Z" transform="translate(-11.67 -9)"/><path class="cls-3" d="M530.68,811q132.24,0,264.47-.1c10.64,0,18.61-.7,18.42,14.86-.18,14.8-6.78,15.44-18.18,15.43q-262.33-.36-524.69,0c-11.83,0-19.84-.16-19.72-16.32.12-16.5,9.8-13.84,19.49-13.84Z" transform="translate(-11.67 -9)"/><path class="cls-2" d="M838.58,500.79c-.34-69-51.13-122.62-120.1-123.29q-190.85-1.85-381.72,0c-56.82.44-108.21,43.34-112.69,97.18-6.13,73.63-6.63,147.93.09,221.47,5.6,61.3,71.71,104.36,118.63,94.73-28-37.31-17.62-80.41-19.38-121.67-.47-11,8.13-9.67,15.08-9.67q191.92-.07,383.86-.16c9.27,0,14.93,1.71,14.3,12.74-2.33,40.48,8.52,82.8-19.34,119.73,62.2,5.35,119.35-46.5,120.83-109.76C839.55,621.66,838.87,561.21,838.58,500.79ZM716.15,570.91c-61.78-.69-123.57-.29-185.36-.29-63.2,0-126.41-.34-189.61.27-13.65.14-18.23-3.37-18.3-17.79-.31-64.28,34.72-101,98.94-101.25q107.58-.42,215.18,0c65.71.18,99.34,34.74,100,99.7C737.22,568.67,730.94,571.08,716.15,570.91Z" transform="translate(-11.67 -9)"/></svg>