<svg id="Capa_1" data-name="Capa 1" xmlns="http://www.w3.org/2000/svg" xmlns:xlink="http://www.w3.org/1999/xlink" viewBox="0 0 1391.02 741.58"><defs><style>.cls-1{fill:none;}.cls-2{fill:#e30016;fill-rule:evenodd;}.cls-3{clip-path:url(#clip-path);}</style><clipPath id="clip-path" transform="translate(-56.46 -195.78)"><rect id="SVGID" class="cls-1" x="343.41" y="409.06" width="471.59" height="528.33"/></clipPath></defs><title>logo-banco-nacion</title><path class="cls-2" d="M175.34,236C319.73,155.73,496,203.81,515.8,308.23c23.38,123.37-127,302.06-459.34,412.13,89.81-59.21,152.39-113.89,195.27-163.52C357.24,434.72,418.08,232.11,175.34,236Z" transform="translate(-56.46 -195.78)"/><g class="cls-3"><path class="cls-2" d="M466.59,452.9C611,372.65,787.29,420.78,807,525.17c23.39,123.4-127,302.06-459.31,412.19C437.54,878.09,500.1,823.44,543,773.78,648.51,651.67,709.33,449.06,466.59,452.9Z" transform="translate(-56.46 -195.78)"/></g><path d="M875.64,380c7.81-1.65,20.15-2.88,32.7-2.88,17.9,0,29.42,3.08,38.06,10.08,7.2,5.34,11.52,13.57,11.52,24.47,0,13.38-8.85,25.1-23.45,30.45v.41c13.16,3.29,28.59,14.19,28.59,34.76A37.32,37.32,0,0,1,951.33,505c-9.66,8.85-25.3,13-47.92,13a209.76,209.76,0,0,1-27.77-1.64Zm17.89,56.77h16.25c18.93,0,30-9.87,30-23.24,0-16.25-12.35-22.63-30.45-22.63-8.23,0-13,.62-15.84,1.23Zm0,66.44a95.16,95.16,0,0,0,15,.83c18.51,0,35.59-6.79,35.59-26.95,0-18.93-16.26-26.74-35.8-26.74H893.53Z" transform="translate(-56.46 -195.78)"/><path d="M1041.63,516.75l-1.43-12.55h-.62C1034,512,1023.33,519,1009.13,519c-20.16,0-30.44-14.19-30.44-28.59,0-24.07,21.39-37.23,59.86-37v-2.05c0-8.23-2.26-23-22.63-23A49.69,49.69,0,0,0,990,435.7l-4.11-11.93c8.23-5.35,20.16-8.84,32.71-8.84,30.44,0,37.85,20.77,37.85,40.73v37.23a140.64,140.64,0,0,0,1.64,23.86ZM1039,465.94c-19.75-.41-42.17,3.09-42.17,22.42,0,11.73,7.82,17.28,17.08,17.28,12.95,0,21.18-8.23,24.06-16.66a18.81,18.81,0,0,0,1-5.76Z" transform="translate(-56.46 -195.78)"/><path d="M1085.65,444.14c0-10.29-.2-18.72-.82-26.95h16l1,16.46h.41c4.94-9.47,16.46-18.72,32.92-18.72,13.78,0,35.17,8.22,35.17,42.37v59.45h-18.1V459.36c0-16.05-6-29.42-23-29.42-11.93,0-21.19,8.44-24.27,18.52a26,26,0,0,0-1.24,8.43v59.86h-18.1Z" transform="translate(-56.46 -195.78)"/><path d="M1270.78,513.05c-4.73,2.47-15.22,5.76-28.59,5.76-30,0-49.58-20.37-49.58-50.81,0-30.65,21-52.87,53.49-52.87,10.69,0,20.16,2.68,25.09,5.14l-4.11,14c-4.32-2.47-11.11-4.73-21-4.73-22.84,0-35.18,16.87-35.18,37.64,0,23,14.81,37.24,34.56,37.24a51.53,51.53,0,0,0,22.22-4.94Z" transform="translate(-56.46 -195.78)"/><path d="M1380.83,466.15c0,36.82-25.51,52.86-49.57,52.86-27,0-47.73-19.75-47.73-51.22,0-33.32,21.81-52.86,49.37-52.86C1361.49,414.93,1380.83,435.7,1380.83,466.15Zm-79,1c0,21.81,12.55,38.27,30.24,38.27,17.28,0,30.24-16.25,30.24-38.68,0-16.86-8.44-38.26-29.83-38.26S1301.84,448.25,1301.84,467.17Z" transform="translate(-56.46 -195.78)"/><path d="M926.78,580.07v79.56c0,5.85.14,12.51.54,17H916.58L916,665.21h-.28c-3.67,7.34-11.69,12.92-22.44,12.92-15.91,0-28.15-13.47-28.15-33.46-.13-21.9,13.47-35.36,29.51-35.36,10.07,0,16.87,4.76,19.86,10.06h.27v-39.3Zm-12,57.53a21,21,0,0,0-.54-5A17.61,17.61,0,0,0,897,618.69c-12.38,0-19.73,10.88-19.73,25.44,0,13.32,6.53,24.34,19.45,24.34,8,0,15.37-5.3,17.55-14.28a20.67,20.67,0,0,0,.54-5.17Z" transform="translate(-56.46 -195.78)"/><path d="M953.3,645.89c.27,16.19,10.61,22.85,22.58,22.85,8.56,0,13.73-1.49,18.22-3.4l2,8.57c-4.22,1.9-11.42,4.08-21.9,4.08-20.26,0-32.36-13.33-32.36-33.18s11.69-35.5,30.87-35.5c21.49,0,27.2,18.9,27.2,31a44.06,44.06,0,0,1-.41,5.57Zm35.09-8.56c.13-7.62-3.13-19.45-16.59-19.45-12.11,0-17.41,11.15-18.36,19.45Z" transform="translate(-56.46 -195.78)"/><path d="M1043.6,580.07h12v96.56h-12Z" transform="translate(-56.46 -195.78)"/><path d="M1112.15,676.63l-1-8.3h-.41a24.52,24.52,0,0,1-20.13,9.8c-13.33,0-20.13-9.39-20.13-18.91,0-15.91,14.15-24.61,39.58-24.48v-1.36c0-5.44-1.5-15.23-15-15.23A32.81,32.81,0,0,0,1078,623l-2.72-7.88c5.44-3.54,13.33-5.85,21.63-5.85,20.12,0,25,13.73,25,26.93v24.61a92.26,92.26,0,0,0,1.09,15.78ZM1110.38,643c-13.06-.27-27.88,2-27.88,14.82,0,7.75,5.17,11.43,11.29,11.43a16.38,16.38,0,0,0,15.91-11,12.39,12.39,0,0,0,.68-3.81Z" transform="translate(-56.46 -195.78)"/><path d="M875.64,885V746.32h19.54l44.43,70.15a391.52,391.52,0,0,1,24.89,45l.41-.2c-1.64-18.51-2.06-35.38-2.06-57v-58h16.87V885h-18.1l-44-70.35c-9.67-15.42-18.93-31.26-25.92-46.28l-.62.21c1,17.48,1.44,34.14,1.44,57.18V885Z" transform="translate(-56.46 -195.78)"/><path d="M1065.5,885l-1.44-12.54h-.62c-5.56,7.81-16.25,14.81-30.45,14.81-20.16,0-30.44-14.2-30.44-28.6,0-24.06,21.39-37.23,59.86-37v-2.06c0-8.23-2.26-23-22.63-23a49.61,49.61,0,0,0-25.92,7.41L1009.75,792c8.23-5.35,20.16-8.85,32.71-8.85,30.44,0,37.85,20.78,37.85,40.73V861.1A140.57,140.57,0,0,0,1082,885Zm-2.68-50.8c-19.75-.41-42.17,3.08-42.17,22.42,0,11.72,7.82,17.28,17.08,17.28,13,0,21.18-8.23,24.06-16.66a18.86,18.86,0,0,0,1-5.76Z" transform="translate(-56.46 -195.78)"/><path d="M1180.48,881.26c-4.73,2.47-15.22,5.76-28.59,5.76-30,0-49.58-20.36-49.58-50.81,0-30.65,21-52.86,53.49-52.86,10.69,0,20.16,2.67,25.09,5.14l-4.11,14c-4.32-2.47-11.11-4.73-21-4.73-22.84,0-35.18,16.86-35.18,37.64,0,23,14.81,37.23,34.56,37.23a51.46,51.46,0,0,0,22.21-4.93Z" transform="translate(-56.46 -195.78)"/><path d="M1221.82,757.43c.21,6.17-4.32,11.11-11.52,11.11a10.77,10.77,0,0,1-10.9-11.11,11,11,0,0,1,11.32-11.31C1217.5,746.12,1221.82,751.05,1221.82,757.43ZM1201.67,885V785.4h18.1V885Z" transform="translate(-56.46 -195.78)"/><path d="M1339.89,834.36c0,36.82-25.5,52.87-49.57,52.87-27,0-47.72-19.75-47.72-51.22,0-33.33,21.8-52.87,49.37-52.87C1320.56,783.14,1339.89,803.92,1339.89,834.36Zm-79,1c0,21.81,12.55,38.26,30.24,38.26,17.28,0,30.24-16.25,30.24-38.67,0-16.87-8.43-38.26-29.83-38.26S1260.9,816.47,1260.9,835.39Zm57.4-93-25.1,29.42h-13l18.1-29.42Z" transform="translate(-56.46 -195.78)"/><path d="M1362.72,812.35c0-10.28-.2-18.72-.82-27h16l1,16.46h.42c4.93-9.46,16.45-18.72,32.91-18.72,13.78,0,35.17,8.23,35.17,42.38V885h-18.1V827.57c0-16-6-29.41-23-29.41-11.93,0-21.18,8.43-24.27,18.51a26.12,26.12,0,0,0-1.23,8.44V885h-18.11Z" transform="translate(-56.46 -195.78)"/></svg>