<svg id="Capa_1" data-name="Capa 1" xmlns="http://www.w3.org/2000/svg" viewBox="0 0 1027.56 1027.5"><defs><style>.cls-1{fill:#ee3224;}</style></defs><title>logo-scotiabank</title><path class="cls-1" d="M841.2,540.15C844.77,715.83,686,848.48,553.28,848.48h-328l-205.8,205H549.71c169.28,0,331.67-152.29,331.67-334.1,0-53.4-6.45-122.95-40.16-175.68v-3.57ZM784.92,669.57c20.46-36.56,30.51-76.74,33-115.83H669.08c0,36.24-6,75.68-19.66,115.83Zm-145.2,23c-16.89,43-57,98.89-96.06,129.4,75.59,0,162-33,225.16-129.4Zm-16.89-23c13.29-36.56,19.37-76.74,23-115.83H420.63c3.6,39.09,9.67,79.27,22.94,115.83Zm-205,0c-13.26-40.15-20.46-79.56-20.46-115.83H248.57c3.57,39.09,13.27,79.27,32.94,115.83ZM533.58,798.65C563,772.08,596,729.1,612.81,692.54H453.62c16.89,36.56,49.85,79.54,80,106.11ZM294.8,692.54c66,96.41,152.34,129.4,229.11,129.4-40.21-30.54-82.81-86.41-96.49-129.4Zm354.62-277.9c13.61,35.5,19.66,75.66,19.66,115.78H817.91c-2.48-40.13-12.55-80.28-33-115.78Zm119.4-26.91c-63.15-92.49-149.54-129-225.16-129,39,29.42,79.17,85.35,96.06,129.05ZM443.57,414.64c-13.27,35.5-19.34,75.66-22.94,115.78H645.8c-3.6-40.13-9.7-80.28-23-115.78Zm-162,0c-19.66,35.5-29.39,75.66-32.93,115.78H397.37c0-40.13,7.19-80.28,20.46-115.78ZM533.58,284.47c-30.11,26.57-63.07,66.7-79.94,103.26H612.83C596,351.17,563,311,533.58,284.47ZM427.45,387.73c13.67-43.73,56.28-99.66,96.49-129-76.77,0-163.18,36.56-229.11,129.05ZM225.26,536.53c-33-52.34-40.19-121.89-40.19-175.31C185.07,179.41,347.51,26,516.69,26H1047L841.2,233.55H513.15c-131.9,0-291.52,133.77-287.89,303Z" transform="translate(-19.46 -26)"/></svg>