<svg id="Capa_1" data-name="Capa 1" xmlns="http://www.w3.org/2000/svg" viewBox="0 0 1054 1054"><defs><style>.cls-1{fill:#fff;}.cls-2{fill:#069d32;}.cls-3{fill:#0038a6;}</style></defs><title>logo-interbank</title><rect class="cls-1" width="1054" height="1054"/><path class="cls-2" d="M1067.72,276.08c0-12-1.59-14.38-9.44-14.38q-517.54.57-1035.09,0c-7.85,0-9.46,2.41-9.44,14.38q.48,261.89,0,523.77c0,13.75,1.77,16.47,10.79,16.45q258.11-.79,516.22-.39,258.78,0,517.55.33c7.85,0,9.46-2.41,9.44-14.38Q1067.24,539,1067.72,276.08Z" transform="translate(-13.72 -12)"/><text x="-13.72" y="-12"/><path class="cls-3" d="M423.3,356.19c-90.7,1.09-181.43.4-272.14.47-52.18,0-67.69,13.67-68.33,66-1.12,91.74.16,183.51-.74,275.26-.2,20.32,8.07,24.21,26.06,23.86,49-1,98-.33,147-.34,45.88,0,91.76.11,137.64,0,44.51-.16,62.21-17.51,62.39-62.62.36-90.71-.89-181.45.75-272.13C456.42,360.34,446.42,355.92,423.3,356.19Zm-55,93.95c-1,49-.62,98-.12,147,.14,14.19-2.2,23-19,25.76-52.33,8.61-104.39,18.83-156.51,28.7-18.15,3.43-24.21-3.85-23.43-21.73,1.1-25,.28-50,.27-75.06,0-24,1.18-48.05-.39-71.93-1.21-18.4,6-26.5,23.4-29.42q75.41-12.64,150.59-26.55C362.81,423.29,368.66,430.9,368.28,450.14Z" transform="translate(-13.72 -12)"/><path class="cls-1" d="M503.6,507.13a13.55,13.55,0,0,1-1.09,5.38,12.67,12.67,0,0,1-3,4.35,15.76,15.76,0,0,1-4.42,2.88,13.51,13.51,0,0,1-5.44,1.08,13.7,13.7,0,0,1-5.37-1.08,14.39,14.39,0,0,1-4.41-2.88,13.13,13.13,0,0,1-2.95-4.35,13.71,13.71,0,0,1-1.08-5.38V370.75a13.5,13.5,0,0,1,1.08-5.43,13.89,13.89,0,0,1,2.95-4.35,12.78,12.78,0,0,1,4.41-2.88,14.41,14.41,0,0,1,5.37-1,14.21,14.21,0,0,1,5.44,1,13.84,13.84,0,0,1,4.42,2.88,13.43,13.43,0,0,1,4.09,9.78Z" transform="translate(-13.72 -12)"/><path class="cls-1" d="M644.84,507.39a13.42,13.42,0,0,1-1.09,5.44,14.47,14.47,0,0,1-2.88,4.35,12.48,12.48,0,0,1-4.28,2.88,13.94,13.94,0,0,1-5.31,1,14.88,14.88,0,0,1-5.44-1,13.59,13.59,0,0,1-4.54-2.88,14.46,14.46,0,0,1-3.07-4.35,12.82,12.82,0,0,1-1.15-5.44V459.8a7.32,7.32,0,0,1,.12-1.54,33.9,33.9,0,0,0-2.55-11.77,30.87,30.87,0,0,0-6.27-9.59,29.62,29.62,0,0,0-9.28-6.46,28.4,28.4,0,0,0-11.71-2.37,30.09,30.09,0,0,0-12,2.37A27.26,27.26,0,0,0,566,437a31.33,31.33,0,0,0-6.15,9.91,33.16,33.16,0,0,0-2.23,12.22v48.23a14.28,14.28,0,0,1-1,5.44,13.11,13.11,0,0,1-2.88,4.35,13.29,13.29,0,0,1-4.28,2.88,13.76,13.76,0,0,1-5.38,1,14.44,14.44,0,0,1-9.91-3.9,14,14,0,0,1-3.14-4.35,13,13,0,0,1-1.15-5.44V459.16a59.45,59.45,0,0,1,16.57-41.65,56.91,56.91,0,0,1,18.3-12.6,56.93,56.93,0,0,1,63.65,12.6,59.68,59.68,0,0,1,16.5,41.65Z" transform="translate(-13.72 -12)"/><path class="cls-1" d="M695.75,401.84h44.53a14,14,0,0,1,5.5,1.09,14,14,0,0,1,7.48,7.48,13.86,13.86,0,0,1,1.09,5.51,13,13,0,0,1-1.09,5.3,13.38,13.38,0,0,1-3,4.35,14.72,14.72,0,0,1-4.48,2.95,14,14,0,0,1-5.5,1.08H695.75V462a31.17,31.17,0,0,0,2.63,12.73A33.23,33.23,0,0,0,729,494.6a36.2,36.2,0,0,0,11.38-1.73,27.71,27.71,0,0,0,9.73-5.69,20,20,0,0,1,4.86-3.39,12.37,12.37,0,0,1,14.2,2.11,11.2,11.2,0,0,1,3.26,4.86,14.89,14.89,0,0,1,.77,5.82,16.59,16.59,0,0,1-1.47,5.82,15.8,15.8,0,0,1-3.58,5,51.13,51.13,0,0,1-17.66,11.19,62.4,62.4,0,0,1-45.22-1A62.36,62.36,0,0,1,685.9,504.7a60.42,60.42,0,0,1-13.11-19.25,59,59,0,0,1-4.8-23.73V379.58a13.38,13.38,0,0,1,1.15-5.5,14.94,14.94,0,0,1,3.07-4.48,13.88,13.88,0,0,1,4.48-3,13.53,13.53,0,0,1,5.37-1.09,13,13,0,0,1,5.31,1.09,13.23,13.23,0,0,1,4.35,3,14.6,14.6,0,0,1,2.95,4.48,14,14,0,0,1,1.08,5.5Z" transform="translate(-13.72 -12)"/><path class="cls-1" d="M812.81,473.74a30.62,30.62,0,0,0,4.68,8.64,30.94,30.94,0,0,0,7,6.65,31.33,31.33,0,0,0,8.7,4.22,33.42,33.42,0,0,0,10,1.47q13.17,0,20.72-6.9a20.28,20.28,0,0,1,5-2.63,14.38,14.38,0,0,1,4.61-.83,11.32,11.32,0,0,1,6.39,1.86,15,15,0,0,1,4.61,4.79,15.26,15.26,0,0,1,1.86,4.42,13.13,13.13,0,0,1,.25,4.8A14.47,14.47,0,0,1,885,505a13.29,13.29,0,0,1-3.65,4.29,51.53,51.53,0,0,1-6.4,4.92,42.39,42.39,0,0,1-8.25,4.16,59.18,59.18,0,0,1-10.49,2.88,72.18,72.18,0,0,1-13.11,1.09,59.44,59.44,0,0,1-23.8-4.8,62,62,0,0,1-19.45-13.11,63.11,63.11,0,0,1-13.17-19.38,60.42,60.42,0,0,1,0-47.53,61.52,61.52,0,0,1,32.62-32.44,61.38,61.38,0,0,1,47.4-.06,63.63,63.63,0,0,1,19.45,12.86A61.19,61.19,0,0,1,899.49,437a58.39,58.39,0,0,1,5.06,23.54,12.65,12.65,0,0,1-3.78,9.53,13.65,13.65,0,0,1-9.91,3.64Zm63.21-23a29.14,29.14,0,0,0-4.42-9.46,29.49,29.49,0,0,0-7.23-7.17,32.48,32.48,0,0,0-9.46-4.48,39.59,39.59,0,0,0-11.13-1.53,37.18,37.18,0,0,0-11.07,1.6,32,32,0,0,0-9.34,4.6,30.78,30.78,0,0,0-7.1,7.17,29.46,29.46,0,0,0-4.35,9.27Z" transform="translate(-13.72 -12)"/><path class="cls-1" d="M948.56,507.13a14.23,14.23,0,0,1-1,5.38,12.26,12.26,0,0,1-2.88,4.35,14.91,14.91,0,0,1-4.28,2.88,12.78,12.78,0,0,1-5.25,1.08,14.46,14.46,0,0,1-5.56-1.08,15.16,15.16,0,0,1-4.54-2.88,13.27,13.27,0,0,1-3.07-4.35,13,13,0,0,1-1.16-5.38V465.81A61.66,61.66,0,0,1,925.85,441a64.68,64.68,0,0,1,34.09-34.09,61.37,61.37,0,0,1,24.7-5.06h.25q6.92,0,10.68,3.9a13.69,13.69,0,0,1,3.78,9.92,13.35,13.35,0,0,1-1.15,5.5,13.58,13.58,0,0,1-3.14,4.41,15.29,15.29,0,0,1-4.6,2.95,14.51,14.51,0,0,1-5.57,1.08h-.25a35,35,0,0,0-13.89,2.82,36,36,0,0,0-11.45,7.68,38,38,0,0,0-7.8,11.38,33.56,33.56,0,0,0-2.94,13.95Z" transform="translate(-13.72 -12)"/><path class="cls-1" d="M473.86,573.79a14.27,14.27,0,0,1,1.05-5.51,14.66,14.66,0,0,1,2.85-4.46,12.34,12.34,0,0,1,4.27-3,14.08,14.08,0,0,1,10.72,0,12.59,12.59,0,0,1,4.21,3,13.93,13.93,0,0,1,2.78,4.46,15,15,0,0,1,1,5.51v38.64a61.72,61.72,0,0,1,15.17-7.12,58.79,58.79,0,0,1,40,2.11,59.13,59.13,0,0,1,31.33,31.4,59.08,59.08,0,0,1,0,45.95,60.44,60.44,0,0,1-12.63,18.83,59.52,59.52,0,0,1-18.7,12.69,59,59,0,0,1-45.9,0,59.47,59.47,0,0,1-31.52-31.52,57.35,57.35,0,0,1-4.64-22.91Zm26.88,88.07a31.1,31.1,0,0,0,2.53,12.44,32.73,32.73,0,0,0,17.16,17.22,32.08,32.08,0,0,0,25,0,33,33,0,0,0,10.22-6.94A32.13,32.13,0,0,0,565,661.86a32.16,32.16,0,0,0-2.48-12.58,31.18,31.18,0,0,0-6.87-10.22,33.71,33.71,0,0,0-10.22-6.87,32.08,32.08,0,0,0-25,0,33.59,33.59,0,0,0-10.22,6.87,32.17,32.17,0,0,0-6.94,10.22A31.49,31.49,0,0,0,500.74,661.86Z" transform="translate(-13.72 -12)"/><path class="cls-1" d="M602.79,661.86a56.45,56.45,0,0,1,4.71-23,61,61,0,0,1,12.76-18.77A60.07,60.07,0,0,1,639,607.42a56.81,56.81,0,0,1,22.86-4.65,57.48,57.48,0,0,1,23,4.65,58.94,58.94,0,0,1,31.34,31.46,57.71,57.71,0,0,1,4.58,23V705.7a13.49,13.49,0,0,1-4,9.66,14.31,14.31,0,0,1-4.4,3,13.29,13.29,0,0,1-5.38,1.11,12.19,12.19,0,0,1-8.18-2.85,13.65,13.65,0,0,1-4.46-7.18,60.54,60.54,0,0,1-15.29,8.42,48.87,48.87,0,0,1-17.28,3.1A56.81,56.81,0,0,1,639,716.29a60,60,0,0,1-31.52-31.52A56.56,56.56,0,0,1,602.79,661.86Zm26.88,0a31.1,31.1,0,0,0,2.54,12.44,32.73,32.73,0,0,0,17.16,17.22,31,31,0,0,0,12.51,2.54,31.41,31.41,0,0,0,12.57-2.54,32.5,32.5,0,0,0,17-42.24,31.66,31.66,0,0,0-6.81-10.22,32.65,32.65,0,0,0-10.22-6.87,32.08,32.08,0,0,0-25,0,33.39,33.39,0,0,0-10.28,6.87,32,32,0,0,0-6.94,10.22A31.5,31.5,0,0,0,629.67,661.86Z" transform="translate(-13.72 -12)"/><path class="cls-1" d="M854.73,706.44a12.92,12.92,0,0,1-1.06,5.27,14.22,14.22,0,0,1-2.78,4.21,12.05,12.05,0,0,1-4.15,2.79,13.44,13.44,0,0,1-5.14,1,14.41,14.41,0,0,1-5.27-1,13.07,13.07,0,0,1-4.39-2.79,14,14,0,0,1-3-4.21,12.48,12.48,0,0,1-1.11-5.27V660.37a6.85,6.85,0,0,1,.12-1.49,32.74,32.74,0,0,0-2.47-11.39,29.72,29.72,0,0,0-6.07-9.29,28.74,28.74,0,0,0-9-6.26,27.68,27.68,0,0,0-11.34-2.29,29.27,29.27,0,0,0-11.64,2.29,26.59,26.59,0,0,0-9.1,6.38,30.53,30.53,0,0,0-6,9.6,32.17,32.17,0,0,0-2.17,11.83v46.69a13.77,13.77,0,0,1-1,5.27,12.79,12.79,0,0,1-6.93,7,13.31,13.31,0,0,1-5.2,1,14,14,0,0,1-9.6-3.78,13.23,13.23,0,0,1-3-4.21,12.48,12.48,0,0,1-1.11-5.27V659.75a57.58,57.58,0,0,1,4.27-22.23,57,57,0,0,1,11.77-18.09,54.88,54.88,0,0,1,39.69-16.66,54.33,54.33,0,0,1,39.64,16.66,57.9,57.9,0,0,1,16,40.32Z" transform="translate(-13.72 -12)"/><path class="cls-1" d="M935.11,656.53l38,40.5a12.08,12.08,0,0,1,2.79,4.34,14.3,14.3,0,0,1,.93,5.07,13.55,13.55,0,0,1-1,5.08,12.29,12.29,0,0,1-3.1,4.46,13.14,13.14,0,0,1-9.29,3.72,12.7,12.7,0,0,1-5.07-1.06,11.94,11.94,0,0,1-4.34-3.15l-37.65-41.25-10.9,10.41v21.67a12.75,12.75,0,0,1-1.06,5.14,12.92,12.92,0,0,1-2.84,4.15,14.42,14.42,0,0,1-4.15,2.79,12.35,12.35,0,0,1-5.08,1.05,13.25,13.25,0,0,1-5.21-1.05,14.64,14.64,0,0,1-4.33-2.79,13.11,13.11,0,0,1-3-4.15,12,12,0,0,1-1.12-5.14V572.92a12,12,0,0,1,1.12-5.14,13.11,13.11,0,0,1,3-4.15,14.81,14.81,0,0,1,4.33-2.78,13.09,13.09,0,0,1,5.21-1.06,12.88,12.88,0,0,1,5.26,1.06,13.43,13.43,0,0,1,4.15,2.78,13.29,13.29,0,0,1,2.79,4.15,12.77,12.77,0,0,1,1,5.14v76.42L947.87,608a12,12,0,0,1,4.08-2.72,12.55,12.55,0,0,1,4.59-.87,13,13,0,0,1,5,1.06,13.42,13.42,0,0,1,4.65,3.28,14.22,14.22,0,0,1,2.85,4.4,12.16,12.16,0,0,1,.93,5,14,14,0,0,1-1.06,4.95,12.15,12.15,0,0,1-3,4.28Z" transform="translate(-13.72 -12)"/></svg>