<svg id="Capa_1" data-name="Capa 1" xmlns="http://www.w3.org/2000/svg" viewBox="0 0 1058.91 1059"><defs><style>.cls-1{fill:#00549e;}.cls-2{fill:#fefefe;}.cls-3{fill:#fdfdfe;}.cls-4{fill:#fcfdfd;}.cls-5{fill:#fcfcfd;}.cls-6{fill:#00549f;}.cls-7{fill:#03559f;}.cls-8{fill:#01549f;}.cls-9{fill:#03569f;}.cls-10{fill:#02559f;}</style></defs><title>logo-caja-piura</title><path class="cls-1" d="M1069.39,540.61q0,259.92.19,519.83c0,7-1.25,8.52-8.41,8.52q-520.88-.35-1041.74,0c-8,0-8.73-2.38-8.72-9.24q.25-520.35,0-1040.71c0-7.33,1.35-9,8.93-9q520.35.36,1040.7,0c8.23,0,9.27,2.39,9.26,9.74Q1069.23,280.17,1069.39,540.61Z" transform="translate(-10.67 -10)"/><path class="cls-2" d="M384.5,674.58c13.5-17.89,8.24-38.39,9.37-58,.31-5.35-2.43-6.18-6.93-6.17q-93,.12-186,.07c-3.37,0-7.53-.64-7.31,4.69.86,20-4.16,40.87,9.39,58.94-22.73,4.67-54.76-16.19-57.47-45.89a618.17,618.17,0,0,1-.05-107.3c2.17-26.09,27.07-46.87,54.6-47.08,61.64-.48,123.3-.58,184.94,0,33.41.32,58,26.31,58.19,59.73.14,29.27.46,58.56-.22,87.82C442.33,652.06,414.64,677.18,384.5,674.58Z" transform="translate(-10.67 -10)"/><path class="cls-2" d="M748.94,467.61c-.83,10.85,1.56,24-1.43,36.94-3.83,16.56-14,25.78-30.94,26.63C700.42,532,685,532,668,532c-1.42,0-2,0-6,0-1-3-8-19-10-24H606c-2,6-8,18-10,24-1.41,0-4.16-.16-5.51-.16-22.37-.25-44.77.26-67.12-.7-16.72-.72-28.15-10.48-34-25.91a73.92,73.92,0,0,1-3.95-35.58c3.76-30.16,19.12-43.62,49.48-43.72,10.67,0,21.36.35,32-.12,8.55-.38,6.06,5.55,6.08,9.75s2.41,10.14-6,9.83c-10.32-.38-20.67-.34-31,.11-14.36.62-21.44,6.7-24.32,20.54a66.63,66.63,0,0,0-1.84,15.35c.67,24.66,8.48,32.78,30.26,31.44a267.81,267.81,0,0,1,33,0c2.89.18,6-.12,7.88.13,1-4,2-5,2.63-7.26,10-24.11,20.8-47.88,30.39-72.14,2.87-7.26,7.14-8,13.33-7.56,6.73.49,13.63-2.11,17.49,7.7,9.54,24.28,20.65,47.94,30.76,72,2.17,5.17,4.7,8,10.56,7a37.58,37.58,0,0,1,6.19,0c28.14,0,31.9-3.76,32.08-32.31.1-15.5.32-31-.11-46.48-.18-6.34,1.67-8.21,8.08-8.18,16.54.06,16.54-.28,16.54,15.93Z" transform="translate(-10.67 -10)"/><path class="cls-2" d="M804.85,627.43l19.22,31.83c13.25-30.86,26.17-59.92,38.1-89.39,3.15-7.8,7.6-9.19,14.8-8.77s13.31-.83,17.1,8.56c11.93,29.6,25,58.75,38,87.89,3.19,7.13,3.46,9.33-5.86,9.9-12,.72-18.76-2.74-20.86-14.75-1.65-9.44-7.4-12.46-16.86-11.43a147,147,0,0,1-25.78.05c-6.68-.47-9.61,2.07-11.78,8.28-6.15,17.56-6.58,16.11-24.58,17.83-17.39,1.66-29-3-34.57-20.08-.63-1.92-2.05-3.57-3.07-5.36C781,628.51,774.21,625.62,759,628.37c-4.07.74-3.92,2.94-3.93,5.73,0,8.61-.35,17.23.11,25.81.33,6.05-2,7.42-7.67,7.49-17.17.21-17.17.46-17.17-16.42,0-27.19,0-54.38,0-81.58,0-4.68-.57-8.74,6.54-8.5,18.91.62,37.87.11,56.76,1,17.5.83,28.21,9.76,31.57,24.49,3.86,16.88-2.13,30.37-17.32,39C807,625.93,806.14,626.56,804.85,627.43Z" transform="translate(-10.67 -10)"/><path class="cls-2" d="M294.21,469.38a43.09,43.09,0,0,1-43.73-42.75A43.56,43.56,0,0,1,294,382.4c23.63.06,43.42,19.88,43.46,43.5A43.56,43.56,0,0,1,294.21,469.38Z" transform="translate(-10.67 -10)"/><path class="cls-3" d="M487,613.92c0-14.79.2-29.58-.09-44.36-.12-5.76.85-8.91,7.73-8.67,19.23.69,38.51-.78,57.73,1.11S583,577.13,582.7,596.86c-.24,17.68-13,30.59-31.62,31.47a231.25,231.25,0,0,1-29.9,0c-8.61-.7-10.58,2.68-9.92,10.43.6,7.17-.16,14.44.21,21.64.29,5.45-1.72,6.9-7.07,7-17.44.41-17.44.65-17.44-16.35Z" transform="translate(-10.67 -10)"/><path class="cls-2" d="M624.48,602.15c0-11,.33-22-.13-33-.27-6.31,1.66-8.4,8.1-8.22,19.28.54,15.19-1.43,15.46,15.09.26,16.18-.23,32.37.2,48.53.57,21.33,19.78,31.85,38.75,21.54,6.5-3.53,8.66-9.41,8.69-16.4.08-19.62.52-39.24.08-58.85-.17-7.59,1.75-10.24,9.7-10,14.63.49,14.64,0,14.61,14.91q0,21.67-.09,43.37c-.11,36.76-10.75,48.07-47.3,50a63.13,63.13,0,0,1-24.42-3.22c-14.43-5.1-22.72-15.16-23.24-30.69-.37-11-.07-22-.07-33Z" transform="translate(-10.67 -10)"/><path class="cls-2" d="M742.92,531.84l31.33-74.35c2.66-6.32,6-12.44,7.87-19,2.9-10.17,8.54-13.71,19.29-13,7.65.51,11.23,2.62,14.17,9.73,13.23,31.9,27.14,63.52,41.37,96.56-7.78,0-7.53,0-14,.19-6,.2-7,0-11,0-4-8-9-20-12-26-4,0-18.32.27-20,0H779c-3,5.52-9.56,17.68-13,26-3,0-4.59.27-9,0C751.9,531.69,750.15,531.84,742.92,531.84Z" transform="translate(-10.67 -10)"/><path class="cls-4" d="M294.08,683.88q64.07,0,128.14,0c5.15,0,9-.34,8.92,7.2-.09,7.17-3.28,7.49-8.81,7.48q-127.09-.18-254.2,0c-5.74,0-9.62-.07-9.56-7.9.06-8,4.75-6.71,9.44-6.71Z" transform="translate(-10.67 -10)"/><path class="cls-5" d="M589.11,612.85c0-14.44.36-28.9-.16-43.32-.25-7,2.14-9.43,8.79-8.57a22.84,22.84,0,0,0,6.18,0c8.07-1.22,10.52,1.89,10.37,10.15q-.78,43.32,0,86.65c.13,7.9-2.28,10.66-9.88,9.57a33.9,33.9,0,0,0-8.24,0c-5.4.57-7.23-1.64-7.14-7C589.27,644.49,589.11,628.67,589.11,612.85Z" transform="translate(-10.67 -10)"/><path class="cls-6" d="M294.14,567.42c-30.62,0-61.25-.17-91.87.13-6.61.07-8.83-1.63-8.86-8.62-.16-31.14,16.82-48.93,47.93-49q52.12-.21,104.25,0c31.84.09,48.13,16.84,48.47,48.3.09,8.32-2.95,9.48-10.12,9.4C354,567.22,324.07,567.42,294.14,567.42Z" transform="translate(-10.67 -10)"/><path class="cls-7" d="M612.93,488.2l15.52-40.47C633.82,461,642,482,645,488c-2,0-3,.21-5.32.21Z" transform="translate(-10.67 -10)"/><path class="cls-8" d="M771.69,609.27c-16.66.37-15.88.32-16.93-16.2-.68-10.67,2.7-13.88,12.86-12.52,6.41.86,13.06-.13,19.48.66,8.25,1,14,4.93,13.83,14.62-.12,9.49-6.2,12.38-13.85,13.32C782,609.78,776.82,609.27,771.69,609.27Z" transform="translate(-10.67 -10)"/><path class="cls-9" d="M861.66,622.77c5.17-13.3,9.83-25.31,15.57-40.09,5.48,13.45,10,24.53,14.51,35.6,1.77,4.33-1,4.5-4,4.5C879.52,622.76,871.31,622.77,861.66,622.77Z" transform="translate(-10.67 -10)"/><path class="cls-10" d="M528.64,609.23c-17.28.43-16.56.39-17.53-16.68-.58-10.29,2.77-13.23,12.46-12,6.76.86,13.75-.1,20.52.73,7.86,1,13.21,5,13.3,14.05.09,9.29-5.46,12.84-13.35,13.78C539,609.72,533.78,609.23,528.64,609.23Z" transform="translate(-10.67 -10)"/><path class="cls-9" d="M815.05,487.84c-9.39,0-18,.05-25,.05-2,0-2.81.11-6,.11,1-4,10.18-28.72,14.72-40.33Z" transform="translate(-10.67 -10)"/></svg>