<svg id="Capa_1" data-name="Capa 1" xmlns="http://www.w3.org/2000/svg" xmlns:xlink="http://www.w3.org/1999/xlink" viewBox="0 0 1051.85 1052"><defs><style>.cls-1{fill:#008980;}.cls-2{fill:url(#Degradado_sin_nombre_21);}.cls-3{fill:#fff;}</style><linearGradient id="Degradado_sin_nombre_21" x1="419.69" y1="414.26" x2="955.62" y2="950.19" gradientUnits="userSpaceOnUse"><stop offset="0.14" stop-color="#004540"/><stop offset="0.44" stop-color="#024641"/><stop offset="0.56" stop-color="#094c47"/><stop offset="0.64" stop-color="#155450"/><stop offset="0.71" stop-color="#26615d"/><stop offset="0.77" stop-color="#3d716e"/><stop offset="0.82" stop-color="#598682"/><stop offset="0.87" stop-color="#7a9e9b"/><stop offset="0.92" stop-color="#a0bab8"/><stop offset="0.96" stop-color="#cbd9d8"/><stop offset="1" stop-color="#fafbfb"/><stop offset="1" stop-color="#fff"/></linearGradient></defs><title>logo-sin-banco</title><path class="cls-1" d="M646.2,1055.33c-36,9.32-72.78,11.08-109.68,10.6-248.85-3.22-462.78-183-509-427.54C-26,354.59,160,79.2,442.73,23.88c287.55-56.27,566.72,133.71,619,420.92,12.08,66.34,10.85,132.4-1,198.51-.13.72-1,1.32-1.49,2-20.1-20.47-42-38.88-64.88-56.13-5.18-3.91-8.47-9.38-13.51-13.22q-60.65-52.3-121.57-104.29c-39.69-33.78-78.6-68.47-119.12-101.29-22.81-18.63-49.32-31.43-74.1-46.91-32.71-20.43-66.33-39.46-99-60-28.23-17.75-54.34-18.22-83-.14-51.31,32.31-103.82,62.68-155.76,94-5.16,3.11-14.24,5.62-12.4,12.45,1.89,7,10.95,4,17,4.36,7.61.44,15.26.09,22.89.21,8.74.15,13.44,4.12,13.5,13.13,0,3.39.13,6.79.13,10.18q0,139.3,0,278.61c0,3.82,0,7.63-.27,11.45-.44,6.93-3.77,11-10.92,11.63-10,.92-20.07,2.22-23.34,13.85-3.43,12.19-.09,22.58,10.31,30.28,9.78,11.62,21.24,21.64,31.57,32.79,41.51,44.82,86.11,86.64,128.7,130.41,23.66,24.3,46.37,49.52,70.81,73.08,20.48,20.93,41.46,41.36,62,62.26C641.84,1045.69,647.42,1048.58,646.2,1055.33Z" transform="translate(-18.35 -14)"/><path class="cls-2" d="M1054.13,634.24q-35.94-30.13-71.73-60.44C957.65,552.19,933,530.41,908.12,509c-39.62-34.06-79.23-68.13-119.29-101.65C773.75,394.73,760.33,380,743.12,370c-12.91,2.51-26,5.5-39.09,3.95-67-8-171-7-308-5-9,177,10,352-50.61,377.69,16.06,17.34,31.82,34.95,48.22,52,42.58,44.14,87.28,86.18,129.2,131,16.67,17.83,33.1,36.08,52,51.74h0c3.65,4.09,7.15,8.31,11,12.23q30.13,30.92,60.41,61.7c3.76-.46,7.6-.57,11.26-1.42q218-50.76,336.38-240.69c32.23-51.74,54.75-107.62,65.39-167.94A13.63,13.63,0,0,0,1054.13,634.24Z" transform="translate(-18.35 -14)"/><path class="cls-3" d="M724.36,377.13c6.91-.56,14.82,1.34,18.76-7.12A27.41,27.41,0,0,0,733.65,360c-58.78-35.32-117.35-71-176.4-105.85-21.82-12.89-44.44-11.91-66.34,1.29-24.29,14.64-48.65,29.15-73,43.74-33.75,20.26-67.53,40.45-101.13,60.95-4.1,2.49-10.26,5.64-8.57,11.34,1.57,5.27,7.88,5.66,13.1,5.7,11.42.08,22.87.52,34.26,0,7.73-.38,10.08,2,10.06,9.95q-.41,149.57-.06,299.13c0,6.8-1.33,9.81-9,9.73-11.58-.13-22.41,3-26,15.9-4.49,16,.06,25.86,14.8,34.87,15.65.35,31.29,1,46.94,1q154.91.18,309.81.06c22.24,0,30.48-7.58,30.45-26.38,0-17.9-8.57-25.74-29.85-25.34-9.12.18-11.09-2.56-11.06-11.31.32-91.62.13-183.24.28-274.87,0-10.48-4.56-24.08,1.86-30.64S713.92,378,724.36,377.13ZM494.8,687.59c0,7-2.57,8.48-8.89,8.3-14-.39-28-.68-42,.08-9.12.5-11.3-2.6-11.22-11.4.41-49.21.19-98.43.19-147.65s.22-98.43-.19-147.65c-.07-9,1.42-13.07,11.62-12.35,13.51.95,27.15.51,40.71.11,6.7-.19,9.81,1.11,9.79,8.89Q494.46,536.76,494.8,687.59ZM612.68,696c-13.53-.74-27.14-.47-40.69-.07-6.7.2-9.76-1.07-9.74-8.87q.38-150.74,0-301.46c0-6.89,2.41-8.67,8.82-8.52,14.41.36,28.86.66,43.24-.09,8.39-.44,9.6,2.86,9.55,10.19-.28,50-.14,100.07-.14,150.1,0,49.18-.24,98.37.21,147.55C624,693.75,621.57,696.45,612.68,696Z" transform="translate(-18.35 -14)"/></svg>