<svg id="Capa_1" data-name="Capa 1" xmlns="http://www.w3.org/2000/svg" viewBox="0 0 1057 1057"><defs><style>.cls-1{fill:#fff;}.cls-2{fill:#00498b;}.cls-3{fill:#ea740b;}.cls-4{fill:#fe7800;}</style></defs><title>logo-bcp</title><rect class="cls-1" width="1057" height="1057"/><path class="cls-2" d="M619,592.81c-2.4,11.16-4.29,22.43-7.35,33.39-2.48,8.89-9,14.06-18.11,16.82a117,117,0,0,1-41,4.69c-23.76-1.32-45.63-7.94-62.64-25.62-10.57-11-16.72-24.5-20-39.38a125.31,125.31,0,0,1-1.78-41.06c3.45-30.08,14.77-57,36.37-78.95,14.53-14.77,32.18-24.06,52.07-28.83,7.58-1.82,15.59-2.09,23.5-2.59,16.81-1,32.8,2.1,48.51,7.28,5.86,1.94,11.38,4.91,15.54,9.95,4.95,6,4.78,12.61,2.9,19.51-1.51,5.5-3.25,10.93-4.73,16.44-.46,1.7-.57,3.21-2.71,1.42-9.65-8.11-21.54-10.75-33.4-13a69.28,69.28,0,0,0-38.84,3.27c-12.44,4.89-22.06,13.23-29.56,24.25A98.92,98.92,0,0,0,521.55,540c-2.95,17.77-.94,35.29,10,50.22,8,10.81,19.74,16,33.11,17.23,19,1.82,36.06-3.41,51.73-13.91a13.62,13.62,0,0,1,1.69-.89C618.24,592.63,618.43,592.73,619,592.81Z" transform="translate(-13 -11)"/><path class="cls-3" d="M187.11,452.93c10.63,4.81,19.88,11.77,29,18.91a186.39,186.39,0,0,1,33.59,34.57c11.89,15.75,12.3,36.38,1.27,53-9.18,13.86-21.21,25-34,35.38-13.42,10.85-27.4,20.87-42.65,29.09-22.53,12.14-44.84,7-59.81-15.07-5-7.41-4.95-7,2.85-10.87C144.4,584.41,168.5,567.18,185,541a54.34,54.34,0,0,0,6.74-13.77c-.24-3.12,1.41-5.76,2.27-8.59,4.17-13.7,5.52-27.58,3-41.76-1.31-7.47-3.8-14.43-8.63-20.41C187.61,455.48,186.71,454.43,187.11,452.93Z" transform="translate(-13 -11)"/><path class="cls-4" d="M901.63,453.65c9,3.77,16.58,9.69,24.19,15.46a190.22,190.22,0,0,1,36.77,37,45.31,45.31,0,0,1,1.89,52.62c-10,15.36-23.47,27.43-37.57,38.84a280.74,280.74,0,0,1-36,24.73c-25.65,14.84-50.18,8.62-65.94-17.93-2.09-3.53.57-3.88,2.54-4.8a188.46,188.46,0,0,0,41.64-26c15.29-12.76,28.37-27.39,36.22-46.07-.64-2.43.46-4.54,1.23-6.72a86.1,86.1,0,0,0,3.88-43.62,48.62,48.62,0,0,0-6.84-18.56C902.63,457.11,901.36,455.67,901.63,453.65Z" transform="translate(-13 -11)"/><path class="cls-2" d="M187.11,452.93c8.58,9.08,11.06,20.17,12.16,32.33,1.27,14.05-1.46,27.06-6.22,40a11.71,11.71,0,0,1-1.29,2,182.42,182.42,0,0,0-53.42-38.42c-5.79-2.71-5.63-2.94-2.63-8.6,6.7-12.65,15.52-23.27,28.78-29.42C172.33,447.19,180.05,447.1,187.11,452.93Z" transform="translate(-13 -11)"/><path class="cls-2" d="M901.63,453.65c7.84,9.49,10.63,20.76,11.29,32.7a88.3,88.3,0,0,1-7.59,41.16c-15.53-17.08-34.18-29.84-55-39.48-3.28-1.52-3.49-2.79-1.88-5.74,7-12.86,15.24-24.53,29.05-31.05C886.06,447.19,894.13,447.3,901.63,453.65Z" transform="translate(-13 -11)"/><path class="cls-2" d="M404.11,533.08c2.14-.63,3.7-1.11,5.27-1.55,9.53-2.71,18.41-6.67,26.25-12.87,25.64-20.28,24.27-54.9-3.17-71.48-14.12-8.52-30-11.74-46.25-12.47-24.18-1.08-48.24.62-72.21,3.9-3.17.43-3.55,2.11-4.09,4.53q-10.7,47.67-21.5,95.29c-4.73,21.08-10.15,42-13.76,63.3-3.32,19.5,4.65,35.56,25.85,39.81a170.32,170.32,0,0,0,29.2,3.28c23.44.61,46.58-.49,68.66-9.47,18.32-7.44,32.72-19.1,39.87-38.13C449.49,567.23,434.92,539.51,404.11,533.08Zm-20.48,63.29c-9.09,8.87-20.56,11.76-32.59,13.17-5.11.6-10.28.59-15.43.86v-.1c-1.83,0-3.67.15-5.49,0-4.93-.48-7.65-3.69-6.59-8.57,3.55-16.21,7.38-32.36,11.12-48.53.28-1.23.32-2.69,2.27-2.65,12.6.26,25.22-.84,37.59,3.21C395.6,560.64,394.79,585.47,383.63,596.37Zm8.85-85.92c-10.26,5.93-21.46,7.69-33.13,7.31-3,0-6,.07-9,0-4.75-.14-7.19-2.34-6.28-6.78,2.71-13.18,5.87-26.26,8.81-39.39a2.29,2.29,0,0,1,2.36-2.05c10.77-.85,21.51-1.89,32.24.69,9.2,2.2,15.79,6.84,17.29,16.83C406.07,495.75,401,505.55,392.48,510.45Z" transform="translate(-13 -11)"/><path class="cls-2" d="M822.72,484.84c-3.09-23.89-18.15-37.14-40-44.07-16.24-5.15-33.07-5.42-52.23-5.45-11-.54-24.28.8-37.5,2.4-13.49,1.64-13.2,1.73-16,14.8-7.65,35.26-15.56,70.47-23.37,105.69Q644.33,600,635,641.88c-.59,2.67.12,3.54,2.88,3.49,8.5-.13,17,.08,25.5-.09,11.38-.23,19.07-6,23.3-16.42a61.13,61.13,0,0,0,3-9.48c2.91-13,5.79-25.92,8.41-38.94.72-3.59,2.23-4.37,5.69-4,16.64,1.79,33.19,1.33,49.53-2.78,25.38-6.39,46.24-19.13,59.64-42.35C821.3,516.9,824.86,501.41,822.72,484.84Zm-44.4,15.89c-2.37,22.92-20.36,38.56-44.94,39.8-1.83.09-3.66,0-5.49,0,0,.1,0,.2,0,.3a75,75,0,0,1-8.91-.76c-5.37-1.06-8-4.94-6.78-10.25,4.13-18.63,8.46-37.22,12.59-55.85.43-1.94,1.08-3.05,3.09-3.12,9.93-.33,19.8-1.43,29.8.39C774.18,474.25,779.8,486.36,778.32,500.73Z" transform="translate(-13 -11)"/></svg>