<svg id="Capa_1" data-name="Capa 1" xmlns="http://www.w3.org/2000/svg" viewBox="0 0 24.22 17"><defs><style>.cls-1{fill:#007bff;}</style></defs><title>negro-cocncreto-agregado-ico</title><path class="cls-1" d="M24.91,6.65a1,1,0,0,1-.2.22A.46.46,0,0,1,24,6.58c0-.16-.08-.33-.13-.52L21.37,8c-1.31,1-2.61,2-3.91,3.06a.44.44,0,0,1-.35.09c-.84-.14-1.69-.27-2.54-.39-.17,0-.15-.11-.15-.22,0-1.28,0-2.56,0-3.84a1.11,1.11,0,0,0-.87-1.16,1.26,1.26,0,0,0-1.65.81,1.38,1.38,0,0,0,0,.45v3.37a.24.24,0,0,1-.09-.15Q11,7.4,10.16,4.78a.29.29,0,0,1,.12-.36L14.6,1.09A.4.4,0,0,1,15,1l6.53.87c.42.06.85.11,1.27.18.13,0,.21,0,.14-.16a2.8,2.8,0,0,1-.06-.28.47.47,0,0,1,.36-.57.45.45,0,0,1,.54.37c.1.38.19.77.28,1.15l.87,3.77,0,0Z" transform="translate(-0.69 -1)"/><path class="cls-1" d="M12.27,10c0-1.07,0-2.13,0-3.19A.75.75,0,0,1,12.64,6a1,1,0,0,1,1,0,.7.7,0,0,1,.34.7v6c0,.19,0,.37,0,.55a.7.7,0,0,1-.77.75h-.1c-.58,0-.84-.26-.84-.86Z" transform="translate(-0.69 -1)"/><path class="cls-1" d="M2.61,15.79H1.38a.65.65,0,0,1-.69-.7v-.75a.64.64,0,0,1,.67-.68H3.93a.62.62,0,0,1,.63.63q0,.44,0,.87a.63.63,0,0,1-.7.63Z" transform="translate(-0.69 -1)"/><path class="cls-1" d="M22.13,12.11c0-.11,0-.16-.15-.16H14.57c-.14,0-.16.06-.16.18,0,.41,0,.82,0,1.23a1.12,1.12,0,0,1-.19.64,1.32,1.32,0,0,1-1.38.51,1.12,1.12,0,0,1-1-1,10.9,10.9,0,0,1,0-1.4c0-.15,0-.2-.19-.19-.58,0-1.15,0-1.73,0-.19,0-.23,0-.23-.23,0-1.86,0-3.72,0-5.58,0-.14,0-.2-.19-.2H5.41a.3.3,0,0,0-.27.14l-3.92,5c0,.06-.1.1-.1.18v2c1,0,1.89,0,2.83,0a1,1,0,0,1,1,.77,1.9,1.9,0,0,1,.06.31,1,1,0,0,0,.07-.12A2.89,2.89,0,0,1,8.2,12.62a2.8,2.8,0,0,1,2.25,2.08c.06.21.14.26.35.26q1.9,0,3.81,0c.21,0,.28-.06.34-.27a2.88,2.88,0,0,1,5.56,0c0,.2.13.25.32.24.37,0,.74,0,1.11,0,.13,0,.19,0,.19-.18Q22.12,13.45,22.13,12.11ZM8.21,10.67H4c-.11,0-.28.07-.31-.05a.5.5,0,0,1,0-.5L4,9.87l2-2.5a.33.33,0,0,1,.29-.14h2c.16,0,.19,0,.19.2v3.05C8.41,10.64,8.36,10.67,8.21,10.67Z" transform="translate(-0.69 -1)"/><path class="cls-1" d="M7.68,13.07a2.47,2.47,0,1,0,2.46,2.47A2.49,2.49,0,0,0,7.68,13.07Zm0,3.42a1,1,0,1,1,1-1A1,1,0,0,1,7.68,16.49Z" transform="translate(-0.69 -1)"/><path class="cls-1" d="M17.74,13.08a2.46,2.46,0,0,0-2.48,2.44,2.47,2.47,0,1,0,4.93,0A2.46,2.46,0,0,0,17.74,13.08Zm0,3.42a1,1,0,0,1,0-1.93,1,1,0,0,1,1,1A1,1,0,0,1,17.72,16.5Z" transform="translate(-0.69 -1)"/></svg>