<svg id="Capa_1" data-name="Capa 1" xmlns="http://www.w3.org/2000/svg" viewBox="0 0 796.81 983.21"><defs><style>.cls-1{fill:#007bff;}.cls-2{fill:none;}</style></defs><title>excabadora2-ico</title><path class="cls-1" d="M587.11,1029.06c-3.53-42.73-38.07-79.28-80.46-85.22-17.25-2.41-34.6-1.26-51.9-1.45-23.49-.26-47-.11-70.48-.12h-70q-87,0-174,0c-27.55,0-51.81,9-70.91,29.12-25.84,27.28-34,59.78-22.67,95.51s36.86,57.58,74,65.14a99.53,99.53,0,0,0,19.87,1.79q174.95,0,349.91,0C548.22,1133.87,591.84,1086.46,587.11,1029.06Zm-28.2,12.59c-3,37.16-31.76,63.54-69.15,63.52q-87.22,0-174.46,0v-.12c-59.82,0-119.64.3-179.46-.1-41.78-.28-73.11-40.75-63.85-81.48C79,992.63,106.64,971,139.38,971q167.22,0,334.43,0c9.15,0,18.29-.28,27.45.77C534.35,975.64,561.59,1008.49,558.91,1041.65Z" transform="translate(-41.76 -150.68)"/><path class="cls-1" d="M142.79,1011.24a26.83,26.83,0,1,0,26.94,26.66A26.76,26.76,0,0,0,142.79,1011.24Z" transform="translate(-41.76 -150.68)"/><path class="cls-2" d="M823.32,735.37a15,15,0,0,0,.16,30,15.29,15.29,0,0,0,15.09-14.77C838.68,742.48,831.44,735.27,823.32,735.37Z" transform="translate(-41.76 -150.68)"/><path class="cls-2" d="M496.64,683.87a15.74,15.74,0,0,0-4.26-11.28q-48.72-54-97.26-108.15a14,14,0,0,0-11.28-5.13q-57.49.21-115,0c-3.85,0-5.17.9-5.16,4.9q.15,83.24,0,166.47a10.52,10.52,0,0,0,3.4,7.95q22.69,22.56,45.25,45.24c2.58,2.6,5.46,3.36,9,3.35q42.24-.11,84.49,0v0c28.16,0,56.32-.13,84.48.11,5.1.05,6.38-1.42,6.35-6.44C496.44,748.53,496.52,716.2,496.64,683.87Z" transform="translate(-41.76 -150.68)"/><path class="cls-1" d="M619.06,399.84a12.53,12.53,0,0,1,4.91,9.25q6.72,63.82,13.7,127.63a16.69,16.69,0,0,1-.34,6c17.59-22.55,48.75-29.5,73-15.14,1.51.9,3,1.87,4.34,2.89l-2.82-9.68a22.42,22.42,0,0,1-1.88-5.17Q693.58,460,677.1,404.35c-1-3.36-.66-5.6,1.65-8.45,16.15-19.92,15.38-44.23-1.6-60.81-17.61-17.2-46.2-16.11-63,2.41A43.26,43.26,0,0,0,619.06,399.84Zm35.38-46.27a15,15,0,0,1-15.16,25.85c-7-4.05-9.58-14-5.36-20.84A15.29,15.29,0,0,1,654.44,353.57Z" transform="translate(-41.76 -150.68)"/><path class="cls-1" d="M735.23,594a16.1,16.1,0,0,1-.47-6.24c2.81-26.75-16.89-52.47-44.25-58.12a51.11,51.11,0,0,0-34.3,4.35l-.76.38-.69.36a55.26,55.26,0,0,0-27.87,33,53.15,53.15,0,0,0-2.19,20.49,60.73,60.73,0,0,0,1.14,9.9,12.06,12.06,0,0,1-3.43,7.06q-46.77,51.69-93.3,103.6c-.09.1-.3.09-1.28.36,0-13.55-.22-26.68.09-39.78A21.3,21.3,0,0,0,522,653.6q-58.85-65.07-117.39-130.41a13.27,13.27,0,0,0-10.77-4.94q-84,.19-168,0c-4.15,0-5.14,1-5.13,5.13.16,58.49,0,117,.23,175.48,0,4.73-1.38,5.63-5.74,5.54-13.82-.28-27.66-.22-41.49,0-3.33,0-4.13-.92-4.07-4.14.19-11.16-.05-22.33.15-33.49.06-3.31-.5-4.65-4.23-4.52-8.32.31-16.67.3-25,0-3.52-.13-4,1.2-4,4.23.13,10.83-.15,21.67.1,32.49.1,4.13-.6,5.74-5.32,5.6-13.32-.4-26.66-.09-40-.15C63.25,704.28,42.33,724,42,752.19c-.44,41.82-.25,83.66-.1,125.49.08,21.05,16.44,47.52,47.38,47.18,34.33-.38,68.66-.05,103,0,96.66,0,193.31-.18,290,.14,20.39.07,34.73-8.2,45.27-25.4,49.86-81.4,102.73-161,150.07-243.89,1.53-2.67,2.53-3.67,4.53-6.67.48-1,2.38-3.36,2.54-5C710.79,641.84,731.8,620.81,735.23,594ZM484.45,787.29c-28.16-.24-56.32-.11-84.49-.11v0q-42.24,0-84.48,0c-3.52,0-6.4-.75-9-3.35Q284,761.19,261.25,738.66a10.53,10.53,0,0,1-3.41-7.95q.11-83.24,0-166.47c0-4,1.31-4.91,5.16-4.9q57.48.2,115,0a14,14,0,0,1,11.27,5.13q48.54,54.16,97.26,108.15a15.71,15.71,0,0,1,4.27,11.28c-.12,32.33-.2,64.66,0,97C490.82,785.87,489.54,787.34,484.45,787.29ZM679.18,611a27.24,27.24,0,0,1-26.71-26.86A26.92,26.92,0,1,1,679.18,611Z" transform="translate(-41.76 -150.68)"/><path class="cls-1" d="M641.05,316.61l3.31-2.28c3.27-2.24,3.53-4.16,2.07-7.7-8.63-20.87-16.89-41.9-25.47-62.8-8.14-19.82-14.45-40.49-24.87-59.24-11.66-21-29.51-33.54-54.42-33.9-17-.25-31.62,6.26-45.1,16.26q-80.1,59.37-160.39,118.49l-4.13,3.05c2.43.68,3.81,1.11,5.21,1.44q125,29.29,250,58.62a12.82,12.82,0,0,0,11.22-2.14l2.81-2A43.76,43.76,0,0,1,641.05,316.61Z" transform="translate(-41.76 -150.68)"/><path class="cls-1" d="M256.94,1011.24a26.83,26.83,0,1,0,26.94,26.66A26.75,26.75,0,0,0,256.94,1011.24Z" transform="translate(-41.76 -150.68)"/><path class="cls-1" d="M482.94,1011.24a26.83,26.83,0,1,0,26.94,26.66A26.75,26.75,0,0,0,482.94,1011.24Z" transform="translate(-41.76 -150.68)"/><path class="cls-1" d="M367.94,1011.24a26.83,26.83,0,1,0,26.94,26.66A26.75,26.75,0,0,0,367.94,1011.24Z" transform="translate(-41.76 -150.68)"/></svg>