<svg id="Capa_1" data-name="Capa 1" xmlns="http://www.w3.org/2000/svg" viewBox="0 0 13.55 17"><defs><style>.cls-1{fill:#fff;}</style></defs><title>constructor-ico</title><path class="cls-1" d="M8.23,7.69H4.43a.51.51,0,0,1-.54-.64.52.52,0,0,1,.49-.37c.14,0,.17,0,.18-.16A3.41,3.41,0,0,1,6.44,3.65c.11-.06.14,0,.16.07.08.49.18,1,.27,1.46a.28.28,0,0,0,.34.25.27.27,0,0,0,.21-.34C7.31,4.52,7.21,4,7.1,3.38a.23.23,0,0,1,.06-.22A.74.74,0,0,1,7.67,3H8.79a.85.85,0,0,1,.35.11c.2.11.24.19.2.41L9,5.09a.26.26,0,0,0,.22.34c.17,0,.29-.07.33-.26l.27-1.44c0-.14,0-.14.16-.07A3.4,3.4,0,0,1,11.9,6.54c0,.1,0,.14.14.14a.51.51,0,1,1,0,1Z" transform="translate(-1.45 -2.94)"/><path class="cls-1" d="M3,17.51a1.8,1.8,0,0,1,1.3-.89,1.79,1.79,0,0,1,1.82.79.22.22,0,0,0,.21.11h3.77a.2.2,0,0,0,.2-.11,1.83,1.83,0,0,1,3,0s.08.07.05.11-.08,0-.13,0H12.14a.18.18,0,0,0-.18.1c-.11.2-.23.39-.35.58a.12.12,0,0,0,0,.17c.12.18.24.37.35.56a.17.17,0,0,0,.18.11h1.14s.1,0,.12,0,0,.08-.05.11a1.84,1.84,0,0,1-3,0A.21.21,0,0,0,10.1,19c-1.25,0-2.51,0-3.77,0a.21.21,0,0,0-.19.1,1.84,1.84,0,0,1-3,0s-.06-.07,0-.1.06,0,.1,0H4.32a.15.15,0,0,0,.17-.08l.36-.59a.12.12,0,0,0,0-.16l-.36-.58a.16.16,0,0,0-.16-.1H3Z" transform="translate(-1.45 -2.94)"/><path class="cls-1" d="M11.59,8.32c-.12,0-.2,0-.21.15a.8.8,0,0,1-.05.21,5.76,5.76,0,0,1-1.15,2.17l-.08.08,0,.05a1.58,1.58,0,0,0-.3.28l-.21.16h0l-.23.15h0l-.18.1h0a.07.07,0,0,0-.06,0l-.08,0a.22.22,0,0,0-.11,0l-.29.08a.47.47,0,0,0-.17,0h0l-.57,0h0a.14.14,0,0,0-.11,0l-.46-.18a.2.2,0,0,0-.11-.06l0,0-.08-.05a4.5,4.5,0,0,1-.37-.28A5.24,5.24,0,0,1,5.11,8.61C5,8.32,5,8.33,4.72,8.32c-.14,0-.15,0-.12.15a6.12,6.12,0,0,0,.94,2.18,4.38,4.38,0,0,0,.73.88.27.27,0,0,0,.08.07l.06.05a.91.91,0,0,0,.24.2.24.24,0,0,0,.08.06s0,0,.06,0a.14.14,0,0,0,.08.05,2.4,2.4,0,0,0,2.85-.09s.07,0,.08-.06h0a.13.13,0,0,0,.09-.07.12.12,0,0,0,.08-.06,2.61,2.61,0,0,0,.45-.43A6.18,6.18,0,0,0,11.83,8.6C11.9,8.32,11.89,8.33,11.59,8.32Z" transform="translate(-1.45 -2.94)"/><path class="cls-1" d="M13.48,12.91a4.23,4.23,0,0,0-1.64-.86,5.08,5.08,0,0,0-.74-.15s-.12-.07-.16,0a1.21,1.21,0,0,0,0,.18h0a4.17,4.17,0,0,1-.59.74,18.56,18.56,0,0,1-2,1.64.11.11,0,0,1-.16,0c-.45-.33-.89-.66-1.3-1a5.14,5.14,0,0,1-1.3-1.41h0c0-.06,0-.21-.13-.15S4.7,12,4.65,12A4.42,4.42,0,0,0,2.56,13.3,3.94,3.94,0,0,0,1.5,16.67a1.71,1.71,0,0,0,.45.9c.06.07.09.05.12,0l.2-.38a2.7,2.7,0,0,1,4.31-.52.26.26,0,0,0,.2.08c.94,0,1.89,0,2.83,0a.4.4,0,0,0,.31-.13,2.74,2.74,0,0,1,3.69-.15,3.44,3.44,0,0,1,.77,1.09c0,.09.07.09.14,0a1.76,1.76,0,0,0,.46-1A4,4,0,0,0,13.48,12.91Z" transform="translate(-1.45 -2.94)"/></svg>