<svg id="Capa_1" data-name="Capa 1" xmlns="http://www.w3.org/2000/svg" viewBox="0 0 1073 1073"><defs><style>.cls-1{fill:#fefefe;}.cls-2{fill:#08121d;}.cls-3{fill:#f3be1a;}.cls-4{fill:#ebebeb;}.cls-5{fill:#e5a818;}.cls-6{fill:#dcdcdc;}.cls-7{fill:#f5f5f5;}.cls-8{fill:#7fcae6;}.cls-9{fill:#f4f4f4;}.cls-10{fill:#100e0c;}.cls-11{fill:#100e0d;}.cls-12{fill:#100f0c;}.cls-13{fill:#110f0e;}.cls-14{fill:#554410;}.cls-15{fill:#08121e;}.cls-16{fill:#0b1521;}.cls-17{fill:#0b161f;}.cls-18{fill:#80ceeb;}</style></defs><title>carpeta</title><path class="cls-1" d="M1076,541.38q0,264.23.17,528.44c0,6-1.18,7.18-7.18,7.18q-529.32-.29-1058.65,0c-6,0-7.18-1.18-7.17-7.18q.27-529.32,0-1058.64C3.2,5.18,4.38,4,10.38,4Q539.72,4.29,1069,4c6,0,7.19,1.17,7.18,7.18Q1075.9,276.27,1076,541.38Z" transform="translate(-3.21 -4)"/><path class="cls-2" d="M169.6,639.76q0-142.82,0-285.63c0-21.84,11.51-33.29,33.56-33.31,24,0,47.9-.33,71.84.15,7.17.14,8.47-2.16,8.45-8.82-.26-60.75-.15-121.49-.12-182.24,0-13.71,3.22-16.88,17.12-16.88q187.94,0,375.87-.15c7.86,0,13.07,2.66,17.65,8.89,16.42,22.36,34.72,43.21,52.65,64.35,3.29,3.87,6.58,6.43,11.79,5.51,19.12-3.4,31.09,4.85,42.94,20.18,29.61,38.3,61.51,74.84,92.77,111.85,5.57,6.6,8.17,13.23,8.15,22.06q-.35,258-.17,516.06c0,15.07-2.86,18-17.79,18.06-13.73,0-27.46.22-41.18-.14-4.86-.13-6.58,1.55-7.15,6.17-1.72,14.19-4,28.32-5.68,42.51-2.51,20.77-17.38,34.47-38.06,34.36q-295.26-1.63-590.5-3.36c-20.52-.12-32.13-12.19-32.13-33.11Q169.59,783,169.6,639.76Z" transform="translate(-3.21 -4)"/><path class="cls-3" d="M195.9,911.54c4.46-32.62,8.79-65.26,13.41-97.86Q224.52,706.34,240,599q9.15-64.06,18.32-128.12c2-14,8.8-19.62,23.08-19.64q55.17-.06,110.33,0c13.74,0,17.58,4.69,15.51,18.52-.82,5.47-1.71,10.93-2.58,16.39-1.59,11.27.09,13.15,11.87,13.15H812.4c12,0,12,.31,10.9,12.49C819,557.21,810.75,602,802.55,646.73c-8.33,45.45-22.12,89.54-43.48,130.84-14.62,28.29-33,53.82-58.78,73-19.88,14.82-43.06,23.29-66.1,31.59a576.16,576.16,0,0,1-109.37,27.42q-45.81,6.93-92.11,10.7c-56.57,4.59-113.17,2.36-169.75,3.12-19.59.27-38.87-4-58.48-3.93C200.09,919.54,194.53,918.72,195.9,911.54Z" transform="translate(-3.21 -4)"/><path class="cls-4" d="M821.46,482.84c-33,.09-66,.24-98.94.25q-127.86.06-255.72.08c-12.82,0-25.67.23-38.44,1.19-7.89.6-8.73-2.82-7.27-9,1.35-5.72,2.16-11.59,1-17.37-2.18-10.7-8.82-17.82-19.4-20.27-4.49-1.05-6.08-2.26-6.07-7.1q.25-109,0-218.06c0-5.87,1.68-7.21,7.36-7.2q179.54.24,359.06,0c6.6,0,7.53,2.34,7.5,8-.21,40.57,0,81.15-.19,121.73,0,6.83.93,12.8,7.75,16.16,11.84,1.95,23.76.59,35.63.83,12.81.26,25.64.37,38.43-.07,6.46-.22,9.21,2.35,9.23,8.42.13,26.49,1.1,53-.51,79.46-.65,10.76-.71,21.51-1.17,32.26-.43,9.85-2.11,11.52-12.12,11.34C838.86,483.3,830.13,484.35,821.46,482.84Z" transform="translate(-3.21 -4)"/><path class="cls-5" d="M195.9,911.54c1.11,5.24,5.17,5.47,9.41,5.83,60.83,5.14,121.82,4.23,182.71,3a787.69,787.69,0,0,0,82.41-6.15c29.63-3.75,59.3-7.23,88.43-13.69,37.66-8.36,74.47-19.29,110-35.08s59.74-42.09,79.51-74.2c18-29.27,29.45-61.28,39.25-93.78,7.15-23.71,11.88-48.13,15.66-72.83,3.06-19.91,6.84-39.88,10.54-59.78,3.66-19.61,5.42-39.59,8-59.41.48-3.73-1.36-5.38-5.07-5.23-2.33.09-4.67,0-7,0H415.35c-11.75,0-14.31-3.41-10.72-14,.28,11.36,1.19,12.28,12.72,12.28l432.76.06c4.09,0,8.19-.12,12.27.08,9.89.49,14.45,5.63,13.18,15.36-3.43,26.31-7.11,52.6-10.64,78.9Q853,681.75,841.16,770.63,830.56,850,819.91,929.31C818.26,941.46,811.59,947,799,947q-296.1,0-592.2,0c-11.18,0-15.27-4.5-14.11-15.74C193.36,924.66,194.8,918.12,195.9,911.54Z" transform="translate(-3.21 -4)"/><path class="cls-5" d="M188.48,843.83V785.27q0-213.33.07-426.64c0-17.68,3.72-21.41,21.61-21.43,23.07,0,46.14.16,69.21-.12,5.73-.07,8.18.95,8.1,7.5-.36,28.32-.27,56.65,0,85,.06,5.7-1.64,7.41-7.37,7.51-21.79.41-33.51,11.75-36.51,33.21-8.44,60.35-17.24,120.65-25.84,181q-12.54,87.9-25,175.81c-.81,5.72-1.71,11.42-2.57,17.12Z" transform="translate(-3.21 -4)"/><path class="cls-6" d="M821.46,482.84c9-.08,18.1-.37,27.13-.15,5.85.14,8.24-1.83,8.48-8,1.44-37.57,1.72-75.15,1.83-112.75,0-7.64-2.66-9.18-9.6-9.05-20.72.4-41.44.19-62.17.09-3,0-6.5,1.2-9.06-1.73,36.21,0,72.41.19,108.61,0,5.77,0,8,1.16,8,7.59q-.28,252.24,0,504.5c0,5.32-1.42,7.06-6.86,6.9-12.83-.38-25.7-.43-38.53,0-5.82.2-6.81-1.8-6.09-7q9.29-67.17,18.22-134.38,14.31-106.23,28.53-212.46c2.59-19.56-8.73-31.91-28.38-32.25C848.16,483.9,834.72,485.88,821.46,482.84Z" transform="translate(-3.21 -4)"/><path class="cls-7" d="M494.06,177.51q-68.61.08-137.23.19c-3.33,0-7.06-1.33-9.93,1.72-3.38,3.16-3,7.28-3,11.35q-.1,39.58-.27,79.16c0,4.07,0,6.35-1.52,9.12-8.93,16.18-12.14,34-15,51.89-.37,2.3-.45,4.66-1.28,6.87-.62,1.65-1.39,3.32-3.5,3.34s-3-1.62-3.49-3.32a69.67,69.67,0,0,1-2.58-18.15q-.07-81.9,0-163.8c0-11.3,2.69-14.1,14-14.13q124.82-.24,249.63-.05c1.17,0-.28-.13.87,0,3.83.56,9.33-.83,10.09,4.45.71,4.92-4.35,6.34-8.16,7.68-27,9.51-54.8,16.24-82.82,22A20.71,20.71,0,0,0,494.06,177.51Z" transform="translate(-3.21 -4)"/><path class="cls-7" d="M781.83,205.37c37.26,46.12,76,87.64,111.09,134.54H854.7c-22.19,0-44.37-.08-66.56,0-4,0-6.45-.16-6.42-5.41C781.92,292.29,781.83,250.06,781.83,205.37Z" transform="translate(-3.21 -4)"/><path class="cls-8" d="M639.87,191.66c-3.59,3.16-6.93,1.89-9.94,1.89q-113.46.12-226.92.07c-14.85,0-17.71,2.94-17.7,18,0,14.6-.25,29.21.1,43.81.13,5.43-1.62,6.81-6.91,6.89-22.87.35-22.87.53-22.87-22.37,0-13.43.42-26.88-.18-40.29-.32-7.24,1.7-9.27,9.07-9.25,83.23.27,166.47.14,249.7.23C622.48,190.64,630.87,189.65,639.87,191.66Z" transform="translate(-3.21 -4)"/><path class="cls-9" d="M740,193.61H689.12c-2.75,0-5.24,0-5.22-4,.09-20,0-40,0-62.39Z" transform="translate(-3.21 -4)"/><path class="cls-10" d="M377.5,621.45c-4.95-.58-7.71,3.46-12.87,2.52,19.09-17.75,39.1-31.41,65.88-29.52,23.59,1.66,42.6,18.49,48.2,41.68a54.73,54.73,0,1,1-104.27-6.84C375.37,626.89,376.32,624.49,377.5,621.45Z" transform="translate(-3.21 -4)"/><path class="cls-10" d="M701.39,613.86c16.27,20,17.44,45.46,3.06,66.4-13.58,19.77-38.66,28-61.93,20.36a54.44,54.44,0,0,1-37.74-54c.91-24.15,17.89-45.82,41.92-51,18.43-3.93,36.61-1.94,52.64,9.57C699.57,608.2,697.93,611.63,701.39,613.86Z" transform="translate(-3.21 -4)"/><path class="cls-11" d="M467.54,785.14c50.1,27.21,100,27.25,150.3.38-17.1,25.86-41.52,38.14-71.67,39.09C513.16,825.65,486.52,813.15,467.54,785.14Z" transform="translate(-3.21 -4)"/><path class="cls-12" d="M457,542.69c-55.72-.47-94.65,23.09-119.91,71.09C341.94,556.82,408.35,520.66,457,542.69Z" transform="translate(-3.21 -4)"/><path class="cls-13" d="M624.93,542.09c44.47-20.45,110.48,11.84,117.1,70.16-11.83-21.21-26.78-39.48-47.79-52.17C672.9,547.2,649.5,542.46,624.93,542.09Z" transform="translate(-3.21 -4)"/><path class="cls-14" d="M701.39,613.86c-4.27-2-6.74-4.5-2-8.66,8.24,4.18,14.56,10.52,19.68,18.31-4.78-3.44-9.51-7-14.38-10.25C703.81,612.7,701.73,609.87,701.39,613.86Z" transform="translate(-3.21 -4)"/><path class="cls-7" d="M445.06,352.89c-6.65,1-9.46,5.28-11.94,11.35-7.75,19-9.43,39.27-13.42,59.19-3.94-1.5-2.62-4.87-2.62-7.46-.08-60.7,0-121.41-.15-182.12,0-8.06,3.45-10.69,11.14-10.68q124.77.2,249.54.16c2.83,0,7.41-1.76,7.87,2.79.32,3.21-3.74,3.8-6.52,4.69-24.57,7.91-50.2,12.22-74.69,19.64-30.13,9.13-60,4.4-89.93,5.83-20.67,1-41.43.13-62.16.26-2.95,0-6.58-1.5-8.61,2.33,1.05,1.54,1,3.29,1,5C444.23,293.57,443.63,323.23,445.06,352.89Z" transform="translate(-3.21 -4)"/><path class="cls-15" d="M445,352c-2.91-2.5-3.29-5-3.29-8.52q0-38.1,0-76.22a16.94,16.94,0,0,1,1.88-8.39c7.19-1.93,14.53-1,21.78-1q135.24-.16,270.46-.1c13.29,0,13.57.29,13.56,13.73,0,23.05,0,46.1,0,69.15,0,10.95-1,11.83-12,11.83q-144.42,0-288.84,0C447.34,352.47,447,353,445,352Z" transform="translate(-3.21 -4)"/><path class="cls-16" d="M638.64,398.52q88.44,0,176.89,0c2,0,4.09,0,6.13.08,3.34.17,5.5,1.75,5.77,5.29.32,4.13-2.25,5.74-5.8,6.19a48,48,0,0,1-6.12.15l-352,0c-2.34,0-4.68.12-7-.09-3.53-.33-6.35-1.84-6.25-5.87.09-3.85,2.43-5.73,6.26-5.72,2.34,0,4.67,0,7,0Z" transform="translate(-3.21 -4)"/><path class="cls-17" d="M638.72,452.6h-176c-2,0-4.1.09-6.13-.07-3.59-.26-6.28-1.84-6.32-5.82s2.37-5.73,6.12-5.89c1.75-.08,3.5,0,5.25,0q176.48,0,352.95.1c4.9,0,12.85-2.7,12.6,6.11-.23,7.8-7.6,5.52-12.4,5.53Q726.74,452.7,638.72,452.6Z" transform="translate(-3.21 -4)"/><path class="cls-4" d="M672.74,186q-.66-25.84,0-51.7c.15-6.24-1.82-7.65-7.88-7.65q-178.77.27-357.53.22c-2.56,0-5.86-1.79-7.76,1.74-.17,3.48-.5,7-.5,10.44q0,114.13,0,228.28c0,21,.05,42,0,63,0,3.66-.31,6.78,5.13,6.74,25.36-.22,50.73-.16,76.09-.16C383,436.88,384,438,384,433V416c-6.64.05-21.37.15-23.75.26-3.4.17-6.33-.57-8.2-3.73-.21-6.1,3.4-7.85,8.74-7.85,7.21,0,15.49.32,23.21.32V374c-5.88,0-19,0-25,0s-7.92-4.63-6.14-8.26c1.72-3.47,5-3.5,8.24-3.56,6.37-.13,16.53,0,22.9-.18V332c-3.49-.12-14.3.09-17.74-.39-5.17-.72-13.86,3.05-13.63-6,.22-8.75,8.78-5.59,14-5.59H384V271H344c-12.54,21.54-18.15,44.31-22.05,68.83-.37-6.13-3-11.55-3.05-17.34,0-56.66,0-113.33-.11-170,0-6.1,2.34-8.2,8.31-8.19q128.37.16,256.75.13c2.07,0,5.42-1.21,5.72,2.1.24,2.65-2.9,3.45-5,4.18-19.5,6.73-39.46,11.81-59.49,16.74-9,2.2-18.54,3-26.87,7.47l-5.32,0c-19.75-.17-39.5,0-59.26-.05-25,0-50-.13-74.95.11-4.23,0-9.55-1.48-11.76,4.46q64-.07,127.94-.15c55.5,0,111,0,166.5-.13,6.68,0,11.07,1.5,10.18,9.18-.52,4.41,1.39,5.72,5.48,5.32a34.52,34.52,0,0,1,7.87,0C670.92,194.44,672.9,192.27,672.74,186ZM339.21,421.47q.09.31.21.63c-.22-.14-.43-.25-.65-.38ZM559.52,164c-.27-.33-.54-.67-.82-1.06.33.1.65.18,1,.25A4,4,0,0,0,559.52,164Z" transform="translate(-3.21 -4)"/><path class="cls-1" d="M444.82,634.75c15-.1,26.81,11.28,26.94,26.06.14,15.6-11.18,27.17-26.62,27.19a26.63,26.63,0,0,1-.32-53.25Z" transform="translate(-3.21 -4)"/><path class="cls-1" d="M668,661.67A26.22,26.22,0,0,1,641.31,688c-15.21,0-26.79-12-26.58-27.4.21-14.65,12.2-26.06,27.16-25.84S668,646.65,668,661.67Z" transform="translate(-3.21 -4)"/><path class="cls-18" d="M595.49,340.77c-44.4,0-88.79-.13-133.19.12-6.46,0-9.17-1.05-8.94-8.41.59-18.68.44-37.39.06-56.07-.11-5.89,1.76-7.4,7.44-7.39q134.49.23,269,0c6,0,8.14,1.37,8,7.72-.41,18.68-.46,37.39,0,56.07.18,6.72-1.89,8.16-8.32,8.12C684.86,340.64,640.17,340.78,595.49,340.77Z" transform="translate(-3.21 -4)"/></svg>