<?xml version="1.0" encoding="utf-8"?>
<!-- Generator: Adobe Illustrator 23.0.6, SVG Export Plug-In . SVG Version: 6.00 Build 0)  -->
<svg version="1.1" id="Layer_1" xmlns="http://www.w3.org/2000/svg" xmlns:xlink="http://www.w3.org/1999/xlink" x="0px" y="0px"
	 viewBox="0 0 502 502" style="enable-background:new 0 0 502 502;" xml:space="preserve">
<style type="text/css">
	.st0{fill:#DC3545;stroke:#000000;stroke-miterlimit:10;}
</style>
<g>
	<g>
		<g>
			<path class="st0" d="M428.5,73.5C381.1,26.1,318,0,251,0S120.9,26.1,73.5,73.5C26.1,120.9,0,184,0,251s26.1,130.1,73.5,177.5
				C120.9,475.9,184,502,251,502s130.1-26.1,177.5-73.5C475.9,381.1,502,318,502,251S475.9,120.9,428.5,73.5z M251,482
				C123.6,482,20,378.4,20,251S123.6,20,251,20s231,103.6,231,231S378.4,482,251,482z"/>
			<path class="st0" d="M295.4,249l69.7-69.7c12.5-12.5,12.5-32.9,0-45.4c-6.1-6.1-14.1-9.4-22.7-9.4s-16.6,3.3-22.7,9.4L250,203.6
				l-69.7-69.7c-6.1-6.1-14.1-9.4-22.7-9.4s-16.6,3.3-22.7,9.4c-12.5,12.5-12.5,32.9,0,45.4l69.7,69.7l-69.7,69.7
				c-12.5,12.5-12.5,32.9,0,45.4c6.1,6.1,14.1,9.4,22.7,9.4c8.6,0,16.6-3.3,22.7-9.4l69.7-69.7l69.7,69.7c6.1,6.1,14.1,9.4,22.7,9.4
				c8.6,0,16.6-3.3,22.7-9.4c12.5-12.5,12.5-32.9,0-45.4L295.4,249z M351,349.9c-2.3,2.3-5.3,3.6-8.6,3.6c-3.2,0-6.3-1.3-8.6-3.6
				l-76.7-76.7c-1.9-1.9-4.4-2.9-7.1-2.9s-5.2,1.1-7.1,2.9l-76.7,76.7c-2.3,2.3-5.3,3.6-8.6,3.6c-3.2,0-6.3-1.3-8.6-3.6
				c-4.7-4.7-4.7-12.4,0-17.1l76.7-76.7c1.9-1.9,2.9-4.4,2.9-7.1s-1.1-5.2-2.9-7.1l-76.7-76.7c-4.7-4.7-4.7-12.4,0-17.1
				c2.3-2.3,5.3-3.6,8.6-3.6s6.3,1.3,8.6,3.6l76.7,76.7c3.9,3.9,10.2,3.9,14.1,0l76.7-76.7c2.3-2.3,5.3-3.6,8.6-3.6s6.3,1.3,8.6,3.6
				c4.7,4.7,4.7,12.4,0,17.1l-76.7,76.7c-1.9,1.9-2.9,4.4-2.9,7.1s1.1,5.2,2.9,7.1l76.7,76.7C355.7,337.5,355.7,345.2,351,349.9z"/>
			<path class="st0" d="M168.9,67.2c-2.5-4.9-8.5-6.9-13.4-4.4c-34.2,17.4-63,43.8-83.4,76.3c-21,33.5-32,72.1-32,111.8
				c0,5.5,4.5,10,10,10s10-4.5,10-10c0-72.3,40.1-137.6,104.5-170.4C169.5,78.1,171.4,72.1,168.9,67.2z"/>
			<path class="st0" d="M210,64.2c0.7,0,1.4-0.1,2-0.2c12.7-2.6,25.8-4,39-4c5.5,0,10-4.5,10-10s-4.5-10-10-10
				c-14.5,0-29,1.5-43,4.4c-5.4,1.1-8.9,6.4-7.8,11.8C201.2,60.9,205.3,64.2,210,64.2z"/>
		</g>
	</g>
</g>
</svg>
