<svg id="Capa_1" data-name="Capa 1" xmlns="http://www.w3.org/2000/svg" viewBox="0 0 1072.29 1220"><defs><style>.cls-1{fill:#797774;}.cls-2{fill:#f9f9f9;}.cls-3{fill:#107c41;}.cls-4{fill:#fff;}.cls-5{font-size:368.18px;fill:#33c381;font-family:MyriadPro-Regular, Myriad Pro;}</style></defs><title>csv</title><path class="cls-1" d="M171.41,320.21H154c.15-91.52,1.06-183-.09-274.54-.28-22.34,6.73-27.4,28-27.32Q484,19.48,786.07,18.5c13.94,0,23.78,3.86,33.59,13.74Q941.48,155,1064.37,276.79c10.09,10,13.14,20.2,13.12,33.84q-.45,450.26.29,900.53c.06,22.55-7.06,27.22-28.08,27.17q-433.89-.93-867.79,0c-21.26.05-28.26-5-28-27.32,1.15-91.5.24-183,.09-274.53h17.39c10.16,11.51,8.2,25.73,8.26,39.24.33,67.69-.16,135.37.29,203.06.2,30.65,2.79,33.57,32.68,33.6q403.47.46,806.93,0c29.94,0,32.23-2.59,32.25-33.71q.27-414.34,0-828.7c0-34.66-2.32-36.6-38-36.74-59.46-.23-118.93.21-178.4-.17-44.74-.28-52.17-7.81-52.5-53.37-.43-60.37.2-120.74-.26-181.1-.24-31.65-2.9-34.35-34.79-34.39q-266.23-.35-532.47,0c-33.15,0-35.31,2.45-35.47,36.4-.32,66.77.08,133.54-.24,200.31C179.61,294.47,181.57,308.7,171.41,320.21Z" transform="translate(-5.49 -18.35)"/><path class="cls-2" d="M171.41,320.21c-.15-87.84.09-175.69-.8-263.52-.17-16.46,3.84-21.87,21.21-21.81q289.68.93,579.36,0c18-.06,20.92,6.44,20.76,22.24-.7,71.37.52,142.76-.75,214.11-.45,24.77,7,34.13,32.75,33.62,71.37-1.38,142.78.07,214.16-.86,17.73-.24,23.11,4.53,23.07,22.74q-.83,436.47,0,873c0,19.15-6.88,22.11-23.69,22.08q-421.47-.65-842.95,0c-16.29,0-24.38-1.93-24.09-21.7,1.26-87.82.78-175.67.93-263.51" transform="translate(-5.49 -18.35)"/><path class="cls-2" d="M1038.27,287.84c-70.14,0-142.8-.09-215.47.1-10.28,0-14.76-3.85-14.74-14.41.2-72.71.11-145.42.11-215.65Z" transform="translate(-5.49 -18.35)"/><rect class="cls-3" y="306.37" width="621.92" height="621.77" rx="54.75"/><path class="cls-4" d="M231,456.67l51,76.9c13.31,20,24.41,38.45,36.24,58.41h2.22c11.83-21.44,23.66-39.93,35.5-59.15l50.28-76.16h70.26l-122,173L480.26,814.53h-74l-52.5-80.59c-14.05-20.71-25.89-40.67-38.46-62.11h-1.48c-11.83,21.44-24.4,40.67-37.71,62.11l-51.77,80.59H152.64L279.84,631.9,158.56,456.67Z" transform="translate(-5.49 -18.35)"/><text class="cls-5" transform="translate(715.84 725.31)">a,</text></svg>