<svg id="Capa_1" data-name="Capa 1" xmlns="http://www.w3.org/2000/svg" viewBox="0 0 577 551"><defs><style>.cls-1{fill:#fff;}.cls-2{fill:gray;}.cls-3{fill:#fef5e8;}.cls-4{fill:#f8e3c6;}.cls-5{fill:#010101;}.cls-6{fill:#010100;}.cls-7{fill:#010000;}.cls-8{fill:#020202;}.cls-9{fill:#c9ced7;}.cls-10{fill:#338cee;}.cls-11{fill:#3e4a59;}.cls-12{fill:#4c93eb;}.cls-13{fill:#c7ccd5;}.cls-14{fill:#a4dcfe;}.cls-15{fill:#feccab;}.cls-16{fill:#ec5253;}</style></defs><title>cv_doc</title><rect class="cls-1" x="316.5" y="290.5" width="256" height="256"/><path class="cls-2" d="M270.5,270.5H5.5V5.5h265Zm-256-9h247V14.5H14.5Z" transform="translate(306.5 280.5)"/><path class="cls-3" d="M178.08,148.77c0-1.52,0-3,0-4.55-1.43-.9-1.49-2.28-1.48-3.79q0-21.9,0-43.81c0-2.56-.05-2.6-2.65-2.6h-.46c-9.67,0-19.35,0-29,0-1.59,0-3-.1-4.09-1.49h-4.53c-.35,1.4-.81,1.77-2.35,1.77H118.94c-2,0-2,0-2,1.93,0,2.63-1.4,4.6-3.7,5.15a4.92,4.92,0,0,1-5.25-2c-.57.13-.5.62-.55,1a14.24,14.24,0,0,0,0,1.6v85.29c0,3.18,0,6.35,0,9.53a2.29,2.29,0,0,0,.37,1.74c.38,0,.76,0,1.15,0q32.92,0,65.85,0c1.18,0,1.44-.3,1.44-1.45q-.06-23,0-46C176.21,149.47,176.56,149,178.08,148.77Z" transform="translate(306.5 280.5)"/><path d="M196.55,121.45v2.87c0,3.75,0,7.5,0,11.25a3.22,3.22,0,0,1-1,2.82c-.4.33-.23.78-.23,1.18,0,9.68,0,19.36,0,29a30.31,30.31,0,0,1-2.12,11.53c-.61,1.5-1.45,2.21-2.73,2.21s-2.16-.72-2.75-2.2a30.57,30.57,0,0,1-2.12-11.42c0-9.72,0-19.44,0-29.16a1.75,1.75,0,0,0-.54-1.52,2.1,2.1,0,0,1-.63-1.67V118a1.46,1.46,0,0,1,.27-1.09c1.18-1,.86-2.41.9-3.71a4.84,4.84,0,0,1,9.67-.4,9.89,9.89,0,0,1,0,1.72,2.76,2.76,0,0,0,1.46,2.74c1.24.88,2.53,1.71,3.83,2.51a2.55,2.55,0,0,1,1.31,2.36q0,14.13,0,28.25c0,1.37-.63,2.14-1.69,2.16s-1.75-.74-1.75-2.18q0-13.2,0-26.41C198.49,122.28,198.4,122.16,196.55,121.45Z" transform="translate(306.5 280.5)"/><path d="M178.07,144.22c-1.6-.38-1.86-.72-1.86-2.48,0-15.34,0-30.68,0-46,0-1.21-.34-1.43-1.46-1.43-10.6,0-21.19,0-31.78,0-1.75,0-2.15-.28-2.61-1.78a2,2,0,0,1,2.22-1.68c11,0,22,0,33.07,0a3.71,3.71,0,0,1,4,4q0,23.48,0,47A2.08,2.08,0,0,1,178.07,144.22Z" transform="translate(306.5 280.5)"/><path class="cls-4" d="M108,99.44c-.32.32-.2.72-.2,1.09v98.08c-1.49,0-3,0-4.47.06-.69,0-.89-.27-.82-.88a5.61,5.61,0,0,0,0-.58q0-50.73,0-101.47c0-1.17.27-1.56,1.44-1.43,1,.1,2.19-.31,2.93.12s.19,1.81.37,2.76A9.2,9.2,0,0,0,108,99.44Z" transform="translate(306.5 280.5)"/><path class="cls-5" d="M146.73,148H128.82a6.24,6.24,0,0,1-1.37-.11,1.52,1.52,0,0,1-1.27-1.55,1.55,1.55,0,0,1,1.27-1.67,5.24,5.24,0,0,1,1.25-.11h36.05a5.2,5.2,0,0,1,1.25.12,1.66,1.66,0,0,1,0,3.2,6.58,6.58,0,0,1-1.48.12Z" transform="translate(306.5 280.5)"/><path d="M146.73,164.46H128.59a3.82,3.82,0,0,1-1.36-.13,1.57,1.57,0,0,1-1-1.51,1.61,1.61,0,0,1,.95-1.57,2.94,2.94,0,0,1,1.35-.23h36.39a4,4,0,0,1,1.24.17,1.54,1.54,0,0,1,1.11,1.68,1.6,1.6,0,0,1-1.44,1.55,7.2,7.2,0,0,1-1.14,0Z" transform="translate(306.5 280.5)"/><path class="cls-6" d="M146.73,136.35h17.79a10.54,10.54,0,0,1,1.26,0,1.57,1.57,0,0,1,1.44,1.55,1.55,1.55,0,0,1-1.22,1.71,5.2,5.2,0,0,1-1.25.13H128.7a5.31,5.31,0,0,1-1.25-.13,1.52,1.52,0,0,1-1.26-1.67,1.56,1.56,0,0,1,1.48-1.6,8.84,8.84,0,0,1,1.15,0Z" transform="translate(306.5 280.5)"/><path class="cls-7" d="M146.62,156.23h-17.8a8.79,8.79,0,0,1-1.26-.05,1.55,1.55,0,0,1-1.37-1.47,1.59,1.59,0,0,1,1-1.73,3.64,3.64,0,0,1,1.47-.19h36.05a4.35,4.35,0,0,1,1.35.17,1.53,1.53,0,0,1,1.12,1.67,1.56,1.56,0,0,1-1.43,1.55,10.61,10.61,0,0,1-1.26,0Z" transform="translate(306.5 280.5)"/><path d="M120.41,112.14c0-1.37-.06-2.75,0-4.12a4.91,4.91,0,0,1,4.38-4.82,7.79,7.79,0,0,1,5.62,1,4.27,4.27,0,0,1,2,4.31c-.11,1.13-.91,1.33-1.8,1.33s-1.76,0-2-1.25c-.32-1.67-.94-2.2-2.29-2.13a1.9,1.9,0,0,0-2,1.88,42.71,42.71,0,0,0,0,7.67,1.86,1.86,0,0,0,2.09,1.94c1.29,0,1.89-.45,2.16-1.85.15-.78.25-1.47,1.23-1.68,1.95-.42,2.85.35,2.65,2.34a4.37,4.37,0,0,1-2.21,3.54,7.42,7.42,0,0,1-7.24.3,4.54,4.54,0,0,1-2.54-4.08c-.08-1.45,0-2.91,0-4.36Z" transform="translate(306.5 280.5)"/><path d="M140.78,116.11c1-3.82,2.05-7.61,3.08-11.4.18-.65.25-1.41,1.12-1.56a2.77,2.77,0,0,1,2.43.71,1.3,1.3,0,0,1,.28,1.49q-2.17,7.17-4.37,14.33a2.44,2.44,0,0,1-2.68,1.68,2.35,2.35,0,0,1-2.58-1.65q-2.25-7.2-4.45-14.42c-.31-1,.23-1.72,1.42-2.06s2-.07,2.31,1.09q1.54,5.57,3,11.14C140.45,115.68,140.43,115.93,140.78,116.11Z" transform="translate(306.5 280.5)"/><path class="cls-5" d="M138.16,131.22c-1.84,0-3.67,0-5.51,0-1.42,0-2.13-.58-2.16-1.66s.72-1.78,2.18-1.79q5.51,0,11,0c1.47,0,2.26.8,2.09,2a1.67,1.67,0,0,1-1.87,1.48Z" transform="translate(306.5 280.5)"/><path class="cls-8" d="M116.52,148c-1.1,0-2.21,0-3.32,0-1.32,0-2-.64-2-1.69s.68-1.72,2-1.74q3.31-.06,6.65,0a1.76,1.76,0,0,1,1.94,1.68c0,1-.75,1.7-2,1.75C118.67,148,117.59,148,116.52,148Z" transform="translate(306.5 280.5)"/><path d="M116.4,164.46c-1.14,0-2.29,0-3.44,0a1.7,1.7,0,0,1-.16-3.39c2.41-.08,4.82-.07,7.23,0a1.7,1.7,0,1,1-.19,3.4C118.7,164.48,117.55,164.46,116.4,164.46Z" transform="translate(306.5 280.5)"/><path class="cls-5" d="M116.52,156.22c-1.14,0-2.29,0-3.44,0s-1.89-.64-1.91-1.67a1.65,1.65,0,0,1,1.74-1.74q3.56-.09,7.11,0a1.7,1.7,0,1,1-.17,3.39C118.74,156.25,117.63,156.22,116.52,156.22Z" transform="translate(306.5 280.5)"/><path class="cls-5" d="M116.41,136.36c1.15,0,2.3,0,3.44,0a1.71,1.71,0,1,1,.05,3.41q-3.5.08-7,0a1.7,1.7,0,1,1,.06-3.4C114.12,136.33,115.26,136.36,116.41,136.36Z" transform="translate(306.5 280.5)"/><path class="cls-9" d="M191.91,152.47c0,4.09,0,8.18,0,12.27,0,.79-.1,1.14-1,1.1-1.8-.08-1.81,0-1.81-1.79,0-8,0-16,0-24,0-.91.24-1.15,1.14-1.12,1.7.07,1.7,0,1.7,1.7Z" transform="translate(306.5 280.5)"/><path class="cls-10" d="M192.32,135.5c-1.23,0-2.45,0-3.67.06-.65,0-.74-.28-.74-.83q0-7.5,0-15c0-.55.09-.85.74-.82,1.22,0,2.44,0,3.67.06a2.16,2.16,0,0,1,.36,1.52q0,6.75,0,13.51A2.11,2.11,0,0,1,192.32,135.5Z" transform="translate(306.5 280.5)"/><path class="cls-11" d="M190.52,177.57a24.11,24.11,0,0,1-1.43-7.48c0-.67.23-.84.86-.85,1.94,0,2-.07,1.89,1.84A22.59,22.59,0,0,1,190.52,177.57Z" transform="translate(306.5 280.5)"/><path class="cls-12" d="M192.32,135.5V119c.6-.19.82,0,.82.66,0,5.08,0,10.15,0,15.22C193.14,135.47,192.91,135.67,192.32,135.5Z" transform="translate(306.5 280.5)"/><path class="cls-13" d="M190.34,115.42c-1.14.35-1.31-.28-1.27-1.31.07-1.66.39-2.28,1.39-2.3s1.35.64,1.49,2.45C192.05,115.64,191.28,115.51,190.34,115.42Z" transform="translate(306.5 280.5)"/><path d="M148.22,183.67A11.71,11.71,0,1,1,160,195.4,11.74,11.74,0,0,1,148.22,183.67Z" transform="translate(306.5 280.5)"/><path class="cls-1" d="M155.35,182.66a4.86,4.86,0,0,0,.75,3c.2.28.1.39-.16.51a8.48,8.48,0,0,0-3.13,2.63c-.21.29-.32.22-.49,0a9.11,9.11,0,0,1,6.21-14.1,9,9,0,0,1,10.34,7.1,8.89,8.89,0,0,1-1.32,7c-.21.31-.32.31-.53,0a8,8,0,0,0-3-2.55c-.35-.17-.4-.3-.18-.65A5.48,5.48,0,0,0,163,179a4.39,4.39,0,0,0-4.85-.86,4.46,4.46,0,0,0-2.83,4.11C155.34,182.44,155.35,182.63,155.35,182.66Z" transform="translate(306.5 280.5)"/><path class="cls-14" d="M159.92,192.86a9.62,9.62,0,0,1-5.2-1.65c-.3-.21-.25-.34-.09-.59a6.37,6.37,0,0,1,10.58,0c.18.28.22.42-.1.64A9.56,9.56,0,0,1,159.92,192.86Z" transform="translate(306.5 280.5)"/><path class="cls-15" d="M162,182.8a2.07,2.07,0,0,1-2.7,2.3c-1.08-.41-1.59-1.51-1.35-3a2.06,2.06,0,0,1,1.91-1.74A2.09,2.09,0,0,1,162,182.8Z" transform="translate(306.5 280.5)"/><path d="M178.08,148.77a2,2,0,0,1,1.58,2.19q0,23.6,0,47.2a3.73,3.73,0,0,1-4,3.93H103.09c-2.6,0-4-1.56-4-4.36V95.19c0-2.88,1.41-4.29,4.29-4.31,1,0,2.07,0,3.1,0,.54,0,.75-.16.72-.71A5.31,5.31,0,0,1,111,84.51h2.07A5.31,5.31,0,0,1,117,90.23c0,.86.55.65,1,.65,5.24,0,10.47,0,15.71,0,1.21,0,2,.43,2.2,1.68.38.89-.17,1.36-.83,1.74a4.6,4.6,0,0,1-2.34.44c-4.6,0-9.19,0-13.78,0-1.52,0-1.52,0-1.59,1.52-.16,3.57-2.47,5.82-5.76,5.57a5,5,0,0,1-3.88-2.35,6.8,6.8,0,0,1-.92-3.51c0-.88-.42-1.18-1.27-1.21-2.6-.1-2.6-.13-2.6,2.48v98.7c0,2.56-.08,2.34,2.39,2.35.84,0,1.69,0,2.53,0,.57-.05,1.14,0,1.72,0H173.6c2.26,0,2.26,0,2.26-2.28V152a8.61,8.61,0,0,1,.09-1.83A1.65,1.65,0,0,1,178.08,148.77Z" transform="translate(306.5 280.5)"/><path class="cls-16" d="M110.62,93.11c0-1.14,0-2.29,0-3.43,0-.93.4-1.71,1.45-1.69s1.43.76,1.44,1.72q0,3.32,0,6.63c0,.94-.34,1.67-1.41,1.73-.92.06-1.45-.57-1.49-1.75S110.62,94.18,110.62,93.11Z" transform="translate(306.5 280.5)"/><path d="M153.44,112.92v7.73H152v-.83a2.4,2.4,0,0,1-.57.71,1.29,1.29,0,0,1-.76.24,1.39,1.39,0,0,1-1.29-.87,4.54,4.54,0,0,1-.45-2.11,3.9,3.9,0,0,1,.49-2.13,1.48,1.48,0,0,1,1.26-.74,1.39,1.39,0,0,1,.67.17,1.57,1.57,0,0,1,.53.5v-2.67Zm-1.59,4.91a1.82,1.82,0,0,0-.2-1,.61.61,0,0,0-.52-.33.56.56,0,0,0-.47.31,2.24,2.24,0,0,0-.18,1,2,2,0,0,0,.19,1,.57.57,0,0,0,.48.32.59.59,0,0,0,.5-.32A2,2,0,0,0,151.85,117.83Z" transform="translate(306.5 280.5)"/><path d="M154.21,117.86a3.33,3.33,0,0,1,.64-2.11,2.25,2.25,0,0,1,3.6.15,3.45,3.45,0,0,1,.51,1.93,3.4,3.4,0,0,1-.63,2.12,2.09,2.09,0,0,1-1.75.82,2.07,2.07,0,0,1-1.61-.68A3.21,3.21,0,0,1,154.21,117.86Zm1.59,0A2.11,2.11,0,0,0,156,119a.66.66,0,0,0,.56.36.67.67,0,0,0,.57-.35,2.29,2.29,0,0,0,.22-1.13,2.2,2.2,0,0,0-.22-1.09.64.64,0,0,0-.55-.35.68.68,0,0,0-.58.36A2.11,2.11,0,0,0,155.8,117.86Z" transform="translate(306.5 280.5)"/><path d="M162.8,118.45l1.51.23a3.24,3.24,0,0,1-.41,1.11,2,2,0,0,1-.73.72,2.09,2.09,0,0,1-1.12.26,3.1,3.1,0,0,1-1.09-.16,1.84,1.84,0,0,1-.76-.54,2.85,2.85,0,0,1-.49-.87,4.06,4.06,0,0,1-.18-1.33,4,4,0,0,1,.22-1.44,2.53,2.53,0,0,1,.43-.75,2.13,2.13,0,0,1,.57-.5,2.47,2.47,0,0,1,1.19-.26,2.18,2.18,0,0,1,1.54.49,2.72,2.72,0,0,1,.75,1.43l-1.49.27a1.05,1.05,0,0,0-.26-.54.67.67,0,0,0-.49-.18.73.73,0,0,0-.64.38,2.23,2.23,0,0,0-.24,1.16,1.84,1.84,0,0,0,.24,1,.71.71,0,0,0,.61.36.74.74,0,0,0,.53-.21A1.44,1.44,0,0,0,162.8,118.45Z" transform="translate(306.5 280.5)"/><path d="M165,118.49h1.69v2.16H165Z" transform="translate(306.5 280.5)"/><rect class="cls-1" width="7"/></svg>