<svg id="Capa_1" data-name="Capa 1" xmlns="http://www.w3.org/2000/svg" viewBox="0 0 265 265"><defs><style>.cls-1{fill:#fff;}.cls-2{fill:gray;}.cls-3{fill:#fef5e8;}.cls-4{fill:#f8e3c6;}.cls-5{fill:#010101;}.cls-6{fill:#010100;}.cls-7{fill:#010000;}.cls-8{fill:#020202;}.cls-9{fill:#c9ced7;}.cls-10{fill:#338cee;}.cls-11{fill:#3e4a59;}.cls-12{fill:#4c93eb;}.cls-13{fill:#c7ccd5;}.cls-14{fill:#a4dcfe;}.cls-15{fill:#feccab;}.cls-16{fill:#ec5253;}</style></defs><title>cv_no_doc</title><rect class="cls-1" x="4.5" y="4.5" width="256" height="256"/><path class="cls-2" d="M270.5,270.5H5.5V5.5h265Zm-256-9h247V14.5H14.5Z" transform="translate(-5.5 -5.5)"/><path class="cls-3" d="M177.82,137v-5.27c-1.66-1-1.73-2.65-1.73-4.4q.06-25.41,0-50.82c0-3-.06-3-3.08-3h-.53c-11.22,0-22.43,0-33.65,0-1.84,0-3.54-.11-4.74-1.73h-5.27c-.4,1.63-.93,2.06-2.72,2.06H109.24c-2.28,0-2.28,0-2.31,2.23,0,3.06-1.62,5.34-4.29,6a5.72,5.72,0,0,1-6.1-2.27c-.65.14-.57.71-.63,1.16a14.56,14.56,0,0,0,0,1.87v98.92q0,5.52,0,11a2.65,2.65,0,0,0,.43,2c.45,0,.89,0,1.33,0q38.19,0,76.38,0c1.37,0,1.67-.35,1.67-1.69-.05-17.78,0-35.57,0-53.35C175.66,137.85,176.06,137.33,177.82,137Z" transform="translate(-5.5 -5.5)"/><path d="M199.25,105.34v3.33c0,4.35,0,8.7,0,13,0,1.23-.06,2.41-1.11,3.27-.46.38-.27.9-.27,1.36,0,11.23,0,22.46,0,33.69a35.12,35.12,0,0,1-2.46,13.37c-.71,1.75-1.68,2.57-3.17,2.56s-2.5-.83-3.18-2.55a35.48,35.48,0,0,1-2.47-13.24c0-11.28,0-22.55,0-33.82a2,2,0,0,0-.64-1.77,2.43,2.43,0,0,1-.72-1.93V101.35a1.66,1.66,0,0,1,.32-1.26c1.36-1.21,1-2.8,1-4.3a5.62,5.62,0,0,1,11.22-.47,10.3,10.3,0,0,1,0,2,3.2,3.2,0,0,0,1.69,3.17c1.45,1,2.94,2,4.45,2.92a3,3,0,0,1,1.52,2.74c0,10.91,0,21.83,0,32.75,0,1.6-.73,2.49-2,2.52s-2-.87-2-2.54q0-15.32,0-30.62C201.5,106.31,201.39,106.17,199.25,105.34Z" transform="translate(-5.5 -5.5)"/><path d="M177.82,131.76c-1.86-.45-2.16-.84-2.16-2.89,0-17.79,0-35.57,0-53.36,0-1.4-.39-1.66-1.69-1.65-12.29,0-24.58,0-36.86,0-2,0-2.5-.32-3-2.06a2.26,2.26,0,0,1,2.57-1.94c12.78,0,25.57,0,38.35,0,2.87,0,4.6,1.79,4.61,4.7q0,27.23,0,54.46A2.44,2.44,0,0,1,177.82,131.76Z" transform="translate(-5.5 -5.5)"/><path class="cls-4" d="M96.54,79.82c-.36.37-.22.83-.22,1.26q0,56.88,0,113.76c-1.73,0-3.46,0-5.18.06-.8,0-1-.3-.95-1a5,5,0,0,0,0-.67q0-58.85,0-117.69c0-1.35.32-1.81,1.67-1.66,1.14.13,2.54-.36,3.4.15s.22,2.1.43,3.19A11.25,11.25,0,0,0,96.54,79.82Z" transform="translate(-5.5 -5.5)"/><path class="cls-5" d="M141.46,136.15H120.69a7.69,7.69,0,0,1-1.59-.12,1.76,1.76,0,0,1-1.46-1.81,1.79,1.79,0,0,1,1.47-1.94,6.32,6.32,0,0,1,1.45-.12h41.81a5.85,5.85,0,0,1,1.45.14,1.93,1.93,0,0,1,0,3.71,7.64,7.64,0,0,1-1.72.14Z" transform="translate(-5.5 -5.5)"/><path d="M141.46,155.23h-21a4.29,4.29,0,0,1-1.57-.16,1.84,1.84,0,0,1-1.22-1.75,1.87,1.87,0,0,1,1.11-1.82,3.43,3.43,0,0,1,1.56-.26h42.21a4.53,4.53,0,0,1,1.43.19,1.8,1.8,0,0,1,1.29,1.95,1.85,1.85,0,0,1-1.67,1.8,8.36,8.36,0,0,1-1.33,0Z" transform="translate(-5.5 -5.5)"/><path class="cls-6" d="M141.46,122.63H162.1a10.13,10.13,0,0,1,1.46.06,1.81,1.81,0,0,1,1.67,1.79,1.78,1.78,0,0,1-1.42,2,5.78,5.78,0,0,1-1.44.16H120.56a6.37,6.37,0,0,1-1.45-.14,1.77,1.77,0,0,1-1.47-1.94,1.81,1.81,0,0,1,1.72-1.86,9.86,9.86,0,0,1,1.33-.05Z" transform="translate(-5.5 -5.5)"/><path class="cls-7" d="M141.33,145.68H120.69a8.87,8.87,0,0,1-1.46-.06,1.81,1.81,0,0,1-1.59-1.71,1.83,1.83,0,0,1,1.21-2,4.07,4.07,0,0,1,1.7-.22h41.82a4.91,4.91,0,0,1,1.57.2,1.77,1.77,0,0,1,1.29,1.94,1.82,1.82,0,0,1-1.66,1.79,14.26,14.26,0,0,1-1.46.06Z" transform="translate(-5.5 -5.5)"/><path d="M100.82,94.41c0-1.59-.07-3.19,0-4.78a5.67,5.67,0,0,1,5.07-5.58,9,9,0,0,1,6.53,1.13,5,5,0,0,1,2.32,5c-.13,1.3-1.06,1.55-2.09,1.54s-2-.06-2.31-1.45c-.37-1.94-1.09-2.55-2.65-2.47A2.21,2.21,0,0,0,105.34,90a48.89,48.89,0,0,0,0,8.89,2.16,2.16,0,0,0,2.42,2.25c1.5,0,2.19-.51,2.51-2.14.17-.9.29-1.71,1.43-2,2.26-.49,3.3.41,3.07,2.72a5,5,0,0,1-2.57,4.1,8.57,8.57,0,0,1-8.39.35,5.27,5.27,0,0,1-3-4.73c-.1-1.68,0-3.37,0-5Z" transform="translate(-5.5 -5.5)"/><path d="M125.51,99c1.2-4.42,2.38-8.82,3.58-13.22.2-.75.28-1.63,1.29-1.81a3.24,3.24,0,0,1,2.82.83,1.52,1.52,0,0,1,.33,1.72q-2.52,8.32-5.07,16.63c-.42,1.33-1.48,2-3.12,2s-2.58-.6-3-1.91q-2.61-8.36-5.16-16.74c-.35-1.16.26-2,1.65-2.38s2.31-.09,2.68,1.26c1.19,4.31,2.36,8.62,3.54,12.93C125.12,98.52,125.1,98.81,125.51,99Z" transform="translate(-5.5 -5.5)"/><path class="cls-5" d="M131.53,116.68c-2.13,0-4.26,0-6.39,0-1.66,0-2.47-.67-2.51-1.93s.84-2.06,2.52-2.07q6.39,0,12.78,0c1.7,0,2.62.92,2.42,2.28a1.93,1.93,0,0,1-2.17,1.71C136,116.69,133.74,116.67,131.53,116.68Z" transform="translate(-5.5 -5.5)"/><path class="cls-8" d="M106.43,136.15c-1.28,0-2.57,0-3.86,0-1.53-.05-2.33-.74-2.35-2s.79-2,2.28-2c2.57,0,5.15,0,7.72,0a2,2,0,0,1,2.25,2c0,1.16-.87,2-2.31,2C108.92,136.18,107.67,136.15,106.43,136.15Z" transform="translate(-5.5 -5.5)"/><path d="M106.29,155.22c-1.33,0-2.66,0-4,0a1.88,1.88,0,0,1-2.06-1.81,1.85,1.85,0,0,1,1.87-2.13c2.79-.08,5.59-.08,8.38,0a2,2,0,1,1-.21,3.95C109,155.25,107.62,155.22,106.29,155.22Z" transform="translate(-5.5 -5.5)"/><path class="cls-5" d="M106.43,145.67c-1.33,0-2.66,0-4,0s-2.2-.74-2.22-1.93a1.91,1.91,0,0,1,2-2c2.74-.07,5.5-.07,8.24,0a2,2,0,1,1-.19,3.93C109,145.7,107.72,145.67,106.43,145.67Z" transform="translate(-5.5 -5.5)"/><path class="cls-5" d="M106.3,122.64c1.33,0,2.66,0,4,0a2,2,0,1,1,.06,4c-2.7.06-5.41.06-8.11,0a2,2,0,1,1,.07-3.94C103.64,122.6,105,122.64,106.3,122.64Z" transform="translate(-5.5 -5.5)"/><path class="cls-9" d="M193.87,141.33c0,4.74,0,9.48,0,14.22,0,.92-.12,1.32-1.2,1.28-2.09-.1-2.09,0-2.09-2.08,0-9.26,0-18.52,0-27.78,0-1.06.29-1.35,1.32-1.31,2,.08,2,0,2,2Z" transform="translate(-5.5 -5.5)"/><path class="cls-10" d="M194.34,121.63c-1.42,0-2.84,0-4.25.07-.76,0-.86-.31-.86-1q0-8.72,0-17.43c0-.63.1-1,.86-.95,1.41.07,2.83,0,4.25.07a2.52,2.52,0,0,1,.42,1.76q0,7.85,0,15.67A2.44,2.44,0,0,1,194.34,121.63Z" transform="translate(-5.5 -5.5)"/><path class="cls-11" d="M192.25,170.43a28.42,28.42,0,0,1-1.65-8.68c0-.77.26-1,1-1,2.24-.05,2.3-.07,2.19,2.14A26.52,26.52,0,0,1,192.25,170.43Z" transform="translate(-5.5 -5.5)"/><path class="cls-12" d="M194.34,121.63V102.44c.69-.21.95,0,.95.77q0,8.83,0,17.66C195.29,121.6,195,121.84,194.34,121.63Z" transform="translate(-5.5 -5.5)"/><path class="cls-13" d="M192.05,98.35c-1.33.41-1.53-.33-1.47-1.52.08-1.92.45-2.65,1.61-2.67s1.56.74,1.72,2.84C194,98.6,193.14,98.46,192.05,98.35Z" transform="translate(-5.5 -5.5)"/><path d="M143.19,177.51a13.58,13.58,0,1,1,13.6,13.6A13.63,13.63,0,0,1,143.19,177.51Z" transform="translate(-5.5 -5.5)"/><path class="cls-1" d="M151.46,176.34a5.54,5.54,0,0,0,.88,3.47c.22.33.11.46-.19.6a9.76,9.76,0,0,0-3.63,3.05c-.25.34-.37.25-.57-.05a10.56,10.56,0,0,1,7.2-16.35,10.45,10.45,0,0,1,12,8.24,10.31,10.31,0,0,1-1.53,8.1c-.24.36-.36.36-.61,0a9.34,9.34,0,0,0-3.52-3c-.41-.19-.46-.34-.21-.75a6.36,6.36,0,0,0-.9-7.62,5.08,5.08,0,0,0-5.62-1,5.14,5.14,0,0,0-3.28,4.76A4.36,4.36,0,0,0,151.46,176.34Z" transform="translate(-5.5 -5.5)"/><path class="cls-14" d="M156.76,188.17a11,11,0,0,1-6-1.92c-.36-.24-.3-.39-.11-.69a7.39,7.39,0,0,1,12.27,0c.21.32.26.48-.12.73A11.11,11.11,0,0,1,156.76,188.17Z" transform="translate(-5.5 -5.5)"/><path class="cls-15" d="M159.13,176.5a2.4,2.4,0,0,1-3.13,2.66c-1.26-.47-1.85-1.74-1.56-3.51a2.35,2.35,0,0,1,2.2-2A2.42,2.42,0,0,1,159.13,176.5Z" transform="translate(-5.5 -5.5)"/><path d="M177.82,137a2.26,2.26,0,0,1,1.84,2.54q0,27.38,0,54.74a4.31,4.31,0,0,1-4.62,4.56H90.85c-3,0-4.66-1.81-4.66-5.05V74.88c0-3.33,1.63-5,5-5,1.2,0,2.4,0,3.6,0,.63,0,.87-.19.84-.83-.17-3.29,1.4-5.43,4.44-6.57h2.4c3.08,1.14,4.68,3.29,4.48,6.63-.06,1,.64.75,1.16.75q9.12,0,18.23,0c1.39,0,2.3.5,2.54,1.94.45,1-.19,1.58-1,2a5.37,5.37,0,0,1-2.71.51h-16c-1.77,0-1.77,0-1.85,1.76-.18,4.14-2.86,6.75-6.67,6.46a5.68,5.68,0,0,1-4.5-2.72,7.71,7.71,0,0,1-1.07-4.07c0-1-.49-1.37-1.48-1.41-3-.11-3-.14-3,2.89V191.73c0,3-.09,2.71,2.78,2.73,1,0,2,0,2.93,0,.67-.06,1.33,0,2,0h74.31c2.62,0,2.62,0,2.62-2.64q0-25.5,0-51a10.82,10.82,0,0,1,.09-2.13A1.91,1.91,0,0,1,177.82,137Z" transform="translate(-5.5 -5.5)"/><path class="cls-16" d="M99.58,72.48c0-1.33,0-2.66,0-4,0-1.08.47-2,1.69-2s1.66.88,1.67,2c0,2.56,0,5.13,0,7.69,0,1.09-.4,1.93-1.63,2-1.07.07-1.69-.67-1.73-2S99.58,73.72,99.58,72.48Z" transform="translate(-5.5 -5.5)"/><path d="M135.15,97.91h1.71V99a2.85,2.85,0,0,1,.77-.92,1.58,1.58,0,0,1,1-.28,1.36,1.36,0,0,1,1.19.61,3.32,3.32,0,0,1,.43,1.9v4.13h-1.84v-3.57a1.68,1.68,0,0,0-.17-.87.53.53,0,0,0-.47-.25.61.61,0,0,0-.54.34,2.55,2.55,0,0,0-.21,1.23v3.12h-1.83Z" transform="translate(-5.5 -5.5)"/><path d="M141.08,101.18a3.92,3.92,0,0,1,.74-2.45,2.4,2.4,0,0,1,2-1A2.44,2.44,0,0,1,146,98.9a4.06,4.06,0,0,1,.59,2.24,3.93,3.93,0,0,1-.73,2.46,2.61,2.61,0,0,1-3.9.16A3.77,3.77,0,0,1,141.08,101.18Zm1.85,0a2.56,2.56,0,0,0,.25,1.29.77.77,0,0,0,.66.41.74.74,0,0,0,.65-.41,2.57,2.57,0,0,0,.25-1.31,2.48,2.48,0,0,0-.25-1.26.72.72,0,0,0-1.3,0A2.39,2.39,0,0,0,142.93,101.17Z" transform="translate(-5.5 -5.5)"/><path d="M155.6,95.44v9h-1.72v-1a2.63,2.63,0,0,1-.66.82,1.47,1.47,0,0,1-.88.29,1.64,1.64,0,0,1-1.5-1,5.42,5.42,0,0,1-.51-2.46,4.47,4.47,0,0,1,.57-2.47,1.68,1.68,0,0,1,1.45-.85,1.61,1.61,0,0,1,.78.19,1.92,1.92,0,0,1,.62.59V95.44Zm-1.84,5.7a2.15,2.15,0,0,0-.24-1.14.7.7,0,0,0-.6-.37.62.62,0,0,0-.54.36,2.52,2.52,0,0,0-.22,1.21,2.27,2.27,0,0,0,.23,1.16.64.64,0,0,0,.55.37.69.69,0,0,0,.59-.37A2.45,2.45,0,0,0,153.76,101.14Z" transform="translate(-5.5 -5.5)"/><path d="M156.5,101.18a3.86,3.86,0,0,1,.74-2.45,2.38,2.38,0,0,1,2-1,2.44,2.44,0,0,1,2.18,1.13,4.06,4.06,0,0,1,.59,2.24,3.93,3.93,0,0,1-.73,2.46,2.61,2.61,0,0,1-3.9.16A3.77,3.77,0,0,1,156.5,101.18Zm1.84,0a2.44,2.44,0,0,0,.26,1.29.72.72,0,0,0,1.3,0,2.55,2.55,0,0,0,.26-1.31,2.47,2.47,0,0,0-.26-1.26.72.72,0,0,0-1.3,0A2.39,2.39,0,0,0,158.34,101.17Z" transform="translate(-5.5 -5.5)"/><path d="M166.46,101.86l1.75.27a4,4,0,0,1-.48,1.29,2.41,2.41,0,0,1-.84.84,2.53,2.53,0,0,1-1.3.3,3.56,3.56,0,0,1-1.27-.2,2.06,2.06,0,0,1-.87-.62,3.14,3.14,0,0,1-.58-1,4.68,4.68,0,0,1-.2-1.54,4.74,4.74,0,0,1,.25-1.67,3.19,3.19,0,0,1,.5-.88,2.58,2.58,0,0,1,.66-.57,2.82,2.82,0,0,1,1.38-.3,2.55,2.55,0,0,1,1.79.57,3.1,3.1,0,0,1,.86,1.66l-1.73.31a1.19,1.19,0,0,0-.29-.63.79.79,0,0,0-.58-.21.85.85,0,0,0-.74.45,2.6,2.6,0,0,0-.28,1.34,2.23,2.23,0,0,0,.28,1.21.85.85,0,0,0,.72.42.82.82,0,0,0,.6-.25A1.58,1.58,0,0,0,166.46,101.86Z" transform="translate(-5.5 -5.5)"/><path d="M169.05,101.91h2v2.5h-2Z" transform="translate(-5.5 -5.5)"/></svg>