<svg id="Capa_1" data-name="Capa 1" xmlns="http://www.w3.org/2000/svg" viewBox="0 0 1034.97 931.72"><defs><style>.cls-1{fill:#030303;}.cls-2{fill:#020202;}</style></defs><title>default_producto</title><path d="M505.45,486.44a307.89,307.89,0,0,1-25.31,120.29c-1.62,3.79-2.79,5.37-8.33,4.95a69.17,69.17,0,0,0-45,12.25c-3.72,2.57-4.93,2.12-7.76.13C359.22,582,321.35,525,303.28,454.35c-1.28-5,.35-6.06,4.7-7.18,58.34-15,116.68-30,174.87-45.63,7.45-2,8,2.37,9.51,6.53C502.07,434.15,504.87,461.37,505.45,486.44Z" transform="translate(-22 -80.28)"/><path d="M817.45,1012a71.25,71.25,0,0,1-71.18-71.79c0-39.29,32.78-71.83,71.91-71.4,39.49.44,71.83,33.1,71.37,72.1A71.55,71.55,0,0,1,817.45,1012Z" transform="translate(-22 -80.28)"/><path d="M497,1012c-39.84-.05-71.31-31.66-71.3-71.6a71.4,71.4,0,0,1,71.61-71.51c39.19,0,71.57,32.49,71.5,71.79A71.48,71.48,0,0,1,497,1012Z" transform="translate(-22 -80.28)"/><path class="cls-1" d="M544.75,295.19c21.54,51.62,40.63,104,44.72,161.88-7.19-6.6-14.57-11.37-24.05-11-3.07.12-4.33-1.34-4.76-4.45q-9.95-72.79-20.1-145.56Z" transform="translate(-22 -80.28)"/><path d="M1022.35,508.15c7.49-4.82,13.08-15.15,24.72-7.16,4.6,3.17,6.79,4.89,1.6,9.24s-10,9.15-15,13.75c-3.35,2.63-4.94,9.12-11,5.93C1018.6,527.75,1018.71,514.27,1022.35,508.15Z" transform="translate(-22 -80.28)"/><path class="cls-2" d="M893.21,464.78q-1.8,3.18-3.61,6.36l-2.79,6.18c-2.46.37-3.35,2.93-5,3.81,3.08-3.44,6.26-7.08,6-12.47,1.23-3.77,2.35-7.58,3.71-11.31,3.66-10,1.62-17.64-9.31-22-3.55,9.42-3.52,20.23-10.89,29.58.54-6,1.11-10.64,1.33-15.31s.18-9.4.12-14.1c0-2.8.69-6.24-2.71-7.55-3.78-1.46-4.79,2-6.29,4.37-.71,1.14-1.63,2.15-2.77,3.63-2.64-4.83,3-12.87-3.92-13.24-5.59-.3-8.59-3.65-12.93-5.1-5.56-1.85-10.54-2.49-12.53,5.15-.56,2.13-1,6.16-5.3,4.77-1.66-4.92,8.46-10-.13-14.35-10.54-5.31-19.29-3.86-24.87,5.39,2.63-13.72-5.47-10.19-11.55-10.78-8.54-.83-7.2,3.92-6,9.13.22,1,0,3.85-1.57,2.48-4.24-3.7-3.94-2-3.84,2.13.65,26-6.44,50-19.84,72.08-2.65,4.37-3.55,6.75,2,9.86,26.75,15,53.27,30.45,79.72,46,4.13,2.42,6.1,1.7,8.58-2.06,14.28-21.69,29.22-43,39.93-66.81C892.07,476,894.22,471,893.21,464.78Z" transform="translate(-22 -80.28)"/><path d="M827.46,706.13l.17-.08a2.12,2.12,0,0,0,.11-.21Z" transform="translate(-22 -80.28)"/><path d="M1018.7,529.91c-.73,5.63-18.36,25.41-23.22,25.52-.92,0-1.9-2.67-2.85-4.11-4.12-11.81,1.6-19.67,10.54-26.24l12.42-9.7Z" transform="translate(-22 -80.28)"/><path d="M958.15,586.33a65.54,65.54,0,0,1-26.09,23.19c-5.32-15.76,1.58-26.36,14.52-34.42,2.62-1.64,4-5.1,8.2-5.32Z" transform="translate(-22 -80.28)"/><path d="M984.46,543c12.87,23-9.17,28.42-19.05,40.41C956.91,566.52,959.84,560.44,984.46,543Z" transform="translate(-22 -80.28)"/><path d="M923.91,595.75c4.72,22.53,3.39,25-20.75,40.43C898.49,611.48,893,622,923.91,595.75Z" transform="translate(-22 -80.28)"/><path d="M896.89,642.87c-9.2,5.6-14.54,16.39-25.85,19.14-8-21.62,9.81-28.44,22.74-40.46C895,629.83,895.94,636.35,896.89,642.87Z" transform="translate(-22 -80.28)"/><path d="M827.74,705.84c-8,.78-10.23-6.54-14.59-10.71-2.21-2.1.48-3.73,2-5.09,5.1-4.47,10.23-8.91,15.76-13.71,4.81,11.16,5.92,21.09-3.47,29.79Z" transform="translate(-22 -80.28)"/><path d="M864.46,659.89h0c-.36-3.37-.72-6.74-1.28-11.95l-13.92,12.81a99.53,99.53,0,0,0-8.25,6.58c-4.55,4.47-2,19.73,3.58,22.08A89.24,89.24,0,0,1,863.46,673C868,669,866.52,664.44,864.46,659.89Z" transform="translate(-22 -80.28)"/><path d="M1053,510.79c-7.09,4.24-11.33,12.16-19.41,14.85-1.77,5.46-6.94,7.53-10.83,10.87a150.71,150.71,0,0,1-25.21,21.9l-37.6,33h0a201.59,201.59,0,0,1-26.28,23L898.9,644.93A196.43,196.43,0,0,1,875,666.21h0l-8.46,7-10.83,11-4.62,4.09-6.39,4.16h0l-10.91,10.89c-1.19,2.79-2.89,4.47-6.11,2.79V706h0a2,2,0,0,1-.14.25c0,5.7-3,8.38-8.76,8.18L807,701.78c-.35,0-.69,0-1.06.1,0-.4,0-.8,0-1.2-3.29-.91-5.17-3.55-7.14-6-3.92-4.85-2.49-8.65,3-10.63,3.62-1.32,7.44-1.84,8.27-6.49,4.51-.88,10.25,1,10.64-7.18.27-5.65,12.54-.35,10.76-9.77,8.49-.16,9.19-11.13,16.94-12.21,2.89-.41,4.73-1.66,4.81-4.65.08-3.38,1-5.64,5-5.2s6-1.35,6.08-5.46c0-3,1.34-4.89,4.62-4.21,4.22.89,6.24-1.06,6.25-5s1.9-5,5.4-4.67,5.35-1.42,5.44-4.91c.08-3.7,1.9-5.1,5.52-4.58s5.6-1.1,5.51-4.72c-.06-2.47,1.17-5.29,2.94-5,6.56,1.17,8.17-2.29,8.55-7.59,9.48,1.43,8.94-13,18.37-11.63.49-9.2,13.34-7.52,14.45-16.58.42-3.44,3.79-3.69,6.8-2.15,5.07-11.84,17.8-10.92,26.58-16.42,10.49-6.58,19-16.34,28.34-24.73h0l16.54-13.05h0c4-3.59,7.93-7.19,12-10.92-9.27-6.53-16.61-7.11-24,1.51-4.88,5.7-11.3,10.09-17,15.12-1.89,1.67-3.86,3.93-5.91.62-6.26-10.14-11.85-4-17.34.66-19.16,16.19-40.64,29.11-61.3,43.47,14.52-26.26,29.93-51.76,44.73-77.6,3.89-6.79,7-11.23,15-5.49,2.2,1.57,5.86,2.19,8.23.32,2.86-2.26,1-5.14-.42-7.72-2-3.73-.11-7.09,1.5-10.26,6.66-13.14,15.43-24.41,28.83-31.36,5.28-2.74,9.62-6.43,12.08-11.94,11.63-26.07,35.62-46,37.32-77.3.37-6.81,1.19-12.34-4.23-16.06-8.37-5.75-17.82-16.28-27.69-9.65-9.4,6.31-20.7,11.33-26.43,23.68-8,17.26-19,33.18-28.79,49.59A29.16,29.16,0,0,0,961.68,401c.49,15.09-5.61,28.09-13.42,40.45-1.72,2.73-3.89,5.34-7.28,6.15-3,.72-7.32-1.16-8.38,3s2.58,6.82,5.59,8.45c7.15,3.84,5.53,7.74,2,13.5-16.44,27.18-33.11,54.26-48.3,82.13-12,22-27,40.61-47.53,55-9.71,6.82-18.55,14.88-27.78,22.37h0a219.32,219.32,0,0,0-28.88,21.17c-5.41,2.19-10,5.63-14.52,9.28-8.41,4.34-16.75,8.81-24,15a10.92,10.92,0,0,0-6.79,3.73h0l-4,2.47c-1.77-.1-3.54,0-2.28-2.8,1.73-3.81,3.18-7.74,4.74-11.62q2.07-4.54,4.12-9.09h0c6.51-13.66,12.86-27.41,19.58-41,8.39-17,22-28.91,40.6-30.78,14.38-1.44,21.17-10,28.94-19.4,4.45-5.36,4.29-8.8-1.76-12.75-24.24-15.81-49.67-29.42-75.51-42.37-4.78-2.4-7.89-1.54-9.29,3.12-3.47,11.6-12.55,22.77-2.78,35.63,1.81,2.38,1.92,6.15,2.56,9.33,6.67,33.64-16.94,54-32,77.46,0-29.79-2.31-59.64.46-89C722.9,474.21,732.28,398.15,741,322a117.47,117.47,0,0,1,4.19-19c2.49-8.61,8.47-10.87,16.87-8.56,9.14,2.5,16.18,8.13,21.93,15.16,11,13.41,21.33,27.35,32.26,40.8,2.66,3.27,5.44,9.5,11,5.54,5.12-3.64,7.79-9,4-15.93-11.87-21.5-23.51-43.12-38-63-13.37-18.34-29.77-32.45-52.82-37-9.92-1.95-19.94-3.48-29.78-5.76a36.76,36.76,0,0,0-25.18,2.83c-11.71,5.51-24,6.57-34.91-1.8-8.83-6.78-19-6-28.86-7-4.75-.48-6.38,3-6.85,6.73-1.41,11.11-2.59,22.25-3.65,33.39-.52,5.5,2,8.84,7.75,9.59,10,1.3,19.69,3,29.84-.71,17.59-6.33,41.34,4.73,39.6,29.11-.49,6.84.11,13.77-.61,20.57q-11.5,108.92-23.33,217.78c-2.42,22.43-5.26,44.8-10,68.51-13-18.52-29.47-33.7-23.5-58.08a9.68,9.68,0,0,0-.24-3.23c-.84-7.49-5.17-12.78-11.51-16-6.87-3.49-9,3.8-13,6.8a18.63,18.63,0,0,1-3.48,1.48c-5.07-19.21-6.56-38.77-9.95-57.79C589.2,466.66,581.34,455,561.42,457c-6.39.62-7-1.6-7.69-6.7C552,437.89,552.26,425.35,551,413c-3.19-31.62-8.08-63.08-12.89-94.51-1.13-7.37-.09-15.5-6-24.68-6.32,20.58-5.71,39.74-7.91,58.53-3.49-5.56-5.89-11.16-8.63-16.59-16.28-32.21-7.62-27.36-44-26-39.74,1.52-79.39,5.14-119.2,4.74-4.57,0-10,.9-13.3-3.12a212.91,212.91,0,0,1-21.33-31.29c-3.06-5.49,1.41-7.76,4.82-10.32,4.47-3.36,5.31,1.27,7.06,3.47s3.23,4.78,4.85,7.16c12.17,18,18.68,19.76,38.36,9.23,21-11.25,41.8-22.9,62.58-34.56Q509,213.83,582.58,172.29c8.8-5,14.92-11.85,11-23-6.94-19.79-14.9-39.13-27.77-56-11.4-14.91-19.88-16.55-36.26-7.46L318.46,203c-14.63,8.11-17.93,16.94-11,32.15,3.92,8.66,9,16.81,13.61,25.32-1.65,1-2.87,1.77-4.1,2.49-12.49,7.34-13.34,10-6.08,22,6.16,10.19,13,20,18.9,30.31,4.14,7.23,9.71,9.54,17.78,9.28,37.23-1.22,74.47-1.91,111.7-3,38.23-1.13,38.33-1.29,55.73,33.64,4.27,8.58,9.91,16.57,9,27.26-2.93,36.21,5.2,71.37,11.22,106.68,2.19,12.84,12.12,23.08,23.93,23.1,11.11,0,12.65,6.1,14.2,14.49,2.26,12.25.23,25.53,8.34,36.44,1.54,2.07,1.45,4.37-.7,5.46-2.7,1.37-3.44-1.72-4.79-3.15-9.73-10.26-9.68-23.57-11.53-36.36-.51-3.54,1.18-8.68-4.33-9.9-9.15-2-16.54-7.09-24.46-14.7,2.25,15.17,4.26,28.36,6.12,41.56.56,4,1.81,8.85-5.57,5.22-11.1-5.45-16.66-2.33-19.13,10-1.21,6,.84,11.47,3.07,16.8,3.63,8.7,4.44,17.39,1.11,26.36-9.63,25.9-17.9,52.17-20.05,81C491,670.63,483.22,652,482.19,636.89c-.48-7-4.05-9-9.71-8.43a112.94,112.94,0,0,0-37.43,10.12c-4.71,2.2-6.29,5.34-3.24,10.4,4.88,8.12,6.75,17.41,9.34,26.4A22.54,22.54,0,0,0,443,686.72c-.39,7.23,1.08,14.23,2.68,21.22.16,3.83-.72,7.82,1.6,11.36,1.06,23.87,10.34,45.16,22.09,67-20.93,0-40.59-.32-60.24.19-6.63.17-9.28-2.25-11.41-8.16C390.79,759.06,383.25,740.06,376,721c-2.42-7.41-3.64-15.29-8.49-21.75-.64-7-3.71-13.25-6.71-19.49a105.16,105.16,0,0,0-8.33-22.22,34.58,34.58,0,0,0-1-4.2Q304.54,527,257.56,400.76c-5.49-14.76-12.72-19.54-29.85-19.57q-88.41-.15-176.83-.08C33.17,381.13,22,391,22,406.29c0,15.5,11,24.94,29,24.94,51,0,102,.27,153-.24,9.26-.1,12.92,3,16,11.42Q288,627.18,356.79,811.69c7.78,21,12.87,24.57,35,24.57q254.4,0,508.8.13c14.11,0,23.09-5.53,28.74-18.3,26.39-59.69,53.11-119.23,79.57-178.89,8.84-19.94,6.55-28-11.1-41.48l26.36-22.59c4.7-4,7-8.78,2-13.87-3.62-3.67-2.35-5.65.9-8.37,7.21-6,13.76-12.9,21.34-18.37C1057.56,527.89,1059.83,520.71,1053,510.79ZM647.43,725.34c-2.28,19.3-4.88,38.43-16.88,54.85-3,4.13-5.75,6.33-11.18,6.24-20.14-.35-40.29-.41-60.43,0-6.33.14-8.57-2.23-10.26-8A224.08,224.08,0,0,1,540.56,734c-.42-10.46-3.7-20.66-2.71-31.23a54.19,54.19,0,0,1,.79-13A37.74,37.74,0,0,0,540.3,678a31.21,31.21,0,0,1,.89-6.67c.93-3.17,1.62-6.46,4-9,7-26.17,18.2-50.76,27.62-76,2.6-7,5.34-6.8,9.21-1.42,17.85,24.78,38.79,47.42,52.14,75.32C648,680,655.15,701.17,647.43,725.34Zm100.77,42c-15.54-16-15.62-15.92,1.08-30.6,5.14-4.5,10.09-9.21,15.12-13.83a6.73,6.73,0,0,0,4.65-4c6.88-5.29,13.66-10.71,19.37-17.32,10.45,0,12.9,8.68,17.05,15.56,2.18,3.19,2.94,5.6-.88,8.83-16.21,13.74-32.14,27.81-47.93,42C753,771.27,751.3,770.57,748.2,767.37Zm195.34-99.82c-.71,1.68-1.44,3.35-2.11,5.06-2.55,5.67-3.59,12.23-9.34,16-1,2.69-2,5.37-2.92,8.06s-.42,5.58-2,8c-1.17,2.52-1.91,5.22-3,7.79a7,7,0,0,1-4,3.81c-9.51,21-19,42-28.58,62.89-1.38,3-1.74,7.15-6.84,7.13-31.58-.1-63.17-.05-97.72-.05,35.36-23.24,65.56-48.08,94.48-74.51,2.06-2.17,3.31-5.22,6.61-6,23.15-18.89,42.41-41.68,64.54-65-3.28,8.71-5.7,15.17-8.13,21.62A10.12,10.12,0,0,1,943.54,667.55Z" transform="translate(-22 -80.28)"/></svg>