<svg id="Capa_1" data-name="Capa 1" xmlns="http://www.w3.org/2000/svg" viewBox="0 0 1065.12 1209"><defs><style>.cls-1{fill:#185abc;}.cls-2{fill:#797774;}.cls-3{fill:#f9f9f9;}.cls-4{fill:#41a4ed;}.cls-5{fill:#2b7cd2;}.cls-6{fill:#103f90;}</style></defs><title>doc</title><path class="cls-1" d="M155.77,930c-42.67-.25-85.34-1.23-128-.38-15.85.32-19.53-4.83-19.5-19.94q.72-285.18,0-570.38c0-15.11,3.65-20.26,19.5-19.94,42.64.85,85.31-.13,128-.38,5.87-4.89,12.87-6.47,20.27-6.92,138.15-2.58,276.32-1.1,414.49-.75,31,.07,37.57,7.59,38,39.86.83,64.35.28,128.72.28,193.08,0,116.93.34,233.87-.21,350.81-.16,34.88-6.43,42.53-38,42.61-138.17.34-276.34,1.86-414.5-.67C168.65,936.57,161.64,934.91,155.77,930Z" transform="translate(-8.29 -20)"/><path class="cls-2" d="M172.55,319H155.76c.07-90.69.92-181.39-.34-272.06-.31-22.37,7-27,27.93-26.94q300.14,1.07,600.27.13C797.5,20.1,807.24,24,817,33.8Q938,155.48,1060.11,276.12c10,9.91,13,20.05,13,33.55q-.45,446.18.29,892.36c.06,22.26-6.89,27-27.86,27q-431.1-.95-862.21,0c-20.9,0-28.23-4.58-27.92-27,1.25-90.66.41-181.36.34-272h16.79c10.35,11.28,8.38,25.41,8.45,38.78.33,66.17-.08,132.35.24,198.52.16,33.64,2.3,36,35.26,36.06q398.17.32,796.35,0c33.06,0,34.79-1.95,34.8-36.17q.18-407.9,0-815.81c0-37.76-1.57-39.06-40.52-39.16-58.18-.16-116.37.23-174.55-.14-44.46-.29-51.84-7.75-52.17-52.88-.44-59.82.19-119.65-.27-179.47-.24-31.37-2.89-34-34.55-34.1q-264.54-.33-529.09,0c-33,0-35.1,2.41-35.26,36.05-.32,66.17.09,132.35-.24,198.52C180.93,293.59,182.9,307.72,172.55,319Z" transform="translate(-8.29 -20)"/><path class="cls-3" d="M172.55,319c-.07-86.14.42-172.28-.64-258.41-.24-18.86,4.62-24.36,24-24.28q285.09,1.11,570.18,0c20.19-.08,23.62,6.91,23.37,24.9-1,69.8.45,139.65-.84,209.44-.45,24.6,7.07,33.77,32.6,33.27,70.9-1.37,141.86.08,212.78-.86,17.66-.23,22.93,4.56,22.89,22.56q-.81,432.53,0,865c0,18.91-6.73,22-23.5,21.93q-418.77-.66-837.54.13c-19.39,0-24.24-5.43-24-24.28,1.06-86.13.58-172.28.65-258.41,139.9-.25,279.82-1.07,419.72-.16,22.7.14,28.29-5.49,28.17-28.12q-1.5-278.57-.06-557.16c.09-20.34-5-25.43-25.39-25.33C454.19,320,313.37,319.25,172.55,319Z" transform="translate(-8.29 -20)"/><path class="cls-3" d="M461.29,519.56C439.6,566.32,417.71,620,398.51,661.36c-1.07-19.2,2.13-163.21,4.26-210.14H314.24c-8.54,20.27-61,146.45-92.71,200.14,0-35.18,1-116.9,1-131.87h38.4v-67.2H89.17c0,18.13.07,57.34,0,66.13H126.5c-.08-.78,2.95,244.44,3.2,280.54,28.8,0,74.67.29,108.59.29,20.48-37.63,72-133,92.33-163.67-.17,26.47,1.34,128.55,1.75,158,28.8,0,58.67-1.06,75.74-1.06C443,712,527.57,523.75,530.77,518.42h38.4c0,18.13,2.5,239.08,1.82,346.94-.08,12.33-4.64,15.11-16,15.09q-240.1-.39-480.23,0c-12.62,0-17.34-3.12-17.31-16.56q.62-239.43,0-478.85c0-13.41,4.63-16.62,17.28-16.59,161-3.46,453.89-5.81,492.29-5.81v86.4H429.44v70.4C443.31,519.49,449.71,519.56,461.29,519.56Z" transform="translate(-8.29 -20)"/><path class="cls-3" d="M1029,287.07c-64.21,0-135.67-.36-207.13.26-16.51.15-16.58-8.94-16.54-20.76.21-69.66.1-139.32.1-202.73Z" transform="translate(-8.29 -20)"/><path class="cls-4" d="M817.14,510.21c-48.06,0-96.13-.14-144.2.1-11.71.06-20.76.33-20.77-16.33,0-16.47,8.68-16.55,20.59-16.53q144.19.32,288.4-.1c13.36-.06,19.58,2.69,19.37,17.81s-8.32,15.19-19.18,15.14C913.28,510.08,865.21,510.21,817.14,510.21Z" transform="translate(-8.29 -20)"/><path class="cls-5" d="M815,597.29c-46.34,0-92.68.14-139-.1-10.79-.06-23.64,4.65-23.9-15.55-.23-19,10.47-17.08,22.57-17.06q141.75.17,283.5,0c12.13,0,22.78-1.85,22.53,17.1-.26,20.23-13.16,15.46-23.93,15.51C909.5,597.43,862.24,597.29,815,597.29Z" transform="translate(-8.29 -20)"/><path class="cls-1" d="M818.18,684.36c-48.95,0-97.9-.33-146.85.22-13.05.15-19.45-2.13-19.21-17.46.22-14.52,6.85-15.6,18.31-15.56q145.5.42,291-.06c13.06,0,19.12,2.18,19.24,17.45.14,17.63-10.15,15.47-21.06,15.45Q888.89,684.28,818.18,684.36Z" transform="translate(-8.29 -20)"/><path class="cls-6" d="M813.48,771.44c-47.18,0-94.37-.26-141.56.17-12.27.12-19.87-.4-19.9-16.66,0-16.71,8.41-16.32,20.23-16.29q144.29.35,288.57,0c12.27,0,19.88.39,19.9,16.66,0,16.7-8.4,16.37-20.23,16.29C911.49,771.25,862.49,771.44,813.48,771.44Z" transform="translate(-8.29 -20)"/></svg>