<svg id="Layer_1" data-name="Layer 1" xmlns="http://www.w3.org/2000/svg" viewBox="0 0 402.57 500.05"><defs><style>.cls-1{opacity:0.26;}.cls-2{fill:#003d00;}</style></defs><title>doc_uploads</title><g class="cls-1"><rect class="cls-2" x="65.6" y="152.65" width="227.1" height="19.1"/><rect class="cls-2" x="65.6" y="183.65" width="227.1" height="19.1"/><rect class="cls-2" x="65.6" y="214.75" width="227.1" height="19.1"/><rect class="cls-2" x="65.6" y="245.75" width="227.1" height="19.1"/><rect class="cls-2" x="65.6" y="276.75" width="176.5" height="19.1"/><path class="cls-2" d="M408.1,75.1,349.6,7.3a4.83,4.83,0,0,0-6.7,0L284.4,75.1c-2.6,2.6-.6,6.7,3.3,6.7h27.4V135h62.1V81.8h27.4C408.7,81.8,410.7,77.7,408.1,75.1Z" transform="translate(-6.7 -5.95)"/><rect class="cls-2" x="308.5" y="138.65" width="62.1" height="24.2"/><path class="cls-2" d="M315.2,187.3a4.27,4.27,0,0,0,4.5,4h53.1a4.27,4.27,0,0,0,4.5-4v-8.9H315.2Z" transform="translate(-6.7 -5.95)"/><path class="cls-2" d="M338.7,464.2a28.59,28.59,0,0,1-28.6,28.6H61.5a28.59,28.59,0,0,1-28.6-28.6v-8.8H19.7V469a37,37,0,0,0,37,37H314.8a37,37,0,0,0,37-37V200.4H338.6V464.2Z" transform="translate(-6.7 -5.95)"/><path class="cls-2" d="M32.9,110.3A28.59,28.59,0,0,1,61.5,81.7H274.7a12.72,12.72,0,0,1,3-12.7l.4-.4H56.8a37,37,0,0,0-37,37V333H33V110.3Z" transform="translate(-6.7 -5.95)"/><path class="cls-2" d="M151.8,372.3a12.44,12.44,0,0,0-10.2,4.7c-2.5,3.1-3.7,7.1-3.7,12v10.6c0,4.9,1.2,8.9,3.7,12.1a12.38,12.38,0,0,0,10.1,4.7,13.1,13.1,0,0,0,10.6-4.7c2.6-3.1,3.9-7.2,3.9-12.1V389q0-7.35-3.9-12A13,13,0,0,0,151.8,372.3Z" transform="translate(-6.7 -5.95)"/><path class="cls-2" d="M297.4,394.3h0a52.13,52.13,0,0,0-52.1-52.1H6.7V446.3H245.4A52,52,0,0,0,297.4,394.3Zm-180.5,4.4c0,7.3-2.3,13.2-6.9,17.8s-10.6,6.9-18,6.9H72.7V365.1H92q11.1,0,18,6.9c4.6,4.6,6.9,10.6,6.9,17.8Zm59,.8c0,7.1-2.2,13-6.7,17.7s-10.3,7-17.4,7-12.6-2.3-17-7-6.6-10.6-6.6-17.7V389c0-7.1,2.2-13,6.5-17.7s10-7,17-7,12.9,2.3,17.4,7,6.7,10.6,6.7,17.7v10.5Zm24.3,12.3a11.44,11.44,0,0,0,9.6,4.7c4,0,7-1,9.1-3.1s3.1-5.1,3.1-9h9.4l.1.2c.1,5.9-1.8,10.6-5.7,14.2s-9.2,5.4-15.9,5.4-12.3-2.3-16.5-6.9-6.3-10.4-6.3-17.6V388.6c0-7.1,2.1-13,6.2-17.6s9.6-6.9,16.3-6.9c6.9,0,12.3,1.7,16.2,5.2s5.9,8.3,5.7,14.4l-.1.2H222c0-3.9-1.1-6.9-3.2-9s-5.2-3.1-9.3-3.1a11.08,11.08,0,0,0-9.4,4.7,19.53,19.53,0,0,0-3.5,11.9v11.2C196.6,404.7,197.8,408.6,200.2,411.8Z" transform="translate(-6.7 -5.95)"/><path class="cls-2" d="M92,372.9H82.5v42.7H92c4.7,0,8.4-1.6,11.1-4.7a18.17,18.17,0,0,0,4.1-12.2v-8.9a17.9,17.9,0,0,0-4.1-12.1A14,14,0,0,0,92,372.9Z" transform="translate(-6.7 -5.95)"/></g></svg>