<svg id="Capa_1" data-name="Capa 1" xmlns="http://www.w3.org/2000/svg" viewBox="0 0 1060.34 1544"><defs><style>.cls-1{fill:#376695;}.cls-2{fill:#fefefe;}.cls-3{fill:#4d7499;}.cls-4{fill:#446a8f;}.cls-5{fill:#426d90;}.cls-6{fill:#436c8f;}.cls-7{fill:#3d658a;}.cls-8{fill:#426c90;}.cls-9{fill:#456c90;}.cls-10{fill:#426c8f;}.cls-11{fill:#446c90;}.cls-12{fill:#4c6f8d;}.cls-13{fill:#436c8e;}.cls-14{fill:#4c708f;}.cls-15{fill:#4a6f8d;}.cls-16{fill:#436380;}.cls-17{fill:#496d8f;}.cls-18{fill:#426c93;}.cls-19{fill:#4a6e8f;}.cls-20{fill:#426c92;}.cls-21{fill:#486e91;}.cls-22{fill:#446c94;}.cls-23{fill:#466b90;}.cls-24{fill:#436c95;}.cls-25{fill:#496f8f;}.cls-26{fill:#446e8f;}.cls-27{fill:#476e91;}.cls-28{fill:#446d94;}.cls-29{fill:#436b94;}.cls-30{fill:#456d99;}.cls-31{fill:#426c94;}.cls-32{fill:#f5e942;}.cls-33{fill:#ebc53e;}.cls-34{fill:#e4b030;}.cls-35{fill:#f0d341;}.cls-36{fill:#e0a622;}.cls-37{fill:#e8c299;}.cls-38{fill:#dc9a0a;}.cls-39{fill:#c7585d;}.cls-40{fill:#cd7276;}.cls-41{fill:#c11d39;}.cls-42{fill:#d4868c;}.cls-43{fill:#edd1b1;}.cls-44{fill:#c33749;}.cls-45{fill:#f2e0ca;}.cls-46{fill:#da9da2;}.cls-47{fill:#c1091f;}.cls-48{fill:#f8efe5;}.cls-49{fill:#845f32;}.cls-50{fill:#855f31;}.cls-51{fill:#866032;}.cls-52{fill:#866033;}.cls-53{fill:#e2b4b9;}.cls-54{fill:#846036;}.cls-55{fill:#83613a;}.cls-56{fill:#89602b;}.cls-57{fill:#896d4e;}.cls-58{fill:#866948;}.cls-59{fill:#8b7054;}.cls-60{fill:#8b7055;}.cls-61{fill:#8c6f4e;}.cls-62{fill:#856746;}.cls-63{fill:#927b65;}.cls-64{fill:#8f6225;}.cls-65{fill:#98826c;}.cls-66{fill:#8c7358;}.cls-67{fill:#535254;}.cls-68{fill:#947f6b;}.cls-69{fill:#171717;}.cls-70{fill:#9c8569;}.cls-71{fill:#95816e;}.cls-72{fill:#95806c;}.cls-73{fill:#6b6a6e;}.cls-74{fill:#848388;}.cls-75{fill:#ac9a81;}.cls-76{fill:#343334;}.cls-77{font-size:323.41px;font-family:MyriadPro-Regular, Myriad Pro;}.cls-78{letter-spacing:0em;}</style></defs><title>doc_default</title><path class="cls-1" d="M7.51,955.35q0-342.48,0-684.95c0-60.92,23.22-84.73,83.78-84.8,240.89-.3,481.78.05,722.67-.6,20.1-.05,34.06,5.93,47.67,20.68,63.6,68.94,128.11,137.05,192.74,205,9.38,9.87,13.16,20,13.15,33.51q-.43,602.22-.37,1204.46c0,56.08-25.12,80.16-82.71,80.2q-444.06.28-888.11,0c-68,0-89.16-22.26-89.15-91.45q.06-341,0-682.05Z" transform="translate(-7.23 -185)"/><path class="cls-2" d="M1034.66,505.41c0-21-4.23-29.14-26.91-28.16-41.52,1.79-83.18.65-124.78.26-32.31-.31-41.05-9.09-41.25-41.63-.31-52.25-1.45-104.54.49-156.72.93-25.24-5.77-32.73-31.9-32.61-233.16,1.06-466.34.59-699.51.64-45.34,0-50.4,5.05-50.4,49.52q0,338.15,0,676.29h.09q0,342.49,0,685c0,39.94,6.28,46.55,44.42,46.56q442.64.12,885.27,0c36.78,0,44.2-7.5,44.22-44q0-150.93-.12-301.87Q1034.24,932.08,1034.66,505.41Z" transform="translate(-7.23 -185)"/><path class="cls-3" d="M319.58,564c-61.84,0-123.68.11-185.52-.14-9.7,0-23,4.22-22.81-13.34.24-18.35,14.64-12.1,23.53-12.13q187-.63,374-.07c9.37,0,23.75-5.23,24.52,11.68.88,19.54-15.09,13.71-25.24,13.79C445.2,564.21,382.39,564,319.58,564Z" transform="translate(-7.23 -185)"/><path class="cls-4" d="M625,1336.84c-7.23.54-13.68,1.44-20.14,1.44q-233.52.15-467,0c-8.32,0-17.84,2.92-24.38-3.94-2.33-2.43-1.89-9.77-.12-13.64,4.13-9,13.19-5.63,20.22-5.66,74-.29,148.08-.25,222.12-.27,79.74,0,159.48.12,239.22-.08C609.92,1314.67,623.75,1315.15,625,1336.84Z" transform="translate(-7.23 -185)"/><path class="cls-5" d="M595,1290.46c-7.54.45-14.84,1.27-22.14,1.27q-217.42.11-434.84,0c-4.7,0-9.41-.07-14.12-.12-7.64-.09-12.46-2.8-12.11-11.92s5.57-11.29,12.95-11.4c3.77,0,7.53-.1,11.3-.1q214.59.09,429.19.11C580,1268.33,594.25,1268,595,1290.46Z" transform="translate(-7.23 -185)"/><path class="cls-6" d="M113.22,1221.08q179.79.17,359.56.35c14.85,0,61.22-.43,72.22-.43,14.65,0,23,0,22.94,13,.88,12.25-7.51,10.8-15,10.81-141.42.11-282.85,0-424.28.55C109.44,1245.45,109.84,1235,113.22,1221.08Z" transform="translate(-7.23 -185)"/><path class="cls-7" d="M288,505.12c-51.22,0-102.44.2-153.65-.19-8.6-.07-21.25,4.45-22.29-10.88-1.17-17.35,12.41-14,22.32-14.06q156.54-.33,313.1-.16c9.25,0,20.72-2.43,20.8,12.72.09,15.69-11.93,12.22-20.83,12.25-53.15.23-106.3.12-159.45.12Z" transform="translate(-7.23 -185)"/><path class="cls-8" d="M534.35,1180.74c9.59,22.73-9,17.53-21.38,17.55q-190.2.21-380.41.14c-6.34,0-12.68.09-19,.14-3.68-13.69-4.53-24.14,17.4-24,127.61.52,255.22.29,382.83.23C521.44,1174.75,528.34,1176.32,534.35,1180.74Z" transform="translate(-7.23 -185)"/><path class="cls-9" d="M783.89,942c54.2,0,108.4-.13,162.6.17,8.69.05,21.39-4.08,21,11.84s-13.14,11.28-21.66,11.3q-161.14.44-322.3.16c-4.82,0-9.82.23-14.42-.92-7.46-1.87-11.57-8.72-11.78-15.08-.35-10.8,9.49-7.27,15.2-7.3C669.68,941.84,726.79,942,783.89,942Z" transform="translate(-7.23 -185)"/><path class="cls-10" d="M113.52,1128.08l383.66.79c11.87,17.22,9.13,23.73-15.23,23.54-115-.91-229.93-.62-344.89,0C117.14,1152.51,106.35,1148.62,113.52,1128.08Z" transform="translate(-7.23 -185)"/><path class="cls-11" d="M795,988.65c50.23,0,100.47-.2,150.7.2,8.53.06,21.28-4.5,21.84,11.07.57,15.92-12.23,12-20.92,12q-149.25.34-298.51.09a76.77,76.77,0,0,1-11.56-.38c-9.25-1.39-13.6-9.24-13.67-16.42-.09-10.63,10.07-6.31,15.62-6.35C690.64,988.48,742.81,988.64,795,988.65Z" transform="translate(-7.23 -185)"/><path class="cls-12" d="M807.37,1035.15c46.42,0,92.84-.19,139.26.11,8.79,0,21-3.7,21.1,12,.09,16.19-12.45,11.65-21,11.67q-134.91.36-269.82.08c-4.83,0-9.75.17-14.46-.66-9-1.6-13.54-9.06-13.21-16.6.46-10.18,10.23-6.36,16-6.4C712.59,1035,760,1035.18,807.37,1035.15Z" transform="translate(-7.23 -185)"/><path class="cls-13" d="M113.46,1035.11l287.86.29c7.22,0,14.46.36,21.67,0,13.18-.65,20.65,7.32,20,17.22-.77,11-13.07,5.89-20,5.92-103.18.48-206.37.46-309.55.56A36.8,36.8,0,0,1,113.46,1035.11Z" transform="translate(-7.23 -185)"/><path class="cls-14" d="M820.07,1081.62c42.49,0,85-.06,127.47.13,9.13,0,20.87-2.73,20.15,13-.63,13.74-11.29,10.7-19.27,10.72q-124.56.3-249.14.16a66.21,66.21,0,0,1-11.53-.7c-9.09-1.6-13.59-9.15-13.63-16.51-.06-10.56,10-6.52,15.59-6.57C733.16,1081.39,776.62,1081.58,820.07,1081.62Z" transform="translate(-7.23 -185)"/><path class="cls-15" d="M833.67,1128.17c38.55,0,77.1-.11,115.65,0,8.39,0,18.22-1.71,18.45,11.81.23,13.79-9.62,11.88-18.06,11.89-75.18.1-150.36-.1-225.53.33-12.32.08-23.25-3.56-23-15.78.35-15.58,14.89-7.64,22.6-7.84C760.4,1127.67,797,1128.19,833.67,1128.17Z" transform="translate(-7.23 -185)"/><path class="cls-16" d="M807.74,1509.92c48.35,0,96.7-.15,145,.18,6.87,0,17.89-3.36,18.2,8.08s-10.58,9.18-17.7,9.19q-142.15.26-284.3-.06c-7.36,0-18,1.76-18.27-8.82-.25-11.6,10.68-8.28,17.77-8.3,46.41-.17,92.83-.09,139.25-.09Z" transform="translate(-7.23 -185)"/><path class="cls-17" d="M724.88,1174.63H952c8.11,0,15.56.38,15.8,11.68s-6.89,12.14-15.24,12.14c-68.72,0-137.44-.14-206.16.2C731,1198.74,726.59,1190.09,724.88,1174.63Z" transform="translate(-7.23 -185)"/><path class="cls-18" d="M611.35,750.05c32.74,0,65.48-.24,98.22.24,8.44.12,21-4.32,20.42,12.13-.48,13.67-10.82,11.09-18.92,11.1-65.47.13-131-.24-196.43.19-12.59.08-22.71-4-22.14-16.39.59-12.66,13.44-6.85,20.64-7C545.87,749.61,578.61,750,611.35,750.05Z" transform="translate(-7.23 -185)"/><path class="cls-19" d="M857.42,1221c29.91,0,59.82-.2,89.73.13,8.9.09,20.82-3.35,20.51,12.54-.26,13.76-10.55,11.24-18.72,11.27-57.89.17-115.79-.14-173.68.39-12.31.11-23-3.37-23.37-15.55-.5-16.62,14.23-7.93,21.6-8.22,27.94-1.13,56-.46,83.93-.46Z" transform="translate(-7.23 -185)"/><path class="cls-20" d="M622.18,796.49c29.92,0,59.83-.11,89.75.11,8.22.06,18.39-2.14,18.07,11.85-.32,13.78-10.45,11.49-18.66,11.52-56,.16-111.94-.17-167.91.25-13,.1-26.13-2.88-25.66-16.45.5-14.35,15.33-6.58,23.37-6.9C568.11,795.81,595.16,796.47,622.18,796.49Z" transform="translate(-7.23 -185)"/><path class="cls-21" d="M872.65,1268.39c25.16,0,50.32-.19,75.47.11,8.08.1,18.63-2.8,19.52,10.73s-9,12.52-17.7,12.53c-50.31.09-100.63-.13-150.94.3-11.52.1-20.39-4.49-21-15.12-.86-14.82,12.51-8,19.2-8.26,25.12-1,50.3-.39,75.46-.39Z" transform="translate(-7.23 -185)"/><path class="cls-22" d="M633.3,843c26.93,0,53.87-.05,80.8,0,7.66,0,15.8-.67,16,11,.15,10.76-6.14,12.56-14.86,12.55-51-.07-102-.16-153,.14-12.17.07-19.29-7.57-19.28-17.07,0-11.91,11.83-6.2,18.19-6.4C585.19,842.49,609.25,842.94,633.3,843Z" transform="translate(-7.23 -185)"/><path class="cls-23" d="M799.22,1337.14c-4-15.15-.79-23.09,17.56-22.68q66.16,1.47,132.36,0c18.81-.45,20.7,8.69,18,23.15C911.14,1341.87,855.17,1342.9,799.22,1337.14Z" transform="translate(-7.23 -185)"/><path class="cls-24" d="M650.6,889.33c21.25,0,42.5,0,63.74,0,7.91,0,15.67-.18,15.83,11.36.15,10.91-6.26,12.52-15,12.48-42.5-.15-85-.49-127.48,0-12.55.14-19.09-7.11-19-16.86.09-11.88,11.75-6.5,18.15-6.73C608.09,888.84,629.35,889.32,650.6,889.33Z" transform="translate(-7.23 -185)"/><path class="cls-25" d="M113.36,1081.63q158.07.11,316.16.23c8.27,0,16.56-.24,24.79.3,11.24.74,17.38,8.15,16.63,17.35-.82,9.93-11.23,5.8-17.42,5.81-106.42.25-212.85-.21-319.27.52-20.36.14-26-6.86-21.22-24Z" transform="translate(-7.23 -185)"/><path class="cls-26" d="M113.35,988.51q137,.12,274,.29c8.45,0,17.16-.28,25.29,1.4s11.63,9.15,11.38,15.73c-.32,8.53-9.27,5.78-14.72,5.8-92.38.24-184.77-.18-277.15.57-20.9.17-22.68-9-19.37-23.51Z" transform="translate(-7.23 -185)"/><path class="cls-27" d="M113.51,965.93c-5.41-17,0-24.33,21.57-24.11,79.93.82,159.89.39,239.84.16,12.93,0,26.33,1.35,26.08,15-.31,16.46-16.72,7.75-24.89,7.85-87.49,1-175,.9-262.5,1.11Z" transform="translate(-7.23 -185)"/><path class="cls-28" d="M113.55,820.53c-5.06-17.13-.53-24.47,17.56-24.23,59.6.82,119.22.5,178.82.07,11.34-.08,22,3,22.07,15.31.06,16.2-13.79,7.78-20.8,7.87-65.92.89-131.85.75-197.78.91Z" transform="translate(-7.23 -185)"/><path class="cls-29" d="M113.86,913.48c-5.81-16.91-.81-24.57,21.7-24.29,71.16.91,142.35.63,213.52.11,17.55-.13,27.41,4.75,27.92,24.16H113.83Z" transform="translate(-7.23 -185)"/><path class="cls-30" d="M113.79,867c-5.71-16.89-.93-24.56,20-24.3,66.34.84,132.7,0,199,.69,6.83.07,20.64-7,20.14,8.72-.42,12.82-10,14.38-21.64,14.36-72.56-.09-145.12.27-217.68.48Z" transform="translate(-7.23 -185)"/><path class="cls-31" d="M113.85,774c-5.72-17.32-.41-24.44,18.71-24.14,55,.86,110,.51,165,.23,11.65-.06,23.75,1.89,23.74,14.8,0,15.7-14.69,8.19-22.4,8.29-61.72.81-123.46.61-185.19.72Z" transform="translate(-7.23 -185)"/><path class="cls-32" d="M733,1230l-37.17-65.27q-74.67-131-149.25-262.11c-1.71-3-3.41-3.83-6.83-3.49A149.92,149.92,0,0,0,517,902.71c5.38,9.48,10.63,18.72,15.89,27.95q81.36,142.78,162.67,285.61a9.76,9.76,0,0,0,6.74,5.29C712.32,1224,722.24,1227,733,1230Z" transform="translate(-7.23 -185)"/><path class="cls-33" d="M494,911.24c-5.63,3.23-11.74,5.68-16.73,10-1.27,3.1.85,5.35,2.14,7.64,7.75,13.76,15.6,27.47,23.43,41.17q28.66,50.16,57.26,100.33,46.55,81.8,92.92,163.7c3.14,5.52,6.21,11.09,9.56,16.49-1.27,1.29-4-.08-4.26,2.57,6.36,1.09,12.73,2.11,19.07,3.32,1.95.38,2.69-.38,3.3-2,1.7-4.62,3.51-9.19,5.28-13.78,1-3.64-1.19-6.2-2.83-9.05-9.77-17.08-19.4-34.23-29.15-51.32-23.13-40.55-46-81.25-69.18-121.78q-24-42-47.84-84.2c-10-17.72-20-35.47-30.21-53.11a91.88,91.88,0,0,1-4.49-8.43c-1.88-4.23-1.88-4.23-6-2.57C495.45,910.51,494.71,910.89,494,911.24Z" transform="translate(-7.23 -185)"/><path class="cls-34" d="M658.27,1253.13c1.28-.85,2.68-.39,4-.39,1.2,0,2.45.62,3.41-.11-17.87-30.09-34.72-60.68-52-91.05q-23.87-42.07-47.73-84.13-32.53-57.17-65.18-114.29c-7.95-13.93-16.27-27.66-23.64-41.93-1.64-.56-2.58.69-3.63,1.5-2.75,2.11-5.32,4.45-8.15,6.44s-3.1,3.74-1.27,6.94q89.07,156,177.88,312.1c1.1,1.92,2.12,3.59,4.7,3.07s5,.32,7.55.29c-1.07.16-2-.5-2.92.38A16.72,16.72,0,0,0,658.27,1253.13Z" transform="translate(-7.23 -185)"/><path class="cls-35" d="M494,911.24c4.21-2.1,5.56-.07,7.65,3.7,14.39,26,29.26,51.81,43.95,77.67,9.57,16.85,19.06,33.74,28.64,50.58q31.27,55,62.61,110c12.44,21.9,24.69,43.9,37.22,65.75,3.37,5.86,6.09,12.14,10.41,17.43,1.05,1.3.62,3,1.49,4.25,2.19-5.36,4.32-10.73,6.57-16.06.87-2-.31-3.42-1.19-5L559.45,988.2q-23-40.38-45.91-80.81c-1.51-2.66-2.88-3.55-5.77-2.24C503.19,907.23,498,908,494,911.24Z" transform="translate(-7.23 -185)"/><path class="cls-36" d="M633.8,1272.76c1.63-5.7,3.2-11.41,4.92-17.08.62-2-.49-3.46-1.37-5q-50.54-88.74-101.1-177.48L460.81,940.84c-.82-1.44-1.66-2.86-2.68-4.62a89.06,89.06,0,0,0-11.24,13.36c5.6,6.6,9.15,14.48,13.43,21.88q36,62.31,71.8,124.7,44.14,77.27,88.15,154.61c3.78,6.61,7.61,13.21,11.32,19.87C632.12,1271.57,632.35,1272.8,633.8,1272.76Z" transform="translate(-7.23 -185)"/><path class="cls-37" d="M693.87,1236.17c-3.11,7.59-6.36,15.12-9.27,22.78-1.05,2.74-2.39,3.56-5.26,3.09-10.64-1.76-21.33-3.25-32-5-2.36-.39-3.56-.4-4.29,2.46-2.83,11.1-6,22.11-9.12,33.14a2.65,2.65,0,0,0,1.32,3.41q32.38,21.56,64.7,43.25c1.45,1,2.2,1,3.24-.53,5.5-7.77,13-13,21.55-17,1.87-2,.94-4.17.16-6.22-2.61-6.84-5.27-13.67-8-20.44-7.07-17.29-12.37-35.18-18.41-52.82C697.62,1239.85,697.52,1236.63,693.87,1236.17Z" transform="translate(-7.23 -185)"/><path class="cls-38" d="M633.8,1272.76c-.64-4.53-3.68-7.92-5.8-11.69-11.66-20.73-23.53-41.34-35.33-62q-29-50.79-58-101.59-19.54-34.21-39.12-68.42-22.3-38.85-44.68-77.66c-1-1.76-2.07-2.46-4-1.82-6.43,7.68-6.42,7.67-1.58,16.17l181.92,319.31c.59,1,1.27,2,2.35,3.77Z" transform="translate(-7.23 -185)"/><path class="cls-39" d="M398.27,759.24a44.54,44.54,0,0,0-13,9.39c.57,3.79,2.68,7,4.42,10.21,9.2,17.18,17.19,35,27,51.82.89,1.52,1.39,3.38,3.25,4.15l15.94-10.35c3.06-2.3,1.26-4.7,0-6.91-5.62-9.7-11.06-19.51-17-29-5.23-8.32-10.23-16.79-15.35-25.19C402.27,761.31,401.12,759.21,398.27,759.24Z" transform="translate(-7.23 -185)"/><path class="cls-40" d="M398.27,759.24c4.38,4.17,6.65,9.77,9.72,14.78,9.15,14.94,18,30.05,26.95,45.12.95,1.61,2.32,3.25,1,5.32l17.34-7.89c1.37-2.69-.21-4.78-1.4-7-9-16.32-19.93-31.31-30.72-46.42-1.53-2.15-3-4.33-4.39-6.56-.92-1.48-2-2.66-3.81-2.86A45.22,45.22,0,0,0,398.27,759.24Z" transform="translate(-7.23 -185)"/><path class="cls-41" d="M377.32,778a39.29,39.29,0,0,0-7.2,14.31c.07,7.52,3.55,14.11,5.86,21,5,14.79,13.35,27.94,20.39,41.74.32.62.81,1.13,1.64.89l12.06-12.81c.9-1.93-.11-3.51-1-5.06-10.29-17.91-18.57-36.78-26.71-55.72C381.43,780.2,380.86,777.31,377.32,778Z" transform="translate(-7.23 -185)"/><path class="cls-42" d="M412.92,753.77c12.8,19.61,27.53,38,38.7,58.63a33.33,33.33,0,0,1,1.62,4.17L468,812.11c1.44-1.92.56-3.63-.45-5.35-9-15.36-18.19-30.62-30.43-43.74-1.51-1.61-3.29-3.18-4.12-5.15-1.59-3.81-4.41-5.29-8.22-5.54A35.85,35.85,0,0,0,412.92,753.77Z" transform="translate(-7.23 -185)"/><path class="cls-43" d="M693.87,1236.17c3,3.39,3.32,7.86,4.61,11.88,7.53,23.47,16.06,46.57,25.42,69.37a22.56,22.56,0,0,1,.86,4.39l8-2.46c1-5-1.22-9.53-2-14.24a161.22,161.22,0,0,0-10-34.18c-5.42-13-10-26.42-15.13-39.56-1.5-3.83-4.67-5.06-8.46-3.27A31.36,31.36,0,0,0,693.87,1236.17Z" transform="translate(-7.23 -185)"/><path class="cls-44" d="M377.32,778a5.45,5.45,0,0,1,2.91,3.2c8.77,21.2,18.16,42.12,29.84,61.92l9.89-8.34a9.25,9.25,0,0,0-1.41-4.29c-10.94-19.24-20.49-39.19-30.56-58.88a6.25,6.25,0,0,0-2.73-3A33.83,33.83,0,0,0,377.32,778Z" transform="translate(-7.23 -185)"/><path class="cls-45" d="M697.11,1228.1c3.94-.78,5.82.34,7.26,4.66,4.22,12.61,8.88,25.11,14.18,37.29,6.25,14.38,9.25,29.55,12.56,44.68.35,1.6.42,3.34,1.67,4.62,1.13,0,2.31.18,3.3-.62,2.47-1.52,2.22-3.94,2-6.28-1.62-16.5-3.69-32.88-8.63-48.84a230.43,230.43,0,0,1-6.52-25.68c-.58-3.1-1.79-5.27-4.83-6.25-6.26-1.82-12.53-3.6-18.78-5.47C697.4,1225.64,697.27,1226.81,697.11,1228.1Z" transform="translate(-7.23 -185)"/><path class="cls-46" d="M424.75,752.33c3.05.81,4.56,2.9,6.24,5.58,2.82,4.51,6.65,8.41,10.2,12.44,9.53,10.83,16.59,23.31,23.86,35.64,1.15,1.94,3.2,3.49,2.92,6.12l11.9-2.29c3.12-1.52,2.1-3.67.89-5.84-9.09-16.35-18.31-32.6-32.64-45.17a8.11,8.11,0,0,1-2.58-3.19C438.89,752.78,431.89,752.11,424.75,752.33Z" transform="translate(-7.23 -185)"/><path class="cls-47" d="M398,856a17.48,17.48,0,0,0-1.37-4.16c-6.62-12.38-13.83-24.48-18.74-37.72-2.68-7.21-4.47-14.75-7.78-21.74a55,55,0,0,0,0,39.31c4.68,12.75,12.87,23.68,19.31,36.11Z" transform="translate(-7.23 -185)"/><path class="cls-48" d="M718.09,1231.68l-.39.13-.38.16c4.29,1.38,3.41,5.39,4.22,8.48,3.31,12.54,6.28,25.17,9.85,37.63,2.53,8.85,2.81,18,4.06,26.94,0,.27,0,.55,0,.83.44,4.28,1.68,8.52.64,12.88,3.65.67,4.88-.26,4.58-4.47-1.57-22-2.71-44-4-66-.13-2.2-.7-4.48-.33-6.59.81-4.55-1.55-6-5.38-6.81C726.62,1233.93,722.37,1232.74,718.09,1231.68Z" transform="translate(-7.23 -185)"/><path class="cls-49" d="M442.31,827.48c-20.3,9.93-36,24.94-48.52,43.58-.75,1.11-1.24,2.15-.48,3.43,1.38,2.36,2.75,4.73,4.31,7.41A136,136,0,0,1,431,847c5.52-4,11.48-7.17,17.27-10.66C447.85,832.32,446.51,828.93,442.31,827.48Z" transform="translate(-7.23 -185)"/><path class="cls-50" d="M449.33,842.22c-19.86,9.86-35.2,24.68-47.45,42.95-.85,1.26-1.25,2.37-.37,3.79,1.38,2.21,2.65,4.49,4.18,7.11a137.65,137.65,0,0,1,31.71-33.7c5.65-4.26,11.83-7.64,17.82-11.35C455.88,846.15,454,843.4,449.33,842.22Z" transform="translate(-7.23 -185)"/><path class="cls-51" d="M461.66,872.57c-18.21,9.82-32.31,24-43.77,41a3.05,3.05,0,0,0-.19,3.77c1.32,2.09,2.49,4.29,3.69,6.38,1.51-.28,1.83-1.48,2.43-2.35a136.87,136.87,0,0,1,43.74-40.06C470,876.29,467.28,872.26,461.66,872.57Z" transform="translate(-7.23 -185)"/><path class="cls-52" d="M476.64,901.5C459,911.3,445.22,925.27,434,941.91a3,3,0,0,0-.17,3.76c1.32,2.07,2.51,4.23,4,6.72,3.4-4.39,6.47-8.57,9.75-12.56,9.87-12,21.89-21.43,35-29.57C484.24,905.35,481.81,901.77,476.64,901.5Z" transform="translate(-7.23 -185)"/><path class="cls-53" d="M445.54,755.62c-2,.32-.7,1.25-.33,2,1.92,3.62,5.13,6.18,8,8.82,9.36,8.54,15.12,19.52,21.4,30.19,1.74,3,3.36,6,5.19,8.92,1,1.55,2,2.85-.69,3.59,0,0,0,.27,0,.32a7.1,7.1,0,0,0,.7.41c3.72-.28,7.43-.57,11.14-.83,1.16-.08,2.06-.36,1.21-1.71-9.35-14.86-15.2-32.18-30.13-43.14C457,760.42,451.7,757.21,445.54,755.62Z" transform="translate(-7.23 -185)"/><path class="cls-54" d="M465.07,852.75a110,110,0,0,0-40.86,28.92c.42,3.8,1.45,7.15,5.85,8.06A143.53,143.53,0,0,1,471,861.58C472.12,856.54,470.11,853.52,465.07,852.75Z" transform="translate(-7.23 -185)"/><path class="cls-55" d="M484.44,879.66a104.07,104.07,0,0,0-34.34,21,17.22,17.22,0,0,0,5,9.1,151.3,151.3,0,0,1,35.37-21.24C490.77,883.79,488.91,881,484.44,879.66Z" transform="translate(-7.23 -185)"/><path class="cls-56" d="M455.07,909.75c-.15-3.86-2.23-6.66-5-9.1-10,7.7-17.61,17.44-24.59,27.78-.81,1.21-.33,2.06.23,3,1.24,2.14,2.51,4.27,4.1,7A156.5,156.5,0,0,1,455.07,909.75Z" transform="translate(-7.23 -185)"/><path class="cls-57" d="M449.33,842.22a18,18,0,0,1,5.89,8.8,190.85,190.85,0,0,1,29.37-10.75c3.62-1.83,3.71-2.7,1-6.48a6.32,6.32,0,0,0-4.31-2.86A108.27,108.27,0,0,0,449.33,842.22Z" transform="translate(-7.23 -185)"/><path class="cls-58" d="M461.66,872.57c4.4,1.47,5.87,3.67,5.9,8.78a179.65,179.65,0,0,1,31.14-12.28c.89-5.22-.63-7.49-5.87-8.78A106.15,106.15,0,0,0,461.66,872.57Z" transform="translate(-7.23 -185)"/><path class="cls-59" d="M465.07,852.75c3.73,1.77,4.77,5.32,5.88,8.83a245.93,245.93,0,0,1,24.26-7.73c1.18-1.57,4.88.28,4.55-3.34-.26-2.75-3.13-5.31-6.42-5.77a1.88,1.88,0,0,1-.75-.27A102.75,102.75,0,0,0,465.07,852.75Z" transform="translate(-7.23 -185)"/><path class="cls-60" d="M484.44,879.66c3,2.29,4.24,5.73,6,8.85a211.87,211.87,0,0,1,27.47-7.57c-.78-5.87-2.13-7.16-8.62-8.26C500.64,873.71,492.52,876.61,484.44,879.66Z" transform="translate(-7.23 -185)"/><path class="cls-61" d="M442.31,827.48q3,4.42,6,8.83a219.55,219.55,0,0,1,25.1-9.41c-.07-5.14-4.12-6.55-7.79-8.31A97.86,97.86,0,0,0,442.31,827.48Z" transform="translate(-7.23 -185)"/><path class="cls-62" d="M476.64,901.5c3.95,1.58,5.26,5,5.93,8.76a243.05,243.05,0,0,1,23.55-10.37c1.06-4.67-1.16-7.94-6-8.82C491.73,893.28,484.16,897.34,476.64,901.5Z" transform="translate(-7.23 -185)"/><path class="cls-63" d="M492.83,860.29c3.94,1.59,4.5,5.46,5.87,8.78,8.63-1.61,17.24-3.31,26.67-3.64-1.59-2.82-2.9-5.19-4.26-7.54s-3.44-1.39-5.21-1.26c-6.84.54-13.67,1.19-20.29,3.19A25.19,25.19,0,0,1,492.83,860.29Z" transform="translate(-7.23 -185)"/><path class="cls-64" d="M430.06,889.73l-5.85-8.06a172,172,0,0,0-12.85,15.39c-2.28,3.11-2.74,5.69-.26,8.74a38,38,0,0,1,2.62,4.32A188.68,188.68,0,0,1,430.06,889.73Z" transform="translate(-7.23 -185)"/><path class="cls-65" d="M481.27,830.93c1.6,1.15,2.13,3.23,3.53,4.44,2.22,1.91,1.38,3.34-.21,4.9,7.9-1.28,15.76-2.91,23.82-3.06-1.35-7.38-3.91-9.29-11.16-8.65A111.78,111.78,0,0,0,481.27,830.93Z" transform="translate(-7.23 -185)"/><path class="cls-66" d="M500.13,891.07c3.5,1.92,4.92,5.25,6,8.82l17.07-4.33c2-1,2.83-2.54,1.87-4.69s-1.84-4.08-4.69-3.73a3,3,0,0,1-2.35-.4C511.86,887.35,506,889.14,500.13,891.07Z" transform="translate(-7.23 -185)"/><path class="cls-67" d="M742.5,1367.62c1.86-2.1,1.14-4.44.65-6.76-3.65-9.61-7.39-19.17-11-28.8-.93-2.5-2-4.88-5.26-4.89l-4.43,2c-1.63,1.94-.3,3.66.52,5.32,4,8.16,8.9,15.81,13.44,23.66,1.31,2.26,2,4.86,3.86,6.79A13,13,0,0,1,742.5,1367.62Z" transform="translate(-7.23 -185)"/><path class="cls-68" d="M492.59,844.47c.58.35,1.19.68,1.74,1.07a12.94,12.94,0,0,1,4,4.66c1.77,3.5-3.39,1.29-3.14,3.65,3.53-.54,7.06-1.15,10.6-1.59s7.12-.71,10.68-1.06c-1.61-7.39-3.82-9-11.23-8.45A93.19,93.19,0,0,0,492.59,844.47Z" transform="translate(-7.23 -185)"/><path class="cls-69" d="M742.5,1367.62a3.85,3.85,0,0,0-1.45-2.65c-6.4-9.79-12.09-20-18.76-29.65-1-1.45-1.63-3.24-3.41-4a5.12,5.12,0,0,0-.73.39c-6.09,4.52-6,4.48-.93,10q9.64,10.45,19.16,21.06C738.16,1364.74,740.5,1365.94,742.5,1367.62Z" transform="translate(-7.23 -185)"/><path class="cls-70" d="M465.63,818.59c1.95,3.38,6,4.82,7.79,8.31l18.6-3.46c-2.48-5.5-7-7.6-12.75-7.73C474.56,815.9,470.18,817.65,465.63,818.59Z" transform="translate(-7.23 -185)"/><path class="cls-71" d="M509.29,872.68c3.67.79,5.81,3.18,6.89,6.66a2.56,2.56,0,0,0,1.73,1.6l15.32-1.51c-1.45-2.65-2.75-5-4-7.39-1-1.9-2.86-1.48-4.42-1.31C519.6,871.29,514.45,872,509.29,872.68Z" transform="translate(-7.23 -185)"/><path class="cls-72" d="M518,886.74c1.42,1.4,3.88.8,5,3.14,1,2.06,1.67,3.72.16,5.68l18-2.06c-1.19-2.21-2.39-4.18-3.35-6.27s-2.48-2.72-4.66-2.43C528.15,885.49,523.08,886.1,518,886.74Z" transform="translate(-7.23 -185)"/><path class="cls-73" d="M726.91,1327.17c3.85,2.52,4.07,7,5.59,10.69,3.24,8,6.41,16.05,9.6,24.08.19.47.45.61.71.11a5.82,5.82,0,0,0,.34-1.19c0-1.71.47-3.45-.36-5.09-1.5-8.92-4-17.61-5.87-26.44-.42-1.94-.85-3.79-3.23-4.19C731.13,1324.81,729.24,1326.74,726.91,1327.17Z" transform="translate(-7.23 -185)"/><path class="cls-74" d="M733.69,1325.14c1.51,1.33,1.33,3.2,1.59,4.94,1.34,9.08,5.57,17.46,6.48,26.65,0,.47.33.7.65.2a4.78,4.78,0,0,0,.38-1.16c-.45-9.32-1-18.63-1.3-28-.09-3.59-1.34-4.6-4.63-3.48C735.83,1324.69,734.75,1324.88,733.69,1325.14Z" transform="translate(-7.23 -185)"/><path class="cls-75" d="M479.27,815.71c5.08,1.21,8.41,5.3,12.75,7.73l8.28-.39c-1.24-7.33-3.86-9.46-10.74-8.68C486.12,814.76,482.7,815.26,479.27,815.71Z" transform="translate(-7.23 -185)"/><path class="cls-76" d="M718.88,1331.27c-.44,2.55,1.53,4,2.71,5.79,5.74,8.68,11.57,17.31,17.41,25.92a13.82,13.82,0,0,0,2,2c-2.81-7.38-7.39-13.82-11-20.78-2.58-5-5.8-9.65-7.59-15Z" transform="translate(-7.23 -185)"/><path class="cls-33" d="M651.38,1252l3.22-.11c-2.61-.73-5.18-1.64-7.85-.56Z" transform="translate(-7.23 -185)"/><path class="cls-69" d="M741.83,1368.73a3.77,3.77,0,0,0-1.85-2.39c-7.88-8.64-15.14-17.84-23.26-26.26-1.22-1.27-2.13-2.94-4-3.46a6.72,6.72,0,0,0-.66.5c-5.29,5.44-5.25,5.4.68,10.05Q723.94,1356,735,1364.9C737.09,1366.57,739.6,1367.39,741.83,1368.73Z" transform="translate(-7.23 -185)"/><text class="cls-77" transform="translate(52.76 1448.15)"><tspan class="cls-78">D</tspan><tspan x="216.68" y="0">oc</tspan></text></svg>