<svg id="Layer_1" data-name="Layer 1" xmlns="http://www.w3.org/2000/svg" viewBox="0 0 345.1 437.48"><defs><style>.cls-1{opacity:0.25;}.cls-2{fill:#003d00;}.cls-3{font-size:69.16px;fill:#ffb1aa;stroke:red;stroke-miterlimit:10;stroke-width:4px;font-family:MyriadPro-Regular, Myriad Pro;}.cls-4{letter-spacing:-0.01em;}</style></defs><title>doc_uploads_no</title><g class="cls-1"><path class="cls-2" d="M151.8,308.44a12.44,12.44,0,0,0-10.2,4.7c-2.5,3.1-3.7,7.1-3.7,12v10.6c0,4.9,1.2,8.9,3.7,12.1a12.38,12.38,0,0,0,10.1,4.7,13.1,13.1,0,0,0,10.6-4.7c2.6-3.1,3.9-7.2,3.9-12.1v-10.6q0-7.35-3.9-12A13,13,0,0,0,151.8,308.44Z" transform="translate(-6.7 -4.66)"/><path class="cls-2" d="M92,309H82.5v42.7H92c4.7,0,8.4-1.6,11.1-4.7a18.17,18.17,0,0,0,4.1-12.2v-8.9a17.9,17.9,0,0,0-4.1-12.1A14,14,0,0,0,92,309Z" transform="translate(-6.7 -4.66)"/><rect class="cls-2" x="65.6" y="90.08" width="227.1" height="19.1"/><rect class="cls-2" x="65.6" y="121.08" width="227.1" height="19.1"/><rect class="cls-2" x="65.6" y="152.18" width="227.1" height="19.1"/><rect class="cls-2" x="65.6" y="183.18" width="227.1" height="19.1"/><rect class="cls-2" x="65.6" y="214.18" width="176.5" height="19.1"/><path class="cls-2" d="M32.9,46.44a28.59,28.59,0,0,1,28.6-28.6H274.7a12.72,12.72,0,0,1,3-12.7l.4-.4H56.8a37,37,0,0,0-37,37v227.4H33V46.44Z" transform="translate(-6.7 -4.66)"/><path class="cls-2" d="M297.4,330.44h0a52.13,52.13,0,0,0-52.1-52.1H6.7v104.1H245.4A52,52,0,0,0,297.4,330.44Zm-180.5,4.4c0,7.3-2.3,13.2-6.9,17.8s-10.6,6.9-18,6.9H72.7v-58.3H92q11.1,0,18,6.9c4.6,4.6,6.9,10.6,6.9,17.8Zm59,.8c0,7.1-2.2,13-6.7,17.7s-10.3,7-17.4,7-12.6-2.3-17-7-6.6-10.6-6.6-17.7v-10.5c0-7.1,2.2-13,6.5-17.7s10-7,17-7,12.9,2.3,17.4,7,6.7,10.6,6.7,17.7v10.5Zm24.3,12.3a11.44,11.44,0,0,0,9.6,4.7c4,0,7-1,9.1-3.1s3.1-5.1,3.1-9h9.4l.1.2c.1,5.9-1.8,10.6-5.7,14.2s-9.2,5.4-15.9,5.4-12.3-2.3-16.5-6.9-6.3-10.4-6.3-17.6v-11.1c0-7.1,2.1-13,6.2-17.6s9.6-6.9,16.3-6.9c6.9,0,12.3,1.7,16.2,5.2s5.9,8.3,5.7,14.4l-.1.2H222c0-3.9-1.1-6.9-3.2-9s-5.2-3.1-9.3-3.1a11.08,11.08,0,0,0-9.4,4.7,19.53,19.53,0,0,0-3.5,11.9v11.2C196.6,340.84,197.8,344.74,200.2,347.94Z" transform="translate(-6.7 -4.66)"/><path class="cls-2" d="M314.8,4.66H93.5l.4.4a12.72,12.72,0,0,1,3,12.7H310.1a28.59,28.59,0,0,1,28.6,28.6h-.1v354h.1a28.59,28.59,0,0,1-28.6,28.6H61.5a28.59,28.59,0,0,1-28.6-28.6v-8.8H19.7v13.6a37,37,0,0,0,37,37H314.8a37,37,0,0,0,37-37V41.66A37,37,0,0,0,314.8,4.66Z" transform="translate(-6.7 -4.66)"/></g><text class="cls-3" transform="matrix(0.58, -0.82, 0.82, 0.58, 75.8, 397.35)">- No h<tspan class="cls-4" x="172.41" y="0">a</tspan><tspan x="205.19" y="0">y DOC -</tspan></text></svg>