<svg id="Capa_1" data-name="Capa 1" xmlns="http://www.w3.org/2000/svg" viewBox="0 0 1064.05 1172.83"><defs><style>.cls-1{fill:#797774;}.cls-2{fill:#f9f9f9;}.cls-3{fill:#41a4ed;}.cls-4{fill:#2b7cd2;}.cls-5{fill:#185abc;}.cls-6{fill:#103f90;}.cls-7{fill:#fff;}</style></defs><title>docx</title><path class="cls-1" d="M186.65,900h16.24c10,10.95,8.11,24.65,8.17,37.63.32,64.19-.08,128.38.23,192.57.16,32.64,2.23,35,34.11,35q385.14.32,770.3,0c32,0,33.64-1.89,33.66-35.09q.17-395.7,0-791.4c0-36.64-1.53-37.9-39.2-38-56.28-.15-112.56.22-168.83-.14-43-.27-50.16-7.51-50.47-51.29-.43-58,.19-116.07-.26-174.1-.23-30.44-2.79-33-33.42-33.08q-255.88-.33-511.78,0c-31.88,0-34,2.34-34.11,35-.31,64.19.09,128.38-.23,192.57-.06,13,1.84,26.69-8.17,37.64H186.65c.07-88,.88-176-.34-263.92-.3-21.7,6.81-26.21,27-26.13q290.32,1,580.63.12c13.43,0,22.85,3.78,32.26,13.26q117.09,118,235.19,235.08c9.71,9.61,12.6,19.45,12.59,32.54q-.45,432.83.27,865.66c.06,21.59-6.66,26.21-26.94,26.17q-417-.91-834,0c-20.21,0-27.32-4.42-27-26.13C187.53,1075.91,186.72,987.93,186.65,900Z" transform="translate(-10.22 -17.17)"/><path class="cls-2" d="M202.89,307.23c-.07-83.57.4-167.14-.62-250.69C202,38.24,206.74,32.91,225.49,33Q501.25,34.06,777,33c19.53-.08,22.84,6.7,22.6,24.15-.92,67.72.43,135.47-.81,203.18-.43,23.86,6.84,32.75,31.53,32.28,68.59-1.33,137.22.07,205.82-.84,17.08-.23,22.18,4.43,22.15,21.89q-.8,419.58,0,839.16c0,18.34-6.51,21.3-22.73,21.27q-405.06-.63-810.14.12c-18.75,0-23.44-5.26-23.21-23.55,1-83.55.56-167.12.63-250.68l371.92-.71c44.76-.08,60.75-15.66,60.76-59.54q0-236.1,0-472.22c0-43.87-16-59.45-60.76-59.53Z" transform="translate(-10.22 -17.17)"/><path class="cls-2" d="M815.11,53.3,1038,276.15c-69.72,0-140.36,0-211,.05-11.61,0-11.88-7.6-11.87-16C815.12,191.13,815.11,122,815.11,53.3Z" transform="translate(-10.22 -17.17)"/><path class="cls-3" d="M825.83,492.72q-68.42,0-136.85,0c-11.49,0-22.51,2.14-22.18-16.35.29-16.53,9.55-15.42,20.49-15.41q138.16.15,276.34,0c10.56,0,20.48-1.93,20.87,15,.41,18.14-9.92,16.82-21.81,16.77C917.07,492.6,871.45,492.72,825.83,492.72Z" transform="translate(-10.22 -17.17)"/><path class="cls-4" d="M825.2,577.18c-46.58,0-93.18-.37-139.75.24-13,.17-18.83-2.44-18.65-17.19.18-14.53,7.51-14.85,18.24-14.83q141.08.3,282.15-.07c11.8-.05,17.32,2.42,17.24,15.82-.07,12.89-4.52,16.4-16.83,16.25C920.14,576.85,872.67,577.18,825.2,577.18Z" transform="translate(-10.22 -17.17)"/><path class="cls-5" d="M823.11,661.65c-45.6,0-91.2-.18-136.79.14-11.48.08-19.62.23-19.62-15.88,0-15.88,7.73-16.11,19.44-16.07q139.41.39,278.83,0c11.48,0,19.62-.24,19.62,15.87,0,15.88-7.73,16.17-19.44,16.08C917.8,661.44,870.45,661.65,823.11,661.65Z" transform="translate(-10.22 -17.17)"/><path class="cls-6" d="M823.54,746.12c-45.65,0-91.29-.11-136.94.09-11,0-20,1.29-19.93-15.39,0-15.39,6.73-16.58,18.88-16.54q139.56.47,279.13.09c11,0,19.66-1.24,20,15.38.34,18.42-9.87,16.5-21.55,16.45C916.58,746,870.06,746.13,823.54,746.12Z" transform="translate(-10.22 -17.17)"/><rect class="cls-5" y="265.83" width="636.83" height="636.69" rx="54.75"/><path class="cls-7" d="M179.83,437l36.42,167.08c8,36.68,15.36,70.64,20.49,104.6h1.7c6.26-33.28,15.37-68.6,24.47-103.92l45-167.76H350l42.68,164.37c10.24,39.39,18.21,74,24.47,107.31h1.71c4.55-33.28,11.95-67.92,21.05-106.63l39.27-165h49.5L439.88,765.7H394.36L352.25,608.81c-9.67-36.68-17.64-69.28-24.47-108h-1.14c-6.83,39.39-15.36,73.35-25,108.67L257.22,765.7H211.7L128.62,437Z" transform="translate(-10.22 -17.17)"/></svg>