<svg id="Capa_1" data-name="Capa 1" xmlns="http://www.w3.org/2000/svg" viewBox="0 0 1058.7 1059"><defs><style>.cls-1{fill:#fdfdfd;}.cls-2{fill:#030302;}.cls-3{fill:#faed00;}.cls-4{fill:#030303;}.cls-5{fill:#eee736;}</style></defs><title>emogi-carita-feliz</title><path class="cls-1" d="M864.07,1056.36c-55.13-12.66-109.4-27.77-158.94-56.25C544,907.48,449.17,770,431.28,584.22c-26-270.07,158.87-514.93,425.43-565.59C968.37-2.59,1076.59,11.29,1179.84,60c28.46,6.31,50.71,25,75.41,38.65,11.41,6.31,21.93,15,32.41,23.2,101.79,81.74,165.91,187.05,189.74,314.87,30.6,164.13-8.21,312.44-114.61,441-75.75,91.54-173.17,150.66-289.14,178.42-67.35,14.21-134.85,16.21-202.6,3.14C868.44,1058.74,865.85,1058.68,864.07,1056.36Z" transform="translate(-428.84 -9)"/><path class="cls-2" d="M476.74,536.25C477.9,267.33,695.87,51.72,966.89,55c270,3.25,478.33,228.55,474.24,490.77-4,259.19-220.64,473.38-482.8,472.45C692.53,1017.25,475.6,800.16,476.74,536.25Z" transform="translate(-428.84 -9)"/><path class="cls-3" d="M959.72,97.4c242.5.1,438.88,197.21,439,440.62.1,241.28-198.59,438.9-441.92,437.79C712,974.68,516.68,772.69,519.41,527,522,293.35,720.91,97.31,959.72,97.4Z" transform="translate(-428.84 -9)"/><path class="cls-4" d="M835.81,839.83c-78.16-36.89-135.32-94.56-171-174.09,194.89,166.7,390.06,167.53,587.93,1-39,87.15-102.58,146.26-189.87,180.79-7.11,8.35-17.87,7.73-27,9.87C967.36,873.41,900.2,871.71,835.81,839.83Z" transform="translate(-428.84 -9)"/><path class="cls-4" d="M872.06,433.18c.45,28.85-6.79,55.33-25.47,77.71-26.07,31.22-64.09,31.78-91.46,1.92-37.32-40.72-36.41-121.58,1.81-161.59,26.1-27.32,61.75-27,87.26,1.18C864.93,375.28,872.53,402.88,872.06,433.18Z" transform="translate(-428.84 -9)"/><path class="cls-4" d="M1046.12,432.49c0-28,6.79-54,24.48-76.21,26.22-33,66.61-33.59,94.09-1.78,35.53,41.13,34.59,118.46-1.93,158.71-25.69,28.31-63,28.38-88.77.18C1055.91,493.63,1046.05,465,1046.12,432.49Z" transform="translate(-428.84 -9)"/><path class="cls-5" d="M835.81,839.83c74.76,29.71,150.43,32.76,227,7.67-1.53,6.31-7.06,7.66-12,9-64.23,17.72-128.24,17.58-191.83-3.07C850.39,850.68,840.67,849.2,835.81,839.83Z" transform="translate(-428.84 -9)"/></svg>