<svg id="Capa_1" data-name="Capa 1" xmlns="http://www.w3.org/2000/svg" viewBox="0 0 792 791.88"><defs><style>.cls-1{fill:#0086cc;}.cls-2{fill:#fefefe;}.cls-3{fill:#002c41;}.cls-4{fill:#abb1b7;}.cls-5{fill:#343433;}.cls-6{fill:#1a1a1a;}.cls-7{fill:#1b1a1a;}.cls-8{fill:#2fa5dd;}.cls-9{fill:#005e93;}.cls-10{fill:#9eb8c2;}.cls-11{fill:#001734;}.cls-12{fill:#031a36;}.cls-13{fill:#025f95;}.cls-14{fill:#f5c49e;}.cls-15{fill:#615443;}.cls-16{fill:#d6d7d7;}.cls-17{fill:#fdfefe;}.cls-18{fill:#c59e7f;}</style></defs><title>empresa-logo</title><path class="cls-1" d="M396.61.07C614.25-.29,795.14,178.24,792,402c-3.07,216.14-180.68,392.92-401.77,389.91C173.24,789-2.85,610.4,0,390.47,2.87,174.87,179.21-.71,396.61.07Z" transform="translate(0 -0.07)"/><path class="cls-2" d="M141.85,660.42c-18.6-16.81-34.38-36.09-48.48-56.72C46.3,534.84,24.77,458.5,29.5,375.38,34.65,285,69,206.65,131.81,141.29,187.39,83.45,255,46.9,334.09,34.2c114.17-18.34,216.27,10.16,303.87,86,64,55.36,104.2,125.53,118.87,208.86,19.9,113-7.25,214.44-80.1,303.36a280.53,280.53,0,0,1-31.38,32.83c-2.56-.57-2.29-2.78-2.5-4.58a69.86,69.86,0,0,1-.14-8.06q0-191.26.17-382.54c0-8.36-2.35-13-10-17q-54.54-28.67-108.74-58c-1.69-.91-3.47-1.65-5.2-2.45-3.58-.87-6.24,1.34-9,2.89q-44.43,24.69-89.08,49c-8.4,4.55-16.31,10-25.37,13.36-5.47-.79-10-3.88-14.65-6.42-35.53-19.35-71.44-38-107-57.33-2.21-1.2-4.44-2.38-7.08-1.29-33.9,17.59-67.42,35.86-101.1,53.83-5.58,3-11.31,5.67-16.79,8.87-3.51,2-5.32,4.77-5.11,8.88.11,2.29,0,4.6,0,6.91q0,189.39,0,378.78C143.73,653.54,144.79,657.38,141.85,660.42Z" transform="translate(0 -0.07)"/><path class="cls-3" d="M141.85,660.42c.06-2.49.18-5,.18-7.48q0-194.72-.09-389.44c0-4.57,1.24-7,5.42-9.24,38.94-20.57,77.74-41.41,116.58-62.17,1.17-.62,2.42-1.1,3.64-1.65,1.59,1.65,1.81,3.75,1.89,5.88.1,2.5.06,5,.06,7.49q0,261.11,0,522.23c0,3.83.24,7.68-.34,11.48a6.38,6.38,0,0,1-.72,1.92,1.78,1.78,0,0,1-1.89,1c-6.13-2-13.08-2.31-17.28-8.31a1.32,1.32,0,0,0,.69-.76c-1.34-2.44-1.4-5.11-1.4-7.8,0-9.74,0-19.49,0-29.24,0-7.54-.92-8.09-8.35-7.45-21.3,1.82-42.6,3.62-63.93,4.83a214.68,214.68,0,0,1-22.59-18.21c-4-3.65-9.3-6.22-11.48-11.73C142.1,661.31,142,660.87,141.85,660.42Z" transform="translate(0 -0.07)"/><path class="cls-4" d="M517.62,190.45c9.86,3.37,18.51,9.17,27.63,14,31.07,16.34,61.88,33.16,92.94,49.52,4.49,2.36,6.22,4.86,6.21,10.08q-.25,197-.08,394.06c0,2.38-1,5,1,7.15l-1.86,2.3c-3.86,6-9.36,10.17-15.54,13.55a6.84,6.84,0,0,1-4.33-1.29c-8.86-6.08-18.44-10.95-27.62-16.49-1.45-.87-5.74-1.59-2.06-5,8.4-1.38,16.85-.36,25.27-.65,6.62-.23,7.25-.72,7.32-7.28.08-7.87-.11-15.74.06-23.6.11-4.63-2-6.7-6.42-6.93-16.65-.83-33.24-2.55-49.88-3.66-6.68-.45-13.37-1-20-1.72-3.66-2-1-3.87.33-5.35,2.56-2.83,5.8-5,8.56-7.61,4.77-4.61,8.55-9.73,10.35-16.24.75-2.73,1.6-5.61,4.87-6.62,9.94-1.1,19.92-.29,29.87-.5,5.37-.11,10.74-.12,16.11,0,4.28.1,6.31-1.5,6.22-6q-.24-12.36,0-24.74c.09-4.36-1.92-6.39-6-6.7-7.26-.55-14.5-1.24-21.77-1.62a64.55,64.55,0,0,1-13.64-1.86,5.87,5.87,0,0,1-3.56-3.75c-.78-9.37,1.42-18.61,1.23-28-.07-3.93-2-7.89,0-11.83,1.95-1.94,4.31-1.15,6.53-.86,10.26,1.37,20.45,3.16,30.7,4.64,6.13.89,6.55.46,6.59-5.81.05-7.67-.2-15.34.09-23,.2-5.15-1.81-7.62-6.86-8.69-19.87-4.23-39.57-9.22-59.44-13.46-3-.65-5.93-1.53-8.88-2.37a14.19,14.19,0,0,0-5.58-1c-8.64-2.31-17-5.74-26.12-6a3.52,3.52,0,0,1-3.17-2.15c-1.09-2.77-.87-5.67-.87-8.53q0-113.29,0-226.57C515.83,196.61,515.32,193.25,517.62,190.45Z" transform="translate(0 -0.07)"/><path class="cls-5" d="M467.32,765.58a351.39,351.39,0,0,1-104.24,5.5c-2.23-3.1-.86-6.23-.09-9.36,2-8.4,3.7-16.89,5.59-25.32s3.75-16.6,6.18-24.76c4.09-12.51,10-23.81,21.27-31.49,10.15-6.53,20.07-13.45,32.4-19.14-5.08,0-8.74.13-12.38,0-5.81-.27-7-1.38-7.1-7.33-.16-10-.19-19.95,0-29.92.15-7.05,2.67-8.53,9.64-6.05,0,.19.15.52.1.55-6.92,3.52-5.34,9.94-5.37,15.79,0,5.56.12,11.14,0,16.7-.12,4.13,1.51,5.76,5.71,5.94,10.71.45,21-.3,30.42-6.3,4.65-3,9.69-5.53,15.31-6.41,4,2.09.88,4.32-.21,6-5.76,8.84-11.3,17.81-17.17,26.57-7.43,11.1-7.32,11.12,4.49,17,4,2,8.17,3.32,12.07,5.42,5.77,3.1,5.95,4.57.73,8.29-4.21,3-8.59,5.77-12.9,8.65-6.35,4.25-6.37,4.27-3.06,10.93,5.46,11,11,21.93,16.41,33C466,761.6,467.28,763.36,467.32,765.58Z" transform="translate(0 -0.07)"/><path class="cls-6" d="M467.32,765.58c-4.78-5.85-7.07-13.05-10.56-19.59-3.79-7.09-7-14.47-10.88-21.52-2-3.6-1.66-5.6,2-7.82,6.78-4.15,13.24-8.83,20.65-13.84-9.48-4.53-17.92-8.89-26.64-12.58-3.77-1.6-3.24-2.81-1.43-5.56,8.1-12.27,16-24.67,23.94-37a29.12,29.12,0,0,0,1.48-3c1.69-4,5.54-5.15,9.13-6,4.07-1,4.59,2.58,5,5.36q2.46,17,4.67,34c.78,6.05,1.64,12.08,2.68,18.09,3.24,19.66,4.79,39.54,7.27,59.3a4.69,4.69,0,0,1-1.24,4.24A162.67,162.67,0,0,1,467.32,765.58Z" transform="translate(0 -0.07)"/><path class="cls-7" d="M581.06,722.84c-7.63,5.88-16.43,9.65-25,13.7-7.08,3.34-14.41,6.15-21.63,9.2-1.89-.83-1.47-2.53-1.31-3.94,1.78-15.26,2.83-30.62,5.77-45.73,2.34-17.29,4.13-34.66,6.85-51.9,1-6.52,2.41-7.22,8.38-4.59,3.49,1.54,7.11,2.94,9.95,5.64,7.12,12,14.09,24,21.29,36,3.89,6.44,3.27,8.09-3.32,11.56-5.92,3.12-12.27,5.31-18.19,8.45-2.69,1.42-3,2.58-.28,4.33,5.44,3.55,10.88,7.1,16.2,10.83C582.14,718.07,583.91,720,581.06,722.84Z" transform="translate(0 -0.07)"/><path class="cls-2" d="M174.31,690.28c22.7-1.73,45.4-3.42,68.09-5.22,8-.64,8-.77,7.95,7.25-.09,13-.24,26-.37,39.05-4.22-.07-8.48-.56-12.64-.12-10.58,1.12-19.75-2-28.72-7.46-16.17-9.92-32.24-19.92-47-31.95C165.43,687.65,169.78,688.26,174.31,690.28Z" transform="translate(0 -0.07)"/><path class="cls-5" d="M581.06,722.84c.92-2.52.16-4-2.26-5.49-6.95-4.32-13.63-9.07-21.19-14.18,6.12-3.64,12-6,17.78-8.83,14.9-7.29,13.37-4,5.9-17.1-5.3-9.29-10.86-18.43-16.36-27.61a5.07,5.07,0,0,1-1-3.18,2.15,2.15,0,0,1,1.62-.47c9.64,3.18,18.84,7.26,26.91,13.57l35.74,21.07c2.85,1.27,5.86,2.4,6,6.28C617.15,699.92,600.1,712.84,581.06,722.84Z" transform="translate(0 -0.07)"/><path class="cls-8" d="M527,749c-9.52,3.64-19,7.37-29.06,9.35a5.55,5.55,0,0,1-1.25-4.81c2.55-17.31,4.59-34.69,7.62-51.93a10.74,10.74,0,0,1,.72-2.16c4.11-6.8,12-6.82,15.94-.05,3.31,14.92,4.67,30.14,7,45.22A6.1,6.1,0,0,1,527,749Z" transform="translate(0 -0.07)"/><path class="cls-9" d="M364.38,761.94c-1.07,3-1.11,6.06-1.3,9.14-14.69-.33-29.09-3-43.42-5.83-17.7-3.51-35.18-8-52-14.72-2.2-3.47-2.54-7-.08-10.47a3.26,3.26,0,0,1,.7,0c2.59-.79,4.91.34,7.23,1.14a353.46,353.46,0,0,0,82.72,18.17C360.52,759.56,362.79,760,364.38,761.94Z" transform="translate(0 -0.07)"/><path class="cls-10" d="M506.33,699.65Q502.16,729,498,758.34l-4.61,1.21q-3.83-31.71-7.66-63.42c3.82-5.21,7-11.19,14.17-12.62C503.73,688.21,508.41,692.58,506.33,699.65Z" transform="translate(0 -0.07)"/><path class="cls-10" d="M527,749q-3.62-24.68-7.24-49.36c-2.21-7.13,2.53-11.47,6.48-16.13,2.26-.88,3.72.57,4.8,2,2.8,3.84,6.47,6.89,9.38,10.62q-3,24.8-6.07,49.57Z" transform="translate(0 -0.07)"/><path class="cls-11" d="M174.31,690.28l-12.65,1.55c-3.14-2.51-6-5.39-9.46-7.45-8.73-5.28-12.08-12.69-10-22.62,9.93,8.53,19.51,17.48,30.15,25.17A4.22,4.22,0,0,1,174.31,690.28Z" transform="translate(0 -0.07)"/><path class="cls-12" d="M267.57,740.06q0,5.24.08,10.47a228.58,228.58,0,0,1-41.47-18.41h23.11C254.94,735.78,261.58,737.17,267.57,740.06Z" transform="translate(0 -0.07)"/><path class="cls-13" d="M634.13,686.9l-6-6.28,15.33-13.09C647.58,677.46,640.11,681.82,634.13,686.9Z" transform="translate(0 -0.07)"/><path class="cls-4" d="M364.38,761.94c-31.8-3.23-62.92-9.51-93-20.57-1.07-.39-2.1-.88-3.14-1.33-.1-2.67-.28-5.35-.28-8q0-266.78,0-533.55c0-2.67-.25-5.34-.38-8,8.94,1.92,16.15,7.53,24,11.63,27.45,14.31,54.65,29.09,82,43.66,7.25,3.87,14.56,7.62,21.84,11.42,2.58,2.44,2,5.67,2,8.66.08,18.22,0,36.44,0,54.67q0,174.91,0,349.85c0,3.76.78,7.74-1.93,11.07-.2.53-.24,1.3-.63,1.56-10.2,6.9-14.54,17.62-18.64,28.5-2.6-2.18-2-5.25-2-8,0-3.54-1.41-5.12-5.08-5.39-21-1.57-42.05-3.28-63.1-4.61-4.4-.28-8.73-1.13-13.18-1.17s-6.16,1.85-6.13,6.19c.09,10.18.07,20.35,0,30.52,0,4.17,1.82,5.86,5.9,5.83,6.72-.06,13.44,0,20.15,0,16.32,0,32.63,0,49,0,2.82,0,5.82-.49,8.24,1.66Z" transform="translate(0 -0.07)"/><path class="cls-3" d="M395.49,681.4c-.09-1.72-.27-3.43-.27-5.15q0-207.25,0-414.51c0-1.53.11-3.06.17-4.59q59.78-33,119.57-65.9a13,13,0,0,1,2.66-.8q0,118.32.08,236.64c0,2.88,0,5.75.08,8.63a4.61,4.61,0,0,1-4.1,1.61c-14.75-.47-28.1,4.4-41.12,10.6a11.75,11.75,0,0,1-2.17.72c-17.89,3.18-35.4,8.07-53.18,11.76-3.58.74-5.07,2.87-5,6.5.07,8.61.1,17.21,0,25.82-.05,4.15,1.82,5.4,5.68,4.83,6.24-.92,12.45-2.06,18.71-2.85,2.29-.29,4.55-.73,6.77.34a5.26,5.26,0,0,1,2.09,5.62c-1.47,8.06-.48,16,.2,24.07a17,17,0,0,1-1.21,9,8.72,8.72,0,0,1-4.31,4.44c-6.36,1.62-12.89,1.68-19.39,2.13-7.83.53-8.65,1.36-8.4,9,.3,9.16-1.26,18.39,1,27.45,1.57,2,3.81,1.48,5.85,1.49q14.33.11,28.64,0c4.34,0,7.53,1.43,8.65,5.83,2.45,9.63,9,16.21,16.31,22.21.88.72,1.8,1.41,2.65,2.19,4.38,4,4.26,4.66-1.21,7.18-16.18,1.32-32.38,2.35-48.54,3.84-2.43.22-5,.38-7.05-1.57-8.12-.29-8.12-.29-8.12,7.87,0,9.4.2,18.81-.09,28.2-.14,4.38,1.39,5.75,5.62,5.48,5-.31,10-.07,15.6-.07-4.39,4.89-10,7.15-15.11,9.71-5.69,2.86-10.44,6.93-15.78,10.18C399,680.37,397.56,681.55,395.49,681.4Z" transform="translate(0 -0.07)"/><path class="cls-2" d="M204.24,658.83c-13.43,0-26.86-.15-40.29.09-3.84.06-4.81-1.11-4.72-4.84.26-10.35.23-20.71,0-31.07-.07-3.19.85-4.14,4-4.37q41.55-3.09,83.08-6.53c3.33-.27,4.12.85,4.08,4q-.27,19.27,0,38.56c0,3.29-.94,4.21-4.19,4.18C232.24,658.73,218.24,658.83,204.24,658.83Z" transform="translate(0 -0.07)"/><path class="cls-2" d="M205.2,579.69c-13.81,0-27.62-.12-41.43.08-3.48.05-4.62-.77-4.54-4.41.25-10.74.17-21.49,0-32.22,0-2.59.55-3.62,3.36-3.83q41.84-3.12,83.66-6.55c3.3-.27,4.19.58,4.14,3.89-.18,12.85-.26,25.71,0,38.55.09,4.11-1.53,4.6-5,4.56C232.06,579.59,218.63,579.69,205.2,579.69Z" transform="translate(0 -0.07)"/><path class="cls-2" d="M250.35,252.76c0,15.44,0,30,.05,44.54,0,2.17-1.06,3-2.75,3.77-29.17,13.38-58.33,26.79-88.32,40.58,0-13.12,0-25.65-.05-38.17,0-2,1.33-2.6,2.62-3.29C191,284.54,220.2,268.92,250.35,252.76Z" transform="translate(0 -0.07)"/><path class="cls-2" d="M250.35,439.28c0,15-.08,29.58.07,44.15,0,3.23-1.86,3.05-4,3.37q-32.67,5-65.33,10.09c-6.06.94-12.17,1.6-18.17,2.81-2.85.57-3.7.14-3.67-2.82.13-11.13.1-22.26,0-33.4,0-2.2.39-3.33,2.85-3.9C191.41,452.93,220.66,446.14,250.35,439.28Z" transform="translate(0 -0.07)"/><path class="cls-2" d="M159.32,420.92c0-12.72.06-24.8,0-36.88,0-2.21.56-3.41,2.73-4.23q43.69-16.56,87.34-33.25c.15-.06.37.06,1,.19,0,14.61-.06,29.33.07,44,0,2.52-1.65,2.79-3.17,3.25C218.19,403,189.12,411.82,159.32,420.92Z" transform="translate(0 -0.07)"/><path class="cls-14" d="M440.45,537.32c.81-1.18,1.61-2.37,2.41-3.56,3.84-1.06,3.4,2,3.69,4,1,7,1.95,14.05,3.4,21.05a12.62,12.62,0,0,0-.19-6.79c-2.74-9.68-.43-18.65,3.92-27.23a164.41,164.41,0,0,0,11.38-28.22c3.32-11.35,11.23-16.72,23-17.41,12.67-.75,24.21,3.25,35.71,7.66,5.19,2,10.28,4.27,15.54,6.1,5.09,1.77,10.26,3.41,15.64.87,2.44-1.16,4.21-.12,5.08,2.14,6,15.75,13.52,31,17.05,47.6,1.08,5.06-1,10.23-.81,15.45,1.28-6.37,2.82-12.67,3.94-19.06.37-2.14,0-4.74,2.4-6.13l2.06,2.52c4,2.74,2.15,6.89,2.49,10.48a14.9,14.9,0,0,1-1.13,7.28c-3.84,8.77-9.57,16.58-13,25.58-2.78,15-13.79,23.94-24.3,33.27-.49,1.84-2.12,2.62-3.43,3.7-6,4.86-12.84,8.19-19.71,11.54-8.47,4.14-16.83,4-25.32-.07a184,184,0,0,1-19.83-11.34c-1.73-.93-4-.66-5.29-2.56.31-1,4.65-.2,1.15-2.86-3-2.32-5.91-4.86-8.75-7.42-6-5.46-11.26-11.57-12.95-19.8-.73-3.56-2.44-4.47-5.89-4.39-10.52.21-21,.12-31.57,0-1.83,0-3.82.7-5.51-.67,1.69-2.57,4.39-2,6.77-2,8.8-.12,17.6,0,26.39-.07,5.47-.07,6.28-1.43,4.39-6.69a17.25,17.25,0,0,0-3.76-5.71c-4.73-5.17-6.61-11.56-7.52-18.28C437.52,543.1,437.86,539.86,440.45,537.32Z" transform="translate(0 -0.07)"/><path class="cls-15" d="M582.64,533.82c-1.43,8.67-2.82,17.36-4.31,26-.23,1.39-.05,3.59-2.07,3.53s-1.49-2.23-1.69-3.63a4.52,4.52,0,0,1,0-1.72c3.63-14.38-2.32-27-7.32-39.79-3.13-8-6.22-16.05-9.48-24.46-7,5.47-14.06,2.36-20.93-.13-11.85-4.31-23.25-9.94-35.81-12.18a51.82,51.82,0,0,0-18.83.06c-8.43,1.57-13.08,7.33-15.3,14.67a159.51,159.51,0,0,1-11.17,27.62c-4.71,9-7.22,18.38-4.4,28.72.95,3.46,1.62,10.33-.65,10.29-4.34-.07-2.71-5.89-3.33-9.31-1-5.64-1.61-11.36-2.33-17.06-.17-1.41-.28-2.72-2.16-2.7,2.1-3.57,1.3-7.52.9-11.19-.8-7.42-1.26-14.74.06-22.14.29-1.59.59-3.46-.92-4.83a67.23,67.23,0,0,1,15.79-40.17,23.45,23.45,0,0,1,11.64-7.95c14.82-8,30.42-12.75,47.45-11.76,10-.56,19.09,2.72,28.24,5.93,1.59.66,3.38.76,4.86,1.74,4.45,2.15,8.82,4.47,13.23,6.69,5.75,2.87,9.84,7.63,12.85,13.36,4.15,7.87,6.31,16.3,7.51,25,.24,1.73.31,3.43-.93,4.88C585,506.88,584,520.35,582.64,533.82Z" transform="translate(0 -0.07)"/><path class="cls-2" d="M545.33,615.61a4.87,4.87,0,0,1,3.46-2.66q35.48,2.53,71,5.07c8.46.59,8.47.49,8.47,8.92,0,8.82-.24,17.66.1,26.47.18,4.69-1.58,5.92-6,5.86-9.95-.16-19.92.16-29.88.28l-28.53-13.1c-4.9-3.34-10.49-5.18-16.11-7.61-2.47,19.34-4.9,38.34-7.33,57.33-4.24-1.39-6.24-5.25-9.1-8.18-1.44-1.48-3-2.87-4.47-4.3a41.42,41.42,0,0,1-13.65-14,6,6,0,0,1,0-2.53c4.75-8.87,12.05-15.81,18-23.81a81.26,81.26,0,0,1,7.23-9A18.2,18.2,0,0,0,544,618.77,5.11,5.11,0,0,1,545.33,615.61Z" transform="translate(0 -0.07)"/><path class="cls-2" d="M537.7,253.08c27.35,14.68,54,29.46,81.16,43.28,7.78,3.95,10.35,8.54,9.52,16.83-.76,7.6-.32,15.35-.1,23,.12,4.19-.48,5.45-4.94,3.36-23.09-10.83-46.32-21.37-69.5-32a12.54,12.54,0,0,0-2.61-1.21c-12.76-2.54-15.47-10.81-14.24-22.63,1-9.49.22-19.18.24-28.78A11.66,11.66,0,0,1,537.7,253.08Z" transform="translate(0 -0.07)"/><path class="cls-2" d="M537.19,370.15c0-6.33.19-12.67-.07-19-.16-4,.71-5,4.72-3.44,20,7.83,40,15.44,60.06,23.12,7.51,2.88,15,5.79,22.56,8.58,2.36.88,3.86,1.92,3.82,4.86-.15,10.74-.25,21.5,0,32.24.12,4.45-1.71,4-4.77,3.08Q589.25,409,554.91,398.54c-4.39-1.35-8.71-3-13.18-4-3.81-.86-4.76-2.94-4.61-6.54C537.37,382.06,537.19,376.1,537.19,370.15Z" transform="translate(0 -0.07)"/><path class="cls-2" d="M583.54,493.35c-1.08-8.91-2.43-17.77-6.15-26s-9.13-14.77-18.2-17.82c-3.32-1.12-6.14-3.74-9.19-5.67-.27-1,0-1.55,1.15-1.17q36.39,8.27,72.77,16.53c2.54.57,4.46,1.37,4.39,4.82-.24,10.74-.12,21.5-.07,32.25,0,2.78-.31,4.1-3.89,3.48C610.79,497.36,597.15,495.44,583.54,493.35Z" transform="translate(0 -0.07)"/><path class="cls-2" d="M573.09,579.68c1.72-6.28,2.72-12.46,7.41-18,6-7.1,6.92-16.22,4.2-25.38,13.49,1.06,27,2.16,40.48,3.12,2.63.19,3.06,1.57,3.06,3.76,0,10.91-.14,21.81,0,32.71.06,3.69-1.9,3.9-4.69,3.89C606.75,579.72,589.92,579.71,573.09,579.68Z" transform="translate(0 -0.07)"/><path class="cls-16" d="M551.15,442.65,550,443.82a7.35,7.35,0,0,1-4-2.16C547.78,441.72,549.69,441.06,551.15,442.65Z" transform="translate(0 -0.07)"/><path class="cls-2" d="M370,736.48c-27,.07-54,.1-81.08.25-3.1,0-3.92-1.27-3.89-4.13.09-12.65.15-25.3,0-38-.05-3.82,1.65-4.49,4.89-4.26,13.15,1,26.33,1.73,39.48,2.7,13.53,1,27,2.47,40.57,3.06,5.16.23,6.81,1.79,6.24,6.71a65.18,65.18,0,0,0,.09,8.61Q373.1,724,370,736.48Z" transform="translate(0 -0.07)"/><path class="cls-2" d="M514.25,667.54c0,.71,0,1.41,0,2.12-4.93,4.74-8.79,10.64-15.14,13.82l-13.41,12.65c-2.43-17.52-5-35-7.19-52.56-.51-4-1.59-5-5.12-2.78-2.4,1.46-5,2.56-7.53,3.83-6.77,3.09-14,5.46-20.2,9.45-10.14,6.54-21.1,4.12-31.83,4.63-2,.1-2.65-.94-2.64-2.81,0-11.32-.06-22.64,0-34,0-5.55,5.31-1.82,7.34-3.94l56.64-3.77c1.79.82,4.12-.61,5.62,1.38a4.8,4.8,0,0,1,1.22,2.23c-.9,7.42,2.46,13,7.09,18.49C497.78,646.5,506,657.07,514.25,667.54Z" transform="translate(0 -0.07)"/><path class="cls-8" d="M499.12,683.48c5-4.68,8.58-10.87,15.14-13.82l12.63,14c-2.27,5.36-7.9,9.22-7.09,15.94a8,8,0,0,0-13.47,0C507,692.91,501.45,688.9,499.12,683.48Z" transform="translate(0 -0.07)"/><path class="cls-2" d="M331,659.18c-13.44,0-26.88-.12-40.32.07-4.11,0-5.84-1.07-5.75-5.51.24-12.29.21-24.58,0-36.86-.07-3.86,1.21-5.06,5-4.73q26,2.24,52.08,4.19c9,.69,18,1.28,26.95,1.68,4.93.21,7.63,1.47,7.24,7.38a227.11,227.11,0,0,0,0,26.48c.28,5.62-1,7.73-7.16,7.46C356.37,658.8,343.68,659.18,331,659.18Z" transform="translate(0 -0.07)"/><path class="cls-2" d="M330.44,579.78c-13.43,0-26.87-.14-40.29.08-4,.07-5.29-1.17-5.21-5.2q.35-18.42,0-36.84c-.07-4,.95-5.51,5.13-5.14,22.09,1.93,44.21,3.66,66.31,5.49,5.34.44,10.71.15,16.05,1.15,2.55.47,3.68,1.14,3.66,3.86-.1,10.93-.15,21.87,0,32.81.06,3.78-2.08,3.82-4.8,3.81C357.69,579.75,344.07,579.78,330.44,579.78Z" transform="translate(0 -0.07)"/><path class="cls-2" d="M285,252.62c9.41,5,17.87,9.4,26.28,13.91,19.95,10.7,39.84,21.51,59.86,32.07,3.45,1.82,5.12,3.72,5,7.88-.31,11.3-.1,22.61-.1,34.53-7.57-2.11-13.82-5.92-20.38-8.87-22.38-10.09-44.59-20.56-66.92-30.75-2.33-1.07-3.81-2-3.79-4.91C285.08,282.28,285,268.08,285,252.62Z" transform="translate(0 -0.07)"/><path class="cls-2" d="M285,462.34c0-6.14.09-12.27,0-18.4-.07-3.25.14-4.81,4.39-3.8,27.52,6.5,55.11,12.68,82.69,18.91,2.84.65,4.1,2,4.05,5.12-.17,10.73-.08,21.47-.06,32.2,0,2.34-.06,4-3.45,3.44-27.71-4.45-55.43-8.82-83.19-12.92-3.94-.58-4.55-2.24-4.45-5.58C285.15,475,285,468.66,285,462.34Z" transform="translate(0 -0.07)"/><path class="cls-2" d="M376.06,400.71c0,5.17-.21,10.36.06,15.52.2,3.82-.88,4.56-4.53,3.41-20.42-6.44-40.9-12.68-61.36-19-6.77-2.08-13.47-4.4-20.32-6.15-3.58-.91-5-2.35-5-6.2.22-12.65.16-25.3,0-37.95,0-3.35.51-4.4,4.13-3q41.2,16,82.54,31.62c3.44,1.3,4.7,3.16,4.49,6.79C375.84,390.72,376.06,395.72,376.06,400.71Z" transform="translate(0 -0.07)"/><path class="cls-2" d="M411.09,340.8c0-12.22.06-24.11,0-36a4.82,4.82,0,0,1,3-4.89q42.27-22.55,84.42-45.31c3.5-1.89,3.76-.47,3.74,2.51q-.09,19.56,0,39.13c0,2.35-.52,3.78-2.89,4.86Q456,320.84,412.77,340.78C412.48,340.92,412.07,340.8,411.09,340.8Z" transform="translate(0 -0.07)"/><path class="cls-2" d="M502.15,369.77c0,6.53-.15,13.05.08,19.57.1,2.87-1.05,4-3.6,4.8q-41.7,12.69-83.36,25.56c-3,.92-4.36,1.05-4.27-2.87.25-10.74.2-21.49,0-32.23,0-3.09,1.24-4.28,3.92-5.29q41.55-15.8,83-31.82c3-1.15,4.44-1.24,4.29,2.72C502,356.72,502.15,363.25,502.15,369.77Z" transform="translate(0 -0.07)"/><path class="cls-2" d="M470.33,447.48c-15.66,10.53-23,25.89-25.61,44a6.52,6.52,0,0,1-1.82,4.1c-9.28,1.31-18.59,2.48-27.83,4-3,.51-4.08.06-4-3.2.15-10.92.05-21.84.07-32.77,0-1.65-.41-3.34,2.13-3.9,18.47-4.06,36.92-8.25,55.39-12.37A6.22,6.22,0,0,1,470.33,447.48Z" transform="translate(0 -0.07)"/><path class="cls-17" d="M440.45,537.32c-2.36,10.89.1,20.4,8.17,28.26,3.17,3.07,2.89,7.35,3.82,11.14.74,3-2.08,2-3.48,2.07-10.14.09-20.27,0-30.41.06-2.29,0-4.58.17-6.86.26-1.37-12.4-.23-24.86-.59-37.28-.08-2.7,1.92-2.34,3.57-2.47Z" transform="translate(0 -0.07)"/><path class="cls-18" d="M480.9,617.87c0-.76,0-1.52-.07-2.27,6.3,3.53,12.57,7.1,18.89,10.59,8.89,4.91,17.68,4.62,26.77.11,6.49-3.23,12.51-7.22,18.84-10.69,0,1.14,0,2.28,0,3.42C537.71,632.24,520,641.26,507,637.5A45,45,0,0,1,480.9,617.87Z" transform="translate(0 -0.07)"/><path class="cls-14" d="M480.9,617.87c4.22,3,7.5,7,11.49,10.22,17.2,14,30.92,10.65,46.19-2.87,2.28-2,4.48-4.12,6.71-6.19,2.05,8.13-3.24,13.19-7.65,18.72-7.88,9.86-15.6,19.85-23.39,29.79-6.08-2.44-8.24-8.62-12.19-13-5.68-6.38-10.28-13.76-16.15-19.93C481.14,629.56,480.12,624.16,480.9,617.87Z" transform="translate(0 -0.07)"/></svg>