<svg id="Capa_1" data-name="Capa 1" xmlns="http://www.w3.org/2000/svg" viewBox="0 0 833.26 1049"><defs><style>.cls-1{fill:#d61635;}.cls-2{fill:#fefefe;}.cls-3{fill:#fff;}</style></defs><title>error-x</title><path class="cls-1" d="M554.65,408.7c-1-213,172.9-394,401.63-389.62,208.64,4,383,171.21,383.39,389.29C1340,623,1167.12,798.16,946.34,798.11,731.74,798.07,554.43,627.11,554.65,408.7Z" transform="translate(-530.52 -19)"/><path class="cls-2" d="M800.36,497.34c-5-15.49,4.45-27.69,17.46-39.87,24.71-23.14,48-47.74,72.22-71.46,4.37-4.3,4.68-6.64.13-11.12-28.62-28.22-56.88-56.82-85.41-85.13-3.11-3.08-4.59-6-4.5-10.47.27-13.66.21-27.33,0-41,0-3.83,1-5.34,5.08-5.28q22,.31,44,0c3.65-.05,5.4,2.14,7.5,4.24,28.25,28.24,56.59,56.39,84.65,84.82,4.56,4.62,7.08,5.55,12.23.29,27.94-28.53,56.4-56.55,84.52-84.91,3.1-3.13,6.1-4.52,10.5-4.44q20.49.38,41,0c4.36-.08,5.55,1.33,5.47,5.6q-.37,20.86,0,41.75c.08,4.06-1.76,6.48-4.36,9.06-28.12,28-56,56.34-84.41,84.05-6,5.82-5.07,8.6.32,13.89,28.33,27.8,56.2,56.06,84.37,84a12.42,12.42,0,0,1,4.06,9.89q-.32,20.49,0,41c.07,4.26-1.19,5.7-5.55,5.62q-21.26-.36-42.51,0c-3.79.07-6-1.67-8.37-4q-42-42.15-84.18-84.22c-7.4-7.41-7.44-7.45-15,.22q-41.11,41.48-82.11,83.08c-3.43,3.5-6.88,5.1-11.87,5q-19.73-.5-39.47,0c-4.83.13-6.11-1.46-5.9-6C800.61,514.81,800.36,507.71,800.36,497.34Z" transform="translate(-530.52 -19)"/><path d="M731.66,995.08H646.77V814.2h84.89V840h-54v55.22h50v25.65h-50v48.59h54Z" transform="translate(-530.52 -19)"/><path d="M861.76,995.08H829.59L807.2,920.84H787.78v74.24H757V814.2H807.2q22.53,0,36.28,12.58t13.75,34.79v11.9q0,27.38-20.27,39.88ZM807.2,895.19c5.19,0,9.19-.9,12-2.7a13.33,13.33,0,0,0,5.67-7.61,39.12,39.12,0,0,0,1.49-11.41v-11.9a39.12,39.12,0,0,0-1.49-11.41,13.07,13.07,0,0,0-5.67-7.55c-2.78-1.76-6.78-2.64-12-2.64H787.78v55.22Z" transform="translate(-530.52 -19)"/><path d="M988,995.08H955.87l-22.39-74.24H914.06v74.24H883.31V814.2h50.17q22.53,0,36.28,12.58t13.75,34.79v11.9q0,27.38-20.27,39.88Zm-54.56-99.89q7.78,0,12-2.7a13.33,13.33,0,0,0,5.67-7.61,39.47,39.47,0,0,0,1.49-11.41v-11.9a39.47,39.47,0,0,0-1.49-11.41,13.07,13.07,0,0,0-5.67-7.55q-4.19-2.64-12-2.64H914.06v55.22Z" transform="translate(-530.52 -19)"/><path d="M1058.2,998.15q-22.54,0-36.36-12.58T1008,950.78V858.62q0-22.33,13.81-34.91t36.36-12.58q22.53,0,36.28,12.58t13.75,34.91v92.16q0,22.22-13.75,34.79T1058.2,998.15Zm0-25.65q7.79,0,12-2.7a13.66,13.66,0,0,0,5.74-7.61,37.7,37.7,0,0,0,1.56-11.41V858.62a37.61,37.61,0,0,0-1.56-11.47,13.7,13.7,0,0,0-5.74-7.55q-4.18-2.7-12-2.7t-12,2.7a13.7,13.7,0,0,0-5.74,7.55,37.61,37.61,0,0,0-1.56,11.47v92.16a37.7,37.7,0,0,0,1.56,11.41,13.66,13.66,0,0,0,5.74,7.61Q1050.41,972.5,1058.2,972.5Z" transform="translate(-530.52 -19)"/><path d="M1247.54,995.08h-32.17L1193,920.84h-19.42v74.24h-30.75V814.2H1193q22.53,0,36.28,12.58T1243,861.57v11.9q0,27.38-20.27,39.88ZM1193,895.19q7.79,0,12-2.7a13.33,13.33,0,0,0,5.67-7.61,39.47,39.47,0,0,0,1.49-11.41v-11.9a39.47,39.47,0,0,0-1.49-11.41,13.07,13.07,0,0,0-5.67-7.55q-4.18-2.64-12-2.64h-19.42v55.22Z" transform="translate(-530.52 -19)"/><path d="M554,1049.61H530.52v-6.1H554Z" transform="translate(-530.52 -19)"/><path d="M608.47,1067.27h-9.23l-1.85-8.84H585.52l-1.85,8.84h-9.23l10.09-43h13.85Zm-12.33-14.94L591.56,1032h-.21l-4.57,20.38Z" transform="translate(-530.52 -19)"/><path d="M645.7,1067.27h-9.79l-6.82-17.66h-5.91v17.66h-9.36v-43h15.27q6.87,0,11,3a9.6,9.6,0,0,1,4.18,8.27v2.84c0,4.33-2.06,7.5-6.17,9.48Zm-16.61-23.76a8.29,8.29,0,0,0,3.65-.64,3.36,3.36,0,0,0,1.72-1.81,7.29,7.29,0,0,0,.46-2.71v-2.84a7.29,7.29,0,0,0-.46-2.71,3.31,3.31,0,0,0-1.72-1.8,8.63,8.63,0,0,0-3.65-.62h-5.91v13.13Z" transform="translate(-530.52 -19)"/><path d="M667.05,1068q-6.85,0-11.06-3a9.63,9.63,0,0,1-4.21-8.28v-21.92a9.63,9.63,0,0,1,4.21-8.3q4.2-3,11.06-3t11.05,3a9.62,9.62,0,0,1,4.18,8.3v2.75h-9.36v-2.75q0-3.4-2.2-4.52a8.39,8.39,0,0,0-3.67-.64,8.24,8.24,0,0,0-3.64.64,3.54,3.54,0,0,0-1.75,1.79,7.29,7.29,0,0,0-.47,2.73v21.92a7.31,7.31,0,0,0,.47,2.72,3.5,3.5,0,0,0,1.75,1.81,8.24,8.24,0,0,0,3.64.64q4.41,0,5.4-2.45a7.31,7.31,0,0,0,.47-2.72V1054h9.36v2.74a9.63,9.63,0,0,1-4.18,8.28Q673.92,1068,667.05,1068Z" transform="translate(-530.52 -19)"/><path d="M720.42,1067.27H711v-17.66H699.28v17.66h-9.36v-43h9.36v19.26H711v-19.26h9.41Z" transform="translate(-530.52 -19)"/><path d="M740.13,1067.27h-9.36v-43h9.36Z" transform="translate(-530.52 -19)"/><path d="M769.68,1067.27H755.83l-10.09-43H755l7.68,35.31h.22l7.67-35.31h9.24Z" transform="translate(-530.52 -19)"/><path d="M799.58,1068c-4.58,0-8.26-1-11.07-3a9.62,9.62,0,0,1-4.2-8.28v-21.92a9.62,9.62,0,0,1,4.2-8.3c2.81-2,6.49-3,11.07-3s8.25,1,11,3a9.62,9.62,0,0,1,4.18,8.3v21.92a9.63,9.63,0,0,1-4.18,8.28Q806.44,1068,799.58,1068Zm0-6.1a8.24,8.24,0,0,0,3.64-.64,3.5,3.5,0,0,0,1.75-1.81,7.31,7.31,0,0,0,.47-2.72v-21.92a7.29,7.29,0,0,0-.47-2.73,3.54,3.54,0,0,0-1.75-1.79,10.7,10.7,0,0,0-7.29,0,3.54,3.54,0,0,0-1.75,1.79,7.29,7.29,0,0,0-.47,2.73v21.92a7.31,7.31,0,0,0,.47,2.72,3.5,3.5,0,0,0,1.75,1.81A8.26,8.26,0,0,0,799.58,1061.9Z" transform="translate(-530.52 -19)"/><path d="M873.6,1067.27h-8.8l-12.29-24.4v24.4H843.1v-43h8.8l12.34,24.43v-24.43h9.36Z" transform="translate(-530.52 -19)"/><path d="M900,1068q-6.86,0-11.06-3a9.6,9.6,0,0,1-4.21-8.28v-21.92a9.6,9.6,0,0,1,4.21-8.3q4.2-3,11.06-3t11,3a9.62,9.62,0,0,1,4.18,8.3v21.92a9.63,9.63,0,0,1-4.18,8.28Q906.87,1068,900,1068Zm0-6.1a8.29,8.29,0,0,0,3.65-.64,3.44,3.44,0,0,0,1.74-1.81,7.1,7.1,0,0,0,.48-2.72v-21.92a7.09,7.09,0,0,0-.48-2.73,3.48,3.48,0,0,0-1.74-1.79,10.7,10.7,0,0,0-7.29,0,3.54,3.54,0,0,0-1.75,1.79,7.09,7.09,0,0,0-.47,2.73v21.92a7.11,7.11,0,0,0,.47,2.72,3.5,3.5,0,0,0,1.75,1.81A8.24,8.24,0,0,0,900,1061.9Z" transform="translate(-530.52 -19)"/><path d="M969.37,1067.27H943.53v-43h25.84v6.13H952.93v13.13h15.23v6.1H952.93v11.56h16.44Z" transform="translate(-530.52 -19)"/><path d="M1007.59,1067.27h-8.8l-12.29-24.4v24.4h-9.41v-43h8.8l12.34,24.43v-24.43h9.36Z" transform="translate(-530.52 -19)"/><path d="M1034,1068q-6.85,0-11.06-3a9.6,9.6,0,0,1-4.21-8.28v-21.92a9.6,9.6,0,0,1,4.21-8.3q4.2-3,11.06-3c4.57,0,8.26,1,11,3a9.63,9.63,0,0,1,4.19,8.3v2.75h-9.36v-2.75q0-3.4-2.2-4.52a8.42,8.42,0,0,0-3.67-.64,8.22,8.22,0,0,0-3.64.64,3.54,3.54,0,0,0-1.75,1.79,7.09,7.09,0,0,0-.48,2.73v21.92a7.1,7.1,0,0,0,.48,2.72,3.5,3.5,0,0,0,1.75,1.81,8.22,8.22,0,0,0,3.64.64q4.4,0,5.39-2.45a7.1,7.1,0,0,0,.48-2.72V1054h9.36v2.74A9.63,9.63,0,0,1,1045,1065C1042.25,1067,1038.56,1068,1034,1068Z" transform="translate(-530.52 -19)"/><path d="M1071.57,1068q-6.87,0-11.07-3a9.63,9.63,0,0,1-4.21-8.28v-21.92a9.63,9.63,0,0,1,4.21-8.3q4.2-3,11.07-3t11,3a9.62,9.62,0,0,1,4.18,8.3v21.92a9.63,9.63,0,0,1-4.18,8.28Q1078.43,1068,1071.57,1068Zm0-6.1a8.24,8.24,0,0,0,3.64-.64,3.5,3.5,0,0,0,1.75-1.81,7.31,7.31,0,0,0,.47-2.72v-21.92a7.29,7.29,0,0,0-.47-2.73,3.54,3.54,0,0,0-1.75-1.79,10.7,10.7,0,0,0-7.29,0,3.54,3.54,0,0,0-1.75,1.79,7.29,7.29,0,0,0-.47,2.73v21.92a7.31,7.31,0,0,0,.47,2.72,3.5,3.5,0,0,0,1.75,1.81A8.26,8.26,0,0,0,1071.57,1061.9Z" transform="translate(-530.52 -19)"/><path d="M1127.82,1067.27H1119l-12.3-24.4v24.4h-9.4v-43h8.8l12.34,24.43v-24.43h9.36Z" transform="translate(-530.52 -19)"/><path d="M1153.61,1030.38v36.89h-9.4v-36.89h-10.57v-6.13h30.5v6.13Z" transform="translate(-530.52 -19)"/><path d="M1201.84,1067.27h-9.79l-6.82-17.66h-5.91v17.66H1170v-43h15.27q6.87,0,11,3a9.6,9.6,0,0,1,4.18,8.27v2.84c0,4.33-2,7.5-6.17,9.48Zm-16.61-23.76a8.26,8.26,0,0,0,3.65-.64,3.42,3.42,0,0,0,1.73-1.81,7.51,7.51,0,0,0,.45-2.71v-2.84a7.51,7.51,0,0,0-.45-2.71,3.37,3.37,0,0,0-1.73-1.8,8.6,8.6,0,0,0-3.65-.62h-5.91v13.13Z" transform="translate(-530.52 -19)"/><path d="M1239.2,1067.27H1230l-1.86-8.84h-11.86l-1.85,8.84h-9.24l10.1-43h13.85Zm-12.34-14.94-4.57-20.38h-.22l-4.57,20.38Z" transform="translate(-530.52 -19)"/><path d="M1259.82,1067.27h-15.27v-43h15.27c4.57,0,8.26,1,11,3a9.6,9.6,0,0,1,4.19,8.27V1056a9.63,9.63,0,0,1-4.19,8.28C1268.08,1066.27,1264.39,1067.27,1259.82,1067.27Zm0-6.1a8.29,8.29,0,0,0,3.65-.64,3.46,3.46,0,0,0,1.74-1.8,7.09,7.09,0,0,0,.48-2.73v-20.49a7.09,7.09,0,0,0-.48-2.71,3.39,3.39,0,0,0-1.74-1.8,8.63,8.63,0,0,0-3.65-.62H1254v30.79Z" transform="translate(-530.52 -19)"/><path d="M1300.5,1068q-6.86,0-11.06-3a9.6,9.6,0,0,1-4.21-8.28v-21.92a9.6,9.6,0,0,1,4.21-8.3q4.2-3,11.06-3t11,3a9.63,9.63,0,0,1,4.19,8.3v21.92a9.63,9.63,0,0,1-4.19,8.28Q1307.36,1068,1300.5,1068Zm0-6.1a8.29,8.29,0,0,0,3.65-.64,3.48,3.48,0,0,0,1.74-1.81,7.1,7.1,0,0,0,.48-2.72v-21.92a7.09,7.09,0,0,0-.48-2.73,3.51,3.51,0,0,0-1.74-1.79,10.7,10.7,0,0,0-7.29,0,3.5,3.5,0,0,0-1.75,1.79,7.09,7.09,0,0,0-.48,2.73v21.92a7.1,7.1,0,0,0,.48,2.72,3.46,3.46,0,0,0,1.75,1.81A8.22,8.22,0,0,0,1300.5,1061.9Z" transform="translate(-530.52 -19)"/><path d="M1363.78,1049.61h-23.46v-6.1h23.46Z" transform="translate(-530.52 -19)"/><path class="cls-2" d="M916,651.74h5.76v11H916v13h-11.2v-13H883v-5.5l19.24-59.41H916Zm-11.2,0V618.39L894,651.74Z" transform="translate(-530.52 -19)"/><path class="cls-2" d="M947.73,677.11q-7.87,0-12.73-5.15t-4.87-14V615.75q0-8.88,4.87-14a18.32,18.32,0,0,1,25.47,0q4.86,5.16,4.87,14v42.18q0,8.88-4.87,14T947.73,677.11Zm0-11a6.06,6.06,0,0,0,3.78-1,5.11,5.11,0,0,0,1.8-2.77,15.12,15.12,0,0,0,.5-4.15V615.59a15.3,15.3,0,0,0-.5-4.2,5,5,0,0,0-1.8-2.75,6.2,6.2,0,0,0-3.78-1,6.33,6.33,0,0,0-3.8,1,4.88,4.88,0,0,0-1.8,2.75,16.21,16.21,0,0,0-.47,4.2v42.55a16,16,0,0,0,.47,4.15,5,5,0,0,0,1.8,2.77A6.19,6.19,0,0,0,947.73,666.07Z" transform="translate(-530.52 -19)"/><path class="cls-2" d="M1005.56,651.74h5.76v11h-5.76v13H994.35v-13H972.52v-5.5l19.24-59.41h13.8Zm-11.21,0V618.39l-10.83,33.35Z" transform="translate(-530.52 -19)"/><rect class="cls-3" x="272.85" y="619.17" width="57.97" height="8.22"/><rect class="cls-3" x="502.45" y="619.17" width="57.97" height="8.22"/></svg>