<svg id="Capa_1" data-name="Capa 1" xmlns="http://www.w3.org/2000/svg" viewBox="0 0 1452 1452"><defs><style>.cls-1{fill:#fff;}.cls-2{fill:#4f4f51;}.cls-3{fill:#fefdfe;}.cls-4{fill:#fefefe;}.cls-5{fill:#adacb3;}</style></defs><title>logo-icono-plomo</title><rect class="cls-1" width="1452" height="1452" rx="147.22"/><path class="cls-2" d="M1416.53,1189.06c-.88-74.37-32-135.3-81.2-160.6-72.71-37.38-145.39-74.9-218.33-111.35-9.71-4.85-12.11-11.22-12.06-24.71.37-97.29-.07-194.59.49-291.89.09-16.49-2.36-22.11-14.84-21.74-40.54,1.2-81.11.09-121.66.71-9.51.14-12.48-3.91-12.27-17.48.58-38.65.39-77.32.05-116-.36-39.77-8.64-75.68-26-107.6C911.93,304,885.76,288,857.9,273.85,693.06,190,528.45,105.22,363.73,20.86c-16.25-8.32-16.33-8-16.33,17.34q0,343.11.22,686.24c0,13.46-2.3,20.28-11.94,25.1-71.18,35.66-142,72.58-213.17,108.54-56.38,28.5-86.37,87.79-86.4,172.72,0,106.67-.4,213.36.4,320,3.81,23.42,13,46.26,25.71,62.27,10,12.6,23.06,16,36,18.91q58.69-8.55,117.53-15.4c127.59-14.95,255.47-22.88,383.47-26.44,92-2.57,184-2.49,276.07,1.22,81.06,3.26,162.12,6.33,243,13.72,77.34,7.07,154.58,15.66,231.65,26.76,7-.86,14.08-1.25,20.91-3.6,7-2.42,12.39-7.25,17.44-14.47,10-14.22,20.7-28.86,26-47.66a23.38,23.38,0,0,1,1.31-7.09c0-.83,0-1.67-.12-2.57a7.06,7.06,0,0,1,1.09-4.84Q1417.44,1270.36,1416.53,1189.06Z" transform="translate(0.13)"/><path class="cls-3" d="M1036.76,677.49c.19,53.46.53,106.91.56,160.36.07,150.1-.19,300.2.32,450.3,0,16.8-3.55,20-14.48,19-68.62-6.21-137.32-10.82-206.09-11.94-10.93-.18-13.52-4.8-13.49-19.66q.52-221.28.08-442.56c0-6.84,1.68-14.23-1.88-20.51-14.84-4.28-29.86-1.88-44.75-1.52-10.31.24-14.08-5.85-14.24-19-.4-32.8-.53-65.59.07-98.39.21-11.8,3.21-18.51,13.14-18.46,91.43.43,182.85.23,274.28.25C1032.56,675.4,1034.84,675.34,1036.76,677.49Z" transform="translate(0.13)"/><path class="cls-4" d="M523,205.31Q653.9,272.18,784.8,339.07c21.82,11.16,43.48,22.95,65.44,33.53,19.81,9.54,32.27,27.79,36.76,56.75,1.9,46.31.31,92.66.88,139,.09,7.27-1.87,10.75-7.18,10.32-3.18-.25-6.38,0-9.56,0H591c-14.83,0-14.86,0-14.86,20.78,0,64.41-.31,128.82.23,193.22.12,14.54-2.77,19.22-13,18.29-13.61-1.24-27.33-.72-41-.15-7.58.31-10.78-4.67-11.65-14.4-.57-6.42-.59-12.85-.59-19.29q0-269.55,0-539.11c0-7.72-.24-15.5,1-23.08C512.65,205.9,516.06,201.13,523,205.31Z" transform="translate(0.13)"/><path class="cls-5" d="M523,205.31c-7.89-1.2-8.56,5.63-8.52,14.35.15,37.32,0,74.65,0,112,0,151.25.21,302.49-.26,453.74-.06,17.76,2.27,26.4,16.16,23.88,14.27-2.58,32.85,8.61,42-4.55,8.44-12.16,2.34-38,2.47-57.77.31-48.27.09-96.54.09-144.81,0-25.41,0-25.41,17.41-25.4,92.85,0,185.71-.32,278.56.4,12.41.09,16.3-4.34,15.94-22.34-.84-41.78,0-83.62.16-125.44,4.69,16.09,1.89,32.91,2.21,49.37.53,27-.65,54.15.44,81.11.72,17.82-4,21.23-15.6,21.15-93.36-.61-186.73,0-280.09-.79-12.94-.11-16.94,3.9-16.66,23,.92,63.08,0,126.21.58,189.31.13,15.57-2.55,21.74-14.31,21-23.18-1.48-46.44-.26-69.62-1.69-11.79-.73-14.56,5.77-14.53,21.24q.45,222.16.15,444.34c0,25.65,0,25.5-18.34,26.66-12.26.78-24.51,1.94-36.75,3.17-6.38.64-9.35-3-8.89-12.2.23-4.48.05-9,.05-13.52v-1107c0-24.85,0-24.7,16.72-16C462.54,174.23,492.77,189.73,523,205.31Z" transform="translate(0.13)"/><path class="cls-4" d="M178.64,933.11c53.31-27.62,106.67-55,159.88-83,10.76-5.67,8.84,4.29,8.84,12.32q.08,86.9,0,173.79c0,86.9-.29,173.8.24,260.69.1,15.9-3.3,20.24-14.36,21.61-47.1,5.86-94.09,13.39-141.12,20.31-15.5,2.66-18.08.45-18.16-21.1q-.68-181.56-.11-363.12C173.89,946.82,174.21,939,178.64,933.11Z" transform="translate(0.13)"/><path class="cls-4" d="M621.3,909.3c35.05-.2,70.09-.2,105.13-.78,7.07-.12,9.46,3,9.44,13.21q-.3,178.62,0,357.24c0,9.88-1.73,14-9.08,13.52-9.54-.63-19.11,0-28.67.09-18.9,3-37.87.49-56.8,1.37-4.93.23-9.95-1.17-14.78,1.27l-1.15.11-1.15,0c-6.68-4.12-7.18-12.8-7.21-21.15q-.66-172.53-.09-345.08C616.94,921.91,617.62,914.9,621.3,909.3Z" transform="translate(0.13)"/><path class="cls-4" d="M1187.58,1055.65c40.35,20.59,80.66,41.37,121.08,61.7,27.07,13.62,39.31,37.05,39.48,78.08.2,48.2-.09,96.41.26,144.61.09,11.64-.43,16.51-10.88,14.42-51.68-10.35-103.53-19.07-155.31-28.37-5.24-7-4.8-16.36-4.81-25.28-.13-73.34-.34-146.69.23-220C1177.7,1071.23,1173.85,1055.63,1187.58,1055.65Z" transform="translate(0.13)"/><path class="cls-5" d="M178.64,933.11c-.08,129.65.12,259.3-.59,388.94-.09,17.33,6.25,16.53,14.1,16.74-26.4,5.14-52.82,10.18-79.2,15.48-7.12,1.43-8.66-3.77-8.47-12.23.21-9,.14-18,.14-27q0-143.64.07-287.27c0-41,12.09-64.44,39.38-77.48C155.64,944.77,166.4,935.94,178.64,933.11Z" transform="translate(0.13)"/><path class="cls-5" d="M621.3,909.3q-.1,184.92-.22,369.82c0,5.84-.09,11.62,3.15,16.16-22.27,1-44.55,1.59-66.81,3-6.49.42-9.5-2.49-9.46-11.58,0-3.22,0-6.44,0-9.66,0-115.29.24-230.58-.33-345.86-.09-18.18,3.87-23.52,16.32-22.6C583,910,602.18,909.19,621.3,909.3Z" transform="translate(0.13)"/><path class="cls-5" d="M1187.58,1055.65c-6.47,1.22-5.82,8.19-5.81,14.54q.21,127.95.44,255.9c-22.18-2.62-44.33-5.62-66.53-7.67-7.39-.68-10.56-4.19-10.54-15q.24-138.18,0-276.35c0-11.5,2.7-12.92,9.73-9.17C1139,1030.78,1163.33,1043.11,1187.58,1055.65Z" transform="translate(0.13)"/><path class="cls-5" d="M1036.76,677.49q-139.72-.24-279.44-.65c-7.63,0-10.34,3.44-10.23,14.39q.54,52-.07,104.08c-.16,11.61,3.44,13.41,10.56,14,14.73,1.23,29.74-4.59,44.2,3.2-49.1-.18-98.21-.56-147.32-.35-8.55,0-11-4.89-10.88-16.16.32-33.44.71-66.92-.14-100.33-.42-16.86,3.15-22,15.32-21.93,121.44.29,242.89-.32,364.34-.41C1027.66,673.33,1033.22,669.67,1036.76,677.49Z" transform="translate(0.13)"/><path class="cls-5" d="M626.53,1295.22c23.76-6,47.69-3.49,71.58-2.64C674.32,1297.51,650.41,1295.79,626.53,1295.22Z" transform="translate(0.13)"/></svg>