<svg id="Capa_1" data-name="Capa 1" xmlns="http://www.w3.org/2000/svg" viewBox="0 0 1531.53 1046.8"><defs><style>.cls-1{fill:#139a1a;}</style></defs><title>logo-icon-integra-peru</title><path class="cls-1" d="M1481.22,90C1113.54-28.2,762.79-30.11,452.58,240.86c-156.68,136.86-214.58,300-143,464.2,45.93,105.42,29,175.83-57.88,239.7-11.13,8.18-20.24,19.06-30.49,28.47-27,24.84-20.52,48,2.34,71.6,28.89,29.84,48.12,13.27,66.56-12.21q89.81-124.09,179.88-248c184.5-340.1,672.76-442.89,679.91-438.31C872.87,431.69,577.35,573,470,918.27c261.57,143,531.39,65.93,704.93-179.5C1322.9,529.46,1499.16,342.61,1735,221,1651,159.21,1569.35,118.34,1481.22,90Z" transform="translate(-203.47 -14)"/></svg>