<svg id="Capa_1" data-name="Capa 1" xmlns="http://www.w3.org/2000/svg" viewBox="0 0 1130.49 1049.5"><defs><style>.cls-1{fill:#563c30;}.cls-2{fill:#573c30;}.cls-3{fill:#a9d99d;}.cls-4{fill:#139a1a;}.cls-5{fill:#039903;}</style></defs><title>logo-integra-peru</title><path class="cls-1" d="M965.3,890.6c.57-.89,1.76-1.88,1.64-2.66-1.6-9.93,4-10.48,11.82-10.3,21.13.49,21.38.19,21,21.17-.14,7.53,2.15,15.34-1.63,22.63C988,920.3,977.7,921,967.48,921c-27.54-.13-55.07-.06-82.61,0-2.94,0-5.94-.53-8.83.52-4.21-9.45-1.22-19.36-1.57-29-.12-3.15,3.83-2.24,6.06-2.19,3.57.08,4.72-1.47,4.71-4.89q-.12-39.09,0-78.2c0-3.69-1.64-4.94-5-4.49-5.38.74-6.47-2.08-6.15-6.71.56-8.09-3.34-18.42,1.36-23.7,4.85-5.46,15.38-1.74,23.4-1.8,31.22-.23,62.45,0,93.68-.21,5.61,0,7.68,1.45,7.45,7.28-.42,10.57-.3,21.18,0,31.76.09,4.21-1.22,5.83-5.5,5.69-7.32-.24-14.67-.21-22,0-4.32.13-6-1.62-5.3-5.77.87-5.53-1.7-6.86-6.92-6.69q-17.5.56-35,0c-5.38-.16-7.55.93-7.54,7,.06,20.7-.2,20.69,20.68,20.7,11.13,0,22.27.16,33.4-.06,4.25-.08,5.79,1.35,5.62,5.62-.26,7-.27,14.13,0,21.18.2,4.7-1.69,6.12-6.19,6-12.76-.2-25.53-.07-38.29-.07-15,0-15.05,0-15.05,14.62,0,4.32-.72,8.7.84,12.92,5.73,2.64,11.78,1,17.62,1C946,891.44,955.72,892.89,965.3,890.6Z" transform="translate(-397.49 -9.5)"/><path class="cls-2" d="M1275.42,771.85c4.16-2.92,8.86-1.27,13.28-1.37,12-.28,23.91.09,35.85-.17,4.91-.11,6.86,1.42,6.57,6.5a174.66,174.66,0,0,0,0,18.73c.25,4.94-.74,8-6.57,7.12-4.88-.77-5.87,1.82-5.8,6.17.21,12.76.29,25.54,0,38.3-.82,36.23-23.63,66.19-55.67,73.45-44.12,10-85.45-24-86.67-71.37-.34-13-.28-26.08,0-39.12.13-5.31-.86-8.37-7-7.45-4.09.62-5.9-1.22-5.78-5.54.21-7.05.14-14.13-.11-21.18-.15-4.31,1.66-5.65,5.79-5.61,14.94.16,29.88.24,44.82,0,5.26-.1,6.53,2.12,6.23,6.83-.3,4.87-.11,9.78,0,14.67.07,5.92,1.45,12.61-8.51,11-2.91-.47-3.2,2.27-3.18,4.55.15,15.48-.56,31,.68,46.41,1.68,20.71,20,37.09,39.07,36.53,19.69-.57,37.13-18.88,37.66-40,.35-13.85,0-27.71.18-41.56.07-4.33-.87-6.83-5.79-6.1-4.52.68-6.57-1.2-6.17-5.89.71-8.26-1.26-16.65,1.11-24.84,15.06,1.73,30.17.61,45.25.59,6,0,8.36,1.51,7.74,7.69-.55,5.48.16,11.05-.18,16.56.13-6.08-.09-12.18.21-18.26.24-4.67-1.58-6-6.11-6-13,.24-25.94.13-38.91.05C1280.72,772.55,1278,773.24,1275.42,771.85Z" transform="translate(-397.49 -9.5)"/><path class="cls-3" d="M1327.51,975.58c6-5.49,12.12-11,19.59-14.57" transform="translate(-397.49 -9.5)"/><path class="cls-4" d="M1503.55,437.48c-3.6-8.47-5.84-17.46-9.69-25.84-6.42-16.89-14.53-33-23-48.89-2-3.94-4.18-7.74-6.32-11.57-17.55-29.84-40.24-56.7-52.14-89.82-2.3-4.21-3.93-8.76-6.53-12.82q-3.28-5.73-6.56-11.45c-2.86-2.85-4.48-6.49-6.37-10C1363,177.36,1324.17,135.65,1277.74,101A420.43,420.43,0,0,0,1213,61.11c-21.1-10.45-42.37-20-64.79-27.23-14.35-4.63-28.66-9.11-43.4-12.52a492.73,492.73,0,0,0-51.61-8.57C1014,8,996,9,955.46,12.23,941.21,13.36,849,26,761.66,77.19c-5.42,3.17-7,6.55-5.6,12.53,4.6,19.21,11.09,37.83,18.23,56.17,18.15,46.55,43.67,88.82,75.59,127.26,11.77,14.16,25.72,26.28,37.77,40.09s29.18,21,42.57,33.71c18.79,17.8,42.9,29.65,66.48,41.36A453.42,453.42,0,0,0,1164,434.84c43.71,3.44,87.06,1.16,130.21-8a475.63,475.63,0,0,0,123.35-44.4c7.22-3.79,7.16-5,.61-9.53-18.21-12.67-37.17-24.16-56-35.86-43.77-27.18-89.44-50.84-136-72.71-47.66-22.38-96-43.23-145.32-61.9-36.67-13.88-73.4-27.53-110.62-39.83l-36.16-12c13.08,1.58,26.08,3,38.24,8.11,11.06,3.27,22.51,5,33.62,7.86q102.22,26.44,201.67,62c51.26,18.33,101.77,38.62,150.76,62.45,9.18,4.47,20.09,6.51,27.11,14.28A433.49,433.49,0,0,1,1474.56,456a445.79,445.79,0,0,1-18.66,335.59c-25.08,52.55-58.87,98.85-102,138.22a454.52,454.52,0,0,1-125.27,81.71,442.71,442.71,0,0,1-118.47,33,463.46,463.46,0,0,1-89.31,3.36C1002.94,1046.84,938,1042,858,1007c-6.26-2.16-55.16-29.06-62.49-32.09,5.63,4.55,35.24,22.69,43.94,28,31.55,19.13,87.73,36.3,109.85,42.68,3.64,1.08,7.21,2.43,10.91,3.2a492.81,492.81,0,0,0,138.34,8.8c45.29-3.39,88.84-13.85,131.12-29.84,34.79-13.15,67.15-31.13,97.84-52.13,7.09-4.1,13.1-9.66,19.59-14.57a480.94,480.94,0,0,0,109.12-120.76c3.55-3.81,5.19-8.83,8.2-13,3.83-7.29,7.7-14.56,11.5-21.86,27.08-52.06,44-107.44,49.52-165.66C1532,571.07,1526.34,503.22,1503.55,437.48Z" transform="translate(-397.49 -9.5)"/><path class="cls-1" d="M1112.38,771.74a4.32,4.32,0,0,1-2.76.9A8.84,8.84,0,0,0,1112.38,771.74Z" transform="translate(-397.49 -9.5)"/><path class="cls-1" d="M1036.48,885a2.65,2.65,0,0,0,0,.27,3.76,3.76,0,0,1-.12-1c.16-24.6.12-49.18.11-72.48,0,.78.06,1.62.06,2.46C1036.54,837.87,1036.57,861.44,1036.48,885Z" transform="translate(-397.49 -9.5)"/><path class="cls-1" d="M1028.53,772.63c24.51,0,49,0,73.52-.08.8,0,1.6.05,2.4.1Q1066.49,772.67,1028.53,772.63Z" transform="translate(-397.49 -9.5)"/><path class="cls-1" d="M1156.43,890.21c-10.58.26-21.18.08-31.76.08-12.2,0-20.12-5.88-24.56-18.66,16.6,1.76,29.22-4.86,38.41-18.23,10.58-15.38,12.62-32.45,7.08-49.78-5.15-16.14-14.77-28.93-33.19-31.89h0c-1-.4-2-1.13-3-1.13-27.42-.11-54.85-.1-82.28-.24-4.28,0-4.78,2.34-4.73,5.74.12,6.79.23,13.59,0,20.37-.17,4.45,1.23,6.89,6,6.15,5.46-.85,6.24,2,6.14,6.59-.22,10.58.1,21.18-.11,31.77-.33,16.53,1,33.09-.78,49.6,2.07,0,3-.58,3.3-1.42-.1,1.52-1,2.53-4.47,1.61-3.31-.11-9-2.26-9.19,1.65-.51,9.61-2.65,19.52,1.16,29,17.34-.71,34.68-1.08,52,.21l2,.17c.13-8.91.28-17.82.37-26.74,0-2.15.18-5-3-4.54-11.26,1.51-8.66-5.95-8.45-14.07,7,6.35,11.36,12.85,16,19.08,2,2.14,3.92,4.32,6,6.41,6.21,6.4,10.29,14.76,18.16,19.6a418.33,418.33,0,0,1,52,.06c2.59.4,2.39-1.37,2.39-3,0-7.6-.23-15.21,0-22.8C1162.12,891.53,1160.72,890.11,1156.43,890.21Zm-85.85-45.92c-3.6.05-3.42-2.71-3.42-5.21,0-9.49.34-19-.14-28.47-.3-6,1.45-8.6,7.67-7.72a56.52,56.52,0,0,0,8.13.06c5.13.19,10.29-.4,15.36,1,9.77,2.74,16.45,10.65,16.47,19.72,0,8.79-6.21,16.75-15.74,19.4C1089.61,845.69,1080,844.15,1070.58,844.29Z" transform="translate(-397.49 -9.5)"/><path class="cls-1" d="M848.92,808c-4.1-19.49-18.75-34.3-34.84-36.3-29.37.28-58.74,0-88.12.15-2.22,9-.59,18.13-1,27.2-.15,3.46,2.33,4,5,3.55,5.94-1,6.43,2.35,6.4,7.09q-.23,36.94,0,73.89c0,4.47-.55,7.54-6,6.74-3.67-.53-5.46.84-5.35,4.9.21,7.84.08,15.69,0,23.54,0,1.88.35,3.2,2.63,2.88,17.33-1.33,34.67-.88,52-.23,3-9.16.79-18.58,1.29-27.87.2-3.72-2.87-3.45-5.24-3.21-9.27,1-6-5.86-6.51-10.33-.59-5.4.57-8.66,7.31-8.28,9.74.54,19.53-.11,29.29.15,16,.43,27.42-7.23,35.79-20.11C850.34,838.3,852.16,823.39,848.92,808Zm-54.21,36.32c-1.62.13-3.25.09-4.88.1-20.73.18-20.73.18-20.74-20.59,0-21.06,0-21.06,21.17-20.86,1.62,0,3.26,0,4.87.12,12.31,1.18,21.39,9.83,21.48,20.42C816.7,834.45,807.32,843.38,794.71,844.33Z" transform="translate(-397.49 -9.5)"/><path class="cls-4" d="M1342.35,691.41c-28.62-9.2-55.92-9.35-80.06,11.74-12.19,10.65-16.7,23.35-11.13,36.13,3.57,8.2,2.25,13.68-4.51,18.65a30.85,30.85,0,0,0-2.37,2.22c-2.11,1.93-1.6,3.73.18,5.57,2.25,2.32,3.75,1,5.18-1q7-9.66,14-19.3C1278,719,1316,711,1316.56,711.36,1295,718,1272,729,1263.64,755.87,1284,767,1305,761,1318.51,741.9c11.51-16.29,25.23-30.83,43.59-40.3A67.16,67.16,0,0,0,1342.35,691.41Z" transform="translate(-397.49 -9.5)"/><path d="M433.37,482.6v-1.43H397.49V631.83h1.42l10.15,12.57h34.69V494.93Zm-2.19,146.85H400.1V483.31h31.08Z" transform="translate(-397.49 -9.5)"/><rect class="cls-5" x="8.78" y="480.22" width="18.74" height="133.81"/><path d="M594.35,482.6v-1.43H558.11v80.91L513.5,494.93l-6.88-8.3-3.56-5.46H456.33v36.3h1.18l8.54,10.44V631.83h1.19l10.44,12.57H496.9q8.06,0,11.74-3.44t3.68-11.74V564.45l45.07,67.38h.72L568.6,644.4h36V494.93ZM592,629.45H558.82L499.74,541.2v74.49q0,7.37-3.32,10.56c-2.22,2.14-5.61,3.2-10.2,3.2h-18V515.34H458.7v-32h43.18l58.36,88.49V483.31H592Z" transform="translate(-397.49 -9.5)"/><path class="cls-5" d="M465.34,489.71v19.7h9.25V623.52h11.63q7.83,0,7.83-7.83V521.27l67.38,102.25h24.43V489.71H566.41V591.49L498.56,489.71Z" transform="translate(-397.49 -9.5)"/><path d="M711.13,482.83v-1.89h-96.8v36.77h1.19L626,530.05h20.16v102h1.2l10.49,12.34h34.34V530.05h28.94V495.17Zm-2.61,32.27H679.57V629.45H648.49V515.1H616.7V483.55h91.82Z" transform="translate(-397.49 -9.5)"/><polygon class="cls-5" points="257.17 614.02 275.92 614.02 275.92 499.67 305.1 499.67 305.1 480.21 225.38 480.21 225.38 499.67 257.17 499.67 257.17 614.02"/><path d="M851.82,574.89a54.72,54.72,0,0,0,5.81-12,58.43,58.43,0,0,0,.35-33,47.16,47.16,0,0,0-8.54-15.54l-5.93-7.12a50.17,50.17,0,0,0-19.22-19.1,54.35,54.35,0,0,0-27.28-7h-68.8v35.35h1.19l9.72,11.87V631.83h1l10.62,12.57h33.75V600.75h12.61q4.53,7.35,8.45,14.94a170.07,170.07,0,0,1,7.26,16.14h1l10.47,12.57h35.7q-2.13-7.11-4.51-13.4a134.5,134.5,0,0,0-5.45-12.46q-3.09-6.16-7-12.46t-8.9-13.4a88.82,88.82,0,0,0,9.61-7.95A54.89,54.89,0,0,0,851.82,574.89Zm-31.08,3.93q5.21,7.36,9.13,13.79t7,12.48q3.07,6.06,5.46,12c1.57,4,3.08,8.09,4.5,12.36H814.57A143.82,143.82,0,0,0,804,607q-6-10.32-13.64-21H771.86v43.41H741.5V514.15H730.58V483.07H797a51.58,51.58,0,0,1,20.4,4,50.49,50.49,0,0,1,16.49,11.15,51.24,51.24,0,0,1,10.92,16.61,45.31,45.31,0,0,1,3.2,20.44q-.94,15.21-9,25.91A76.67,76.67,0,0,1,820.74,578.82Z" transform="translate(-397.49 -9.5)"/><path class="cls-5" d="M828.57,503.36a47,47,0,0,0-14.36-10,41.54,41.54,0,0,0-17.2-3.68H736.75v18.51h10.91v115.3h18.27V579.63H793q8.53,11.39,15.18,22a120.94,120.94,0,0,1,10.92,21.94h19.45A212.61,212.61,0,0,0,829.4,604,252.48,252.48,0,0,0,816,582l1.19-7.59a88.83,88.83,0,0,0,16.49-16.6,41.24,41.24,0,0,0,8.42-22.54,42.1,42.1,0,0,0-3.68-17.44A49.3,49.3,0,0,0,828.57,503.36Zm-7.24,41.4a27.2,27.2,0,0,1-5.46,8.3A26.16,26.16,0,0,1,797,560.89H765.93V508.22H797a24.45,24.45,0,0,1,10.2,2.14,26.67,26.67,0,0,1,8.31,5.81,29.28,29.28,0,0,1,5.69,8.42,24.11,24.11,0,0,1,2.14,10A25.91,25.91,0,0,1,821.33,544.76Z" transform="translate(-397.49 -9.5)"/><path d="M811.6,520.2a21.08,21.08,0,0,0-6.52-4.39,20,20,0,0,0-8.07-1.66H771.86v40.57H797a19.86,19.86,0,0,0,8.07-1.66,22.45,22.45,0,0,0,6.64-4.39,18.9,18.9,0,0,0,4.39-6.4,20.3,20.3,0,0,0,1.54-7.95,18.47,18.47,0,0,0-1.66-7.71A21.54,21.54,0,0,0,811.6,520.2ZM815,534.55a17.59,17.59,0,0,1-5.26,12.58,17.23,17.23,0,0,1-12.91,5.46H784.44V529.1h23.43a17.32,17.32,0,0,1,3.23.35,11.68,11.68,0,0,1,3.46,1.31,2.89,2.89,0,0,1,.48,1.66Z" transform="translate(-397.49 -9.5)"/><path d="M988,530.76V494.93L977.8,482.6v-1.43H862.26v37h1.18l10,12.1V631.83h1L884.8,644.4H988V609.29l-10.2-12.1v-1.66H919.91V587.7h56.94V552.76l-10.44-12.28v-1.89h-46.5v-7.83Zm-23.73,10.68v31.31H907.33V597.9h68.33v31.55H875.78V515.81H864.63V483.55h111v32.26H907.33v25.63Z" transform="translate(-397.49 -9.5)"/><polygon class="cls-5" points="484.46 614.02 572.24 614.02 572.24 594.33 503.68 594.33 503.68 557.32 560.62 557.32 560.62 537.87 503.68 537.87 503.68 500.14 572.24 500.14 572.24 480.21 473.31 480.21 473.31 500.14 484.46 500.14 484.46 614.02"/><path d="M1045.77,540.72a40.07,40.07,0,0,1,13.28-8.54,45.43,45.43,0,0,1,17-3.08h36.77q8.31,0,12-4.39t3.68-12.93V494.93l-10-12.33v-1.43h-53.14a74.83,74.83,0,0,0-29.77,5.94,78.53,78.53,0,0,0-24.32,16.13,75.39,75.39,0,0,0-16.49,24.08,76.36,76.36,0,0,0,.24,60.14,71.32,71.32,0,0,0,17.67,24.2l4.27,5.46a73.07,73.07,0,0,0,25.74,20A77.09,77.09,0,0,0,1076,644.4h52.43V561.13l-10-12.1V547.6h-66.9v23.73q0,.95.12,2.37t.12,2.85V582h1.42l10.2,12.58h19v2.13h-6.64a90.54,90.54,0,0,1-21.11-2.13q-8.79-2.13-13.29-5.46l-4.75-4.74a29.49,29.49,0,0,1-2-7,44.94,44.94,0,0,1-.6-7.24,42.79,42.79,0,0,1,3.09-16.49A38.24,38.24,0,0,1,1045.77,540.72Zm-23.37,24.47a38.38,38.38,0,0,0,2.61,7.73,35.66,35.66,0,0,0,5.57,8.44,86.45,86.45,0,0,0,9.38,9.4q4.74,4.05,13.76,6.19a96.83,96.83,0,0,0,22.06,2.14h4.51a38.33,38.33,0,0,0,4.27-.24V579.63h-30.13q0-4.07-.12-8.25c-.08-2.78-.12-5.38-.12-7.77V549.5h62.16v80h-51a74.2,74.2,0,0,1-28.82-5.58,76.37,76.37,0,0,1-23.61-15.33,70.93,70.93,0,0,1-21.83-51.83,71.48,71.48,0,0,1,5.81-28.65,72.75,72.75,0,0,1,16-23.4,77.81,77.81,0,0,1,23.61-15.78,71.7,71.7,0,0,1,28.82-5.81h51v15.19q0,15.88-14.47,15.89h-36.54a48.7,48.7,0,0,0-17.56,3.1,39.84,39.84,0,0,0-13.87,8.8,41.11,41.11,0,0,0-9.14,13.56,44,44,0,0,0-3.32,17.36A37.12,37.12,0,0,0,1022.4,565.19Z" transform="translate(-397.49 -9.5)"/><path class="cls-5" d="M1038.77,494.93a66.88,66.88,0,0,0-21.47,14.36,68.77,68.77,0,0,0-14.47,21.35,67.31,67.31,0,0,0,0,52.55,67.63,67.63,0,0,0,14.47,21.12,66.07,66.07,0,0,0,21.47,14.11,68.65,68.65,0,0,0,26.57,5.1h44.84V555.43h-50.06V568q0,.94.12,2.25c.08.87.12,2.1.12,3.68h30.13V605h-25.86A45.79,45.79,0,0,1,1046,601.1a53.44,53.44,0,0,1-15.77-10.55,51,51,0,0,1-10.92-15.31,42.45,42.45,0,0,1-4-18.15,50.3,50.3,0,0,1,3.8-19.69,46.34,46.34,0,0,1,26.33-25.74,53.5,53.5,0,0,1,19.93-3.68h36.54q4.74,0,6.52-2.37t1.78-7.12v-8.78h-44.84A67.63,67.63,0,0,0,1038.77,494.93Z" transform="translate(-397.49 -9.5)"/><path d="M1259.41,514.39l-5.93-7.12a50.24,50.24,0,0,0-19.22-19.1,54.41,54.41,0,0,0-27.29-7h-68.8v35.35h1.19l9.73,11.87V631.83h.94l10.62,12.57h33.75V600.75H1207q4.51,7.35,8.44,14.94a167.58,167.58,0,0,1,7.26,16.14h1l10.48,12.57h35.7q-2.14-7.11-4.51-13.4t-5.46-12.46q-3.09-6.16-7-12.46t-8.89-13.4a88.72,88.72,0,0,0,9.6-7.95,54,54,0,0,0,14-21.82,58.54,58.54,0,0,0,.36-33A47.53,47.53,0,0,0,1259.41,514.39ZM1258,535.31q-.95,15.21-9,25.91a76.71,76.71,0,0,1-18.27,17.6q5.22,7.36,9.13,13.79t7,12.48q3.09,6.06,5.46,12c1.58,4,3.08,8.09,4.51,12.36h-32.27A142,142,0,0,0,1214,607q-6-10.32-13.64-21h-18.5v43.41h-30.37V514.15h-10.91V483.07H1207a51.63,51.63,0,0,1,20.41,4,50.7,50.7,0,0,1,16.49,11.15,51.38,51.38,0,0,1,10.91,16.61A45.18,45.18,0,0,1,1258,535.31Z" transform="translate(-397.49 -9.5)"/><path class="cls-5" d="M1238.53,503.36a47.1,47.1,0,0,0-14.35-10,41.59,41.59,0,0,0-17.21-3.68h-60.26v18.51h10.92v115.3h18.27V579.63h27q8.55,11.39,15.19,22A121.55,121.55,0,0,1,1229,623.52h19.45a210,210,0,0,0-9.13-19.57,252.13,252.13,0,0,0-13.4-22l1.18-7.59a88.52,88.52,0,0,0,16.49-16.6,41.16,41.16,0,0,0,8.42-22.54,42.1,42.1,0,0,0-3.67-17.44A49.52,49.52,0,0,0,1238.53,503.36Zm-7.24,41.4a27,27,0,0,1-5.45,8.3,26.2,26.2,0,0,1-18.87,7.83H1175.9V508.22H1207a24.52,24.52,0,0,1,10.21,2.14,26.63,26.63,0,0,1,8.3,5.81,29.28,29.28,0,0,1,5.69,8.42,24,24,0,0,1,2.14,10A25.91,25.91,0,0,1,1231.29,544.76Z" transform="translate(-397.49 -9.5)"/><path d="M1221.57,520.2a21.12,21.12,0,0,0-6.53-4.39,20,20,0,0,0-8.07-1.66h-25.14v40.57H1207a19.86,19.86,0,0,0,8.07-1.66,22.32,22.32,0,0,0,6.64-4.39,18.9,18.9,0,0,0,4.39-6.4,20.31,20.31,0,0,0,1.55-7.95,18.63,18.63,0,0,0-1.66-7.71A21.72,21.72,0,0,0,1221.57,520.2Zm3.44,14.35a17.63,17.63,0,0,1-5.26,12.58,17.26,17.26,0,0,1-12.92,5.46H1194.4V529.1h23.43a17.32,17.32,0,0,1,3.23.35,11.84,11.84,0,0,1,3.47,1.31,2.89,2.89,0,0,1,.48,1.66Z" transform="translate(-397.49 -9.5)"/><path d="M1385.15,494.93l-9.73-11.62-.71-2.14h-48.64q-3.32,9.25-7,19.22t-7.47,19.69L1306.14,535l-7.59,20.17q-6.65,17.79-13.64,37.6t-13.88,39h1.19l10.2,12.57h37l4.74-13a5.32,5.32,0,0,1,.72-1.66,5.36,5.36,0,0,0,.71-1.9h64.06l1.42,4h1.18l10.21,12.57H1439ZM1393,629.45l-6.41-16.6H1313.5l-1.9,5-4.27,11.62h-33q6.64-19.44,13.41-37.6t13.16-35.94q6.18-17.08,13.17-35.23T1328,483.31h45.32l52.43,146.14Z" transform="translate(-397.49 -9.5)"/><path class="cls-5" d="M1413.14,611Q1402,580.35,1391,550.69t-22.18-61.21h-36.54l-8.07,21.35q-4.74,13.29-9.49,25.86T1305,562.31l-9.73,26.34q-2.37,7.59-5.57,16.13t-7.24,18.74h21.11a26,26,0,0,1,1.55-5.22q1.07-2.61,1.78-5l2.37-6.4h81.85l5.93,16.6h20.4Zm-96.56-24.2,33.93-91.34,33.21,91.34Z" transform="translate(-397.49 -9.5)"/><path d="M1325.12,581.06h50.06Q1369,564,1362.73,547.13T1350.51,513Zm37-28,3.8,9.25q1.66,4,3,8t3,8.42h-28.71l14.48-37.48Z" transform="translate(-397.49 -9.5)"/></svg>