<svg id="Capa_1" data-name="Capa 1" xmlns="http://www.w3.org/2000/svg" xmlns:xlink="http://www.w3.org/1999/xlink" viewBox="0 0 1056.9 290.67"><defs><style>.cls-1{fill:#f55a25;}.cls-2{fill:url(#Degradado_sin_nombre_50);}.cls-3{fill:url(#Degradado_sin_nombre_13);}.cls-4{fill:#504e51;}.cls-5{fill:url(#Degradado_sin_nombre_13-2);}.cls-6{fill:#4f4f51;}.cls-7{fill:url(#Degradado_sin_nombre_13-3);}.cls-8{fill:#5b5b5f;}.cls-9{fill:#5b5a5e;}.cls-10{fill:#4f4f50;}.cls-11{fill:#5c5c60;}.cls-12{fill:#5b5b5e;}.cls-13{fill:#fd6e15;}.cls-14{fill:url(#Degradado_sin_nombre_40);}.cls-15{fill:url(#Degradado_sin_nombre_40-2);}.cls-16{fill:#5b5a5d;}.cls-17{fill:#5b5a5f;}.cls-18{fill:#e07538;}.cls-19{fill:#e07537;}.cls-20{fill:url(#Degradado_sin_nombre_13-4);}.cls-21{fill:url(#Degradado_sin_nombre_13-5);}.cls-22{fill:url(#Degradado_sin_nombre_13-6);}</style><linearGradient id="Degradado_sin_nombre_50" x1="389.48" y1="479" x2="389.48" y2="404.9" gradientUnits="userSpaceOnUse"><stop offset="0" stop-color="#fd6e15"/><stop offset="0.43" stop-color="#f8621f"/><stop offset="0.89" stop-color="#f55a25"/></linearGradient><linearGradient id="Degradado_sin_nombre_13" x1="618.45" y1="485.1" x2="618.45" y2="398.25" gradientUnits="userSpaceOnUse"><stop offset="0" stop-color="#878787"/><stop offset="0.07" stop-color="#787879"/><stop offset="0.19" stop-color="#666667"/><stop offset="0.33" stop-color="#59595a"/><stop offset="0.52" stop-color="#515153"/><stop offset="0.89" stop-color="#4f4f51"/></linearGradient><linearGradient id="Degradado_sin_nombre_13-2" x1="96.4" y1="485.01" x2="96.4" y2="395.46" xlink:href="#Degradado_sin_nombre_13"/><linearGradient id="Degradado_sin_nombre_13-3" x1="1015.11" y1="485.27" x2="1015.11" y2="395.73" xlink:href="#Degradado_sin_nombre_13"/><linearGradient id="Degradado_sin_nombre_40" x1="491.11" y1="485.4" x2="491.11" y2="398.27" gradientUnits="userSpaceOnUse"><stop offset="0" stop-color="#fc9b32"/><stop offset="0.28" stop-color="#fc912c"/><stop offset="0.76" stop-color="#fd761a"/><stop offset="0.89" stop-color="#fd6e15"/></linearGradient><linearGradient id="Degradado_sin_nombre_40-2" x1="424.51" y1="416.58" x2="477.21" y2="416.58" xlink:href="#Degradado_sin_nombre_40"/><linearGradient id="Degradado_sin_nombre_13-4" x1="267.31" y1="484.75" x2="267.31" y2="398.15" xlink:href="#Degradado_sin_nombre_13"/><linearGradient id="Degradado_sin_nombre_13-5" x1="860.45" y1="485.01" x2="860.45" y2="398.07" xlink:href="#Degradado_sin_nombre_13"/><linearGradient id="Degradado_sin_nombre_13-6" x1="774.22" y1="485.01" x2="774.22" y2="398.1" xlink:href="#Degradado_sin_nombre_13"/></defs><title>sevens ingenieros sac - logo-nombre</title><path class="cls-1" d="M386.14,485.45q9.44,24.17,18.89,48.32c.47,1.18.53,3.17,2.15,3.13s1.46-2,1.92-3.23c4-10.66,8.31-21.24,12-32,1.87-5.43,4.23-10.57,4.61-16.22Z" transform="translate(-27.97 -395.46)"/><path class="cls-2" d="M424,475.16c-10-24.13-18.53-48.9-27.55-73.44-1-2.6-2.45-3.51-5.11-3.45-5.79.13-11.59,0-17.38,0v0c-5,0-10.07,0-15.1,0-6.52,0-6.61.24-4.25,6.27q13.55,34.6,27,69.26l4.53,11.63h39.58A22.42,22.42,0,0,0,424,475.16Z" transform="translate(-27.97 -395.46)"/><path class="cls-3" d="M673.66,472.46c.14-3.82-1.19-4.49-4.64-4.47-24.51.13-49,.08-73.55,0-1.72,0-3.71.76-5.09-1.07.06-9.61.35-19.22.09-28.82-.12-4.18,1-5.35,5.26-5.32,28.08.21,56.15.11,84.23.11,2.29,0,4.55.42,4.47-3.3-.21-9.3-.16-18.61,0-27.92,0-3-1.33-3.46-3.9-3.46q-62.26.09-124.51,0c-2.45,0-3.54.52-3.52,3.25.17,22.12.21,44.24.29,66.36q0,8.61,0,17.23H673.52C673.5,480.88,673.51,476.67,673.66,472.46Z" transform="translate(-27.97 -395.46)"/><path class="cls-4" d="M679.43,539.29c-28.2.22-56.4.06-84.6.2-3.4,0-4.44-.83-4.35-4.3.25-9.45.19-18.91,0-28.35-.06-3.08.64-4.36,4-4.14,4.71.3,9.45.09,14.18.07l64-.22c1.82-1,.86-2.72.87-4.06.05-4.46,0-8.93,0-13.39H552.78V488q-.12,41.61-.29,83.21c0,2.65,1.32,2.88,3.42,2.88q62.43-.06,124.86,0c2.82,0,3.67-1,3.63-3.72-.14-8.69-.25-17.39,0-26.07C684.57,540.38,683.58,539.26,679.43,539.29Z" transform="translate(-27.97 -395.46)"/><path class="cls-5" d="M116.06,470.72C104.5,468,93,465,82.13,460.08c-7.4-3.32-10.6-8.53-10-15.77.48-6,5-10.93,11.95-12.89,6.59-1.86,13.32-1.56,20-.45,12.12,2,22.68,7.8,32.85,14.36,2.25,1.45,3.75,2,5.53-.74q7.91-12,16.25-23.76c1.55-2.17,1.35-3.22-.75-4.7a104.5,104.5,0,0,0-13.1-8.32c-24.55-12.36-50.16-16.55-76.56-7.44-30.22,10.42-44.07,46.22-29,73A31.8,31.8,0,0,0,48.62,485h100C139,477.61,127.78,473.65,116.06,470.72Z" transform="translate(-27.97 -395.46)"/><path class="cls-6" d="M152,487.86h0c-1.12-1-2.26-1.95-3.43-2.85h-100a61.39,61.39,0,0,0,5.89,4.21,70,70,0,0,0,18.23,8.2c11.36,3.41,22.82,6.52,34.19,9.92a81.15,81.15,0,0,1,10.63,4.13c7.43,3.45,10.73,8.58,10.11,15.21-.66,7.07-5.69,12.34-13.53,14.2-6.92,1.64-13.92,1.54-20.91.75-15.38-1.75-28.19-9.24-40.16-18.4-2.5-1.91-3.76-1.85-5.74.65-5.77,7.27-11.71,14.42-17.85,21.38-2.38,2.69-1.81,3.92.72,6,16.76,14,36.17,21.77,57.65,24.46,17.55,2.2,34.61.58,50.83-7.28C172.22,552.24,172.9,503.77,152,487.86Z" transform="translate(-27.97 -395.46)"/><path class="cls-7" d="M1040.72,472.49c-2.6-.65-5.23-1.21-7.8-1.95-11.48-3.33-23.18-6.07-33.89-11.54-6.58-3.36-8.89-8.4-8-15.45.73-5.7,5.7-10.74,12.08-12.26a49.16,49.16,0,0,1,18.17-.54c12.67,1.75,23.67,7.65,34.18,14.5,2.86,1.87,4.28,1.48,6.09-1.28,4.93-7.51,10-14.94,15.31-22.16,2.25-3.05,1.48-4.5-1.25-6.47C1056,401.1,1033.9,395,1009.9,395.81c-12.3.43-24,3.46-34.62,10.27-21.78,14-30,46.22-17.08,67.37a30.34,30.34,0,0,0,9.46,11.82h100.13C1059.88,478.84,1050.49,475.29,1040.72,472.49Z" transform="translate(-27.97 -395.46)"/><path class="cls-4" d="M1084.46,515.09c-1.19-10.65-5.15-20-13.55-27.06-1-1-2.05-1.89-3.12-2.76H967.66a51.62,51.62,0,0,0,5.32,3.67c9.83,6.46,21,9.53,32.16,12.6,10.71,2.94,21.61,5.25,31.69,10.14,6.29,3.05,10.14,7.62,9.46,15.12-.66,7.2-5.08,11.12-11.38,13.42a38,38,0,0,1-10.76,1.87c-20.05,1.24-36.78-6.83-52.07-18.71-2.66-2.07-4-2-6.15.61-5.77,7.28-11.7,14.45-17.86,21.4-2.32,2.62-1.55,4,.71,5.78,28.26,22.37,60.05,30.51,95.25,22.34C1071.92,567,1087.65,543.6,1084.46,515.09Z" transform="translate(-27.97 -395.46)"/><path class="cls-8" d="M407.06,650.61c0,10-.19,20.1.1,30.14.11,3.92-1.49,4.34-4.77,4.43-3.61.11-4.62-.94-4.56-4.56.22-14,0-28.07.18-42.1,0-1.84-1.53-5,1.49-5.37s6.2-1.35,8.72,2.05c6.54,8.81,13.38,17.39,20.12,26a24.6,24.6,0,0,0,6,5.9q0-11.08,0-22.16v-6.41c0-5.41,2.31-7.1,7.5-5.63,1.61.46,1.69,1.52,1.69,2.78q0,23.34,0,46.68c0,1.24,0,2.69-1.74,2.59-2.88-.16-5.91,1-8.29-2.21-6-8.22-12.41-16.2-18.67-24.25-2.21-2.84-4.48-5.62-6.72-8.43Z" transform="translate(-27.97 -395.46)"/><path class="cls-9" d="M217.88,649.34c0,10.68-.08,20.82.05,30.95,0,3.09,0,5.1-4.17,4.92-3.56-.15-5-.7-5-4.73.26-14,0-28,.16-42.05,0-1.83-1.44-4.89,1.71-5.26,2.93-.35,6.25-1.34,8.76,2,7.51,10,15.24,19.76,22.89,29.62.64.83,1.35,1.6,2,2.4,1.71-.78,1-2.18,1-3.24.06-9.14.21-18.29,0-27.43-.12-4.35,2.64-3.41,5.12-3.6,2.69-.2,4.1.26,4,3.59-.19,14.47,0,29-.16,43.42,0,1.69,1.5,4.58-1.32,5s-5.8,1.16-8.23-2.1c-7.27-9.76-14.89-19.26-22.41-28.84C221.16,652.45,220.24,650.68,217.88,649.34Z" transform="translate(-27.97 -395.46)"/><path class="cls-10" d="M904.7,420.37c0-6.1.08-12.2,0-18.31,0-2.58.48-3.87,3.5-3.82,9.3.17,18.61.13,27.92,0,2.65,0,3.61.68,2.85,3.42-3.52,12.63-7,25.27-10.35,37.94-.59,2.23-1.7,2.84-3.84,2.79-5.49-.12-11-.2-16.48,0-2.93.1-3.66-1.06-3.6-3.74C904.79,432.58,904.7,426.48,904.7,420.37Z" transform="translate(-27.97 -395.46)"/><path class="cls-9" d="M310.33,656.18c11.48,0,11.48,0,11.49,11.24a14.85,14.85,0,0,0,0,3.2c1.53,6.75-2.32,10-7.78,12.39a33.2,33.2,0,0,1-21.4,2.25,26.2,26.2,0,0,1-19.91-28.86,26.78,26.78,0,0,1,26.15-24c6.57-.15,12.72,1,18.23,4.76,1.36.93,3.35,2.06,1.3,3.8-1.87,1.59-2.28,6.16-6.29,3.89-3.06-1.74-6-3.58-9.6-4-8.57-.91-14.85,2.71-18.29,10.54-3.27,7.45-1.47,16.7,4.28,21.86,5.4,4.86,14.79,5.69,21.39,2.14,4.3-2.31,2.57-6.18,2.48-9.36-.09-3.43-3.27-1.49-5.08-1.89a8.5,8.5,0,0,0-3.18,0c-4.17.71-5.34-1.12-4.94-5,.21-2.09.68-3,2.9-2.93C304.84,656.28,307.59,656.18,310.33,656.18Z" transform="translate(-27.97 -395.46)"/><path class="cls-11" d="M340.71,658.61c0-7.17.13-14.33-.06-21.49-.08-3.08.72-4.32,4-4.26q15.54.27,31.08,0c3.22-.05,3.87,1.28,3.71,4.09-.14,2.52.3,4.79-3.61,4.64-7.15-.28-14.33.07-21.48-.14-3.39-.11-4.86.6-4.77,4.45.22,8.89,0,8.89,9,8.89,4.87,0,9.75.12,14.63,0,4.1-.12,2.55,2.83,2.78,4.78.26,2.12.16,3.77-2.94,3.65-6.39-.24-12.8.06-19.19-.13-3.06-.09-4.28.69-4.27,4,0,9.66-.14,9.66,9.51,9.67,5.79,0,11.6.24,17.37-.08,3.9-.21,3.18,2.21,3.21,4.41s.51,4.14-3,4.07c-11-.21-21.94-.17-32.91,0-3,0-3.11-1.48-3.1-3.68C340.75,673.84,340.71,666.22,340.71,658.61Z" transform="translate(-27.97 -395.46)"/><path class="cls-9" d="M494.93,658.76c0-7.48.09-15,0-22.43-.05-2.58.78-3.45,3.4-3.43,10.68.11,21.36.2,32-.07,3.91-.1,3.19,2.19,3.22,4.4s.55,4.51-3.28,4.35c-7.46-.32-15,0-22.42-.18-3.1-.09-3.79,1-3.8,3.91,0,9.46-.12,9.46,9.21,9.47,4.58,0,9.17.16,13.73-.06,3.78-.18,3.13,2.28,3.22,4.53s-.1,4-3.33,3.91c-6.4-.25-12.82.06-19.22-.13-2.86-.09-3.56.91-3.61,3.65-.15,10.07-.25,10.07,10,10.07,5.49,0,11,.19,16.47-.07,3.68-.18,3.36,2,3.37,4.37s.25,4.13-3.14,4.08c-10.83-.18-21.67-.13-32.5,0-2.65,0-3.35-.92-3.3-3.47.15-7.63.06-15.26.06-22.88Z" transform="translate(-27.97 -395.46)"/><path class="cls-12" d="M701.38,685.71a30.36,30.36,0,0,1-18.76-6c-1.65-1.24-3.3-2.61-.8-4.6,1.78-1.43,2.21-5.62,6.15-2.52,5,3.92,10.7,5.72,17.11,4.47,3.07-.6,5.51-2,5.86-5.47s-1.77-5.4-4.75-6.37c-4.19-1.36-8.48-2.41-12.69-3.72-8.72-2.71-12.44-8-11.44-16.15.89-7.27,7.19-12.49,15.42-12.94,6.4-.35,12.45.65,17.88,4.26,1.5,1,4.16,1.88,1.65,4.32-1.67,1.62-1.57,6.43-6.09,3.38A19.45,19.45,0,0,0,698,640.75c-3.58.34-6.22,2-6.79,5.62-.53,3.45,1.85,5.35,4.79,6.33,4.47,1.49,9.1,2.51,13.5,4.18,8.38,3.16,11.45,7.85,10.6,15.41-.81,7.2-6.44,12.4-14.59,13.4A35.2,35.2,0,0,1,701.38,685.71Z" transform="translate(-27.97 -395.46)"/><path class="cls-12" d="M785,632.47a24.88,24.88,0,0,1,14.94,4.19c1.64,1,4.05,2.07,1.8,4.41-1.62,1.67-1.93,6.19-6.27,3.22a18.8,18.8,0,0,0-12.52-3.53c-3.18.31-6.09,1.26-6.85,4.88-.82,3.9,1.45,6.07,4.78,7.2,4.75,1.6,9.66,2.75,14.36,4.48,7,2.58,9.71,6.8,9.45,13.87-.25,6.85-4,11.68-10.8,13.56-9.58,2.65-18.36.68-26.43-5-1.83-1.28-3.35-2.72-1-4.59,1.7-1.36,2.06-5.87,6.11-2.64a20.66,20.66,0,0,0,15.75,4.8c3.53-.44,6.64-1.59,7.2-5.72s-2.32-5.68-5.49-6.73c-3.9-1.28-7.9-2.25-11.82-3.47-9.08-2.81-12.51-7.83-11.4-16.52.86-6.77,6.86-11.82,14.82-12.44C782.8,632.39,784,632.47,785,632.47Z" transform="translate(-27.97 -395.46)"/><path class="cls-13" d="M422.72,570.93c-1.15,3.08-1,4.4,2.8,4.32,9.61-.18,19.23-.14,28.84,0,2.5,0,3.61-.77,4.57-3.21,9.78-24.75,19.75-49.41,29.66-74.11q2.51-6.24,5-12.5h-39Q438.69,528.18,422.72,570.93Z" transform="translate(-27.97 -395.46)"/><path class="cls-14" d="M522.65,398.27H486.51L473,434.89a6.65,6.65,0,0,1-.52,2.37c-4.38,11.5-8.57,23.08-12.87,34.62q-2.5,6.75-5,13.52h39q16.42-40.93,32.81-81.89C528.48,398.34,528.33,398.27,522.65,398.27Z" transform="translate(-27.97 -395.46)"/><path class="cls-15" d="M422.41,398.31c-8.2,0-8.55.55-4.61,7.91a1.27,1.27,0,0,0,.34.31,68.27,68.27,0,0,0,5.62,14.67h0c.63,2,1.36,4,1.88,6,1.08,4.26,3.35,6,8.11,5.82,11.88-.41,23.79-.05,35.69-.14,2.42,0,3.54.53,3.57,2l13.5-36.61Q454.46,398.3,422.41,398.31Z" transform="translate(-27.97 -395.46)"/><path class="cls-16" d="M910.39,632.42c5.59-.37,11.12,1.53,16.1,5.08,1.56,1.11,4.31,2.36,1.45,4.79-1.89,1.6-2.36,6.11-6.85,2.72-8.26-6.24-17.25-5.75-23.58.59-6.56,6.58-7,18.94-1,25.94,6.32,7.36,16.17,8.12,24.59,2,1.09-.79,1.93-3.05,3.68-1.76a16.47,16.47,0,0,1,4.64,4.92c.79,1.38-1.24,2.19-2.2,3-8.25,7.1-21.64,8.4-31.27,3.12s-14.86-16-13.31-27.41C884.53,641.52,895.33,632.35,910.39,632.42Z" transform="translate(-27.97 -395.46)"/><path class="cls-17" d="M187.71,659.1c0,7.62-.17,15.24.08,22.85.11,3.44-1.82,3.33-4,3.08s-5.16,1.43-5.13-2.94q.15-23.08,0-46.18c0-4.34,3.14-2.64,5.2-2.93,2.4-.34,4,0,3.93,3.25C187.57,643.85,187.71,651.47,187.71,659.1Z" transform="translate(-27.97 -395.46)"/><path class="cls-9" d="M464.66,658.78c0-7.46.16-14.93-.08-22.38-.11-3.49,1.72-3.66,4.25-3.47,2.26.17,5-.85,4.91,3.3q-.23,22.83,0,45.67c0,4.25-2.81,2.94-5,3.16-2.52.25-4.3,0-4.18-3.45C464.84,674,464.66,666.39,464.66,658.78Z" transform="translate(-27.97 -395.46)"/><path class="cls-18" d="M89,659.18h56.23c.92,0,1.83,0,2.74.05s1.81.43,1.9,1.56a1.75,1.75,0,0,1-1.86,2.07c-.91.06-1.82.09-2.74.09-36.87,0-73.75,0-110.63-.11-1.87,0-5.5,1.58-5.51-1.8s3.62-1.74,5.47-1.76C52.76,659.11,70.89,659.18,89,659.18Z" transform="translate(-27.97 -395.46)"/><path class="cls-19" d="M1022.89,659.2h54.86c.92,0,1.83,0,2.75,0,1.36,0,2.38.22,2.29,2-.08,1.5-1,1.69-2.13,1.7l-3.66,0-110.19,0c-.91,0-1.83,0-2.74,0-1.16,0-2.09-.33-2.13-1.77s.74-1.9,2-1.94c.92,0,1.83,0,2.75,0Z" transform="translate(-27.97 -395.46)"/><path class="cls-20" d="M322.15,470.64h0l-.24-1.82c-1.35-1.54-3.14-.74-4.7-.75q-38.77-.18-77.55-.23,0-17.31,0-34.62c1.83-.06,3.66-.18,5.48-.18,27.93,0,55.85-.07,83.76,0,3.33,0,4.55-.76,4.45-4.3-.24-8.84-.2-17.7,0-26.54.07-3.25-1-4.11-4.19-4.1q-62,.14-124,0c-2.94,0-3.94.82-3.94,3.87q.06,41.37.07,82.73h121A108.92,108.92,0,0,0,322.15,470.64Z" transform="translate(-27.97 -395.46)"/><path class="cls-6" d="M328,539.21c-29.44.19-58.88,0-88.33,0,0-10.65.09-21.31-.15-32-.08-3.5.8-4.58,4.48-4.55,24.19.17,48.38.09,72.57.07,1.8,0,3.61-.25,5.42-.38a38.37,38.37,0,0,0,.11-14.41h0c.06-1.08.11-2.15.16-3.22h-121q0,42.62,0,85.24c0,3.06.69,4.25,4,4.24q62-.16,124,0c3.33,0,4.09-1.19,4-4.25-.16-8.38-.28-16.79.05-25.16C333.59,540.56,332.63,539.18,328,539.21Z" transform="translate(-27.97 -395.46)"/><path class="cls-9" d="M584.47,668.67c-1.66-2.2-1.35-3,1.07-4.33,7.54-4.11,10.24-10.1,8.72-18.25-1.28-6.89-6.33-11.57-14.3-12.67-8.48-1.18-17-.22-25.55-.45-2.12-.06-2.44,1.19-2.43,2.95,0,15.39.06,30.77,0,46.16,0,2.52,1,3,3.23,3,6,.14,6,.24,5.94-5.8,0-1.22,0-2.44,0-3.65,0-8.83,0-8.77,8.82-8.41a4.7,4.7,0,0,1,4.12,2.26c2.05,3,4.67,5.73,6.3,9,3.22,6.39,8.15,7.94,15.37,6C591.84,679,588.28,673.73,584.47,668.67Zm-6.18-10.39c-4.92,1.08-10,.48-15,.56-1.5,0-2.2-.78-2.19-2.26,0-2,0-3.94,0-5.92,0-9.16,0-9.16,8.94-9a65.24,65.24,0,0,1,7.27,0c4.68.53,7.37,3.35,7.61,7.57C585.22,653.81,582.8,657.3,578.29,658.28Z" transform="translate(-27.97 -395.46)"/><path class="cls-9" d="M638.44,632.41c-15.66-.15-27.39,11.19-27.59,26.66-.2,15.12,11.47,26.87,26.82,27,15.54.12,27.47-11.47,27.57-26.79S654,632.55,638.44,632.41ZM638,677.57c-9.77-.1-17.6-8.51-17.35-18.62.25-10.55,7.86-18.35,17.74-18.21,9.63.14,17.07,8.43,17,18.91C655.22,669.94,647.74,677.67,638,677.57Z" transform="translate(-27.97 -395.46)"/><path class="cls-12" d="M870.94,683.71c-7.05-16.35-14.17-32.66-21.16-49-1.21-2.84-3.46-1.92-5.42-2s-4.12-.5-5.3,2.26c-6.77,15.8-13.72,31.53-20.59,47.29-.35.79-1,1.66-.21,2.51,1.36,1.47,8.78-.16,9.55-2.09,5.06-12.77,1.06-9.77,15.43-9.89h3.18c12.45.12,8.45-1.88,14.05,9.12.77,1.51,1,3.31,3.24,3.17,2.39-.15,4.83.4,7.18-.38C870.92,684.29,871.05,684,870.94,683.71Zm-20.27-19.2c-4.1,0-8.19,0-12.28,0-2.23,0-2.61-.92-1.78-2.83,2.42-5.53,4.77-11.08,7.64-17.8,3,6.83,5.52,12.64,8,18.46C853,664,852.29,664.52,850.67,664.51Z" transform="translate(-27.97 -395.46)"/><path class="cls-6" d="M723.07,569.26c0,4.13,1.17,5.13,5.13,5,9.75-.28,19.52,0,29.27-.15,1.35,0,3.09.92,4.07-1,.1-13.35.27-26.71.28-40.07,0-15-.15-30.07-.23-45.11.07-1,.12-2,.16-3H723.18Q723.18,527.13,723.07,569.26Z" transform="translate(-27.97 -395.46)"/><path class="cls-6" d="M879.72,485H841.17q0,7.46,0,14.91c0,1.73.76,3.67-.81,5.2h0L827.42,488l-2.1-3H778.84c1.27,1.56,2.54,3.11,3.79,4.69,9,11.88,17.9,23.79,26.93,35.62q18,23.52,36.07,47h0c.51,2.41,2.46,1.87,4,1.88,8.69,0,17.38-.13,26.06.09,3.36.08,4-1.2,4-4.25Q879.71,527.5,879.72,485Z" transform="translate(-27.97 -395.46)"/><path class="cls-21" d="M879.79,402.16c0-3.33-1.16-4.09-4.24-4-9.9.16-19.82.24-29.72,0-3.91-.11-4.74,1.17-4.73,4.89q.2,41,.07,82h38.55Q879.72,443.58,879.79,402.16Z" transform="translate(-27.97 -395.46)"/><path class="cls-22" d="M815.47,472.62c-.85-1.05-1.77-2.05-2.56-3.15-17.07-23.93-35.26-47-53.19-70.29-.92-1.52-2.43-1-3.72-1-9.6,0-19.21.12-28.81-.08-3.31-.07-4.12,1.12-4.08,4.22.16,10.82.06,21.65.06,32.47q0,25.11,0,50.21h38.57a90.51,90.51,0,0,0-.16-12.54c.14-2.66.27-5.31.43-8.55,3.81,2.89,5.31,6.94,8.39,9.55A97.39,97.39,0,0,0,778.84,485h46.48A93.16,93.16,0,0,0,815.47,472.62Z" transform="translate(-27.97 -395.46)"/></svg>