<?xml version="1.0" standalone="no"?>
<!DOCTYPE svg PUBLIC "-//W3C//DTD SVG 20010904//EN"
 "http://www.w3.org/TR/2001/REC-SVG-20010904/DTD/svg10.dtd">
<svg version="1.0" xmlns="http://www.w3.org/2000/svg"
 width="200.000000pt" height="181.000000pt" viewBox="0 0 200.000000 181.000000"
 preserveAspectRatio="xMidYMid meet">

<g transform="translate(0.000000,181.000000) scale(0.100000,-0.100000)"
fill="#000000" stroke="none">
<path d="M424 1646 l-46 -45 5 32 4 31 -34 -39 c-18 -21 -37 -51 -40 -65 l-7
-25 -7 25 c-6 24 -7 23 -27 -21 -12 -25 -24 -72 -28 -103 -7 -57 -7 -58 -19
-30 l-12 29 -8 -39 c-4 -21 -5 -71 -2 -110 5 -67 4 -69 -9 -41 -14 29 -15 27
-10 -35 3 -36 12 -84 20 -107 18 -50 11 -57 -9 -10 l-14 32 -1 -46 c0 -60 21
-119 65 -180 40 -57 35 -63 -13 -16 -33 31 -34 31 -27 7 12 -41 63 -108 103
-136 20 -15 28 -23 17 -19 -11 4 -27 9 -35 12 -26 8 52 -54 115 -92 l60 -37
-40 6 -40 7 25 -21 c14 -11 57 -36 95 -55 61 -30 66 -34 40 -35 l-30 -1 38
-20 c52 -28 157 -49 242 -49 39 0 84 -4 100 -8 46 -13 105 -3 105 18 0 13 -11
19 -51 23 -55 7 -99 29 -99 50 0 20 22 37 47 37 13 0 23 5 23 10 0 30 -88 -3
-96 -36 -9 -36 -39 -39 -89 -9 -48 28 -70 54 -80 98 -9 35 -24 35 -22 0 1 -19
-3 -28 -15 -31 -26 -5 -78 82 -78 130 0 21 -4 38 -10 38 -5 0 -10 -14 -10 -31
0 -24 -4 -30 -17 -27 -23 4 -52 87 -53 147 0 51 -10 48 -19 -6 -8 -49 -35 -56
-50 -12 -14 39 -14 123 -1 167 8 29 7 32 -5 22 -8 -7 -20 -27 -27 -46 -26 -72
-50 -1 -28 85 6 25 22 63 36 84 29 45 15 50 -19 6 -29 -38 -51 -32 -36 9 6 15
21 43 35 63 13 20 26 46 29 57 2 12 7 27 10 32 13 21 -10 9 -42 -22 -18 -18
-33 -26 -33 -18 0 14 52 82 109 142 40 43 37 57 -8 34 -16 -9 -33 -16 -37 -16
-14 0 50 62 108 105 43 32 54 45 42 49 -9 4 -30 -1 -47 -9 -16 -8 -32 -15 -34
-15 -9 0 -1 30 10 37 30 19 58 83 37 83 -5 0 -30 -20 -56 -44z"/>
<path d="M1612 1638 c11 -29 35 -66 53 -83 18 -16 40 -42 50 -57 16 -26 35
-30 35 -7 0 5 -19 31 -43 57 -54 59 -97 118 -97 131 0 6 -4 11 -9 11 -6 0 -1
-24 11 -52z"/>
<path d="M603 1241 l2 -414 96 -89 c64 -59 101 -86 112 -82 11 4 -9 27 -74 86
-50 44 -97 91 -106 104 -14 22 -15 65 -8 382 6 311 5 361 -9 392 -14 32 -15 2
-13 -379z"/>
<path d="M1674 1481 c3 -18 6 -37 6 -42 0 -4 10 -11 21 -14 16 -5 18 -9 9 -15
-10 -6 -5 -15 19 -36 36 -30 57 -72 43 -86 -11 -11 -31 12 -35 42 -7 46 -27
34 -27 -16 0 -40 5 -53 33 -82 24 -26 26 -32 10 -23 -39 20 -46 12 -19 -23 24
-32 46 -75 52 -103 3 -17 -44 15 -56 38 -6 10 -10 27 -10 38 0 33 -16 25 -27
-14 -10 -33 -9 -37 28 -74 21 -21 39 -47 39 -57 -1 -15 -9 -10 -35 21 -40 46
-42 44 -15 -16 22 -48 28 -163 9 -175 -22 -13 -31 15 -32 99 l-2 86 -38 -77
-38 -77 16 -52 c9 -29 15 -58 12 -65 -2 -7 -7 1 -11 17 -4 17 -15 41 -26 55
l-19 25 6 -62 c7 -72 -1 -113 -22 -113 -18 0 -21 69 -4 103 6 13 0 9 -13 -8
-12 -16 -37 -44 -55 -62 -23 -22 -33 -41 -33 -63 0 -30 -13 -48 -54 -80 -18
-14 -19 -13 -14 10 3 14 9 34 14 45 4 11 -18 -7 -50 -39 -33 -34 -55 -65 -52
-73 5 -13 -9 -22 -56 -37 -25 -7 -11 -36 16 -36 50 0 186 42 271 84 142 70
272 203 288 296 4 19 14 60 22 90 18 65 20 245 4 322 -13 61 -48 148 -59 148
-5 0 -13 14 -19 30 -5 17 -21 34 -34 39 -13 5 -35 22 -47 38 l-23 28 7 -34z"/>
<path d="M731 1491 c-10 -7 -11 -13 -1 -31 9 -18 9 -24 0 -30 -9 -5 -9 -9 -1
-14 24 -15 9 -32 -41 -47 -48 -15 -50 -17 -20 -18 17 0 32 4 32 9 0 6 9 10 20
10 11 0 20 -4 20 -10 0 -6 29 -10 66 -10 41 0 63 4 59 10 -3 6 3 10 14 10 12
0 21 -4 21 -10 0 -6 29 -10 68 -9 77 1 64 10 -40 30 -38 7 -68 17 -68 22 0 6
3 7 7 4 3 -4 13 2 21 14 8 12 22 19 35 17 18 -3 22 2 23 28 1 26 -2 30 -17 27
-11 -3 -19 -10 -19 -15 0 -5 -4 -7 -9 -4 -5 3 -15 -8 -23 -25 -13 -27 -16 -28
-20 -11 -10 37 -96 73 -127 53z m73 -45 c-3 -8 4 -16 20 -20 14 -3 26 -13 26
-21 0 -11 -13 -15 -50 -15 -36 0 -50 4 -50 14 0 17 25 38 34 29 4 -4 4 0 0 10
-4 12 -1 17 10 17 9 0 13 -6 10 -14z"/>
<path d="M1279 1473 c-8 -2 -23 -18 -33 -35 -11 -17 -14 -28 -7 -24 7 4 11 0
11 -11 0 -16 -13 -21 -77 -32 -106 -17 -108 -19 -30 -20 38 -1 67 3 67 9 0 6
7 10 15 10 8 0 15 -4 15 -10 0 -6 28 -10 65 -10 39 0 65 4 65 10 0 7 -13 8
-36 4 -27 -5 -35 -4 -30 5 4 6 1 11 -8 11 -25 0 -27 18 -4 39 12 12 17 21 10
21 -6 0 -9 9 -7 20 2 11 3 19 2 19 -1 -1 -9 -3 -18 -6z"/>
<path d="M1220 1466 c0 -2 7 -7 16 -10 8 -3 12 -2 9 4 -6 10 -25 14 -25 6z"/>
<path d="M1408 1353 c6 -2 18 -2 25 0 6 3 1 5 -13 5 -14 0 -19 -2 -12 -5z"/>
<path d="M640 1116 c0 -101 3 -125 15 -130 8 -3 15 -12 15 -21 0 -8 5 -14 11
-12 6 1 12 -8 14 -19 1 -20 -1 -21 -22 -11 -16 7 -23 17 -20 29 3 10 1 16 -4
12 -5 -3 -9 -29 -9 -57 0 -52 1 -53 75 -127 l75 -75 68 4 c73 3 81 6 65 22 -6
6 -9 17 -7 24 5 13 -52 30 -91 28 -11 -1 -15 0 -10 3 6 2 9 22 7 44 -3 33 1
45 22 67 24 24 36 51 18 39 -5 -3 -8 12 -8 32 0 20 -4 46 -7 57 -4 11 7 -9 25
-45 33 -65 54 -83 69 -58 7 10 9 8 9 -5 0 -11 4 -15 12 -11 6 4 8 3 4 -4 -3
-6 -25 -9 -49 -8 -62 4 -87 -10 -87 -51 0 -30 2 -33 19 -23 11 5 47 10 80 10
34 0 61 4 61 10 0 6 -5 10 -12 10 -9 0 -9 3 -1 11 6 6 9 18 6 25 -3 9 0 12 9
9 12 -5 17 14 24 102 9 104 9 109 -12 130 -12 12 -19 24 -16 27 3 3 0 6 -6 6
-6 0 -9 7 -5 17 4 11 3 14 -5 9 -7 -4 -12 -1 -12 10 0 36 -29 43 -177 44
l-143 0 0 -124z"/>
<path d="M1127 1223 c4 -10 2 -14 -4 -10 -10 6 -24 -13 -28 -38 0 -5 -7 -23
-15 -40 -15 -34 -26 -197 -16 -249 8 -44 31 -52 158 -51 54 0 98 -2 98 -5 0
-3 -12 -22 -26 -43 -24 -36 -25 -39 -8 -51 9 -7 14 -18 10 -24 -16 -27 10 -8
85 60 l79 72 0 198 0 198 -170 0 c-154 0 -169 -2 -163 -17z m139 -335 c3 -5
-6 -6 -22 -2 -23 6 -26 4 -21 -10 7 -19 -18 -23 -29 -4 -5 7 -3 8 7 3 11 -7
12 -6 2 7 -7 8 -11 17 -8 20 8 7 65 -3 71 -14z m150 11 c4 -6 -1 -9 -12 -8
-11 2 -30 -3 -44 -10 l-25 -12 24 20 c26 23 46 27 57 10z"/>
<path d="M875 685 l-40 -13 42 5 c30 4 65 -1 114 -17 55 -18 73 -20 82 -11 7
7 8 11 2 10 -5 -1 -26 5 -45 13 -53 24 -110 29 -155 13z"/>
<path d="M1142 687 c-33 -12 -31 -13 35 -12 37 0 88 -4 113 -8 44 -8 44 -8 22
8 -30 22 -127 29 -170 12z"/>
<path d="M1426 635 c-3 -9 -6 -24 -5 -33 0 -9 5 -4 10 12 9 32 6 48 -5 21z"/>
<path d="M1099 577 c-37 -25 -65 -70 -48 -76 5 -1 33 7 61 19 31 13 64 20 85
18 26 -3 33 -1 31 11 -5 24 -42 25 -95 2 l-48 -21 24 21 c14 11 38 23 53 26
41 8 45 23 5 23 -19 0 -49 -10 -68 -23z"/>
<path d="M876 548 c-27 -15 -18 -27 18 -21 19 3 49 0 67 -6 39 -13 50 -7 18
10 -36 19 -85 27 -103 17z"/>
<path d="M1220 520 c-14 -11 -49 -25 -77 -31 -29 -7 -53 -16 -53 -21 0 -18
149 28 157 48 9 23 0 24 -27 4z"/>
<path d="M1086 431 c-8 -12 31 -44 47 -38 8 3 32 -3 53 -12 33 -15 60 -40 115
-108 12 -16 71 -17 86 -2 13 13 -49 71 -124 116 -24 14 -43 31 -43 39 0 11
-16 14 -64 14 -36 0 -67 -4 -70 -9z"/>
<path d="M978 404 c-16 -8 -28 -17 -28 -20 0 -3 6 -2 13 2 6 4 -2 -8 -20 -27
-32 -35 -93 -127 -93 -140 0 -5 16 -1 35 7 32 13 38 13 58 -1 33 -23 40 -18
33 20 -5 25 -1 45 14 75 11 22 25 40 30 40 5 0 12 9 15 20 3 11 10 20 14 20 9
0 81 -150 81 -169 0 -7 6 -11 13 -8 22 8 10 65 -28 126 -23 39 -43 61 -55 61
-21 0 -64 -54 -91 -115 -14 -31 -26 -45 -39 -45 -11 0 -20 3 -20 8 0 11 38 72
72 115 35 44 34 51 -4 31z"/>
<path d="M788 356 c-22 -19 -38 -42 -38 -54 0 -24 43 -58 60 -47 15 9 12 41
-5 55 -20 17 -19 30 7 57 31 33 19 28 -24 -11z"/>
<path d="M1191 271 c-9 -6 -5 -14 18 -30 23 -17 31 -19 31 -8 0 21 -33 47 -49
38z"/>
</g>
</svg>
