<svg id="Capa_1" data-name="Capa 1" xmlns="http://www.w3.org/2000/svg" viewBox="0 0 466.15 582.62"><defs><style>.cls-1{fill:#007340;}.cls-2{fill:#fefefe;}</style></defs><title>logo-excel</title><path class="cls-1" d="M2.11,291.54q0-115.73-.1-231.46c0-4.48,1.17-5.82,4.28-6.5Q80.57,37.23,154.83,20.7c29.8-6.63,59.53-13.89,89.42-19.7,10.19-2,20.8-.38,31.22-.51,2.55,0,1.74,2.27,1.75,3.83,0,15.16.15,30.33-.06,45.49-.05,4,.92,4.82,3.87,4.81q79.53-.18,159-.09a48.18,48.18,0,0,1,17,2.76c8.37,3.1,9.51,12,10.08,20.8,1.8,28.11.69,56.3.73,84.45q.18,139.47,0,279c0,18.31,1,36.65-.62,54.94-.25,2.81-.56,5.6-.87,8.4-.88,7.79-4.47,12.53-10.28,14.59a35.53,35.53,0,0,1-11.94,2.09c-54.19,0-108.37.1-162.56,0-3.64,0-4.44,1.27-4.39,5.72.21,17,0,34,.15,51,0,3.45-.59,4.5-3.38,4.43-9.38-.24-18.77.3-28.13-.21-8.57-.47-16.9-3.46-25.34-5.33-26-5.75-51.91-11.72-77.87-17.52q-44.32-9.9-88.66-19.67c-15.73-3.49-31.46-7-47.23-10.31C3.25,528.85,2,527.49,2,522.5Q2.25,407,2.11,291.54Z" transform="translate(-1.99)"/><path class="cls-2" d="M451.7,288q0,104,.08,208c0,4.22-.61,5.57-4.19,5.56q-83.23-.25-166.46,0c-3.36,0-4.07-1.23-4-5.28.23-10.15.23-20.33,0-30.48-.09-4,.56-5.38,4-5.29,11.72.31,23.45,0,35.17.19,2.48,0,3.3-.7,3.26-4.06-.16-13-.18-26,0-39,.06-3.72-1-4.27-3.54-4.23-11.85.17-23.71,0-35.56.14-2.49,0-3.4-.7-3.28-4.08.21-6.15.23-12.33,0-18.48-.14-3.62.51-4.8,3.56-4.74,11.72.27,23.44,0,35.16.21,2.95.06,3.71-.95,3.66-4.69-.19-12.82-.21-25.66,0-38.49.07-4-1-4.58-3.78-4.53-11.72.18-23.45,0-35.17.16-2.71.05-3.58-.83-3.45-4.37.23-6.32.19-12.67,0-19-.08-3,.57-4,3-3.92,12,.17,24,0,36,.16,2.8.05,3.43-1,3.38-4.45q-.24-19.24,0-38.49c0-3.46-.61-4.46-3.4-4.41-11.85.21-23.7,0-35.55.18-2.76.05-3.57-.88-3.44-4.4.23-6.32.22-12.67,0-19-.11-3.22.76-3.83,3.08-3.8,11.85.14,23.7,0,35.56.15,2.72,0,3.83-.47,3.76-4.49-.23-13-.18-26,0-39,0-3.33-.75-4.18-3.27-4.15-11.59.15-23.19-.16-34.77.19-3.75.12-4.55-1.46-4.34-5.81a168.91,168.91,0,0,0,0-17c-.2-4,1-4.63,3.75-4.59,11.72.19,23.45,0,35.17.17,2.69,0,3.52-.79,3.48-4.35-.18-13-.16-26,0-39,0-3.27-.69-4.14-3.23-4.1-12,.17-24,0-35.95.16-2.62,0-3.23-1-3.19-4.17.15-10.66.2-21.33,0-32-.08-3.85.85-4.65,3.71-4.64,37.51.12,75,.08,112.53.08,18.11,0,36.21.11,54.32-.09,3.27,0,4.07,1.15,4.06,5.25Q451.62,184,451.7,288Z" transform="translate(-1.99)"/><path class="cls-2" d="M196.21,400.64c-12.74-1.08-24.81-2.14-36.89-3.1-2-.16-2-2.25-2.5-3.77-8.67-26.42-18.65-52.18-25.17-80.85-2.32,7.7-4.24,14.52-6.42,21.21-6.06,18.51-12.25,37-18.34,55.46-.59,1.8-1,3.12-2.94,3-10.76-.46-21.53-.77-32.38-1.13.15-2.88,1.34-4.73,2.15-6.75q18.36-46.19,36.84-92.27a9.31,9.31,0,0,0-.12-7.4q-17.28-47.89-34.5-95.84c-.37-1-.7-2.08-1.28-3.79,9.48-.67,18.64-1.42,27.81-1.94,7.18-.41,7.21-.3,9.82,8.43,6.84,22.93,14.19,45.62,20.13,70.27,1.36-4.94,2.44-8.92,3.56-12.88,6.49-22.94,14.65-45,21.92-67.54.58-1.81,1.25-3,3-3.17,11-.72,22.08-1.58,33.11-2.4.45,2.22-.57,3.47-1.11,4.88q-19.56,51-39.22,101.88a10.15,10.15,0,0,0,0,8.19q20.52,52.51,40.85,105.16C195,397.49,195.43,398.65,196.21,400.64Z" transform="translate(-1.99)"/><path class="cls-1" d="M377.62,237.48c-11.33,0-22.67-.08-34,.06-2.32,0-3.13-.59-3.1-3.81.16-13.33.14-26.66,0-40,0-3.09.67-3.94,3.07-3.93q34.2.15,68.39,0c2.18,0,2.9.75,2.88,3.64q-.18,20.25,0,40.5c0,2.87-.66,3.61-2.86,3.59C400.55,237.41,389.09,237.49,377.62,237.48Z" transform="translate(-1.99)"/><path class="cls-1" d="M377.3,386.42c-11.07,0-22.14-.11-33.22.06-2.62,0-3.61-.66-3.56-4.33.17-13.16.13-26.33,0-39.5,0-2.94.51-4,3-4q34.2.18,68.39,0c2.12,0,3,.61,2.94,3.58-.12,13.49-.14,27,0,40.49,0,3.31-1,3.79-3.19,3.76C400.23,386.36,388.76,386.42,377.3,386.42Z" transform="translate(-1.99)"/><path class="cls-1" d="M378,115.51c11.06,0,22.12.1,33.18-.08,2.69,0,3.83.41,3.76,4.46-.25,13-.18,26,0,39,0,3.3-.72,4.13-3.25,4.11q-33.78-.18-67.55,0c-2.57,0-3.62-.56-3.57-4.27.19-13.15.17-26.31,0-39.46,0-3.22.78-3.82,3.09-3.79C355.06,115.59,366.51,115.51,378,115.51Z" transform="translate(-1.99)"/><path class="cls-1" d="M377.7,311.73c-11.31,0-22.63-.1-33.94.07-2.57,0-3.27-.9-3.23-4.16q.21-19.71,0-39.43c0-3.16.73-3.85,3.07-3.84q34.14.17,68.28,0c2.43,0,3,.81,3,3.87q-.21,19.72,0,39.44c0,3.28-.7,4.16-3.23,4.12C400.33,311.63,389,311.73,377.7,311.73Z" transform="translate(-1.99)"/><path class="cls-1" d="M378,413.4c11.2,0,22.4.09,33.6-.08,2.5,0,3.3.73,3.26,4.08q-.22,19.74,0,39.49c0,3.2-.77,3.81-3.08,3.8q-34.18-.17-68.38,0c-2.14,0-2.91-.62-2.88-3.55.11-13.33.13-26.66,0-40,0-3.22.81-3.83,3.12-3.8C355.1,413.47,366.56,413.4,378,413.4Z" transform="translate(-1.99)"/></svg>