<svg id="Capa_1" data-name="Capa 1" xmlns="http://www.w3.org/2000/svg" viewBox="0 0 14.56 17"><title>abono-ico-negro</title><path d="M15.3,16.77c-.19,0-.37-.08-.56-.1a.36.36,0,0,1-.32-.26,1.55,1.55,0,0,1-.08-.23,11.8,11.8,0,0,1-.29-1.78h0a22.31,22.31,0,0,1-.52-10,.15.15,0,0,0,.11,0,.28.28,0,0,1,0-.09,3.05,3.05,0,0,1,.65-1.44A4.82,4.82,0,0,0,15.19.42c0-.13,0-.17-.14-.15l-.48,0c-1.81.14-3.63.23-5.45.26S5.43.53,3.58.42C2.8.38,2,.32,1.25.26c-.1,0-.18,0-.16.14a6.83,6.83,0,0,0,.28,1.25,7.08,7.08,0,0,0,.83,1.5,2.39,2.39,0,0,1,.47,1.14v0h0a22.35,22.35,0,0,1-.32,10.11c-.07,0-.12,0-.13.12,0,.34-.08.67-.13,1a5.9,5.9,0,0,1-.2.83.4.4,0,0,1-.36.31,5.12,5.12,0,0,0-.54.1c-.13,0-.15.09-.1.2a.45.45,0,0,0,.46.28H1.9c3.81,0,7.62,0,11.43,0h1.56A.49.49,0,0,0,15.4,17C15.45,16.87,15.44,16.8,15.3,16.77ZM11.72,2.64c0-.1,0-.15.14-.14h.42c.14,0,.28,0,.33.18s0,.28-.17.38a.77.77,0,0,1,.16.22c0,.07.15.16,0,.21s-.23.07-.31-.07-.1-.16-.14-.24a.11.11,0,0,0-.1-.07c-.06,0,0,.07,0,.11a.17.17,0,0,0,0,.1c0,.11,0,.19-.16.19s-.17-.06-.16-.18Zm-.87-.14h.57c.09,0,.13,0,.12.12s0,.11-.12.11h-.3s-.09,0-.09.08,0,.06.09.07h.26c.08,0,.13,0,.13.1s0,.11-.12.11h-.27c-.07,0-.09,0-.09.1s0,.08.09.08h.32c.1,0,.12,0,.12.13s0,.12-.12.11h-.3c-.43,0-.43,0-.43-.42,0-.16,0-.31,0-.46S10.75,2.5,10.85,2.5Zm-.73.23H9.8c-.07,0-.11,0-.12-.11s0-.12.13-.12h.55c.06,0,.16,0,.19,0a.23.23,0,0,1-.08.25c-.15.14-.28.3-.43.46a1.43,1.43,0,0,0,.4,0c.08,0,.14,0,.14.11s-.05.11-.13.11H9.81c-.06,0-.14,0-.17,0a.2.2,0,0,1,0-.24l.48-.43Zm-.94-.1c0-.11,0-.14.15-.13s.17,0,.16.14,0,.24,0,.37,0,.23,0,.35,0,.16-.15.16-.17,0-.16-.16S9.19,2.87,9.18,2.63Zm-.8-.13c.1,0,.19,0,.18.14s0,.32,0,.48,0,.15.14.14h.2c.09,0,.14,0,.14.12s0,.14-.14.13H8.38c-.11,0-.15,0-.14-.14V2.65C8.23,2.54,8.26,2.49,8.38,2.5Zm-.51,0c.11,0,.16,0,.16.15s0,.48,0,.72-.06.15-.16.14-.18,0-.17-.14,0-.25,0-.38,0-.23,0-.34S7.75,2.5,7.87,2.5ZM6.8,2.5h.62c.1,0,.15,0,.15.14s-.06.13-.15.12-.19.05-.18.19,0,.29,0,.44-.08.12-.16.12-.17,0-.16-.12,0-.32,0-.47,0-.17-.14-.16-.18,0-.18-.13S6.71,2.5,6.8,2.5Zm-1.07,0h.51a.26.26,0,0,1,.27.18A.28.28,0,0,1,6.4,3l-.06,0a.89.89,0,0,1,.21.33c0,.08,0,.11-.07.11s-.27,0-.31-.16a.3.3,0,0,0,0-.08S6.07,3.1,6,3.13s-.05.12,0,.19,0,.21-.2.19-.12,0-.12-.13V2.62C5.62,2.54,5.64,2.5,5.73,2.5Zm-1.09,0c.11-.11.32,0,.48,0h.21c.08,0,.11,0,.11.12a.1.1,0,0,1-.11.11H5.07c-.06,0-.13,0-.13.07s.07.07.12.08h.23c.08,0,.12,0,.11.11s0,.1-.1.1H5c-.06,0-.1,0-.1.09s0,.09.1.09h.3c.08,0,.13,0,.13.12s0,.12-.12.12h-.6c-.1,0-.13,0-.13-.12V3C4.62,2.84,4.55,2.63,4.64,2.54Zm-.93,0c.1-.11.3,0,.46,0h.18c.08,0,.1,0,.1.13s0,.1-.1.1H4.1A.08.08,0,0,0,4,2.82a.07.07,0,0,0,.08.07h.2c.07,0,.09,0,.09.1s0,.11-.1.11,0,0-.07,0-.23,0-.2.21,0,.21-.18.21-.16,0-.15-.17V3C3.69,2.84,3.61,2.64,3.71,2.54Zm9.19,11.9c-.54.29-.11.49-.7.64a16.56,16.56,0,0,1-4.44.47,18.31,18.31,0,0,1-2.55-.23c-1-.16-.89-.4-1.76-.85a22.42,22.42,0,0,0,.35-10h8.6a22.6,22.6,0,0,0,.52,10Z" transform="translate(-0.86 -0.26)"/><path d="M6.9,7.66c.06,0,.1-.11.17-.11A3.17,3.17,0,0,1,8.16,8.89c.06.13.1.18.21,0a1.27,1.27,0,0,1,.41-.31c.11,0,.13.08.19.13a.09.09,0,0,1,0,.12,2,2,0,0,0-.53.48.21.21,0,0,0-.05.2,7.13,7.13,0,0,1,.3,1.77s0,0,0,.08a3.68,3.68,0,0,1,1-1.22c.14,0,.13.12.2.15a.11.11,0,0,1,0,.13,2.68,2.68,0,0,0-1.17,2.25v.7c0,.1,0,.13-.13.14-.43,0-.43,0-.44-.41A2.84,2.84,0,0,0,8,12a1.13,1.13,0,0,0-.68-.64s0-.07,0-.1.08-.17.2-.16a1.9,1.9,0,0,1,.77.6s.05,0,.05-.06A6.73,6.73,0,0,0,7.85,9a3.11,3.11,0,0,0-1-1.24v0C6.81,7.67,6.86,7.66,6.9,7.66Z" transform="translate(-0.86 -0.26)"/><path d="M12,9.1a3.26,3.26,0,0,0-1.23-.22,1.08,1.08,0,0,0-.65.19,1,1,0,0,0-.39,1.11c.1,0,.08.15.17.18a1.37,1.37,0,0,1,1-1,.77.77,0,0,1,.48-.09c0,.09-.12.08-.18.1a2,2,0,0,0-1,.6.69.69,0,0,0-.15.48,1,1,0,0,0,1.25-.19c.09-.11.16-.23.25-.35a3.3,3.3,0,0,1,.51-.67C12.14,9.17,12.12,9.13,12,9.1Z" transform="translate(-0.86 -0.26)"/><path d="M7.57,11a.88.88,0,0,0-.7-1,2.42,2.42,0,0,0-1.38.17c-.09,0-.09.06,0,.12A4.36,4.36,0,0,1,6,11c.13.18.24.41.47.46a1.1,1.1,0,0,0,.81-.1.77.77,0,0,0-.39-.66,2.22,2.22,0,0,0-.66-.31c-.06,0-.2,0-.17-.09s.14,0,.2,0a1.81,1.81,0,0,1,.89.48.8.8,0,0,1,.23.5h0l.18-.18Z" transform="translate(-0.86 -0.26)"/><path d="M10.63,7.75A2.31,2.31,0,0,0,9.47,7.6a.74.74,0,0,0-.66.6,3,3,0,0,0,0,.42c.08,0,.09.12.16.14a1.23,1.23,0,0,1,1.24-.84,4.2,4.2,0,0,0-.6.21,1.12,1.12,0,0,0-.47.42.33.33,0,0,0,0,.32c.54.16.79.11,1.05-.28a3.88,3.88,0,0,1,.55-.73C10.75,7.8,10.69,7.77,10.63,7.75Z" transform="translate(-0.86 -0.26)"/><path d="M6.32,5.88a2.86,2.86,0,0,0-1.3,0,4.15,4.15,0,0,0-.87.27,4.4,4.4,0,0,1,.46.52,9.59,9.59,0,0,0,.69,1,.76.76,0,0,0,.6.28,2.4,2.4,0,0,0,.92-.15l0,0v0l0,0C6.62,6.88,6,6.6,5.21,6.39H5.12s-.07,0-.06-.07a.06.06,0,0,1,.08,0A2.2,2.2,0,0,1,6.82,7.34a.72.72,0,0,1,.08.32h0c.08,0,.13,0,.17-.12a.17.17,0,0,1,0-.12A1.21,1.21,0,0,0,6.32,5.88Z" transform="translate(-0.86 -0.26)"/><path d="M12.17,2.91c-.08,0-.14,0-.14-.09s0-.12.11-.11.16,0,.16.09S12.22,2.9,12.17,2.91Z" transform="translate(-0.86 -0.26)"/><path d="M6,2.91s-.1,0-.1-.1,0-.11.12-.11.16,0,.16.11S6.13,2.91,6,2.91Z" transform="translate(-0.86 -0.26)"/></svg>