<svg id="Capa_1" data-name="Capa 1" xmlns="http://www.w3.org/2000/svg" viewBox="0 0 14.19 17"><title>grano-cafe-ico-negro</title><path d="M9.22,9a9.81,9.81,0,0,0-.88-.84A6.78,6.78,0,0,0,7,7.29c-.11,0-.16-.1-.14-.23a6.4,6.4,0,0,1,3.07-4.9,3.2,3.2,0,0,1,.82-.33c.15,0,.29-.05.4.09a.33.33,0,0,1,0,.4,2.86,2.86,0,0,0-.28,1.29c0,.42,0,.83,0,1.25a2.19,2.19,0,0,1-.61,1.47,5.14,5.14,0,0,0-.68.91,2.44,2.44,0,0,0-.32,1.3C9.23,8.68,9.22,8.82,9.22,9Z" transform="translate(-2.22 -1.81)"/><path d="M10.2,11.52A6.39,6.39,0,0,0,8,8.38a5.28,5.28,0,0,0-3-1.22A2.46,2.46,0,0,0,2.77,8c-.19.21-.18.35,0,.55A2,2,0,0,0,3.65,9c.43.12.86.18,1.29.27a2.86,2.86,0,0,1,2,1.28c.14.22.26.45.39.67a.16.16,0,0,0,.08.14.4.4,0,0,0,.1.18h0l0,.05h0a1.65,1.65,0,0,0,.71.7,7.34,7.34,0,0,1,.82.48c.11.09.17.1.26,0a5.53,5.53,0,0,1,.78-1A.24.24,0,0,0,10.2,11.52Z" transform="translate(-2.22 -1.81)"/><path d="M16.4,12.66a2.48,2.48,0,0,0-.91-1.81c-.3-.26-.38-.27-.59-.13l-.09.09a.34.34,0,0,0-.13.18.3.3,0,0,0-.1.17h0l-.08.19a.88.88,0,0,0-.05.15A9.72,9.72,0,0,0,14.27,13a2.94,2.94,0,0,1-.93,2.07,9.69,9.69,0,0,1-.92.66,2.23,2.23,0,0,0-.89,1.14,4,4,0,0,1-.82,1.38.31.31,0,0,0,.23.54,3.24,3.24,0,0,0,1.12-.12A6.11,6.11,0,0,0,15.45,16,5.28,5.28,0,0,0,16.4,12.66Z" transform="translate(-2.22 -1.81)"/><path d="M13.86,4.18A2.8,2.8,0,0,0,12.6,2.07c-.64-.4-.89-.28-1,.47A4.1,4.1,0,0,0,11.66,4a3.75,3.75,0,0,1-.12,2.1,4,4,0,0,1-.92,1.2A2.44,2.44,0,0,0,9.9,8.84c0,.28-.19.56-.14.81a2.65,2.65,0,0,0,.42.72c.14.26.14.26.41.12a.71.71,0,0,0,.32-.17h0a2.24,2.24,0,0,0,.63-.42,3.56,3.56,0,0,0,.78-.77,2.88,2.88,0,0,0,.45-.59A6.27,6.27,0,0,0,13.86,4.18Z" transform="translate(-2.22 -1.81)"/><path d="M14.28,10.52a.31.31,0,0,0-.31-.18,3.46,3.46,0,0,0-1.35.27s-.1,0-.13.05a.72.72,0,0,0-.28.13.8.8,0,0,0-.35.19l-.27.16h0a2.5,2.5,0,0,0-.64.48,5.6,5.6,0,0,0-1.12,1.21,5.49,5.49,0,0,0-1.15,3.62A2.42,2.42,0,0,0,9.9,18.52c.16.09.27.08.37-.09a5.07,5.07,0,0,0,.59-1.73,2.48,2.48,0,0,1,.87-1.59,4.18,4.18,0,0,1,.57-.45,2.4,2.4,0,0,0,1.06-1.57,9.6,9.6,0,0,1,.5-1.74.2.2,0,0,0,.09-.13h0a2.88,2.88,0,0,1,.26-.35A.3.3,0,0,0,14.28,10.52Z" transform="translate(-2.22 -1.81)"/><path d="M8.84,13.28c-.21-.06-.41-.15-.62-.2a2.49,2.49,0,0,1-1.41-.94c-.12-.15-.22-.32-.34-.48a3,3,0,0,0-.55-.82h0a.77.77,0,0,0-.28-.26,1.86,1.86,0,0,0-.5-.27h0l-.68-.26a3.76,3.76,0,0,1-1.71-1,.3.3,0,0,0-.51.2,3.38,3.38,0,0,0,.09,1.23h0a1.44,1.44,0,0,0,.18.6h0a.34.34,0,0,0,.08.23.55.55,0,0,0,.1.22h0a.1.1,0,0,0,0,.09,6.6,6.6,0,0,0,3,3,4.44,4.44,0,0,0,2.43.52c.12,0,.18,0,.21-.17a5.75,5.75,0,0,1,.56-1.53C9,13.39,9,13.32,8.84,13.28Z" transform="translate(-2.22 -1.81)"/></svg>