<svg id="Capa_1" data-name="Capa 1" xmlns="http://www.w3.org/2000/svg" viewBox="0 0 763.72 939"><defs><style>.cls-1{opacity:0.19;}.cls-2{fill:#ff2116;}.cls-3{fill:#f5f5f5;}.cls-4{fill:#2c2c2c;}.cls-5{font-size:120px;fill:#ffb1aa;stroke:red;stroke-miterlimit:10;stroke-width:4px;font-family:MyriadPro-Regular, Myriad Pro;}.cls-6{letter-spacing:-0.01em;}.cls-7{letter-spacing:0em;}.cls-8{letter-spacing:-0.01em;}</style></defs><title>pdf_trasnparent_no</title><g id="layer1" class="cls-1"><g id="g899"><g id="g876"><path id="path890" class="cls-2" d="M99.65,0a97.16,97.16,0,0,0-97,97V842a97.12,97.12,0,0,0,97,97H669.31a97.12,97.12,0,0,0,97-97V229.4A80.1,80.1,0,0,0,760,194a97.92,97.92,0,0,0-19.18-27.75h0L599.41,27.51l-.25-.22A110.78,110.78,0,0,0,569.22,8.12,109.07,109.07,0,0,0,526.29,0H99.65Z" transform="translate(-2.67)"/><path id="rect2684" class="cls-3" d="M99.65,31.87H527.08a91.88,91.88,0,0,1,29.58,5.51,82.06,82.06,0,0,1,20.61,13h0l141,138.33a76.82,76.82,0,0,1,12.63,18.17A68.67,68.67,0,0,1,734.45,228a3.86,3.86,0,0,1,0,.68V842a64.61,64.61,0,0,1-64.06,65.14H99.65A64.64,64.64,0,0,1,34.54,843c0-.33,0-.65,0-1V97A64.63,64.63,0,0,1,98.68,31.87Z" transform="translate(-2.67)"/><path id="path2697" class="cls-2" d="M193.33,559.07c-21.92-21.93,1.79-52.05,66.18-84L300,454.91l15.82-34.52c8.65-19,21.46-50.08,28.61-68.86l13-34.34-9-25.4c-10.88-31.23-14.81-78.16-7.8-95.05,9.48-22.89,40.49-20.53,52.76,4,9.59,19.14,8.62,53.66-2.75,97.52L381.35,334,389.58,348a488.3,488.3,0,0,0,29.29,40.46l21.82,27.11,27.15-3.58c86.21-11.23,115.76,7.87,115.76,35.31,0,34.59-67.71,37.45-124.56-2.47a173,173,0,0,1-21.46-17.88s-35.77,7.15-53.15,12c-18.1,4.86-27.16,7.94-53.66,16.88,0,0-9.3,13.49-15.38,23.33-22.54,36.56-48.87,66.82-67.68,77.84C226.53,569.34,204.46,570.2,193.33,559.07Zm34.42-12.3c12.34-7.59,37.27-37.1,54.55-64.39l7.15-11.09-31.83,16c-49.15,24.72-71.55,48-60,62.1,6.58,7.91,14.31,7.16,30.27-2.54Zm319.36-89.43c12.06-8.44,10.31-25.47-3.32-32.2-10.73-5.33-19.18-6.44-46.72-6-16.92,1.15-44.14,4.55-48.76,5.58,0,0,15,10.34,21.47,14.31a282.63,282.63,0,0,0,46.11,18.85c15.48,4.73,24.43,4.23,31.22-.6ZM418.69,404a317.72,317.72,0,0,1-27.58-35.6,197.49,197.49,0,0,1-15.41-23s-7.55,24.18-13.7,38.74l-19.25,47.58-5.58,10.73s29.66-9.73,44.75-13.7c16-4.15,48.44-10.55,48.44-10.55ZM377.31,237.84c1.86-15.63,2.64-31.22-2.36-39.09-13.92-15.21-30.73-2.51-27.87,33.66a247.55,247.55,0,0,0,8,45.78l7.37,23.29L367.61,284A450.06,450.06,0,0,0,377.31,237.84Z" transform="translate(-2.67)"/><g id="g858"><path id="path845" class="cls-4" d="M230.64,660.59h35.78a96.47,96.47,0,0,1,27.68,3.29A32.22,32.22,0,0,1,312,678.19a46.48,46.48,0,0,1,7.15,26.44,48,48,0,0,1-5.86,24.43,34.62,34.62,0,0,1-15.92,14.74c-6.58,3-16.78,4.54-30.55,4.54H254.43v56.12H230.64ZM254.43,679v50.08h11.81q15.76,0,21.78-5.9T294.14,704a28.75,28.75,0,0,0-4-16,16.38,16.38,0,0,0-8.83-7.59,55,55,0,0,0-15.06-1.5Z" transform="translate(-2.67)"/><path id="path847" class="cls-4" d="M337.31,660.59h32.2q23.43,0,37.49,8.34a51.65,51.65,0,0,1,21.25,24.75,88.79,88.79,0,0,1,7.15,36.41,101.36,101.36,0,0,1-6.51,37.6,59.67,59.67,0,0,1-19.82,26.54q-13.27,10.13-37.88,10.13H337.31Zm23.79,19.07V785.29h10q20.78,0,30.12-14.31t9.23-38.45q0-52.87-39.35-52.87Z" transform="translate(-2.67)"/><path id="path849" class="cls-4" d="M458.51,660.59h79.84v19.07h-56v42.92h44.86v19.07H482.33v62.67H458.51Z" transform="translate(-2.67)"/></g></g></g></g><text class="cls-5" transform="matrix(0.59, -0.81, 0.81, 0.59, 124.92, 890.02)">No h<tspan class="cls-6" x="236.88" y="0">a</tspan><tspan x="293.76" y="0">y PDF pa</tspan><tspan class="cls-7" x="729.47" y="0">r</tspan><tspan x="768.11" y="0">a </tspan><tspan class="cls-8" x="851.39" y="0">v</tspan><tspan x="907.91" y="0">er</tspan></text></svg>