<svg id="Capa_1" data-name="Capa 1" xmlns="http://www.w3.org/2000/svg" viewBox="0 0 862.77 1059"><defs><style>.cls-1{fill:#c0c7d1;}</style></defs><title>palana-ico</title><path class="cls-1" d="M970.19,199.46q-35.72-25.07-71.61-49.89Q800,81.13,701.41,12.71C690.93,5.44,680.1.8,668.83,10.54c-8.05,7-12.86,16.11-15.1,26.65-13.57,63.75-.27,122.73,32.21,178,4.28,7.27,4.92,10.9-.56,18.13-15.69,20.68-29.73,42.6-44.6,63.92Q564.6,406.52,488.3,515.71c-4.9,7.37,0,11.49,5.23,15.34,22.17,16.43,45.32,31.46,67.88,47.34,4,2.83,8.43,6.82,14.05,2.64,62.45-90.13,125.28-180,187-270.62,11-16.17,20.5-27.1,41.53-17.79,6.26,2.77,14.37,1.68,21.64,1.84,52.68,1.12,102.4-9,145.69-40.82C994.6,236.53,993.79,216,970.19,199.46Zm-188.52,24C739,197.75,708,164.85,711.48,107.08L889.54,230.67C850.89,251.57,815.89,244.13,781.67,223.5Z" transform="translate(-125.57 -5)"/><path class="cls-1" d="M645.25,805.41c-2.68-10.89-10-17.78-18.72-23.86q-41.78-29.07-83.47-58.26v0l-2.63-1.81-30.16-21.09-.12.13,0,0-59.64,83.26A25.9,25.9,0,0,1,435,796.22l-70.24,4.17c-14,.68-17.81-2-21.58-15.34L324,717.35a25.89,25.89,0,0,1,6.71-18.66l58.6-81.79-23.08-16-.21.32c-28.35-20.2-56.66-40.44-86.1-58.9-22-13.78-46.07,3.58-44.65,29.7.36,6.74-1.3,11.86-4.68,17.36-25.52,41.61-48.76,84.81-76.78,124.65C129,749.37,123,786.94,126.46,827.89c.69,8.28,1.13,16.6,2.15,24.85,7.6,61.51,18.87,122.09,43.55,179.54,9.11,21.21,23.88,30.94,46.83,31.51,80.92,2,159.34-10.9,235.67-37.44,25.84-9,46.12-24.39,62.13-47,29.41-41.59,58.37-83.47,86.29-126.07,4.62-7,9-10.89,18.1-11.69C639.39,840,649.62,823.17,645.25,805.41Z" transform="translate(-125.57 -5)"/><path class="cls-1" d="M443.25,776.84,563,609.61c4.7-6.56,4.19-15-1.14-18.79l-82.83-59.33c-5.33-3.82-13.46-1.6-18.16,5L340.83,704.08a22.09,22.09,0,0,0-5.75,16L351.47,778c3.22,11.38,6.47,13.71,18.47,13.12L430,787.52A22.15,22.15,0,0,0,443.25,776.84Z" transform="translate(-125.57 -5)"/></svg>