<svg id="Capa_1" data-name="Capa 1" xmlns="http://www.w3.org/2000/svg" viewBox="0 0 24.04 12.65"><defs><style>.cls-1{fill:#c2c7d0;}.cls-2{fill:#fefefe;}.cls-3{fill:#fdfdfd;}</style></defs><title>fierro-ico</title><path class="cls-1" d="M24,6.84,21.78,5.73,20.72,5.2l0,0,.68-.33a.49.49,0,0,0,.29-.59,1.14,1.14,0,0,0-.49-.75.68.68,0,0,0-.78-.07c-.51.27-1,.52-1.54.77a.22.22,0,0,1-.22,0l-1.52-.75L16,2.87l.73-.36A.47.47,0,0,0,17,2a1.13,1.13,0,0,0-.65-.9.6.6,0,0,0-.58,0l-1.53.76a.31.31,0,0,1-.32,0L11.05.43a.58.58,0,0,0-.48,0,1.14,1.14,0,0,0-.73.92.45.45,0,0,0,.3.55l1.51.75.52.26L9.49,4.19a.26.26,0,0,1-.27,0L6.31,2.75a.55.55,0,0,0-.47,0,1.13,1.13,0,0,0-.74.89.48.48,0,0,0,.31.59l1.25.61.78.39-.05,0L4.74,6.54a.2.2,0,0,1-.21,0L1.59,5.08a.59.59,0,0,0-.5,0A1.15,1.15,0,0,0,.35,6a.46.46,0,0,0,.29.52l1.28.63.79.39a.5.5,0,0,0-.26.56A1.17,1.17,0,0,0,3,8.89a.67.67,0,0,0,.73,0c.26-.14.54-.26.81-.4a.2.2,0,0,1,.21,0l2,1,.74.37a.49.49,0,0,0-.24.58,1.15,1.15,0,0,0,.47.73.69.69,0,0,0,.82.06c.25-.14.51-.25.76-.38a.2.2,0,0,1,.21,0l4.18,2.07a.64.64,0,0,0,.68,0,1.12,1.12,0,0,0,.54-.7.53.53,0,0,0-.31-.72c-.73-.34-1.46-.71-2.19-1.07l-1.08-.54,0,0L14,8.5a.15.15,0,0,1,.16,0l.81.4,3.41,1.68a.59.59,0,0,0,.53.05,1.14,1.14,0,0,0,.71-.84.51.51,0,0,0-.32-.64L16.1,7.58s-.09,0-.09-.07l2.72-1.34a.18.18,0,0,1,.16,0l1.05.52,3.22,1.59a.59.59,0,0,0,.55,0,1.16,1.16,0,0,0,.64-.79A.5.5,0,0,0,24,6.84ZM11.39,7.91l-1.94,1a.17.17,0,0,1-.19,0L6.59,7.55l0,0L9.29,6.17a.12.12,0,0,1,.13,0l2.7,1.34,0,0Zm4.1-2-1.31.65c-.06,0-.1,0-.18,0L11.26,5.2,13,4.32l1-.47a.15.15,0,0,1,.16,0l2.67,1.32.06,0Z" transform="translate(-0.34 -0.35)"/><path class="cls-2" d="M6.18,6.09l.62-.31a.41.41,0,0,1,.4,0,.92.92,0,0,1,.25.23c.06.07.12.11.2.05s0-.14,0-.21a1.31,1.31,0,0,0-.4-.33l.64-.32a.38.38,0,0,1,.34,0,1.06,1.06,0,0,1,.3.26c.05.06.1.09.17,0a.13.13,0,0,0,0-.2,1.14,1.14,0,0,0-.43-.34l.67-.33a.33.33,0,0,1,.26,0A1,1,0,0,1,9.55,5c0,.06.12.09.18,0s0-.12,0-.19a1.37,1.37,0,0,0-.43-.35A5.64,5.64,0,0,1,10,4.21c.14,0,.26,0,.37.12a1.7,1.7,0,0,1,.19.19c.06.06.12.1.19,0s0-.14,0-.21A1.19,1.19,0,0,0,10.35,4c.23-.11.43-.22.64-.31s.32,0,.46.11a1.53,1.53,0,0,1,.18.18c.06.06.12.09.18,0s0-.13,0-.19a1.55,1.55,0,0,0-.41-.34c.24-.11.46-.23.69-.33a.4.4,0,0,1,.38.12,1.19,1.19,0,0,1,.2.19c.06.06.12.09.19,0s0-.13,0-.19A1.18,1.18,0,0,0,12.47,3a3.45,3.45,0,0,1,.63-.33.33.33,0,0,1,.32,0,.83.83,0,0,1,.3.26.12.12,0,0,0,.18,0,.13.13,0,0,0,0-.19,1.31,1.31,0,0,0-.42-.34c.25-.12.47-.24.71-.33a.38.38,0,0,1,.29.06,1,1,0,0,1,.26.23c.06.07.12.11.2.05s0-.14,0-.21a1.07,1.07,0,0,0-.4-.31c.24-.12.46-.24.68-.33a.4.4,0,0,1,.4.11l.2.19c0,.06.11.09.18,0s.05-.12,0-.19a1.16,1.16,0,0,0-.39-.31c.39-.26.53-.33.89,0a.9.9,0,0,1,.27.47.26.26,0,0,1-.16.34L4.72,8.16l-.87.43a1.26,1.26,0,0,0-.68-1,4.75,4.75,0,0,1,.58-.26c.16-.06.3.05.42.14s.12.12.18.18a.12.12,0,0,0,.18,0,.11.11,0,0,0,0-.17,1.15,1.15,0,0,0-.44-.37l.67-.33a.35.35,0,0,1,.31,0,1.1,1.1,0,0,1,.31.26c0,.07.12.1.19,0s0-.13,0-.19a1.45,1.45,0,0,0-.42-.35c.23-.11.45-.23.67-.32s.3,0,.42.12a1.7,1.7,0,0,1,.19.19c.06.06.11.1.18,0a.11.11,0,0,0,0-.18A1.09,1.09,0,0,0,6.18,6.09Z" transform="translate(-0.34 -0.35)"/><path class="cls-2" d="M9.88,8.92l.56-.27a.43.43,0,0,1,.47,0,1,1,0,0,1,.26.24c.05.06.11.08.17,0a.11.11,0,0,0,0-.18,1.38,1.38,0,0,0-.45-.36c.26-.12.48-.24.72-.34a.39.39,0,0,1,.33.1.83.83,0,0,1,.22.2c.06.08.13.13.21.06s0-.15,0-.22a1.2,1.2,0,0,0-.4-.32,4.88,4.88,0,0,1,.71-.32c.21-.07.38.1.52.24s.13.2.24.1,0-.19-.07-.26A1.09,1.09,0,0,0,13,7.38l.65-.32a.39.39,0,0,1,.36.06.85.85,0,0,1,.26.24c.06.07.12.09.19,0s0-.12,0-.19a1.45,1.45,0,0,0-.42-.34,4.88,4.88,0,0,1,.71-.32c.21-.07.37.1.52.24s.12.19.23.1,0-.19-.06-.26a1.21,1.21,0,0,0-.35-.27L15.75,6a.38.38,0,0,1,.37.07,1,1,0,0,1,.24.22c.05.06.12.11.2,0s0-.14,0-.2a1.44,1.44,0,0,0-.4-.33l.67-.32c.13-.06.24,0,.35.07a1,1,0,0,1,.25.22c.05.08.11.1.18,0s.06-.13,0-.2a1.31,1.31,0,0,0-.4-.33A5.67,5.67,0,0,1,17.85,5c.2-.08.35.06.49.17a1.79,1.79,0,0,1,.13.14.12.12,0,1,0,.18-.15,1.18,1.18,0,0,0-.43-.36c.24-.11.46-.23.69-.32s.28,0,.4.12a1.07,1.07,0,0,1,.19.18.12.12,0,0,0,.18,0,.12.12,0,0,0,0-.18,1.15,1.15,0,0,0-.41-.34L19.94,4a.32.32,0,0,1,.28,0,.83.83,0,0,1,.32.27.11.11,0,0,0,.18,0q.09-.08,0-.18a1.23,1.23,0,0,0-.42-.34c.25-.09.43-.31.7-.14a.89.89,0,0,1,.49.78c0,.11-.07.17-.16.21L18.18,6.18,13,8.72,8.65,10.88l-.06,0a1.28,1.28,0,0,0-.67-1l.52-.25a.36.36,0,0,1,.32,0,1.08,1.08,0,0,1,.32.28c.05.06.11.09.18,0s.06-.12,0-.19a1.35,1.35,0,0,0-.43-.35l.64-.32a.34.34,0,0,1,.31,0,.94.94,0,0,1,.32.27c.06.07.12.1.19,0s0-.13,0-.19A1.33,1.33,0,0,0,9.88,8.92Z" transform="translate(-0.34 -0.35)"/><path class="cls-2" d="M21.68,6a1.28,1.28,0,0,0-.42.34c-.05.07-.07.14,0,.2s.13,0,.19,0l.18-.18a.45.45,0,0,1,.57-.06c.16.1.34.17.52.26a1.43,1.43,0,0,0-.42.35c-.05.07-.07.14,0,.19s.13,0,.19,0a1.62,1.62,0,0,1,.19-.18.43.43,0,0,1,.57-.06l.38.19c-.49.39-.62.6-.65,1L19.07,6,20,5.56l.31-.15c.17-.08.17-.08.36,0a1.55,1.55,0,0,0-.39.32c0,.07-.11.14,0,.22s.15,0,.21-.06a1,1,0,0,1,.22-.2.42.42,0,0,1,.5,0Z" transform="translate(-0.34 -0.35)"/><path class="cls-2" d="M18,8.78a1.44,1.44,0,0,0-.4.33c-.06.07-.1.14,0,.22s.14,0,.2-.06l.18-.18A.47.47,0,0,1,18.5,9a3.73,3.73,0,0,0,.4.2,1.27,1.27,0,0,0-.66,1L14.36,8.34a1.66,1.66,0,0,1,.32-.17l.89-.44a.23.23,0,0,1,.31,0,1.35,1.35,0,0,0-.37.3c-.06.07-.12.15,0,.23s.15,0,.21-.07A1.66,1.66,0,0,1,15.88,8a.45.45,0,0,1,.53,0,5.23,5.23,0,0,0,.53.26,1.45,1.45,0,0,0-.42.35c0,.06-.07.11,0,.17s.13.07.19,0a1,1,0,0,1,.39-.31.36.36,0,0,1,.27,0Z" transform="translate(-0.34 -0.35)"/><path class="cls-2" d="M12.2,10.59a1.28,1.28,0,0,0-.42.34c0,.07-.08.14,0,.2s.15,0,.2-.05a1.1,1.1,0,0,1,.25-.23.42.42,0,0,1,.47,0l.55.27a1.52,1.52,0,0,0-.39.32c-.06.07-.13.14,0,.22s.15,0,.21-.07a.77.77,0,0,1,.19-.17.44.44,0,0,1,.53-.05c.13.08.26.13.41.21a1.23,1.23,0,0,0-.66,1L9.63,10.67,10.94,10c.08,0,.13,0,.21.05a1.47,1.47,0,0,0-.4.34c-.06.07-.09.14,0,.2s.14,0,.2,0a.8.8,0,0,1,.23-.22.42.42,0,0,1,.48,0C11.82,10.42,12,10.49,12.2,10.59Z" transform="translate(-0.34 -0.35)"/><path class="cls-2" d="M14.36,3.67,15.66,3s.07,0,.1,0l.7.35a1.47,1.47,0,0,0-.4.33c0,.07-.08.14,0,.2s.13,0,.19,0a.71.71,0,0,1,.15-.15.45.45,0,0,1,.6-.08c.16.09.33.16.51.25a2.72,2.72,0,0,0-.32.25l-.09.1c-.05.06-.07.13,0,.19s.12,0,.17,0a1.13,1.13,0,0,1,.26-.23.41.41,0,0,1,.47,0c.16.09.33.16.5.24,0,.06-.05,0-.07.07L17.25,5a.18.18,0,0,1-.16,0L14.4,3.7Z" transform="translate(-0.34 -0.35)"/><path class="cls-2" d="M12.77,6.21a1.28,1.28,0,0,0-.4.32c-.06.07-.1.14,0,.21s.14,0,.19-.06a1.21,1.21,0,0,1,.24-.21.41.41,0,0,1,.47,0l.55.27-1.31.64a.13.13,0,0,1-.12,0L9.65,6c0-.06.06-.06.09-.07l1.16-.58a.21.21,0,0,1,.19,0l.63.32a1.44,1.44,0,0,0-.4.33c-.06.07-.09.14,0,.2s.14,0,.19,0A.77.77,0,0,1,11.68,6a.45.45,0,0,1,.56-.06C12.4,6,12.58,6.11,12.77,6.21Z" transform="translate(-0.34 -0.35)"/><path class="cls-2" d="M4.9,8.34l1.32-.66s.07,0,.1,0L7,8a1.27,1.27,0,0,0-.41.35c-.05.06-.07.13,0,.18a.12.12,0,0,0,.19,0,1.7,1.7,0,0,1,.19-.19.47.47,0,0,1,.57-.05c.15.09.33.16.51.25a1.4,1.4,0,0,0-.39.33c-.06.07-.11.14,0,.21s.14,0,.19-.05a.82.82,0,0,1,.26-.23.42.42,0,0,1,.43,0l.59.29c-.38.19-.75.35-1.09.54a.52.52,0,0,1-.56,0C6.61,9.17,5.77,8.76,4.9,8.34Z" transform="translate(-0.34 -0.35)"/><path class="cls-2" d="M1.76,5.43a1.8,1.8,0,0,0-.37.3c0,.07-.12.15,0,.23s.15,0,.21-.06a1.07,1.07,0,0,1,.19-.18.42.42,0,0,1,.52,0c.17.1.35.17.53.26a1.41,1.41,0,0,0-.4.32c-.05.07-.09.14,0,.21s.13,0,.18-.05l.18-.17a.45.45,0,0,1,.57,0,4,4,0,0,0,.51.25,1.6,1.6,0,0,0-.4.33c-.05.07-.08.14,0,.2s.14,0,.19,0A1,1,0,0,1,4,6.68a.34.34,0,0,1,.38,0l-.71.36-.54.26a.18.18,0,0,1-.21,0L.78,6.3a.28.28,0,0,1-.19-.37,1,1,0,0,1,.52-.65.32.32,0,0,1,.34,0Z" transform="translate(-0.34 -0.35)"/><path class="cls-2" d="M8.59,4.15a1.52,1.52,0,0,0-.39.32c-.06.06-.09.14,0,.2s.14,0,.19,0a.87.87,0,0,1,.32-.25.33.33,0,0,1,.37,0l-.15.08L7.81,5a.19.19,0,0,1-.18,0L5.47,4a.24.24,0,0,1-.14-.29A1,1,0,0,1,5.87,3,.35.35,0,0,1,6.2,3l.3.16a1.34,1.34,0,0,0-.39.32c-.05.06-.09.14,0,.2s.13,0,.18-.05a.79.79,0,0,1,.22-.19.42.42,0,0,1,.5,0c.17.1.35.18.54.27a1.44,1.44,0,0,0-.4.33c-.05.07-.08.13,0,.19a.12.12,0,0,0,.19,0,.8.8,0,0,1,.21-.2.42.42,0,0,1,.52,0C8.22,4,8.4,4.05,8.59,4.15Z" transform="translate(-0.34 -0.35)"/><path class="cls-2" d="M11.25.8a1.16,1.16,0,0,0-.4.32c0,.06-.08.13,0,.19s.13,0,.19,0a1.29,1.29,0,0,1,.17-.16.44.44,0,0,1,.57-.07l.52.26a1.52,1.52,0,0,0-.39.31c-.05.06-.09.14,0,.21s.14,0,.2,0l.12-.13a.46.46,0,0,1,.62-.09l.51.25a1.51,1.51,0,0,0-.36.3c-.06.06-.14.14-.05.22s.16,0,.22-.06A.9.9,0,0,1,13.47,2a.33.33,0,0,1,.33,0,7.4,7.4,0,0,0-.89.45.81.81,0,0,1-.94,0c-.55-.31-1.13-.57-1.7-.85-.21-.1-.25-.2-.18-.42a1,1,0,0,1,.45-.57.38.38,0,0,1,.43,0C11.05.71,11.15.74,11.25.8Z" transform="translate(-0.34 -0.35)"/><path class="cls-3" d="M3.6,8.55a.21.21,0,0,1-.29.23A1,1,0,0,1,2.68,8,.22.22,0,0,1,3,7.75,1,1,0,0,1,3.6,8.55Z" transform="translate(-0.34 -0.35)"/><path class="cls-3" d="M19.4,9.65a1,1,0,0,1-.63.79c-.19,0-.3-.06-.29-.26a1,1,0,0,1,.6-.75C19.28,9.37,19.41,9.45,19.4,9.65Z" transform="translate(-0.34 -0.35)"/><path class="cls-3" d="M24.14,7.34a1,1,0,0,1-.63.78c-.18,0-.29,0-.29-.24a1,1,0,0,1,.62-.78C24,7.05,24.15,7.14,24.14,7.34Z" transform="translate(-0.34 -0.35)"/><path class="cls-3" d="M8.34,10.87c0,.19-.11.27-.29.23a1,1,0,0,1-.63-.76c0-.23.11-.32.33-.25A1,1,0,0,1,8.34,10.87Z" transform="translate(-0.34 -0.35)"/><path class="cls-3" d="M13.74,12.52a1,1,0,0,1,.63-.78.22.22,0,0,1,.29.26,1,1,0,0,1-.6.75C13.86,12.81,13.74,12.73,13.74,12.52Z" transform="translate(-0.34 -0.35)"/></svg>