<svg id="Capa_1" data-name="Capa 1" xmlns="http://www.w3.org/2000/svg" viewBox="0 0 1038.17 1018"><defs><style>.cls-1{fill:#c0c7d1;}.cls-2{fill:none;}</style></defs><title>planilla-seguro-ico</title><path class="cls-1" d="M774.35,761.81c12.12,6.25,22.9,11.94,33.82,17.37,4.05,2,3.61,5.28,3.61,8.66q0,120.42-.08,240.85c0,14-7.54,20.27-23.42,20.28q-101.16.08-202.32,0H52.65c-21.44,0-26.81-5.25-26.81-26.14q0-446.47,0-892.95c0-21,5.32-26.13,26.8-26.13,44.06,0,88.11.18,132.16-.17,7.55-.06,9.69,1.76,9.65,9.26-.16,27.26.16,27.26-28.37,27.26-26.51,0-53-.05-79.52,0-16.69,0-23.29,6.44-23.29,22.71q0,413.54,0,827.06c0,16.3,6.58,22.71,23.29,22.72q332.15,0,664.29,0c17.15,0,23.48-6.42,23.48-23.68q.06-106.79,0-213.58Z" transform="translate(-25.83 -31)"/><path class="cls-1" d="M418.21,203.77c-58.81,0-117.63-.19-176.43.23-8,.06-10.52-1.92-10.32-11.61.6-30.09.18-60.2.23-90.31,0-20.38,6.32-27.76,23.69-27.82,22.2-.07,44.4.09,66.6-.06,13.82-.09,19.84-6.24,22-21.73,2-14.7,8.2-21.28,21.11-21.34q53.74-.25,107.49,0c13,.06,19,6.48,21.07,21.36,2.2,15.53,8.18,21.62,22,21.72,22.2.15,44.4,0,66.6.05,16.91.06,23.62,7.51,23.67,26.5.09,31-.29,62,.23,93,.14,8.65-2.19,10.22-9.15,10.19C537.39,203.64,477.8,203.77,418.21,203.77Z" transform="translate(-25.83 -31)"/><path class="cls-1" d="M774.35,290.6V166.75c0-21.6-5.2-26.63-27.45-26.63-31.55,0-63.1-.22-94.65.16-7.07.09-9.1-1.48-9.1-8.64,0-27.87-.32-27.87,28.87-27.87q57.84,0,115.68,0c17.54,0,24,6.24,24,23.09,0,44.26-.12,88.53.17,132.8,0,6.39-1.74,10.29-7.64,13.39C794.52,278.2,785.22,284.16,774.35,290.6Z" transform="translate(-25.83 -31)"/><path class="cls-1" d="M1053.62,442.78q-96-54-191.33-109c-6.07-3.49-10.18-3.8-16.49-.17q-97.26,56-195,111.16c-5.49,3.1-7.12,6.44-6.72,12,1.29,18.51,2.76,37,6.49,55.23,22.11,108,86.51,185.49,194.72,231.44,6.23,2.65,11.47,2.43,17.54-.09,26-10.81,50.48-23.93,72.77-40.41,84-62.13,122.32-145,127.7-244C1065.78,451.75,1061.59,447.26,1053.62,442.78Zm-26.88,35.61C1014.8,580.51,963.23,658.46,863.49,707c-8,3.89-15.18,2.5-22.71-1.27C755.3,663,704,597.1,685.65,509c-2.13-10.24-3.17-20.67-4.67-31-1.14-7.88,2.23-13.64,9.51-17.79q76.14-43.33,152.21-86.8c7.64-4.36,15.06-4.13,22.55.14q75.68,43.08,151.35,86.15C1024.18,464,1028.14,469.83,1026.74,478.39Z" transform="translate(-25.83 -31)"/><path class="cls-1" d="M956.37,461.15c-10.29-4.65-18.91-1.37-26.3,6.2-24.65,25.3-49.1,50.8-73.73,76.12-7.82,8-15.55,21.46-24.06,22.11-10.11.78-16.45-14.76-25.21-22.33-1.11-1-2-2.12-3.1-3.13-11.88-11.39-24.79-12.21-34.6-2.22s-9.44,23.82,1.69,35.71q20.63,22,41.92,43.4c13.15,13.23,24.64,13.4,37.69,0,37-37.91,73.72-76.13,110.57-114.2,5.27-5.44,9.27-11.44,9.5-20.55C970.18,473,965.78,465.4,956.37,461.15Z" transform="translate(-25.83 -31)"/><path class="cls-2" d="M195,654.05c11.43.29,22.88.05,34.32,0,11.07,0,22.15.12,33.22-.06,13.11-.2,20-6.47,20.11-18.81q.31-32.4-.05-64.81c-.14-11.81-7-18.38-19.3-18.49q-33.76-.31-67.54,0c-12.48.12-19.41,6.52-19.54,18.25q-.34,32.94.07,65.87C176.47,647.32,183.31,653.75,195,654.05Z" transform="translate(-25.83 -31)"/><path class="cls-2" d="M194.53,517.74q34.88.43,69.75,0c11.06-.15,18.07-6.76,18.22-17.32q.5-33.47,0-66.93c-.15-11.15-7.13-17.53-18.88-17.81-11.06-.27-22.14,0-33.21,0-11.81,0-23.63-.2-35.43.09s-18.67,6.69-18.81,17.87c-.27,22-.22,43.92,0,65.87C176.32,510.82,183,517.59,194.53,517.74Z" transform="translate(-25.83 -31)"/><path class="cls-2" d="M263.62,688.21q-34.32-.35-68.64.06c-11.7.15-18.34,6.76-18.63,18.05-.28,11,0,21.95,0,32.93,0,10.63-.14,21.25.05,31.87.23,12.58,6.77,19.12,19.69,19.23q33.76.28,67.54-.07c12.26-.13,19.06-6.73,19.19-18.6q.33-32.4,0-64.81C282.61,695,275.84,688.33,263.62,688.21Z" transform="translate(-25.83 -31)"/><rect class="cls-2" x="357.17" y="813" width="278" height="67" rx="12"/><path class="cls-2" d="M194.53,517.74q34.88.43,69.75,0c11.06-.15,18.07-6.76,18.22-17.32q.5-33.47,0-66.93c-.15-11.15-7.13-17.53-18.88-17.81-11.06-.27-22.14,0-33.21,0-11.81,0-23.63-.2-35.43.09s-18.67,6.69-18.81,17.87c-.27,22-.22,43.92,0,65.87C176.32,510.82,183,517.59,194.53,517.74Z" transform="translate(-25.83 -31)"/><path class="cls-2" d="M195,654.05c11.43.29,22.88.05,34.32,0,11.07,0,22.15.12,33.22-.06,13.11-.2,20-6.47,20.11-18.81q.31-32.4-.05-64.81c-.14-11.81-7-18.38-19.3-18.49q-33.76-.31-67.54,0c-12.48.12-19.41,6.52-19.54,18.25q-.34,32.94.07,65.87C176.47,647.32,183.31,653.75,195,654.05Z" transform="translate(-25.83 -31)"/><path class="cls-2" d="M263.62,688.21q-34.32-.35-68.64.06c-11.7.15-18.34,6.76-18.63,18.05-.28,11,0,21.95,0,32.93,0,10.63-.14,21.25.05,31.87.23,12.58,6.77,19.12,19.69,19.23q33.76.28,67.54-.07c12.26-.13,19.06-6.73,19.19-18.6q.33-32.4,0-64.81C282.61,695,275.84,688.33,263.62,688.21Z" transform="translate(-25.83 -31)"/><rect class="cls-2" x="357.17" y="813" width="278" height="67" rx="12"/><path class="cls-1" d="M726.69,740.73c0-3.74-.69-6.58-4-9.24-7.45-6-14.71-12.16-22-18.36V781a12.1,12.1,0,0,1-12.13,12H325.74a12.1,12.1,0,0,1-12.13-12V697a12.1,12.1,0,0,1,12.13-12H672.6c-6.1-7.45-12.43-14.22-17.16-21.86-3.63-5.87-4.24-7.14-8.29-7.14H324.73a12.1,12.1,0,0,1-12.13-12V562a12.1,12.1,0,0,1,12.13-12H595.68c-4.12-11-5.13-17-5.92-31.06-.4,0-265,.06-265,.06a12.1,12.1,0,0,1-12.13-12V426a12.1,12.1,0,0,1,12.13-12H594.6c1.41-.18,3.7-.2,5-1,10.49-6.21,19.58-11.44,30.73-18h.69l69.65-40.64v-.29l2.77-1.85a143.62,143.62,0,0,1,16.25-9.37c4.87-2.4,6.76-5.45,6.71-10.84q-.42-57-.06-113.92c.05-6.31-2.22-41.08-8.26-41-23.92.32-37.75.65-61.65-.07-9-.28-10.21,36.29-10,43.72.45,19.41-15.13,24.19-36,24.21l-376.77.29c-23.21,0-44.07-4-43.8-25.67.09-7.28-2.41-42.23-9.4-42.11-23.54.4-30.94.65-54.47,0-8.92-.27-10.06,36.22-10,43.69q.59,360.23.49,720.44c2.3,13,8.2,17.79,22.08,19.42q152.4-.51,304.8-.4,131.82-.11,263.65-.22c12.69-2,18-7.32,19.92-20.78C726.62,873.29,726.68,807,726.69,740.73ZM171.1,310a12.1,12.1,0,0,1,12.13-12H661.3a12.1,12.1,0,0,1,12.13,12v25a12.1,12.1,0,0,1-12.13,12H183.23a12.1,12.1,0,0,1-12.13-12Zm-.85,123.55c.14-11.18,7.12-17.58,19-17.87s23.88-.08,35.81-.09c11.19,0,22.39-.23,33.57,0,11.88.28,18.93,6.66,19.09,17.81q.47,33.45,0,66.93c-.16,10.56-7.25,17.17-18.42,17.32q-35.25.46-70.5,0c-11.68-.15-18.4-6.92-18.53-18.32Q169.9,466.5,170.25,433.55Zm.1,136.66c.13-11.73,7.13-18.13,19.74-18.25q34.14-.33,68.26,0c12.44.11,19.37,6.68,19.51,18.49q.38,32.4.05,64.81c-.12,12.34-7.07,18.61-20.32,18.81-11.19.18-22.39.05-33.58.06-11.56,0-23.13.25-34.69,0-11.84-.3-18.76-6.73-18.91-18Q170,603.16,170.35,570.21ZM278,771.68c-.12,11.87-7,18.47-19.39,18.6q-34.12.38-68.26.07c-13.06-.11-19.67-6.65-19.9-19.23-.19-10.62-.05-21.24-.06-31.87,0-11-.24-22,0-32.93.29-11.29,7-17.9,18.83-18.05q34.69-.43,69.38-.06c12.35.12,19.2,6.78,19.32,18.66Q278.33,739.29,278,771.68ZM660.29,899a12.1,12.1,0,0,1-12.13,12H391.44a12.1,12.1,0,0,1-12.13-12V856a12.1,12.1,0,0,1,12.13-12H648.16a12.1,12.1,0,0,1,12.13,12Z" transform="translate(-25.83 -31)"/></svg>