<svg id="Capa_1" data-name="Capa 1" xmlns="http://www.w3.org/2000/svg" viewBox="0 0 10.92 17"><defs><style>.cls-1{fill:none;}.cls-2{fill:#c0c7d1;}</style></defs><title>estacion-total-ico</title><ellipse class="cls-1" cx="5.44" cy="1.06" rx="0.14" ry="0.13"/><path class="cls-2" d="M11.8,14.82s-.05,0-.08,0l-.24.1c-.07,0-.09,0-.12-.05l-1.8-4.63c0-.07,0-.1.06-.11s.06-.05,0-.09c-.09-.21-.17-.42-.25-.63,0,0,0-.05,0,0s-.09,0-.11-.09,0-.12-.08-.18A3.82,3.82,0,0,0,9,8.57v0L7.08,3.63a.79.79,0,0,1,0-.13h0V3.3H7v0H6.94a.12.12,0,0,0,0,0H7.1V3.1H7v0h0V3h0c.05,0,.06-.06.08-.12a.19.19,0,0,0,0-.08h.08v0h.06v0h.15V2.52H7.34v.06H7.28V2.53h0V2.47c0-.2,0-.52,0-.79A2.62,2.62,0,0,0,6.88.37.19.19,0,0,0,6.69.26H6a.19.19,0,0,0-.2.12,2.67,2.67,0,0,0-.33,1.17,6.45,6.45,0,0,0,0,1.39c0,.05,0,.09.09.09h0v0h.06v0h-.1v.1h.12s0,0,0,0H5.68v0h0v.2h0a.85.85,0,0,1-.06.17c0,.1-.07.2-.1.3a.08.08,0,0,0,0,0c-.33.85-.66,1.69-1,2.54-.16.4-.31.8-.46,1.21,0,0,0,0,0,0a.3.3,0,0,0,0,.08L3.43,9.31s0,.09-.05.07-.08,0-.1.07,0,.13-.07.2-.11.27-.17.4,0,.07,0,.08.08,0,.05.11L2.07,13l-.73,1.87c0,.07-.05.08-.11.05L1,14.82s-.06,0-.08,0,0,.05,0,.06l.2.14s.05.05,0,.09a.63.63,0,0,0-.06.38V16c0,.13,0,.26,0,.39h0A10.54,10.54,0,0,0,1.73,15c.59-1.52,1.19-3.05,1.78-4.58,0-.09.07-.12.16-.07s.07.05.09,0,.11-.29.16-.43L4,9.68s0,0,0,0,0-.05,0-.08.13-.35.2-.52h0a2.61,2.61,0,0,0,.16-.42c.08-.19.16-.39.23-.6V8l0,0L5.68,5.1s0,0,.05-.07V7.41c0,.36,0,.71,0,1.07a5.18,5.18,0,0,1-.05,1,2.72,2.72,0,0,0,0,.64c0,.06,0,.07.09.08s.15,0,.22,0,0,.05,0,.07v5.29s0,.06,0,.08a.13.13,0,0,1,0,.06.75.75,0,0,0,0,.51v0l.29,1h0l.12-.43a2.8,2.8,0,0,0,.22-.95,1.3,1.3,0,0,1,0-.21v-5.3a.49.49,0,0,0,0-.12.55.55,0,0,1,.22,0c.06,0,.08,0,.08-.07a1.37,1.37,0,0,1,0-.35c0-.21-.08-.42-.07-.63a.38.38,0,0,0,0-.15h0V9c0-.69,0-1.37,0-2V4.66a.15.15,0,0,1,0,.08L8,7.69c.12.3.22.61.35.91s.14.36.21.54l.15.41s0,0,0,.07,0,.05,0,.08c.08.2.15.39.22.58s.06.12.15.06.09,0,.12,0c.56,1.47,1.13,2.93,1.7,4.4a4.43,4.43,0,0,0,.23.67c.17.32.31.65.47,1a.24.24,0,0,0,0-.08c0-.29,0-.58,0-.87a.61.61,0,0,0-.07-.35c0-.05,0-.07,0-.1s.12-.09.18-.13S11.83,14.87,11.8,14.82ZM5.67,4.59Q4.72,7,3.79,9.46s0,.09-.09,0-.13,0-.09-.11a1.82,1.82,0,0,0,.11-.3h0s0-.05,0-.11h0c0-.11.09-.27.14-.37s.06-.17.14-.38h0s0,0,0,0h0L4.5,7.08,5.61,4.21h.11A.73.73,0,0,1,5.67,4.59ZM5.89.49C6,.35,6,.35,6.12.36a3.13,3.13,0,0,0,.53,0,.12.12,0,0,1,.12.07.33.33,0,0,1,0,.44.27.27,0,0,0-.09.2l0-.36s0-.07-.07-.07a3.09,3.09,0,0,0-.43,0s-.06,0-.06.06S6,.94,6,1V1A.66.66,0,0,0,5.91.8.26.26,0,0,1,5.89.49Zm.22,1.63a3.08,3.08,0,0,0,.43,0c.06,0,.08,0,.09-.08s0-.33,0-.48v.58s0,0,0,0H6.08S6,2.2,6,2.14V1.56a3.23,3.23,0,0,0,0,.49C6.06,2.1,6.08,2.12,6.11,2.12Zm0-.8a.25.25,0,0,1,.5,0,.25.25,0,0,1-.5,0ZM5.85,3.25a.12.12,0,0,0,.05,0H6V3.1H5.92v0h.33v0H6.16v.1h.12a.07.07,0,0,0,0,0Zm.74,6.12s0,.07,0,.09H6s0-.06,0-.09V4.42a.73.73,0,0,1,0-.2c.06,0,.07,0,.07.06s0,.28,0,.42,0,.09.1.09h.23c.07,0,.09,0,.09-.09a2.67,2.67,0,0,1,0-.4s0-.09,0-.08,0,0,0,.08V8.54a5.23,5.23,0,0,0,0,.56A2.44,2.44,0,0,0,6.59,9.37ZM6.42,3.25a.12.12,0,0,0,0,0h.11V3.1H6.49v0h.28v0H6.68v.1H6.8a.07.07,0,0,0,0,0ZM9,9.51c-.05,0-.05,0-.06,0C8.45,8.24,8,7,7.5,5.78L6.92,4.31l0-.09s.06,0,.08,0a.14.14,0,0,1,.17.11L7.77,6l1,2.67c.07.19.14.38.23.57a2,2,0,0,0,.08.22C9.14,9.51,9,9.49,9,9.51Z" transform="translate(-0.89 -0.26)"/><ellipse class="cls-2" cx="5.44" cy="1.06" rx="0.11" ry="0.11"/></svg>