<svg id="Capa_1" data-name="Capa 1" xmlns="http://www.w3.org/2000/svg" viewBox="0 0 14.56 17"><defs><style>.cls-1{fill:#c0c5ce;}</style></defs><title>abono-ico-plomo</title><path class="cls-1" d="M15.15,17.11c-.18,0-.36-.08-.55-.1a.35.35,0,0,1-.32-.26,1.55,1.55,0,0,1-.08-.23,11.8,11.8,0,0,1-.29-1.78h0a22.3,22.3,0,0,1-.53-10,.16.16,0,0,0,.12,0,.28.28,0,0,1,0-.09,3.05,3.05,0,0,1,.65-1.44A4.82,4.82,0,0,0,15.05.76c0-.13,0-.17-.15-.15s-.31,0-.47,0C12.61.78,10.8.87,9,.9S5.28.87,3.44.76C2.66.72,1.89.66,1.11.6,1,.6.93.59,1,.74A6.83,6.83,0,0,0,1.23,2a6.66,6.66,0,0,0,.83,1.5,2.39,2.39,0,0,1,.47,1.14v0h0a22.49,22.49,0,0,1-.32,10.11c-.07,0-.12,0-.14.12,0,.34-.08.67-.13,1a4.75,4.75,0,0,1-.19.83.4.4,0,0,1-.36.31,5.12,5.12,0,0,0-.54.1c-.14,0-.15.09-.1.2a.45.45,0,0,0,.46.28h.55c3.81,0,7.62,0,11.43,0h1.56a.5.5,0,0,0,.51-.27C15.31,17.21,15.3,17.14,15.15,17.11ZM11.57,3c0-.1,0-.15.14-.14h.43c.14,0,.28,0,.33.18a.32.32,0,0,1-.17.38.69.69,0,0,1,.16.23c0,.06.14.15,0,.2s-.24.07-.32-.07-.09-.16-.14-.24a.11.11,0,0,0-.09-.07c-.06,0,0,.07,0,.11v.1c0,.11,0,.19-.15.19s-.17-.06-.17-.18S11.58,3.22,11.57,3Zm-.86-.14h.56c.09,0,.13,0,.13.12s0,.11-.12.11H11c-.05,0-.09,0-.09.08a.08.08,0,0,0,.09.07h.26c.08,0,.12,0,.12.1s0,.11-.12.11H11c-.07,0-.1,0-.09.1s0,.08.09.08.21,0,.32,0,.12,0,.12.13,0,.12-.12.11H11c-.43,0-.43,0-.43-.42,0-.16,0-.31,0-.46S10.61,2.84,10.71,2.84ZM10,3.07H9.66c-.07,0-.12,0-.12-.11s0-.12.13-.12h.55c.06,0,.16,0,.18.05a.24.24,0,0,1-.07.26c-.15.14-.28.29-.43.45a1.43,1.43,0,0,0,.4,0c.08,0,.14,0,.14.11s0,.11-.13.11H9.67c-.06,0-.15,0-.17,0a.19.19,0,0,1,.05-.24L10,3.14ZM9,3c0-.11,0-.14.15-.13s.17,0,.16.14,0,.24,0,.37,0,.23,0,.35,0,.16-.15.16S9,3.83,9,3.7,9,3.21,9,3Zm-.8-.13c.1,0,.18,0,.17.14s0,.32,0,.48,0,.15.14.14a1.34,1.34,0,0,1,.2,0c.09,0,.14,0,.14.12s0,.14-.14.13H8.24c-.11,0-.15,0-.15-.14a2.28,2.28,0,0,0,0-.37c0-.11,0-.23,0-.35S8.12,2.83,8.24,2.84Zm-.52,0c.12,0,.17,0,.17.15s0,.48,0,.72-.06.15-.17.14-.17,0-.16-.14,0-.25,0-.38,0-.23,0-.34S7.61,2.84,7.72,2.84Zm-1.06,0h.62c.1,0,.15,0,.15.14s-.07.13-.15.12-.19,0-.18.19,0,.3,0,.44S7,3.85,7,3.85s-.17,0-.17-.12,0-.32,0-.47,0-.17-.15-.16-.17,0-.17-.13S6.57,2.84,6.66,2.84Zm-1.07,0H6.1A.27.27,0,0,1,6.37,3a.28.28,0,0,1-.11.33l-.06.05a1,1,0,0,1,.21.33c0,.08,0,.11-.08.11s-.26,0-.3-.16a.35.35,0,0,0,0-.08s-.05-.17-.15-.14,0,.13,0,.19,0,.21-.2.19-.12,0-.12-.13V3C5.48,2.89,5.5,2.84,5.59,2.84Zm-1.09,0c.11-.11.31,0,.48,0h.21c.08,0,.11,0,.11.12a.1.1,0,0,1-.11.11H4.93c-.06,0-.13,0-.14.07s.08.07.13.08h.23c.08,0,.12,0,.11.11s0,.1-.11.1H4.89c-.07,0-.1,0-.1.09s0,.09.1.09h.3c.08,0,.13,0,.13.12s0,.12-.12.12H4.59c-.09,0-.12,0-.12-.12V3.31C4.48,3.18,4.4,3,4.5,2.88Zm-.93,0c.1-.11.3,0,.46,0H4.2c.09,0,.11.05.11.13s0,.1-.11.1H4a.08.08,0,0,0-.09.09A.07.07,0,0,0,4,3.23h.2c.06,0,.09,0,.09.1s0,.11-.1.11H4.07c-.18,0-.23.05-.21.21s0,.21-.17.21-.16,0-.15-.17V3.31C3.55,3.18,3.47,3,3.57,2.88Zm9.19,11.9c-.54.29-.11.49-.7.64a16.61,16.61,0,0,1-4.44.47,18.17,18.17,0,0,1-2.55-.23c-1-.16-.89-.4-1.76-.85a22.57,22.57,0,0,0,.35-10h8.59a22.6,22.6,0,0,0,.53,10Z" transform="translate(-0.72 -0.6)"/><path class="cls-1" d="M6.76,8c.06,0,.09-.11.17-.11A3.17,3.17,0,0,1,8,9.23c.06.13.1.18.21,0A1.35,1.35,0,0,1,8.63,9c.12,0,.14.08.2.13a.09.09,0,0,1,0,.12,2,2,0,0,0-.53.48.21.21,0,0,0-.05.2,7.13,7.13,0,0,1,.3,1.77s0,0,0,.08a3.56,3.56,0,0,1,1-1.22c.14,0,.12.12.2.15s0,.08,0,.13a2.66,2.66,0,0,0-1.17,2.25c0,.23,0,.47,0,.7s0,.14-.13.14c-.44,0-.43,0-.44-.41a3,3,0,0,0-.21-1.11,1.12,1.12,0,0,0-.69-.64.12.12,0,0,1,0-.1c.07-.05.09-.17.21-.16a1.9,1.9,0,0,1,.77.6s.05,0,.05-.06A6.57,6.57,0,0,0,7.7,9.35a3,3,0,0,0-1-1.24v0C6.67,8,6.71,8,6.76,8Z" transform="translate(-0.72 -0.6)"/><path class="cls-1" d="M11.88,9.44a3.18,3.18,0,0,0-1.22-.22,1.08,1.08,0,0,0-.65.19,1,1,0,0,0-.39,1.11c.1,0,.08.15.17.18a1.36,1.36,0,0,1,1-1,.74.74,0,0,1,.49-.08c0,.08-.12.07-.18.09a1.93,1.93,0,0,0-1,.6.69.69,0,0,0-.15.48,1,1,0,0,0,1.25-.19c.09-.11.16-.23.24-.35a3.76,3.76,0,0,1,.52-.67C12,9.51,12,9.47,11.88,9.44Z" transform="translate(-0.72 -0.6)"/><path class="cls-1" d="M7.43,11.36a.88.88,0,0,0-.7-1,2.41,2.41,0,0,0-1.38.17c-.09,0-.09.06,0,.12a4.36,4.36,0,0,1,.55.73c.12.18.24.41.47.46a1.07,1.07,0,0,0,.8-.1.73.73,0,0,0-.39-.66,2.17,2.17,0,0,0-.65-.31c-.06,0-.2,0-.17-.09s.13,0,.2,0a1.78,1.78,0,0,1,.88.48.81.81,0,0,1,.24.5h0l.18-.18Z" transform="translate(-0.72 -0.6)"/><path class="cls-1" d="M10.49,8.09a2.31,2.31,0,0,0-1.16-.15.77.77,0,0,0-.67.6c0,.14,0,.28,0,.42s.1.12.17.14A1.22,1.22,0,0,1,10,8.26a3.67,3.67,0,0,0-.59.21A1.12,1.12,0,0,0,9,8.89a.31.31,0,0,0,0,.32c.54.16.79.11,1.05-.28a3.5,3.5,0,0,1,.55-.73C10.6,8.14,10.54,8.11,10.49,8.09Z" transform="translate(-0.72 -0.6)"/><path class="cls-1" d="M6.17,6.22a2.81,2.81,0,0,0-1.29,0A4.15,4.15,0,0,0,4,6.48,5.21,5.21,0,0,1,4.46,7a11.56,11.56,0,0,0,.7,1,.81.81,0,0,0,.6.29,2.53,2.53,0,0,0,.91-.16.05.05,0,0,0,0,0v0l0,0c-.19-.85-.87-1.13-1.6-1.34H5s-.07,0-.06-.07A.06.06,0,0,1,5,6.6,2.2,2.2,0,0,1,6.68,7.68.89.89,0,0,1,6.76,8h0c.09,0,.14,0,.18-.12a.17.17,0,0,1,0-.12A1.22,1.22,0,0,0,6.17,6.22Z" transform="translate(-0.72 -0.6)"/><path class="cls-1" d="M12,3.25c-.08,0-.14,0-.14-.08s0-.13.11-.12.15,0,.16.09S12.08,3.24,12,3.25Z" transform="translate(-0.72 -0.6)"/><path class="cls-1" d="M5.89,3.25c-.06,0-.1,0-.1-.1s0-.11.12-.11.15,0,.15.11S6,3.25,5.89,3.25Z" transform="translate(-0.72 -0.6)"/></svg>