<svg id="Capa_1" data-name="Capa 1" xmlns="http://www.w3.org/2000/svg" viewBox="0 0 994.87 1080"><defs><style>.cls-1{fill:#139a1a;}.cls-2{fill:#45719a;}.cls-3{fill:#ecb889;}.cls-4{fill:#d3a57a;}.cls-5{fill:#5b382f;}.cls-6{fill:#c59a72;}.cls-7{fill:#5e4a37;}.cls-8{fill:#463729;}.cls-9{fill:#fe4f6d;}.cls-10{fill:#fefefe;}</style></defs><title>user_default</title><circle class="cls-1" cx="497.43" cy="582.57" r="497.43"/><path class="cls-2" d="M537.07,1078.26H461.22c-12-2.06-24.27-1.64-36.39-2.67-47.59-4-91.84-19.61-134.71-39.35-58.28-26.83-109-64.5-153-111.12-5.82-6.17-11.9-12.25-14.84-20.56-1.11-7,2.6-12.5,6-18,47.05-76.46,114.92-122.82,202.81-140.3,8.37-1.66,16.86-2.21,25.27-3.49,4.08-.62,8.2-.4,11.45,2.85a8.5,8.5,0,0,1,1.65,5.79c-2.81,34.56,16.46,56.7,44.13,71.05,58.39,30.29,118.14,30,176.83.34,22.22-11.23,39-28.56,44.28-54.52,1.52-7.4-1.65-15,1.71-22.21,3.29-3.43,7.38-2.71,11.48-2.28,57,6,108.06,27.14,152.87,62.62,28.74,22.76,53.31,49.57,71.7,81.64,2.92,5.07,5.56,10.14,5.43,16.2-2.2,7.89-7.85,13.53-13.17,19.19-65.83,70.1-145,118.11-237.94,143.24-26.47,7.16-53.47,10-80.8,10.59C543,1077.34,539.85,1076.28,537.07,1078.26Z" transform="translate(-0.75 0)"/><path class="cls-3" d="M367.73,746.46c8.12,0,16.3-.65,24.36,0,8.5.74,10.34-3,10-10.53-.46-10.13,0-20.31.13-30.46,5.44-5.48,11.08-1.74,16.13.26a223.17,223.17,0,0,0,161.71.79c5.73-2.19,11.71-6.65,18.19-1.41.11,11.19.49,22.38.22,33.56-.14,5.76,1.83,7.7,7.57,7.57,10.51-.24,21,.21,31.54.38,5.89,23.6-2.39,43.08-18.38,59.7-22,22.83-50.15,33.51-80.61,38.89-43.25,7.65-85.06,3.06-124.3-17.34-23.77-12.36-42.63-29.64-48.34-57.45C364.28,762.41,363.73,754.2,367.73,746.46Z" transform="translate(-0.75 0)"/><path class="cls-4" d="M598.24,705.15c-12.54,4.17-24.91,9-37.65,12.4Q484.18,738.18,411,707.66c-2.82-1.18-5.5-2.77-8.75-2.16q-.22-11.55-.44-23.12c-1.62-2-1.79-3.85.18-5.68,32.61,11.44,65.85,20.29,100.67,20,29.13-.26,57.38-6.7,85.21-15,3.57-1.07,7.18-2,10.77-3Z" transform="translate(-0.75 0)"/><path class="cls-3" d="M732.49,486.52c-.52-33-1.33-66,.5-98.95a413.15,413.15,0,0,0-.27-53.94c23.87,6.49,37.9,24.64,38,49.34q.12,26.64,0,53.26C770.66,461.71,757.13,479.45,732.49,486.52Z" transform="translate(-0.75 0)"/><path class="cls-3" d="M264.46,334.28c1.78.18,3.42.48,3.31,2.85-2.31,49.74,2.28,99.46.48,149.19A1.44,1.44,0,0,1,266,486c-24.93-9.25-36.22-25.34-36.26-51.74,0-15.64.27-31.3-.07-46.94C229.13,361.53,240.25,343.68,264.46,334.28Z" transform="translate(-0.75 0)"/><path class="cls-5" d="M738.28,348.42c.06-5.8-1.57-10.66-5.56-14.79,6.09-61.72,9.46-123.33-7.09-184.18,2.63-4,1-7.91-.43-11.73a175.22,175.22,0,0,0-10-21.28c-13.1-24.66-35-40.59-56.5-56.78-10.34-7.78-17.29-14.63-11-29.46,5.45-12.93-2.4-19.54-16-15.64-6.36,1.83-12.23,5.44-19,6.19-2.51-17.94-9-18.9-31.79-5.65C583,9.5,585.09,3.9,578.06,0h-8.2C531,13.78,490.55,19,449.72,22.69c-34.58,3.15-68,10.82-97.83,30.16-31.2,20.24-57.74,44.67-73.9,78.86-2.55,5.41-6.24,10.85-3.4,17.43-2.21,7.31-7.49,13.77-6.2,22.07-6.05,9.08-4.78,19.64-6,29.7-6.21,5.06,1.51,11.84-2.11,17.22l0,.26c-2.14,3.23-3.09,6.44-1.8,10.48a21.08,21.08,0,0,1-.17,13.91v49.47c1.86,3.83.8,7.92,1,11.89.23,5.51-2.9,11.24,1.05,16.52-.6,5.15,2,9.31,4.14,13.62-2.28,6.18-2.4,12.6-2.44,19.08-.17,33.41,3.42,66.72,2.11,100.15-.27,6.81,0,13.65,0,20.47,0,4.16.48,8.17,2.95,11.69,1,4.24-2.83,9,1.4,12.89.6,5.18-2.16,10.83,2.18,15.47,1.1,8.07-.68,16.86,5.87,23.57-.39,7.45,3.56,13.41,6.68,19.66-8,8.75,2.37,9.35,5.76,13h0l5.56,12c-1.84,6.49-2.73,12.4,7.15,11.75h0l.07.12c-1,6.56,3,9.81,8.15,12.24h0l.05,0c-1.61,7.91.59,13,9.6,13.2h0c.53.56,1.05,1.13,1.58,1.7.15,15,9.12,23.94,22.94,23h0l1.72,1.56c3.11,12.2,22.11,24.67,35.15,23.06h0c.87,1.53,2.34,1.52,3.82,1.52h0c1.43,10,11,8.4,17,11.86,0-.82.05-1.63.08-2.45h0c29.09,13.68,60.21,19.39,91.87,21s62.22-5.34,92.45-14a22,22,0,0,0,12.42-8.36c24.94-10,47.64-23.44,66.68-42.65,41.08-41.43,62.93-91.51,67.21-149.48,2.18-3.13,3.72-6.44,3.64-10.41C735.2,433.52,737.88,391,738.28,348.42Z" transform="translate(-0.75 0)"/><path class="cls-3" d="M444.82,489.77a118.06,118.06,0,0,0-26.39,7.89c-15.86,7-27.22,17.88-32.39,34.73-1.3,4.24-2.93,8.38-4.56,12.49-6.17,15.53-12.36,18.76-28.65,13.47-40.09-13-62.19-40.93-68.12-82.5a429.36,429.36,0,0,1-4.22-59.17c-.09-26.28,0-52.62-8.07-78.11-.4-1.26-1-2.92-.56-3.92,10.81-22.66,7.73-48.2,15.08-71.64,5.63-17.92,11-35.88,18.89-52.93a129.1,129.1,0,0,1,29.49-40.14c12.42-11.66,23.56-24.68,35.06-37.3,4-4.34,8.15-6,14.25-5.87,65.23,1.33,130.47,2.46,195.65-1.82a108.9,108.9,0,0,0,19.18-3c9.5-2.39,16.83-.1,22.08,8.25,8.72,13.85,20.65,24.67,33.91,33.77,35.41,24.32,50.46,59.64,55.87,100.5,2.5,18.93,1.52,39,9.06,56.38,6.62,15.29,4.18,28.78,2,43.69-3.32,22.31-2.43,45-2.78,67.51-.39,25.36-3.41,50.34-12.42,74.31-11,29.31-34.85,43.78-62.64,52.72-14.15,4.54-19.69.63-25.36-13.23a25.76,25.76,0,0,1-1.48-3.82c-7.61-33-31.24-47-62.16-52.27-4.6-1.84-9.38-.57-14.07-.83-7.6-.41-8.49-1.85-5.39-8.37,1.76-3.71,8.05-6.39,4.71-11.09-2.69-3.79-8.27-1.83-12.56-1.86q-30.59-.19-61.17,0c-2.89,0-6.58-.95-8.13,2.57-1.32,3,1.42,4.95,3,7.07,2.24,3,5.35,6.36,3.38,10-1.84,3.4-6.22,1.18-9.45,1.62C452.18,489.38,448.37,488,444.82,489.77Z" transform="translate(-0.75 0)"/><path class="cls-3" d="M463.16,523.33c11.58-.12,23.3.71,34.06-5,1.5-.79,3-1.54,4.77-.56,14.34,7.78,30,5.26,45.2,5.4,29.18.25,43.86,11.61,51.54,39.79A46.86,46.86,0,0,1,597.05,593c-6.49,16.77-17.64,30-32.16,40.2-13.65,9.56-24,8.5-36.49-2.29-16.91-14.66-41.47-14.59-57.6,1.44-7.76,7.72-15.62,8.69-25.06,5.77-34-10.49-54.29-55.59-39.51-87.43,8.08-17.42,20.72-27.58,40.54-27.42C452.23,523.35,457.7,523.32,463.16,523.33Z" transform="translate(-0.75 0)"/><path class="cls-6" d="M444.82,489.77c5.53-3.83,12.08-.78,19.19-3-3.59-4.36-7.42-8-10.07-12.42-4.8-7.94-3-11,6.28-11q39.94-.15,79.89,0c9.25,0,10.89,3,6.34,11.06-1.31,2.32-3.47,4.17-5.19,6.27-1.46,1.78-3.85,2.89-4.14,6,5.75,3,12.86-1,18.39,3.11-18.2,1.2-37-3.15-54.36,5.87a2.52,2.52,0,0,1-2,0C481.81,486.62,463,491,444.82,489.77Z" transform="translate(-0.75 0)"/><path class="cls-7" d="M432.69,311c-21.36-5.35-42.53-4-63.37,2.84C356.53,318.08,345,324.4,336.19,335c-3.54,4.3-7.65,7.58-13,3.34-5.82-4.62-3.31-9.56.56-14.12,15.12-17.81,35.47-26,57.55-30.46a120,120,0,0,1,53.7,1c5,1.26,8.22,4.12,7.47,9.28S437.85,311.24,432.69,311Z" transform="translate(-0.75 0)"/><path class="cls-7" d="M598.7,291.34c22.42.93,48,6.74,69.48,24.49A77.66,77.66,0,0,1,678.56,327c3,3.71,2.68,7.75-.89,11-4,3.63-8.35,2.95-11.7-1-20-23.3-46.77-28.94-75.51-29.1-7.07,0-14.19,1.55-21.22,2.77-5.54,1-9.89-.53-11.21-6-1.37-5.71,2.26-8.75,7.65-10A133.06,133.06,0,0,1,598.7,291.34Z" transform="translate(-0.75 0)"/><path class="cls-7" d="M393.7,364.91a24.58,24.58,0,1,1-24.7,24.7A24.95,24.95,0,0,1,393.7,364.91Z" transform="translate(-0.75 0)"/><path class="cls-7" d="M602.88,372.24c20.67,0,34.41,6.94,44.39,21,1.47,2.05,3.69,4.68,1.06,7.3-2.38,2.38-4.4-.19-6.29-1.26-25.5-14.49-50-12.65-73.68,4.23-2.11,1.51-4.22,4.54-7.05,2.58-3.57-2.5-.83-5.66.54-8.11C571.54,380.62,586.77,372.66,602.88,372.24Z" transform="translate(-0.75 0)"/><path class="cls-8" d="M565.8,533.17c10.51.76,12.77,3.37,10.94,13.19C573.45,564,566,579.27,551.6,590.6c-4.28.72-8-1-11.56-3-10-5.39-20.37-6.89-31.37-3.45a26.16,26.16,0,0,1-16,.21c-11.66-3.71-22.7-2.27-33.27,3.71-3.29,1.86-6.77,3.09-10.65,2.49-15-11.8-22.44-27.86-25.51-46.17-1.5-8.92,2.42-11.55,15.41-11.27,2.4,2.37,5.23,4.28,7,7.29,3.66,6.18,9.56,8.47,16.36,8.54q40.2.43,80.42,0c6.79-.07,12.7-2.36,16.36-8.54C560.58,537.45,563.41,535.54,565.8,533.17Z" transform="translate(-0.75 0)"/><path class="cls-9" d="M448.73,590.61c13.26-12.07,28.49-15.58,45.52-10a17.63,17.63,0,0,0,11.82,0c17-5.59,32.27-2.08,45.53,10C525.37,617.61,475.09,617.62,448.73,590.61Z" transform="translate(-0.75 0)"/><path class="cls-10" d="M565.8,533.17c-2.74,14.42-9.26,20.23-23.29,20.28q-40.29.15-80.59,0c-14-.05-20.55-5.87-23.29-20.29Z" transform="translate(-0.75 0)"/></svg>