<svg id="Capa_1" data-name="Capa 1" xmlns="http://www.w3.org/2000/svg" viewBox="0 0 1059.78 1183.01"><defs><style>.cls-1{fill:#797774;}.cls-2{fill:#f9f9f9;}.cls-3{fill:#21a266;}.cls-4{fill:#33c380;}.cls-5{fill:#107c41;}.cls-6{fill:#185c37;}.cls-7{fill:#134a2c;}.cls-8{fill:#f2f2f2;stroke:#107c41;stroke-miterlimit:10;stroke-width:40px;}.cls-9{fill:#f5f7f6;}</style></defs><title>xls</title><path class="cls-1" d="M196.89,320H180c.15-88.74,1-177.49-.08-266.21-.27-21.67,6.52-26.57,27.13-26.5q292.92,1.09,585.84.15c13.52,0,23.07,3.74,32.57,13.32q118.13,119.09,237.29,237.14c9.79,9.69,12.75,19.59,12.73,32.81q-.43,436.62.28,873.23c.06,21.87-6.85,26.4-27.23,26.35q-420.73-.9-841.48,0c-20.62,0-27.4-4.83-27.13-26.5,1.11-88.72.23-177.47.08-266.2h16.87c9.85,11.16,8,25,8,38.05.32,65.64-.16,131.27.28,196.9.19,29.73,2.71,32.55,31.69,32.59q391.23.45,782.47,0c29,0,31.25-2.5,31.27-32.68q.26-401.79,0-803.58c0-33.61-2.24-35.49-36.86-35.63-57.66-.22-115.33.21-173-.16-43.39-.28-50.59-7.58-50.91-51.75-.42-58.54.2-117.08-.25-175.62-.24-30.68-2.82-33.3-33.74-33.34q-258.15-.33-516.32,0c-32.15,0-34.24,2.37-34.4,35.3-.31,64.74.08,129.49-.23,194.24C204.84,295.09,206.74,308.88,196.89,320Z" transform="translate(-16 -27.33)"/><path class="cls-2" d="M196.89,320c-.15-85.18.08-170.36-.78-255.53-.16-16,3.72-21.2,20.57-21.15q280.9.91,561.8,0c17.44-.06,20.28,6.25,20.13,21.57-.69,69.21.5,138.44-.74,207.62-.42,24,6.8,33.09,31.77,32.61,69.2-1.35,138.45.06,207.66-.85,17.2-.22,22.41,4.4,22.37,22q-.8,423.26,0,846.5c0,18.56-6.68,21.43-23,21.41q-408.69-.63-817.4,0c-15.79,0-23.63-1.87-23.36-21,1.22-85.16.76-170.35.91-255.52" transform="translate(-16 -27.33)"/><path class="cls-2" d="M1037.47,288.65c-68,0-138.48-.09-208.94.1-10,0-14.32-3.73-14.29-14,.19-70.51.1-141,.1-209.11Q925.78,177,1037.47,288.65Z" transform="translate(-16 -27.33)"/><rect class="cls-3" x="652.56" y="470.79" width="145.8" height="54.07"/><rect class="cls-4" x="823.79" y="470.79" width="145.8" height="54.07"/><rect class="cls-5" x="652.56" y="560.93" width="145.8" height="54.07"/><rect class="cls-6" x="652.56" y="646.22" width="145.8" height="54.07"/><rect class="cls-3" x="823.79" y="560.93" width="145.8" height="54.07"/><rect class="cls-7" x="823.79" y="646.22" width="145.8" height="54.07"/><rect class="cls-8" x="20" y="289.08" width="603.06" height="602.93" rx="1.29"/><path class="cls-5" d="M392,568c16,16,31,32,44,45,26-1,85,0,104,0v29c-19,9-33,15-56,27,23,23,44,42,80,74,0,18-.31,12-.31,34H429c-22-23-30-31-52-49-58,0-218,5-265,5,0-17,.23-31,.23-39.11C143.56,662.56,200.58,614.22,224,593c-21-23-84-92-108-118,0-16,.81-37,.81-56.66C156,418,216,418,235,418c32,30,56,53,77.8,73.05,9.5-9,82.2-68.05,94.2-76.05H554v27C492,493,441,532,392,568Z" transform="translate(-16 -27.33)"/><path class="cls-9" d="M444,740H424c-5.72-1-252-246-266-259,0-5,.43-8,.43-16.06,14.57,0,12.57.06,21.57.06,21,21,236.5,232.5,264,260Z" transform="translate(-16 -27.33)"/></svg>