<svg id="Capa_1" data-name="Capa 1" xmlns="http://www.w3.org/2000/svg" viewBox="0 0 1072.29 1220"><defs><style>.cls-1{fill:#797774;}.cls-2{fill:#f9f9f9;}.cls-3{fill:#107c41;}.cls-4{fill:#fff;}.cls-5{fill:#134a2c;}.cls-6{fill:#33c380;}</style></defs><title>xlsb</title><path class="cls-1" d="M169,301.17H151.61c.16-91.51,1.07-183-.08-274.53-.29-22.35,6.72-27.41,28-27.33Q481.58.44,783.66-.54c13.94,0,23.79,3.86,33.59,13.74Q939.07,136,1062,257.75c10.09,10,13.14,20.21,13.13,33.84q-.46,450.27.28,900.53c.06,22.55-7.06,27.22-28.08,27.17q-433.89-.93-867.79,0c-21.26,0-28.25-5-28-27.32,1.14-91.5.23-183,.08-274.53H169c10.17,11.51,8.2,25.74,8.27,39.24.33,67.69-.17,135.38.28,203.06.2,30.66,2.79,33.57,32.68,33.6q403.47.48,806.94,0c29.93,0,32.22-2.58,32.24-33.7q.27-414.36,0-828.71c0-34.66-2.31-36.6-38-36.74-59.47-.23-118.94.21-178.41-.17-44.74-.28-52.16-7.81-52.49-53.37-.44-60.36.2-120.73-.27-181.1-.24-31.65-2.9-34.34-34.79-34.39q-266.22-.33-532.46,0c-33.15.05-35.32,2.45-35.48,36.4-.32,66.77.09,133.55-.23,200.32C177.2,275.44,179.17,289.66,169,301.17Z" transform="translate(-3.09 0.69)"/><path class="cls-2" d="M169,301.17c-.15-87.84.09-175.69-.8-263.52C168,21.19,172,15.79,189.42,15.84q289.68.93,579.36,0c18-.06,20.91,6.44,20.76,22.25-.71,71.36.51,142.76-.76,214.11-.44,24.77,7,34.12,32.75,33.62,71.37-1.39,142.78.07,214.16-.87,17.73-.23,23.11,4.53,23.07,22.74q-.83,436.47,0,873c0,19.14-6.88,22.1-23.7,22.08q-421.47-.66-842.95,0c-16.28,0-24.37-1.93-24.09-21.7,1.26-87.82.78-175.67.94-263.51" transform="translate(-3.09 0.69)"/><path class="cls-2" d="M1035.87,268.8c-70.14,0-142.81-.09-215.47.1-10.29,0-14.77-3.85-14.74-14.41.2-72.71.1-145.42.1-215.65Z" transform="translate(-3.09 0.69)"/><rect class="cls-3" y="298.12" width="621.92" height="621.77" rx="54.75"/><path class="cls-4" d="M228.63,429.39l51,76.9c13.31,20,24.4,38.45,36.23,58.41h2.22c11.83-21.44,23.67-39.93,35.5-59.15l50.29-76.16h70.25l-122,173L477.85,787.25h-74l-52.51-80.59C337.34,686,325.51,666,312.93,644.55h-1.47c-11.84,21.44-24.41,40.67-37.72,62.11L222,787.25H150.24l127.2-182.63L156.15,429.39Z" transform="translate(-3.09 0.69)"/><rect class="cls-1" x="667.91" y="599.06" width="324" height="37"/><rect class="cls-3" x="748.6" y="591.87" width="216" height="50" transform="translate(236.64 1474.16) rotate(-90)"/><rect class="cls-5" x="857.18" y="576.87" width="216" height="80" transform="translate(345.22 1582.74) rotate(-90)"/><rect class="cls-6" x="586.18" y="576.87" width="216" height="80" transform="translate(74.22 1311.74) rotate(-90)"/></svg>