<svg id="Capa_1" data-name="Capa 1" xmlns="http://www.w3.org/2000/svg" viewBox="0 0 1312.51 1303.65"><defs><style>.cls-1{fill:#797774;}.cls-2{fill:#f9f9f9;}.cls-3{fill:#107c41;}.cls-4{fill:#fff;}.cls-5{fill:#21a266;}</style></defs><title>xlsm</title><path class="cls-1" d="M177.41,326.21H160c.15-91.52,1.06-183-.09-274.54-.28-22.34,6.73-27.4,28-27.32Q490,25.48,792.07,24.5c13.94,0,23.78,3.86,33.59,13.74Q947.48,161,1070.37,282.79c10.09,10,13.14,20.2,13.12,33.84q-.45,450.26.29,900.53c.06,22.55-7.06,27.22-28.08,27.17q-433.89-.93-867.79,0c-21.26.05-28.26-5-28-27.32,1.15-91.5.24-183,.09-274.53h17.39c10.16,11.51,8.2,25.73,8.26,39.24.33,67.69-.16,135.37.29,203.06.2,30.65,2.79,33.57,32.68,33.6q403.47.46,806.93,0c29.94,0,32.23-2.59,32.25-33.71q.27-414.34,0-828.7c0-34.66-2.32-36.6-38-36.74-59.46-.23-118.93.21-178.4-.17-44.74-.28-52.17-7.81-52.5-53.37-.43-60.37.2-120.74-.26-181.1-.24-31.65-2.9-34.35-34.79-34.39q-266.23-.35-532.47,0c-33.15,0-35.31,2.45-35.47,36.4-.32,66.77.08,133.54-.24,200.31C185.61,300.47,187.57,314.7,177.41,326.21Z" transform="translate(-11.49 -24.35)"/><path class="cls-2" d="M177.41,326.21c-.15-87.84.09-175.69-.8-263.52-.17-16.46,3.84-21.87,21.21-21.81q289.68.93,579.36,0c18-.06,20.92,6.44,20.76,22.24-.7,71.37.52,142.76-.75,214.11-.45,24.77,7,34.13,32.75,33.62,71.37-1.38,142.78.07,214.16-.86,17.73-.24,23.11,4.53,23.07,22.74q-.83,436.47,0,873c0,19.15-6.88,22.11-23.69,22.08q-421.47-.65-842.95,0c-16.29,0-24.38-1.93-24.09-21.7,1.26-87.82.78-175.67.93-263.51" transform="translate(-11.49 -24.35)"/><path class="cls-2" d="M1044.27,293.84c-70.14,0-142.8-.09-215.47.1-10.28,0-14.76-3.85-14.74-14.41.2-72.71.11-145.42.11-215.65Z" transform="translate(-11.49 -24.35)"/><rect class="cls-3" y="298.12" width="621.92" height="621.77" rx="54.75"/><path class="cls-4" d="M237,454.43l51,76.9c13.31,20,24.41,38.44,36.24,58.41h2.22c11.83-21.45,23.66-39.93,35.5-59.15l50.28-76.16h70.26l-122,173L486.26,812.28h-74l-52.5-80.59c-14.05-20.7-25.89-40.66-38.46-62.1h-1.48c-11.83,21.44-24.4,40.66-37.71,62.1l-51.77,80.59H158.64l127.2-182.62L164.56,454.43Z" transform="translate(-11.49 -24.35)"/><path class="cls-5" d="M-91.83,670.47" transform="translate(-11.49 -24.35)"/><path class="cls-5" d="M1059.74,717.74c62.62,0,125.25-.12,187.88,0,47.46.12,75.85,28.57,76.28,76,.6,65.62.53,67.47-65.7,64.8-29.19-1.18-33.27,8.75-33,34.57,1.37,116.16.66,232.35.58,348.53,0,54.4-31.68,86.23-85.82,86.28q-185.16.13-370.32,0c-49.34-.05-77.52-28.23-77.78-77.2,0-26.72.11-44.72.11-62.72,28.46.08,87,0,97,0,0-45,0-269,0-387.87-1.22-48.91,41-84.79,82.86-83.07C934.4,719.64,997.11,717.73,1059.74,717.74Z" transform="translate(-11.49 -24.35)"/><path class="cls-2" d="M806.44,810.24c.17-49.81,25.8-75.75,75.42-76,101.7-.51,203.41.47,305.09-.67,20.58-.23,23.1,7.43,22.91,25-.85,79.9-.37,159.81-.4,239.72,0,80.81.79,161.64-.31,242.44-.72,52.21-47.07,84.6-90.65,64.5-28.71-13.25-39.48-37.81-39.93-68.61-.72-50.37-1.16-50.36-51-50.36-66.28,0-132.57.39-198.85.39-5.71,0-14.71.31-21.71.31" transform="translate(-11.49 -24.35)"/><path class="cls-1" d="M991.56,919.61c0-39,.27-77.92-.16-116.88-.14-12.32.76-20.12,16.9-20.11,17.06,0,16,9.53,16,20.92q-.22,115.51-.07,231c0,10.81,2.26,21.09-15.37,21.49-18.64.42-17.52-9.87-17.43-22.3C991.73,995.73,991.55,957.67,991.56,919.61Z" transform="translate(-11.49 -24.35)"/><path class="cls-1" d="M1024.27,1112.24c-2.15,9.64,7,25.1-15.69,25.53-21.65.4-16.89-13.34-16.9-25s-4.73-25.45,16.91-25C1028.56,1088.06,1023.59,1100.58,1024.27,1112.24Z" transform="translate(-11.49 -24.35)"/></svg>