<svg id="Capa_1" data-name="Capa 1" xmlns="http://www.w3.org/2000/svg" viewBox="0 0 1072.29 1220"><defs><style>.cls-1{fill:#797774;}.cls-2{fill:#f9f9f9;}.cls-3{fill:#21a266;}.cls-4{fill:#33c380;}.cls-5{fill:#107c41;}.cls-6{fill:#185c37;}.cls-7{fill:#134a2c;}.cls-8{fill:#fff;}</style></defs><title>xlsx</title><path class="cls-1" d="M170.63,324.86H153.24c.15-91.51,1.06-183-.09-274.53-.28-22.35,6.72-27.41,28-27.33q302.08,1.13,604.16.15c13.93,0,23.78,3.86,33.58,13.74Q940.7,159.7,1063.58,281.44c10.1,10,13.15,20.21,13.13,33.84q-.46,450.27.29,900.53c.06,22.55-7.06,27.22-28.09,27.17Q615,1242,181.13,1243c-21.26,0-28.26-5-28-27.32,1.15-91.5.24-183,.09-274.53h17.39c10.16,11.51,8.2,25.73,8.26,39.24.33,67.69-.16,135.38.28,203.06.21,30.66,2.8,33.57,32.69,33.6q403.47.46,806.93,0c29.94,0,32.23-2.59,32.25-33.71q.27-414.34,0-828.7c0-34.66-2.31-36.6-38-36.74-59.47-.23-118.94.21-178.4-.17-44.75-.28-52.17-7.81-52.5-53.37-.44-60.36.2-120.74-.26-181.1-.25-31.65-2.9-34.35-34.79-34.39q-266.23-.35-532.47,0c-33.15,0-35.31,2.45-35.47,36.4-.33,66.77.08,133.54-.24,200.32C178.83,299.12,180.79,313.35,170.63,324.86Z" transform="translate(-4.71 -23)"/><path class="cls-2" d="M170.63,324.86c-.15-87.84.08-175.69-.8-263.52-.17-16.46,3.84-21.86,21.21-21.81q289.68.93,579.36,0c18-.06,20.92,6.44,20.76,22.24-.71,71.37.52,142.76-.76,214.12-.44,24.76,7,34.12,32.76,33.62,71.36-1.39,142.78.07,214.16-.87,17.73-.23,23.1,4.53,23.07,22.74q-.84,436.47,0,873c0,19.14-6.88,22.1-23.69,22.07q-421.48-.65-843,0c-16.28,0-24.37-1.93-24.09-21.7,1.26-87.82.79-175.67.94-263.51" transform="translate(-4.71 -23)"/><path class="cls-2" d="M1037.49,292.49c-70.14,0-142.8-.09-215.47.1-10.28,0-14.77-3.85-14.74-14.41.2-72.71.11-145.42.11-215.65Z" transform="translate(-4.71 -23)"/><rect class="cls-3" x="652.33" y="485.51" width="150.36" height="55.76"/><rect class="cls-4" x="828.91" y="485.51" width="150.36" height="55.76"/><rect class="cls-5" x="652.33" y="578.47" width="150.36" height="55.76"/><rect class="cls-6" x="652.33" y="666.43" width="150.36" height="55.76"/><rect class="cls-3" x="828.91" y="578.47" width="150.36" height="55.76"/><rect class="cls-7" x="828.91" y="666.43" width="150.36" height="55.76"/><rect class="cls-5" y="298.12" width="621.92" height="621.77" rx="54.75"/><path class="cls-8" d="M230.25,453.08l51,76.9c13.31,20,24.41,38.44,36.24,58.41h2.22c11.83-21.44,23.66-39.93,35.49-59.15l50.29-76.16h70.26l-122,173L479.48,810.94h-74L353,730.35c-14.06-20.71-25.89-40.67-38.46-62.11h-1.48c-11.83,21.44-24.4,40.66-37.72,62.11L223.6,810.94H151.86l127.2-182.63L157.78,453.08Z" transform="translate(-4.71 -23)"/></svg>