<svg id="Capa_1" data-name="Capa 1" xmlns="http://www.w3.org/2000/svg" viewBox="0 0 1061 1061"><defs><style>.cls-1{fill:#d4d4d4;}.cls-2{fill:#5b5b5b;}.cls-3{fill:#5e5e5e;}.cls-4{fill:#5d5d5d;}.cls-5{fill:#bbb;}.cls-6{fill:#5c5c5c;}.cls-7{fill:#616161;}</style></defs><title>producto-sin-foto</title><path class="cls-1" d="M1070.21,23.21c0-11.44-1.37-14.22-9.34-14.2q-260.74.66-521.48.34Q279.19,9.35,19,9c-8.48,0-9.78,3.44-9.77,15.17q.34,516.19,0,1032.41c0,10.9,1.26,13.38,8.79,13.38q521.49-.56,1043,0c8.23,0,9.22-3.32,9.21-14.37Q1069.87,539.42,1070.21,23.21Z" transform="translate(-9.21 -9)"/><path class="cls-2" d="M539.42,672.73c-80,0-159.94.16-239.91-.06-44-.13-66.46-22.51-66.56-66.47q-.31-139.14,0-278.29c.1-46.45,22.79-68.66,69.63-68.75,56.78-.11,113.56-.31,170.34.28,8.92.09,25.06-6.25,24.42,9.79-.6,14.85-16.37,8.83-25.54,8.91-56.78.55-113.56.09-170.34.34-33.58.15-49,14.53-49.17,47.78q-.75,140.36,0,280.7c.14,31.77,15.41,46.35,47.56,46.39q238.71.3,477.42.09c35.77,0,49.27-13.58,49.37-49.47q.39-136.74,0-273.5c-.11-38.16-14.24-51.83-52.11-52-8,0-16-.45-24,.08-13.57.9-22-1.88-24.87-18.12C722,239.85,707,229.65,685.8,229.64q-46.78,0-93.56,0c-23.29,0-37.7,11.39-42.74,34-1.64,7.35-2.12,15.77-12.15,13.69-9.54-2-7.75-10.92-7-17.86,2.9-26.27,25.51-47.59,54.42-48.58,35.94-1.24,72-1.07,107.93,0,21.57.62,38.74,11.81,47,31.81,5.54,13.33,12.91,18.23,26.74,16.66,56.2-6.35,81.48,27.47,80.06,80.58-2.32,87.11-.65,174.32-.58,261.49,0,50.07-21.06,71.45-71.45,71.54q-117.56.21-235.11,0Z" transform="translate(-9.21 -9)"/><path class="cls-2" d="M499.69,468c-.29-79,60-140.55,138.13-141,75.95-.48,139,61.42,140.2,137.71,1.25,76.88-61.67,140.22-139.35,140.29C560.65,605,500,545.19,499.69,468Z" transform="translate(-9.21 -9)"/><path class="cls-3" d="M289.24,356.13c.52-18.49,10.94-28.82,28.19-28.87,16.28,0,27,10.63,27.42,27.23.44,18-10.63,28.9-28.14,28.69C300.73,383,290.44,373.21,289.24,356.13Z" transform="translate(-9.21 -9)"/><path class="cls-4" d="M638.49,259.25c15.07,0,30.14-.16,45.2.08,6.84.11,13.3,2.32,12.61,10.69-.73,8.81-8.45,8.24-14.59,8.28-29.35.19-58.69.05-88,.08-6.77,0-13.37-.75-13.48-9.39-.1-8.46,6.11-9.88,13.09-9.84,15.07.08,30.13,0,45.2,0Z" transform="translate(-9.21 -9)"/><path class="cls-3" d="M336.37,576.07c-11.88,0-23.76.14-35.64-.06-5.05-.08-9.66-1.85-10.18-7.73-.61-6.77,3.47-10.79,9.77-10.85,23.74-.25,47.5-.08,71.25.28,5.3.08,8.68,3.59,9,9.12.38,7.62-5,9.16-10.89,9.28-11.09.22-22.18.06-33.27.06Z" transform="translate(-9.21 -9)"/><path class="cls-1" d="M638,585.67c-67.84-.38-119.46-52.82-119-120.88C519.47,398,573.69,345.31,641,346.26c63.68.9,117.29,55.37,117.11,119C757.88,533,705,586.06,638,585.67Z" transform="translate(-9.21 -9)"/><path class="cls-5" d="M324.31,356.12c-.21,2.78-1.54,6.68-6.32,7-5.71.43-8.76-3-8.61-8.65A7.41,7.41,0,0,1,317,347C321.43,346.89,324,350.08,324.31,356.12Z" transform="translate(-9.21 -9)"/><path class="cls-6" d="M638.19,561.83c-54,0-95.25-41.52-95.4-95.82-.15-53.69,42-96,95.58-96.1,52.17-.08,97.28,45,96.37,96.35C733.79,520,691.53,561.87,638.19,561.83Z" transform="translate(-9.21 -9)"/><path class="cls-1" d="M562.51,465.78c.11-42.62,33.16-76,75.52-76.23,42.19-.25,75.85,33.41,75.94,76,.1,43.42-32.06,76.73-74.36,77C595.24,542.82,562.39,510.12,562.51,465.78Z" transform="translate(-9.21 -9)"/><path class="cls-7" d="M586.19,459.31c.95-21.25,24.17-44.59,45.52-45.93,5.9-.37,11.74-.24,13.76,6.45,2.43,8-2.08,11.17-9.58,12.93-16.91,4-28.7,13.35-30.89,32-.73,6.21-4.33,11-11.1,9.79C585.45,473,586.16,465.73,586.19,459.31Z" transform="translate(-9.21 -9)"/><path class="cls-2" d="M165.13,781.87v26.65h-8.27V738h19.38q11.31,0,17.53,5.51T200,759.05a21.34,21.34,0,0,1-6.91,16.42q-6.9,6.4-18.66,6.4Zm0-36.4v28.92h8.65q8.57,0,13.06-3.91t4.5-11q0-14-16.53-14Z" transform="translate(-9.21 -9)"/><path class="cls-2" d="M238.45,766.33a9.87,9.87,0,0,0-6.1-1.63q-5.16,0-8.63,4.87t-3.46,13.28v25.67h-8.07V758.16h8.07v10.38h.19a17.65,17.65,0,0,1,5.26-8.29,12,12,0,0,1,7.92-3,13.12,13.12,0,0,1,4.82.69Z" transform="translate(-9.21 -9)"/><path class="cls-2" d="M266.93,809.7q-11.17,0-17.83-7.05t-6.66-18.72q0-12.69,6.93-19.82T268.11,757q11.26,0,17.58,6.94T292,783.15q0,12-6.81,19.3T266.93,809.7Zm.59-45.93q-7.77,0-12.3,5.29t-4.52,14.58q0,9,4.57,14.11t12.25,5.17q7.82,0,12-5.07t4.21-14.41q0-9.44-4.21-14.56T267.52,763.77Z" transform="translate(-9.21 -9)"/><path class="cls-2" d="M347.88,808.52h-8.07V800h-.19q-5.61,9.74-17.32,9.73-9.48,0-15.17-6.76t-5.68-18.42q0-12.48,6.3-20T324.52,757q10.38,0,15.1,8.17h.19V734h8.07Zm-8.07-22.77v-7.42a14.4,14.4,0,0,0-4-10.33,13.53,13.53,0,0,0-10.23-4.23,13.92,13.92,0,0,0-11.61,5.41q-4.23,5.42-4.23,15,0,8.7,4.06,13.75a13.28,13.28,0,0,0,10.9,5,13.8,13.8,0,0,0,10.94-4.87A18.17,18.17,0,0,0,339.81,785.75Z" transform="translate(-9.21 -9)"/><path class="cls-2" d="M404.93,808.52h-8.07v-8h-.2q-5,9.13-15.54,9.14-18,0-18-21.44v-30.1h8V787q0,15.94,12.2,15.94a12.32,12.32,0,0,0,9.71-4.36q3.81-4.35,3.81-11.38v-29h8.07Z" transform="translate(-9.21 -9)"/><path class="cls-2" d="M455.53,806.21a26.19,26.19,0,0,1-13.77,3.49q-10.77,0-17.38-7t-6.62-18.18q0-12.43,7.13-20t19-7.55a26.49,26.49,0,0,1,11.7,2.46v8.26a20.53,20.53,0,0,0-12-3.93A16.19,16.19,0,0,0,431,769.3q-5,5.54-4.94,14.53t4.64,14q4.65,5.12,12.47,5.12a20.21,20.21,0,0,0,12.39-4.38Z" transform="translate(-9.21 -9)"/><path class="cls-2" d="M491.09,808a15.53,15.53,0,0,1-7.52,1.58q-13.23,0-13.23-14.76v-29.8h-8.66v-6.89h8.66V745.87l8.06-2.61v14.9h12.69v6.89H478.4v28.37c0,3.38.58,5.79,1.72,7.23s3.05,2.17,5.71,2.17a8.5,8.5,0,0,0,5.26-1.67Z" transform="translate(-9.21 -9)"/><path class="cls-2" d="M522.12,809.7q-11.16,0-17.82-7.05t-6.67-18.72q0-12.69,6.94-19.82T523.3,757q11.26,0,17.59,6.94t6.32,19.23q0,12-6.82,19.3T522.12,809.7Zm.59-45.93q-7.77,0-12.29,5.29t-4.53,14.58q0,9,4.58,14.11t12.24,5.17c5.22,0,9.22-1.69,12-5.07s4.2-8.18,4.2-14.41-1.4-11.15-4.2-14.56S527.93,763.77,522.71,763.77Z" transform="translate(-9.21 -9)"/><path class="cls-2" d="M584.63,806.7v-8.65a23.9,23.9,0,0,0,14.51,4.87q10.62,0,10.62-7.09a6.09,6.09,0,0,0-.91-3.41,8.94,8.94,0,0,0-2.46-2.49,18.53,18.53,0,0,0-3.64-1.94q-2.09-.86-4.5-1.79a59.33,59.33,0,0,1-5.87-2.68,18,18,0,0,1-4.23-3,11.42,11.42,0,0,1-2.56-3.86,13.8,13.8,0,0,1-.86-5.07,12.05,12.05,0,0,1,1.62-6.27,14.3,14.3,0,0,1,4.33-4.57,20.07,20.07,0,0,1,6.17-2.78A27.1,27.1,0,0,1,604,757a28.83,28.83,0,0,1,11.7,2.27v8.16a22.75,22.75,0,0,0-12.78-3.64,14.81,14.81,0,0,0-4.09.52,9.77,9.77,0,0,0-3.12,1.45,6.65,6.65,0,0,0-2,2.23,5.86,5.86,0,0,0-.72,2.88,6.88,6.88,0,0,0,.72,3.3,7.31,7.31,0,0,0,2.08,2.36,16.17,16.17,0,0,0,3.35,1.87q2,.82,4.48,1.82a64.23,64.23,0,0,1,6,2.63,20.64,20.64,0,0,1,4.52,3,12.06,12.06,0,0,1,2.88,3.91,12.63,12.63,0,0,1,1,5.26,12.4,12.4,0,0,1-1.64,6.49,14.11,14.11,0,0,1-4.4,4.57,20.11,20.11,0,0,1-6.35,2.71,31.29,31.29,0,0,1-7.52.88A28.58,28.58,0,0,1,584.63,806.7Z" transform="translate(-9.21 -9)"/><path class="cls-2" d="M634.55,745.38a5.14,5.14,0,0,1-3.69-1.48,5,5,0,0,1-1.52-3.74,5.16,5.16,0,0,1,5.21-5.26,5.21,5.21,0,0,1,3.76,1.5,5,5,0,0,1,1.55,3.76,5,5,0,0,1-1.55,3.69A5.15,5.15,0,0,1,634.55,745.38Zm3.93,63.14h-8.06V758.16h8.06Z" transform="translate(-9.21 -9)"/><path class="cls-2" d="M696.61,808.52h-8.06V779.8q0-16-11.71-16a12.68,12.68,0,0,0-10,4.55,16.85,16.85,0,0,0-4,11.48v28.72h-8.07V758.16h8.07v8.36h.19Q668.79,757,679.6,757q8.26,0,12.64,5.34t4.37,15.42Z" transform="translate(-9.21 -9)"/><path class="cls-2" d="M776.29,745.47H748.75v24.4h25.47v7.42H748.75v31.23h-8.27V738h35.81Z" transform="translate(-9.21 -9)"/><path class="cls-2" d="M809.63,809.7q-11.16,0-17.83-7.05t-6.66-18.72q0-12.69,6.93-19.82T810.81,757q11.27,0,17.58,6.94t6.32,19.23q0,12-6.81,19.3T809.63,809.7Zm.59-45.93q-7.77,0-12.3,5.29t-4.52,14.58q0,9,4.57,14.11t12.25,5.17q7.81,0,12-5.07t4.2-14.41q0-9.44-4.2-14.56T810.22,763.77Z" transform="translate(-9.21 -9)"/><path class="cls-2" d="M871,808a15.54,15.54,0,0,1-7.53,1.58q-13.23,0-13.23-14.76v-29.8h-8.65v-6.89h8.65V745.87l8.07-2.61v14.9H871v6.89H858.27v28.37q0,5.07,1.72,7.23t5.71,2.17a8.52,8.52,0,0,0,5.26-1.67Z" transform="translate(-9.21 -9)"/><path class="cls-2" d="M902,809.7q-11.16,0-17.83-7.05t-6.66-18.72q0-12.69,6.93-19.82T903.17,757q11.26,0,17.58,6.94t6.32,19.23q0,12-6.81,19.3T902,809.7Zm.59-45.93q-7.77,0-12.29,5.29t-4.53,14.58q0,9,4.57,14.11t12.25,5.17q7.81,0,12-5.07t4.2-14.41q0-9.44-4.2-14.56T902.58,763.77Z" transform="translate(-9.21 -9)"/></svg>